<svg width="477" height="183" viewBox="0 0 477 183" fill="none" xmlns="http://www.w3.org/2000/svg">
<mask id="path-1-outside-1_403_4" maskUnits="userSpaceOnUse" x="22.9204" y="-0.0400391" width="432" height="81" fill="black">
<rect fill="white" x="22.9204" y="-0.0400391" width="432" height="81"/>
<path d="M38.4902 2.83334C36.7392 3.81589 35.9732 5.45346 35.9732 9.27449V71.175C35.9732 74.9961 36.7392 76.6336 38.4902 77.6162C38.4902 77.8345 38.4902 78.3804 38.4902 78.3804H24.9204C24.9204 78.3804 24.9204 77.8345 24.9204 77.6162C26.5619 76.6336 27.3279 74.9961 27.3279 71.175V9.27449C27.3279 5.45346 26.5619 3.81589 24.9204 2.83334C24.9204 2.615 24.9204 1.95996 24.9204 1.95996H38.4902C38.4902 1.95996 38.4902 2.615 38.4902 2.83334Z"/>
<path d="M98.252 71.175C98.6897 75.1052 99.6746 76.6336 101.316 77.6162C101.316 77.8345 101.316 78.3804 101.316 78.3804H87.7464C87.7464 78.3804 87.7464 77.8345 87.7464 77.6162C89.4973 76.6336 89.935 74.7777 89.6067 71.175C89.2784 67.5724 87.6369 49.1223 87.0898 43.4453C86.3237 35.2574 82.2747 25.9778 72.8634 27.8337C60.6068 30.2355 58.3087 53.0525 58.3087 62.2229V71.175C58.3087 74.9961 59.0748 76.6336 60.8257 77.6162C60.8257 77.8345 60.8257 78.3804 60.8257 78.3804H47.256C47.256 78.3804 47.256 77.8345 47.256 77.6162C48.8975 76.6336 49.6635 74.9961 49.6635 71.175V34.2749C49.6635 30.4539 49.3352 29.3621 47.256 29.0346C47.256 28.8163 47.256 28.2704 47.256 28.2704L57.5427 25.8686H58.3087V52.9433C59.7314 40.716 63.4521 25.8686 77.6785 25.8686C86.652 25.8686 94.3124 31.9823 95.6256 45.0829C96.7199 55.6726 97.8142 67.1357 98.252 71.175Z"/>
<path d="M152.958 26.742C148.253 31.5456 144.423 36.895 140.374 46.9388L131.072 70.0833L134.574 78.3804H125.928L112.359 46.5022C107.762 35.8033 105.464 31.1089 100.212 26.742V25.8686H116.955V26.742C114.11 29.6897 115.094 32.6373 117.611 38.7509L130.634 69.1008L139.608 46.8297C143.657 36.7858 144.86 30.7814 140.045 26.742V25.8686H152.958V26.742Z"/>
<path d="M168.383 71.175C168.383 74.9961 169.149 76.6336 170.9 77.6162C170.9 77.8345 170.9 78.3804 170.9 78.3804H157.331C157.331 78.3804 157.331 77.8345 157.331 77.6162C158.972 76.6336 159.738 74.9961 159.738 71.175V34.2749C159.738 30.4539 159.41 29.3621 157.331 29.0346C157.331 28.8163 157.331 28.2704 157.331 28.2704L167.617 25.8686H168.383V71.175ZM163.787 17.0257C160.942 17.0257 158.644 14.7331 158.644 11.8946C158.644 9.05614 160.942 6.76353 163.787 6.76353C166.633 6.76353 168.931 9.05614 168.931 11.8946C168.931 14.7331 166.633 17.0257 163.787 17.0257Z"/>
<path d="M217.337 59.0569L217.884 59.2753C215.805 69.5375 211.209 79.0354 199.718 79.0354C189.979 79.0354 183.96 72.7035 183.96 59.8211V26.742H177.503V25.8686C186.805 25.8686 187.571 16.1523 187.571 10.9121H196.216C196.216 19.3183 187.899 25.5411 181.333 25.8686H205.518V26.742H192.605V61.4587C192.605 70.9567 195.231 78.2712 204.533 77.0703C211.756 76.0878 215.367 67.4632 217.337 59.0569Z"/>
<path d="M265.557 77.6162C265.557 77.8345 265.557 78.3804 265.557 78.3804H254.504V63.0963C251.659 72.7035 245.64 79.0354 235.134 79.0354C226.161 79.0354 217.406 74.7777 215.984 66.9173C214.123 55.7818 220.799 49.2315 229.225 45.738C226.38 39.406 229.772 25.8686 244.436 25.8686C253.519 25.8686 263.149 30.6722 263.149 44.1004V71.175C263.149 74.9961 263.915 76.6336 265.557 77.6162ZM243.451 26.9604C233.602 26.9604 227.036 36.4583 230.319 45.3013C236.229 43.1178 242.795 42.3536 247.938 42.3536C250.455 42.3536 252.644 42.7903 254.504 43.3362V42.572C254.504 34.2749 251.221 26.9604 243.451 26.9604ZM237.761 77.6162C247.282 77.0703 252.316 68.9916 254.504 61.1312V44.3187C253.957 44.1004 251.331 43.3362 247.938 43.3362C236.01 43.3362 219.814 49.2315 224.519 68.4457C225.942 74.341 232.289 77.9437 237.761 77.6162Z"/>
<path d="M310.847 59.0569L311.394 59.2753C309.315 69.5375 304.719 79.0354 293.228 79.0354C283.489 79.0354 277.47 72.7035 277.47 59.8211V26.742H271.013V25.8686C280.315 25.8686 281.081 16.1523 281.081 10.9121H289.726C289.726 19.3183 281.409 25.5411 274.843 25.8686H299.028V26.742H286.115V61.4587C286.115 70.9567 288.741 78.2712 298.043 77.0703C305.266 76.0878 308.877 67.4632 310.847 59.0569Z"/>
<path d="M323.557 71.175C323.557 74.9961 324.323 76.6336 326.074 77.6162C326.074 77.8345 326.074 78.3804 326.074 78.3804H312.504C312.504 78.3804 312.504 77.8345 312.504 77.6162C314.145 76.6336 314.911 74.9961 314.911 71.175V34.2749C314.911 30.4539 314.583 29.3621 312.504 29.0346C312.504 28.8163 312.504 28.2704 312.504 28.2704L322.791 25.8686H323.557V71.175ZM318.961 17.0257C316.115 17.0257 313.817 14.7331 313.817 11.8946C313.817 9.05614 316.115 6.76353 318.961 6.76353C321.806 6.76353 324.104 9.05614 324.104 11.8946C324.104 14.7331 321.806 17.0257 318.961 17.0257Z"/>
<path d="M363.427 25.8686C378.091 25.8686 390.786 35.0391 390.786 50.1048C390.786 67.5724 375.793 79.0354 361.129 79.0354C346.356 79.0354 333.771 70.0833 333.771 54.7992C333.771 36.7858 348.763 25.8686 363.427 25.8686ZM369.556 77.0703C382.031 73.4677 385.423 59.8212 381.593 46.6113C377.763 33.5107 367.476 24.2311 355.001 27.8337C342.525 31.4364 339.133 45.0829 342.963 58.2927C346.793 71.3934 357.08 80.7822 369.556 77.0703Z"/>
<path d="M449.422 71.175C449.86 75.1052 450.845 76.6336 452.486 77.6162C452.486 77.8345 452.486 78.3804 452.486 78.3804H438.917C438.917 78.3804 438.917 77.8345 438.917 77.6162C440.668 76.6336 441.105 74.7777 440.777 71.175C440.449 67.5724 438.807 49.1223 438.26 43.4453C437.494 35.2574 433.445 25.9778 424.034 27.8337C411.777 30.2355 409.479 53.0525 409.479 62.2229V71.175C409.479 74.9961 410.245 76.6336 411.996 77.6162C411.996 77.8345 411.996 78.3804 411.996 78.3804H398.426C398.426 78.3804 398.426 77.8345 398.426 77.6162C400.068 76.6336 400.834 74.9961 400.834 71.175V34.2749C400.834 30.4539 400.506 29.3621 398.426 29.0346C398.426 28.8163 398.426 28.2704 398.426 28.2704L408.713 25.8686H409.479V52.9433C410.902 40.716 414.622 25.8686 428.849 25.8686C437.822 25.8686 445.483 31.9823 446.796 45.0829C447.89 55.6726 448.985 67.1357 449.422 71.175Z"/>
</mask>
<path d="M38.4902 2.83334C36.7392 3.81589 35.9732 5.45346 35.9732 9.27449V71.175C35.9732 74.9961 36.7392 76.6336 38.4902 77.6162C38.4902 77.8345 38.4902 78.3804 38.4902 78.3804H24.9204C24.9204 78.3804 24.9204 77.8345 24.9204 77.6162C26.5619 76.6336 27.3279 74.9961 27.3279 71.175V9.27449C27.3279 5.45346 26.5619 3.81589 24.9204 2.83334C24.9204 2.615 24.9204 1.95996 24.9204 1.95996H38.4902C38.4902 1.95996 38.4902 2.615 38.4902 2.83334Z" stroke="white" stroke-width="3.6" mask="url(#path-1-outside-1_403_4)"/>
<path d="M98.252 71.175C98.6897 75.1052 99.6746 76.6336 101.316 77.6162C101.316 77.8345 101.316 78.3804 101.316 78.3804H87.7464C87.7464 78.3804 87.7464 77.8345 87.7464 77.6162C89.4973 76.6336 89.935 74.7777 89.6067 71.175C89.2784 67.5724 87.6369 49.1223 87.0898 43.4453C86.3237 35.2574 82.2747 25.9778 72.8634 27.8337C60.6068 30.2355 58.3087 53.0525 58.3087 62.2229V71.175C58.3087 74.9961 59.0748 76.6336 60.8257 77.6162C60.8257 77.8345 60.8257 78.3804 60.8257 78.3804H47.256C47.256 78.3804 47.256 77.8345 47.256 77.6162C48.8975 76.6336 49.6635 74.9961 49.6635 71.175V34.2749C49.6635 30.4539 49.3352 29.3621 47.256 29.0346C47.256 28.8163 47.256 28.2704 47.256 28.2704L57.5427 25.8686H58.3087V52.9433C59.7314 40.716 63.4521 25.8686 77.6785 25.8686C86.652 25.8686 94.3124 31.9823 95.6256 45.0829C96.7199 55.6726 97.8142 67.1357 98.252 71.175Z" stroke="white" stroke-width="3.6" mask="url(#path-1-outside-1_403_4)"/>
<path d="M152.958 26.742C148.253 31.5456 144.423 36.895 140.374 46.9388L131.072 70.0833L134.574 78.3804H125.928L112.359 46.5022C107.762 35.8033 105.464 31.1089 100.212 26.742V25.8686H116.955V26.742C114.11 29.6897 115.094 32.6373 117.611 38.7509L130.634 69.1008L139.608 46.8297C143.657 36.7858 144.86 30.7814 140.045 26.742V25.8686H152.958V26.742Z" stroke="white" stroke-width="3.6" mask="url(#path-1-outside-1_403_4)"/>
<path d="M168.383 71.175C168.383 74.9961 169.149 76.6336 170.9 77.6162C170.9 77.8345 170.9 78.3804 170.9 78.3804H157.331C157.331 78.3804 157.331 77.8345 157.331 77.6162C158.972 76.6336 159.738 74.9961 159.738 71.175V34.2749C159.738 30.4539 159.41 29.3621 157.331 29.0346C157.331 28.8163 157.331 28.2704 157.331 28.2704L167.617 25.8686H168.383V71.175ZM163.787 17.0257C160.942 17.0257 158.644 14.7331 158.644 11.8946C158.644 9.05614 160.942 6.76353 163.787 6.76353C166.633 6.76353 168.931 9.05614 168.931 11.8946C168.931 14.7331 166.633 17.0257 163.787 17.0257Z" stroke="white" stroke-width="3.6" mask="url(#path-1-outside-1_403_4)"/>
<path d="M217.337 59.0569L217.884 59.2753C215.805 69.5375 211.209 79.0354 199.718 79.0354C189.979 79.0354 183.96 72.7035 183.96 59.8211V26.742H177.503V25.8686C186.805 25.8686 187.571 16.1523 187.571 10.9121H196.216C196.216 19.3183 187.899 25.5411 181.333 25.8686H205.518V26.742H192.605V61.4587C192.605 70.9567 195.231 78.2712 204.533 77.0703C211.756 76.0878 215.367 67.4632 217.337 59.0569Z" stroke="white" stroke-width="3.6" mask="url(#path-1-outside-1_403_4)"/>
<path d="M265.557 77.6162C265.557 77.8345 265.557 78.3804 265.557 78.3804H254.504V63.0963C251.659 72.7035 245.64 79.0354 235.134 79.0354C226.161 79.0354 217.406 74.7777 215.984 66.9173C214.123 55.7818 220.799 49.2315 229.225 45.738C226.38 39.406 229.772 25.8686 244.436 25.8686C253.519 25.8686 263.149 30.6722 263.149 44.1004V71.175C263.149 74.9961 263.915 76.6336 265.557 77.6162ZM243.451 26.9604C233.602 26.9604 227.036 36.4583 230.319 45.3013C236.229 43.1178 242.795 42.3536 247.938 42.3536C250.455 42.3536 252.644 42.7903 254.504 43.3362V42.572C254.504 34.2749 251.221 26.9604 243.451 26.9604ZM237.761 77.6162C247.282 77.0703 252.316 68.9916 254.504 61.1312V44.3187C253.957 44.1004 251.331 43.3362 247.938 43.3362C236.01 43.3362 219.814 49.2315 224.519 68.4457C225.942 74.341 232.289 77.9437 237.761 77.6162Z" stroke="white" stroke-width="3.6" mask="url(#path-1-outside-1_403_4)"/>
<path d="M310.847 59.0569L311.394 59.2753C309.315 69.5375 304.719 79.0354 293.228 79.0354C283.489 79.0354 277.47 72.7035 277.47 59.8211V26.742H271.013V25.8686C280.315 25.8686 281.081 16.1523 281.081 10.9121H289.726C289.726 19.3183 281.409 25.5411 274.843 25.8686H299.028V26.742H286.115V61.4587C286.115 70.9567 288.741 78.2712 298.043 77.0703C305.266 76.0878 308.877 67.4632 310.847 59.0569Z" stroke="white" stroke-width="3.6" mask="url(#path-1-outside-1_403_4)"/>
<path d="M323.557 71.175C323.557 74.9961 324.323 76.6336 326.074 77.6162C326.074 77.8345 326.074 78.3804 326.074 78.3804H312.504C312.504 78.3804 312.504 77.8345 312.504 77.6162C314.145 76.6336 314.911 74.9961 314.911 71.175V34.2749C314.911 30.4539 314.583 29.3621 312.504 29.0346C312.504 28.8163 312.504 28.2704 312.504 28.2704L322.791 25.8686H323.557V71.175ZM318.961 17.0257C316.115 17.0257 313.817 14.7331 313.817 11.8946C313.817 9.05614 316.115 6.76353 318.961 6.76353C321.806 6.76353 324.104 9.05614 324.104 11.8946C324.104 14.7331 321.806 17.0257 318.961 17.0257Z" stroke="white" stroke-width="3.6" mask="url(#path-1-outside-1_403_4)"/>
<path d="M363.427 25.8686C378.091 25.8686 390.786 35.0391 390.786 50.1048C390.786 67.5724 375.793 79.0354 361.129 79.0354C346.356 79.0354 333.771 70.0833 333.771 54.7992C333.771 36.7858 348.763 25.8686 363.427 25.8686ZM369.556 77.0703C382.031 73.4677 385.423 59.8212 381.593 46.6113C377.763 33.5107 367.476 24.2311 355.001 27.8337C342.525 31.4364 339.133 45.0829 342.963 58.2927C346.793 71.3934 357.08 80.7822 369.556 77.0703Z" stroke="white" stroke-width="3.6" mask="url(#path-1-outside-1_403_4)"/>
<path d="M449.422 71.175C449.86 75.1052 450.845 76.6336 452.486 77.6162C452.486 77.8345 452.486 78.3804 452.486 78.3804H438.917C438.917 78.3804 438.917 77.8345 438.917 77.6162C440.668 76.6336 441.105 74.7777 440.777 71.175C440.449 67.5724 438.807 49.1223 438.26 43.4453C437.494 35.2574 433.445 25.9778 424.034 27.8337C411.777 30.2355 409.479 53.0525 409.479 62.2229V71.175C409.479 74.9961 410.245 76.6336 411.996 77.6162C411.996 77.8345 411.996 78.3804 411.996 78.3804H398.426C398.426 78.3804 398.426 77.8345 398.426 77.6162C400.068 76.6336 400.834 74.9961 400.834 71.175V34.2749C400.834 30.4539 400.506 29.3621 398.426 29.0346C398.426 28.8163 398.426 28.2704 398.426 28.2704L408.713 25.8686H409.479V52.9433C410.902 40.716 414.622 25.8686 428.849 25.8686C437.822 25.8686 445.483 31.9823 446.796 45.0829C447.89 55.6726 448.985 67.1357 449.422 71.175Z" stroke="white" stroke-width="3.6" mask="url(#path-1-outside-1_403_4)"/>
<mask id="path-2-outside-2_403_4" maskUnits="userSpaceOnUse" x="0" y="101.2" width="477" height="81" fill="black">
<rect fill="white" y="101.2" width="477" height="81"/>
<path d="M46.2358 160.043C52.696 171.28 56.1998 174.99 60.4701 178.808V179.572H43.6079V178.808C46.4548 175.972 44.1554 172.044 39.8851 164.516L28.1692 144.114C26.5268 144.223 24.8844 144.332 23.242 144.332H13.059V172.371C13.059 176.19 13.8254 177.827 15.4678 178.808C15.4678 179.027 15.4678 179.572 15.4678 179.572H2C2 179.572 2 179.027 2 178.808C3.64242 177.827 4.40888 176.19 4.40888 172.371V110.51C4.40888 106.582 3.64242 105.055 2 104.073C2 103.855 2 103.2 2 103.2H23.242C40.2136 103.2 55.5429 109.528 55.5429 123.821C55.5429 134.076 47.3308 140.295 36.3813 142.805L46.2358 160.043ZM23.242 143.459C43.9364 143.459 46.8928 132.222 46.8928 123.821C46.8928 115.311 44.0459 104.073 23.242 104.073H13.059V143.459H23.242Z"/>
<path d="M103.824 144.332C110.065 145.969 115.759 152.296 114.883 162.225C114.226 169.971 107.328 180.227 91.7796 180.227C76.6693 180.227 62.1065 172.808 61.6686 154.806C61.1211 135.931 78.3117 127.748 90.3562 127.094C99.6632 126.657 112.474 131.131 114.007 144.332C113.022 144.332 106.233 144.332 106.233 144.332H103.824ZM85.4289 128.403C77.9833 129.821 73.1655 136.04 71.1946 143.459H106.123C104.7 133.967 96.1594 126.33 85.4289 128.403ZM113.897 162.443C115.211 151.096 107.656 144.332 99.3347 144.332H70.9756C69.5522 150.114 69.8807 156.552 71.7421 161.788C75.7934 173.244 84.0055 178.263 95.1739 177.827C104.59 177.39 112.803 170.953 113.897 162.443Z"/>
<path d="M202.656 172.371C203.094 176.299 204.079 177.827 205.722 178.808C205.722 179.027 205.722 179.572 205.722 179.572H192.254C192.254 179.572 192.254 179.027 192.254 178.808C193.896 177.827 194.444 175.972 194.115 172.371C193.677 168.771 192.144 150.333 191.597 144.659C190.721 136.477 187.545 127.203 179.005 129.058C168.931 131.24 167.617 148.151 167.508 159.606V172.371C167.508 176.19 168.274 177.827 169.917 178.808C169.917 179.027 169.917 179.572 169.917 179.572H156.449C156.449 179.572 156.449 179.027 156.449 178.808C158.091 177.827 158.858 176.19 158.858 172.371V144.659C158.858 136.367 155.026 127.421 146.485 129.058C134.222 131.349 133.674 154.151 133.674 163.425V172.371C133.674 176.19 134.55 177.827 136.192 178.808C136.192 179.027 136.192 179.572 136.192 179.572H122.615C122.615 179.572 122.615 179.027 122.615 178.808C124.258 177.827 125.134 176.19 125.134 172.371V135.495C125.134 131.676 124.805 130.585 122.615 130.258C122.615 130.04 122.615 129.494 122.615 129.494L132.908 127.094H133.674V151.315C134.879 139.75 138.163 127.094 151.303 127.094C159.734 127.094 166.96 134.295 167.398 146.296L167.508 147.496C168.822 136.913 172.873 127.094 183.932 127.094C192.582 127.094 198.714 133.531 200.028 146.296C201.232 156.879 202.218 168.335 202.656 172.371Z"/>
<path d="M222.318 172.371C222.318 176.19 223.084 177.827 224.836 178.808C224.836 179.027 224.836 179.572 224.836 179.572H211.259C211.259 179.572 211.259 179.027 211.259 178.808C212.901 177.827 213.668 176.19 213.668 172.371V135.495C213.668 131.676 213.339 130.585 211.259 130.258C211.259 130.04 211.259 129.494 211.259 129.494L221.551 127.094H222.318V172.371ZM217.719 118.256C214.872 118.256 212.573 115.965 212.573 113.129C212.573 110.292 214.872 108.001 217.719 108.001C220.566 108.001 222.865 110.292 222.865 113.129C222.865 115.965 220.566 118.256 217.719 118.256Z"/>
<path d="M283.562 172.371C284 176.299 284.985 177.827 286.628 178.808C286.628 179.027 286.628 179.572 286.628 179.572H273.05C273.05 179.572 273.05 179.027 273.05 178.808C274.802 177.827 275.24 175.972 274.912 172.371C274.583 168.771 272.941 150.333 272.393 144.659C271.627 136.477 267.576 127.203 258.159 129.058C245.896 131.458 243.596 154.26 243.596 163.425V172.371C243.596 176.19 244.363 177.827 246.115 178.808C246.115 179.027 246.115 179.572 246.115 179.572H232.537C232.537 179.572 232.537 179.027 232.537 178.808C234.18 177.827 234.946 176.19 234.946 172.371V135.495C234.946 131.676 234.618 130.585 232.537 130.258C232.537 130.04 232.537 129.494 232.537 129.494L242.83 127.094H243.596V154.151C245.02 141.932 248.743 127.094 262.977 127.094C271.955 127.094 279.62 133.203 280.934 146.296C282.029 156.879 283.124 168.335 283.562 172.371Z"/>
<path d="M303.155 172.371C303.155 176.19 303.922 177.827 305.674 178.808C305.674 179.027 305.674 179.572 305.674 179.572H292.097C292.097 179.572 292.097 179.027 292.097 178.808C293.739 177.827 294.505 176.19 294.505 172.371V135.495C294.505 131.676 294.177 130.585 292.097 130.258C292.097 130.04 292.097 129.494 292.097 129.494L302.389 127.094H303.155V172.371ZM298.557 118.256C295.71 118.256 293.41 115.965 293.41 113.129C293.41 110.292 295.71 108.001 298.557 108.001C301.404 108.001 303.703 110.292 303.703 113.129C303.703 115.965 301.404 118.256 298.557 118.256Z"/>
<path d="M334.533 127.094C340.227 127.094 347.673 130.694 352.052 134.076L349.863 144.114H349.315C345.921 134.84 338.913 128.076 332.672 128.076C325.226 128.076 321.066 132.222 320.518 136.695C318.985 151.315 355.885 147.387 354.68 165.171C354.023 173.79 345.921 180.227 333.657 180.227C324.788 180.227 318.219 177.281 312.306 172.917L314.605 162.007H315.153C318.876 169.644 327.088 178.699 336.833 178.699C344.716 178.699 350.629 174.663 351.286 169.971C353.366 155.679 315.153 162.007 317.781 140.622C318.657 133.531 322.598 127.094 334.533 127.094Z"/>
<path d="M371.46 161.788C375.511 173.244 384.818 179.354 395.877 178.263C406.717 177.172 412.63 167.571 414.381 164.516L415.038 164.843C411.644 170.953 405.184 179.463 392.154 180.227C377.044 180.991 361.934 172.808 361.496 154.806C360.948 135.931 378.139 127.094 390.183 127.094C396.424 127.094 405.184 129.93 410.878 132.876L409.235 141.932H408.578C405.95 135.386 395.548 126.003 385.256 128.403C371.788 131.458 366.861 148.696 371.46 161.788Z"/>
<path d="M463.852 144.332C470.093 145.969 475.787 152.296 474.911 162.225C474.254 169.971 467.355 180.227 451.807 180.227C436.697 180.227 422.134 172.808 421.696 154.806C421.149 135.931 438.339 127.748 450.384 127.094C459.691 126.657 472.502 131.131 474.035 144.332C473.049 144.332 466.26 144.332 466.26 144.332H463.852ZM445.457 128.403C438.011 129.821 433.193 136.04 431.222 143.459H466.151C464.728 133.967 456.187 126.33 445.457 128.403ZM473.925 162.443C475.239 151.096 467.684 144.332 459.362 144.332H431.003C429.58 150.114 429.908 156.552 431.77 161.788C435.821 173.244 444.033 178.263 455.202 177.827C464.618 177.39 472.83 170.953 473.925 162.443Z"/>
</mask>
<path d="M46.2358 160.043C52.696 171.28 56.1998 174.99 60.4701 178.808V179.572H43.6079V178.808C46.4548 175.972 44.1554 172.044 39.8851 164.516L28.1692 144.114C26.5268 144.223 24.8844 144.332 23.242 144.332H13.059V172.371C13.059 176.19 13.8254 177.827 15.4678 178.808C15.4678 179.027 15.4678 179.572 15.4678 179.572H2C2 179.572 2 179.027 2 178.808C3.64242 177.827 4.40888 176.19 4.40888 172.371V110.51C4.40888 106.582 3.64242 105.055 2 104.073C2 103.855 2 103.2 2 103.2H23.242C40.2136 103.2 55.5429 109.528 55.5429 123.821C55.5429 134.076 47.3308 140.295 36.3813 142.805L46.2358 160.043ZM23.242 143.459C43.9364 143.459 46.8928 132.222 46.8928 123.821C46.8928 115.311 44.0459 104.073 23.242 104.073H13.059V143.459H23.242Z" stroke="white" stroke-width="3.6" mask="url(#path-2-outside-2_403_4)"/>
<path d="M103.824 144.332C110.065 145.969 115.759 152.296 114.883 162.225C114.226 169.971 107.328 180.227 91.7796 180.227C76.6693 180.227 62.1065 172.808 61.6686 154.806C61.1211 135.931 78.3117 127.748 90.3562 127.094C99.6632 126.657 112.474 131.131 114.007 144.332C113.022 144.332 106.233 144.332 106.233 144.332H103.824ZM85.4289 128.403C77.9833 129.821 73.1655 136.04 71.1946 143.459H106.123C104.7 133.967 96.1594 126.33 85.4289 128.403ZM113.897 162.443C115.211 151.096 107.656 144.332 99.3347 144.332H70.9756C69.5522 150.114 69.8807 156.552 71.7421 161.788C75.7934 173.244 84.0055 178.263 95.1739 177.827C104.59 177.39 112.803 170.953 113.897 162.443Z" stroke="white" stroke-width="3.6" mask="url(#path-2-outside-2_403_4)"/>
<path d="M202.656 172.371C203.094 176.299 204.079 177.827 205.722 178.808C205.722 179.027 205.722 179.572 205.722 179.572H192.254C192.254 179.572 192.254 179.027 192.254 178.808C193.896 177.827 194.444 175.972 194.115 172.371C193.677 168.771 192.144 150.333 191.597 144.659C190.721 136.477 187.545 127.203 179.005 129.058C168.931 131.24 167.617 148.151 167.508 159.606V172.371C167.508 176.19 168.274 177.827 169.917 178.808C169.917 179.027 169.917 179.572 169.917 179.572H156.449C156.449 179.572 156.449 179.027 156.449 178.808C158.091 177.827 158.858 176.19 158.858 172.371V144.659C158.858 136.367 155.026 127.421 146.485 129.058C134.222 131.349 133.674 154.151 133.674 163.425V172.371C133.674 176.19 134.55 177.827 136.192 178.808C136.192 179.027 136.192 179.572 136.192 179.572H122.615C122.615 179.572 122.615 179.027 122.615 178.808C124.258 177.827 125.134 176.19 125.134 172.371V135.495C125.134 131.676 124.805 130.585 122.615 130.258C122.615 130.04 122.615 129.494 122.615 129.494L132.908 127.094H133.674V151.315C134.879 139.75 138.163 127.094 151.303 127.094C159.734 127.094 166.96 134.295 167.398 146.296L167.508 147.496C168.822 136.913 172.873 127.094 183.932 127.094C192.582 127.094 198.714 133.531 200.028 146.296C201.232 156.879 202.218 168.335 202.656 172.371Z" stroke="white" stroke-width="3.6" mask="url(#path-2-outside-2_403_4)"/>
<path d="M222.318 172.371C222.318 176.19 223.084 177.827 224.836 178.808C224.836 179.027 224.836 179.572 224.836 179.572H211.259C211.259 179.572 211.259 179.027 211.259 178.808C212.901 177.827 213.668 176.19 213.668 172.371V135.495C213.668 131.676 213.339 130.585 211.259 130.258C211.259 130.04 211.259 129.494 211.259 129.494L221.551 127.094H222.318V172.371ZM217.719 118.256C214.872 118.256 212.573 115.965 212.573 113.129C212.573 110.292 214.872 108.001 217.719 108.001C220.566 108.001 222.865 110.292 222.865 113.129C222.865 115.965 220.566 118.256 217.719 118.256Z" stroke="white" stroke-width="3.6" mask="url(#path-2-outside-2_403_4)"/>
<path d="M283.562 172.371C284 176.299 284.985 177.827 286.628 178.808C286.628 179.027 286.628 179.572 286.628 179.572H273.05C273.05 179.572 273.05 179.027 273.05 178.808C274.802 177.827 275.24 175.972 274.912 172.371C274.583 168.771 272.941 150.333 272.393 144.659C271.627 136.477 267.576 127.203 258.159 129.058C245.896 131.458 243.596 154.26 243.596 163.425V172.371C243.596 176.19 244.363 177.827 246.115 178.808C246.115 179.027 246.115 179.572 246.115 179.572H232.537C232.537 179.572 232.537 179.027 232.537 178.808C234.18 177.827 234.946 176.19 234.946 172.371V135.495C234.946 131.676 234.618 130.585 232.537 130.258C232.537 130.04 232.537 129.494 232.537 129.494L242.83 127.094H243.596V154.151C245.02 141.932 248.743 127.094 262.977 127.094C271.955 127.094 279.62 133.203 280.934 146.296C282.029 156.879 283.124 168.335 283.562 172.371Z" stroke="white" stroke-width="3.6" mask="url(#path-2-outside-2_403_4)"/>
<path d="M303.155 172.371C303.155 176.19 303.922 177.827 305.674 178.808C305.674 179.027 305.674 179.572 305.674 179.572H292.097C292.097 179.572 292.097 179.027 292.097 178.808C293.739 177.827 294.505 176.19 294.505 172.371V135.495C294.505 131.676 294.177 130.585 292.097 130.258C292.097 130.04 292.097 129.494 292.097 129.494L302.389 127.094H303.155V172.371ZM298.557 118.256C295.71 118.256 293.41 115.965 293.41 113.129C293.41 110.292 295.71 108.001 298.557 108.001C301.404 108.001 303.703 110.292 303.703 113.129C303.703 115.965 301.404 118.256 298.557 118.256Z" stroke="white" stroke-width="3.6" mask="url(#path-2-outside-2_403_4)"/>
<path d="M334.533 127.094C340.227 127.094 347.673 130.694 352.052 134.076L349.863 144.114H349.315C345.921 134.84 338.913 128.076 332.672 128.076C325.226 128.076 321.066 132.222 320.518 136.695C318.985 151.315 355.885 147.387 354.68 165.171C354.023 173.79 345.921 180.227 333.657 180.227C324.788 180.227 318.219 177.281 312.306 172.917L314.605 162.007H315.153C318.876 169.644 327.088 178.699 336.833 178.699C344.716 178.699 350.629 174.663 351.286 169.971C353.366 155.679 315.153 162.007 317.781 140.622C318.657 133.531 322.598 127.094 334.533 127.094Z" stroke="white" stroke-width="3.6" mask="url(#path-2-outside-2_403_4)"/>
<path d="M371.46 161.788C375.511 173.244 384.818 179.354 395.877 178.263C406.717 177.172 412.63 167.571 414.381 164.516L415.038 164.843C411.644 170.953 405.184 179.463 392.154 180.227C377.044 180.991 361.934 172.808 361.496 154.806C360.948 135.931 378.139 127.094 390.183 127.094C396.424 127.094 405.184 129.93 410.878 132.876L409.235 141.932H408.578C405.95 135.386 395.548 126.003 385.256 128.403C371.788 131.458 366.861 148.696 371.46 161.788Z" stroke="white" stroke-width="3.6" mask="url(#path-2-outside-2_403_4)"/>
<path d="M463.852 144.332C470.093 145.969 475.787 152.296 474.911 162.225C474.254 169.971 467.355 180.227 451.807 180.227C436.697 180.227 422.134 172.808 421.696 154.806C421.149 135.931 438.339 127.748 450.384 127.094C459.691 126.657 472.502 131.131 474.035 144.332C473.049 144.332 466.26 144.332 466.26 144.332H463.852ZM445.457 128.403C438.011 129.821 433.193 136.04 431.222 143.459H466.151C464.728 133.967 456.187 126.33 445.457 128.403ZM473.925 162.443C475.239 151.096 467.684 144.332 459.362 144.332H431.003C429.58 150.114 429.908 156.552 431.77 161.788C435.821 173.244 444.033 178.263 455.202 177.827C464.618 177.39 472.83 170.953 473.925 162.443Z" stroke="white" stroke-width="3.6" mask="url(#path-2-outside-2_403_4)"/>
<ellipse cx="351" cy="103" rx="41" ry="29" fill="black" stroke="white" stroke-width="1.8"/>
<path d="M343.92 115.076C343.337 115.279 342.628 115.38 341.792 115.38C339.689 115.38 338.144 114.835 337.156 113.746C336.193 112.631 335.712 110.921 335.712 108.616V97.52H331.608V95.962L338.828 87.564H340.272V95.962H347.112V97.52H340.272V109.072C340.272 111.124 341.26 112.15 343.236 112.15C343.768 112.15 344.275 112.036 344.756 111.808C345.263 111.58 345.883 111.175 346.618 110.592L347.758 112.036L343.92 115.076ZM362.057 94.442C363.729 94.442 365.224 94.8853 366.541 95.772C367.884 96.6333 368.922 97.8113 369.657 99.306C370.417 100.801 370.797 102.447 370.797 104.246C370.797 106.197 370.202 108.033 369.011 109.756C367.82 111.453 366.326 112.821 364.527 113.86C362.754 114.873 361.031 115.38 359.359 115.38C357.687 115.38 356.18 114.949 354.837 114.088C353.52 113.201 352.481 112.011 351.721 110.516C350.986 109.021 350.619 107.375 350.619 105.576C350.619 103.625 351.214 101.801 352.405 100.104C353.596 98.3813 355.078 97.0133 356.851 96C358.65 94.9613 360.385 94.442 362.057 94.442ZM359.853 97.634C356.99 97.634 355.559 99.6733 355.559 103.752C355.559 106.159 356.078 108.173 357.117 109.794C358.156 111.39 359.638 112.188 361.563 112.188C364.426 112.188 365.857 110.136 365.857 106.032C365.857 103.651 365.338 101.662 364.299 100.066C363.26 98.4447 361.778 97.634 359.853 97.634Z" fill="white"/>
</svg>
