<svg width="541" height="207" viewBox="0 0 541 207" fill="none" xmlns="http://www.w3.org/2000/svg">
<mask id="path-1-outside-1_281_47" maskUnits="userSpaceOnUse" x="51.9819" y="0" width="489" height="92" fill="black">
<rect fill="white" x="51.9819" width="489" height="92"/>
<path d="M69.3751 2.99073C67.3888 4.10531 66.5199 5.96293 66.5199 10.2974V80.5155C66.5199 84.85 67.3888 86.7076 69.3751 87.8222C69.3751 88.0698 69.3751 88.689 69.3751 88.689H53.9819C53.9819 88.689 53.9819 88.0698 53.9819 87.8222C55.844 86.7076 56.713 84.85 56.713 80.5155V10.2974C56.713 5.96293 55.844 4.10531 53.9819 2.99073C53.9819 2.74305 53.9819 2 53.9819 2H69.3751C69.3751 2 69.3751 2.74305 69.3751 2.99073Z"/>
<path d="M137.167 80.5155C137.664 84.9738 138.781 86.7076 140.643 87.8222C140.643 88.0698 140.643 88.689 140.643 88.689H125.25C125.25 88.689 125.25 88.0698 125.25 87.8222C127.236 86.7076 127.733 84.6023 127.36 80.5155C126.988 76.4287 125.126 55.4995 124.505 49.0598C123.636 39.7717 119.043 29.2451 108.367 31.3504C94.4636 34.0749 91.8567 59.9578 91.8567 70.3605V80.5155C91.8567 84.85 92.7256 86.7076 94.7118 87.8222C94.7118 88.0698 94.7118 88.689 94.7118 88.689H79.3187C79.3187 88.689 79.3187 88.0698 79.3187 87.8222C81.1808 86.7076 82.0497 84.85 82.0497 80.5155V38.6571C82.0497 34.3226 81.6773 33.0842 79.3187 32.7127C79.3187 32.465 79.3187 31.8458 79.3187 31.8458L90.9877 29.1213H91.8567V59.834C93.4705 45.9637 97.6911 29.1213 113.829 29.1213C124.008 29.1213 132.698 36.0564 134.188 50.9174C135.429 62.93 136.671 75.9334 137.167 80.5155Z"/>
<path d="M199.224 30.112C193.887 35.561 189.542 41.6293 184.949 53.0227L174.397 79.2771L178.369 88.689H168.562L153.169 52.5273C147.955 40.3909 145.349 35.0657 139.39 30.112V29.1213H158.383V30.112C155.155 33.4557 156.273 36.7995 159.128 43.7346L173.9 78.1625L184.08 52.8989C188.673 41.5054 190.038 34.6942 184.576 30.112V29.1213H199.224V30.112Z"/>
<path d="M216.722 80.5155C216.722 84.85 217.591 86.7076 219.577 87.8222C219.577 88.0698 219.577 88.689 219.577 88.689H204.184C204.184 88.689 204.184 88.0698 204.184 87.8222C206.046 86.7076 206.915 84.85 206.915 80.5155V38.6571C206.915 34.3226 206.543 33.0842 204.184 32.7127C204.184 32.465 204.184 31.8458 204.184 31.8458L215.853 29.1213H216.722V80.5155ZM211.508 19.0901C208.281 19.0901 205.674 16.4895 205.674 13.2696C205.674 10.0497 208.281 7.44903 211.508 7.44903C214.736 7.44903 217.343 10.0497 217.343 13.2696C217.343 16.4895 214.736 19.0901 211.508 19.0901Z"/>
<path d="M272.254 66.7691L272.874 67.0168C270.516 78.6579 265.302 89.4321 252.267 89.4321C241.219 89.4321 234.391 82.2493 234.391 67.636V30.112H227.067V29.1213C237.619 29.1213 238.488 18.0994 238.488 12.155H248.295C248.295 21.6908 238.86 28.7498 231.412 29.1213H258.847V30.112H244.198V69.4936C244.198 80.2678 247.178 88.5652 257.729 87.2029C265.922 86.0884 270.019 76.3049 272.254 66.7691Z"/>
<path d="M326.953 87.8222C326.953 88.0698 326.953 88.689 326.953 88.689H314.415V71.3512C311.187 82.2493 304.36 89.4321 292.442 89.4321C282.263 89.4321 272.332 84.6023 270.718 75.6857C268.608 63.0539 276.18 55.6234 285.739 51.6604C282.511 44.4776 286.36 29.1213 302.994 29.1213C313.298 29.1213 324.222 34.5703 324.222 49.8028V80.5155C324.222 84.85 325.091 86.7076 326.953 87.8222ZM301.877 30.3597C290.705 30.3597 283.256 41.1339 286.98 51.1651C293.684 48.6882 301.132 47.8214 306.967 47.8214C309.822 47.8214 312.305 48.3167 314.415 48.9359V48.069C314.415 38.6571 310.691 30.3597 301.877 30.3597ZM295.422 87.8222C306.222 87.2029 311.932 78.0387 314.415 69.1221V50.0505C313.794 49.8028 310.815 48.9359 306.967 48.9359C293.436 48.9359 275.063 55.6234 280.401 77.4195C282.015 84.1069 289.215 88.1937 295.422 87.8222Z"/>
<path d="M378.329 66.7691L378.949 67.0168C376.591 78.6579 371.377 89.4321 358.342 89.4321C347.294 89.4321 340.466 82.2493 340.466 67.636V30.112H333.142V29.1213C343.694 29.1213 344.563 18.0994 344.563 12.155H354.37C354.37 21.6908 344.935 28.7498 337.487 29.1213H364.922V30.112H350.273V69.4936C350.273 80.2678 353.253 88.5652 363.804 87.2029C371.998 86.0884 376.094 76.3049 378.329 66.7691Z"/>
<path d="M392.746 80.5155C392.746 84.85 393.615 86.7076 395.601 87.8222C395.601 88.0698 395.601 88.689 395.601 88.689H380.208C380.208 88.689 380.208 88.0698 380.208 87.8222C382.07 86.7076 382.939 84.85 382.939 80.5155V38.6571C382.939 34.3226 382.567 33.0842 380.208 32.7127C380.208 32.465 380.208 31.8458 380.208 31.8458L391.877 29.1213H392.746V80.5155ZM387.532 19.0901C384.305 19.0901 381.698 16.4895 381.698 13.2696C381.698 10.0497 384.305 7.44903 387.532 7.44903C390.76 7.44903 393.367 10.0497 393.367 13.2696C393.367 16.4895 390.76 19.0901 387.532 19.0901Z"/>
<path d="M437.974 29.1213C454.609 29.1213 469.009 39.524 469.009 56.6141C469.009 76.4287 452.002 89.4321 435.367 89.4321C418.608 89.4321 404.333 79.2771 404.333 61.9393C404.333 41.5054 421.339 29.1213 437.974 29.1213ZM444.926 87.2029C459.077 83.1162 462.926 67.636 458.581 52.6512C454.236 37.7902 442.567 27.2637 428.415 31.3504C414.264 35.4372 410.415 50.9174 414.76 65.9022C419.105 80.7632 430.774 91.4136 444.926 87.2029Z"/>
<path d="M535.524 80.5155C536.021 84.9738 537.138 86.7076 539 87.8222C539 88.0698 539 88.689 539 88.689H523.607C523.607 88.689 523.607 88.0698 523.607 87.8222C525.593 86.7076 526.09 84.6023 525.717 80.5155C525.345 76.4287 523.483 55.4995 522.862 49.0598C521.993 39.7717 517.4 29.2451 506.724 31.3504C492.821 34.0749 490.214 59.9578 490.214 70.3605V80.5155C490.214 84.85 491.083 86.7076 493.069 87.8222C493.069 88.0698 493.069 88.689 493.069 88.689H477.676C477.676 88.689 477.676 88.0698 477.676 87.8222C479.538 86.7076 480.407 84.85 480.407 80.5155V38.6571C480.407 34.3226 480.034 33.0842 477.676 32.7127C477.676 32.465 477.676 31.8458 477.676 31.8458L489.345 29.1213H490.214V59.834C491.828 45.9637 496.048 29.1213 512.186 29.1213C522.366 29.1213 531.055 36.0564 532.545 50.9174C533.786 62.93 535.028 75.9334 535.524 80.5155Z"/>
</mask>
<path d="M69.3751 2.99073C67.3888 4.10531 66.5199 5.96293 66.5199 10.2974V80.5155C66.5199 84.85 67.3888 86.7076 69.3751 87.8222C69.3751 88.0698 69.3751 88.689 69.3751 88.689H53.9819C53.9819 88.689 53.9819 88.0698 53.9819 87.8222C55.844 86.7076 56.713 84.85 56.713 80.5155V10.2974C56.713 5.96293 55.844 4.10531 53.9819 2.99073C53.9819 2.74305 53.9819 2 53.9819 2H69.3751C69.3751 2 69.3751 2.74305 69.3751 2.99073Z" stroke="white" stroke-width="3.62664" mask="url(#path-1-outside-1_281_47)"/>
<path d="M137.167 80.5155C137.664 84.9738 138.781 86.7076 140.643 87.8222C140.643 88.0698 140.643 88.689 140.643 88.689H125.25C125.25 88.689 125.25 88.0698 125.25 87.8222C127.236 86.7076 127.733 84.6023 127.36 80.5155C126.988 76.4287 125.126 55.4995 124.505 49.0598C123.636 39.7717 119.043 29.2451 108.367 31.3504C94.4636 34.0749 91.8567 59.9578 91.8567 70.3605V80.5155C91.8567 84.85 92.7256 86.7076 94.7118 87.8222C94.7118 88.0698 94.7118 88.689 94.7118 88.689H79.3187C79.3187 88.689 79.3187 88.0698 79.3187 87.8222C81.1808 86.7076 82.0497 84.85 82.0497 80.5155V38.6571C82.0497 34.3226 81.6773 33.0842 79.3187 32.7127C79.3187 32.465 79.3187 31.8458 79.3187 31.8458L90.9877 29.1213H91.8567V59.834C93.4705 45.9637 97.6911 29.1213 113.829 29.1213C124.008 29.1213 132.698 36.0564 134.188 50.9174C135.429 62.93 136.671 75.9334 137.167 80.5155Z" stroke="white" stroke-width="3.62664" mask="url(#path-1-outside-1_281_47)"/>
<path d="M199.224 30.112C193.887 35.561 189.542 41.6293 184.949 53.0227L174.397 79.2771L178.369 88.689H168.562L153.169 52.5273C147.955 40.3909 145.349 35.0657 139.39 30.112V29.1213H158.383V30.112C155.155 33.4557 156.273 36.7995 159.128 43.7346L173.9 78.1625L184.08 52.8989C188.673 41.5054 190.038 34.6942 184.576 30.112V29.1213H199.224V30.112Z" stroke="white" stroke-width="3.62664" mask="url(#path-1-outside-1_281_47)"/>
<path d="M216.722 80.5155C216.722 84.85 217.591 86.7076 219.577 87.8222C219.577 88.0698 219.577 88.689 219.577 88.689H204.184C204.184 88.689 204.184 88.0698 204.184 87.8222C206.046 86.7076 206.915 84.85 206.915 80.5155V38.6571C206.915 34.3226 206.543 33.0842 204.184 32.7127C204.184 32.465 204.184 31.8458 204.184 31.8458L215.853 29.1213H216.722V80.5155ZM211.508 19.0901C208.281 19.0901 205.674 16.4895 205.674 13.2696C205.674 10.0497 208.281 7.44903 211.508 7.44903C214.736 7.44903 217.343 10.0497 217.343 13.2696C217.343 16.4895 214.736 19.0901 211.508 19.0901Z" stroke="white" stroke-width="3.62664" mask="url(#path-1-outside-1_281_47)"/>
<path d="M272.254 66.7691L272.874 67.0168C270.516 78.6579 265.302 89.4321 252.267 89.4321C241.219 89.4321 234.391 82.2493 234.391 67.636V30.112H227.067V29.1213C237.619 29.1213 238.488 18.0994 238.488 12.155H248.295C248.295 21.6908 238.86 28.7498 231.412 29.1213H258.847V30.112H244.198V69.4936C244.198 80.2678 247.178 88.5652 257.729 87.2029C265.922 86.0884 270.019 76.3049 272.254 66.7691Z" stroke="white" stroke-width="3.62664" mask="url(#path-1-outside-1_281_47)"/>
<path d="M326.953 87.8222C326.953 88.0698 326.953 88.689 326.953 88.689H314.415V71.3512C311.187 82.2493 304.36 89.4321 292.442 89.4321C282.263 89.4321 272.332 84.6023 270.718 75.6857C268.608 63.0539 276.18 55.6234 285.739 51.6604C282.511 44.4776 286.36 29.1213 302.994 29.1213C313.298 29.1213 324.222 34.5703 324.222 49.8028V80.5155C324.222 84.85 325.091 86.7076 326.953 87.8222ZM301.877 30.3597C290.705 30.3597 283.256 41.1339 286.98 51.1651C293.684 48.6882 301.132 47.8214 306.967 47.8214C309.822 47.8214 312.305 48.3167 314.415 48.9359V48.069C314.415 38.6571 310.691 30.3597 301.877 30.3597ZM295.422 87.8222C306.222 87.2029 311.932 78.0387 314.415 69.1221V50.0505C313.794 49.8028 310.815 48.9359 306.967 48.9359C293.436 48.9359 275.063 55.6234 280.401 77.4195C282.015 84.1069 289.215 88.1937 295.422 87.8222Z" stroke="white" stroke-width="3.62664" mask="url(#path-1-outside-1_281_47)"/>
<path d="M378.329 66.7691L378.949 67.0168C376.591 78.6579 371.377 89.4321 358.342 89.4321C347.294 89.4321 340.466 82.2493 340.466 67.636V30.112H333.142V29.1213C343.694 29.1213 344.563 18.0994 344.563 12.155H354.37C354.37 21.6908 344.935 28.7498 337.487 29.1213H364.922V30.112H350.273V69.4936C350.273 80.2678 353.253 88.5652 363.804 87.2029C371.998 86.0884 376.094 76.3049 378.329 66.7691Z" stroke="white" stroke-width="3.62664" mask="url(#path-1-outside-1_281_47)"/>
<path d="M392.746 80.5155C392.746 84.85 393.615 86.7076 395.601 87.8222C395.601 88.0698 395.601 88.689 395.601 88.689H380.208C380.208 88.689 380.208 88.0698 380.208 87.8222C382.07 86.7076 382.939 84.85 382.939 80.5155V38.6571C382.939 34.3226 382.567 33.0842 380.208 32.7127C380.208 32.465 380.208 31.8458 380.208 31.8458L391.877 29.1213H392.746V80.5155ZM387.532 19.0901C384.305 19.0901 381.698 16.4895 381.698 13.2696C381.698 10.0497 384.305 7.44903 387.532 7.44903C390.76 7.44903 393.367 10.0497 393.367 13.2696C393.367 16.4895 390.76 19.0901 387.532 19.0901Z" stroke="white" stroke-width="3.62664" mask="url(#path-1-outside-1_281_47)"/>
<path d="M437.974 29.1213C454.609 29.1213 469.009 39.524 469.009 56.6141C469.009 76.4287 452.002 89.4321 435.367 89.4321C418.608 89.4321 404.333 79.2771 404.333 61.9393C404.333 41.5054 421.339 29.1213 437.974 29.1213ZM444.926 87.2029C459.077 83.1162 462.926 67.636 458.581 52.6512C454.236 37.7902 442.567 27.2637 428.415 31.3504C414.264 35.4372 410.415 50.9174 414.76 65.9022C419.105 80.7632 430.774 91.4136 444.926 87.2029Z" stroke="white" stroke-width="3.62664" mask="url(#path-1-outside-1_281_47)"/>
<path d="M535.524 80.5155C536.021 84.9738 537.138 86.7076 539 87.8222C539 88.0698 539 88.689 539 88.689H523.607C523.607 88.689 523.607 88.0698 523.607 87.8222C525.593 86.7076 526.09 84.6023 525.717 80.5155C525.345 76.4287 523.483 55.4995 522.862 49.0598C521.993 39.7717 517.4 29.2451 506.724 31.3504C492.821 34.0749 490.214 59.9578 490.214 70.3605V80.5155C490.214 84.85 491.083 86.7076 493.069 87.8222C493.069 88.0698 493.069 88.689 493.069 88.689H477.676C477.676 88.689 477.676 88.0698 477.676 87.8222C479.538 86.7076 480.407 84.85 480.407 80.5155V38.6571C480.407 34.3226 480.034 33.0842 477.676 32.7127C477.676 32.465 477.676 31.8458 477.676 31.8458L489.345 29.1213H490.214V59.834C491.828 45.9637 496.048 29.1213 512.186 29.1213C522.366 29.1213 531.055 36.0564 532.545 50.9174C533.786 62.93 535.028 75.9334 535.524 80.5155Z" stroke="white" stroke-width="3.62664" mask="url(#path-1-outside-1_281_47)"/>
<mask id="path-2-outside-2_281_47" maskUnits="userSpaceOnUse" x="0" y="114.844" width="541" height="92" fill="black">
<rect fill="white" y="114.844" width="541" height="92"/>
<path d="M52.1798 181.324C59.508 194.072 63.4827 198.28 68.3267 202.612V203.478H49.1988V202.612C52.4282 199.394 49.8198 194.938 44.9758 186.399L31.6856 163.255C29.8225 163.379 27.9593 163.502 26.0962 163.502H14.5449V195.31C14.5449 199.641 15.4144 201.498 17.2775 202.612C17.2775 202.859 17.2775 203.478 17.2775 203.478H2C2 203.478 2 202.859 2 202.612C3.86311 201.498 4.73256 199.641 4.73256 195.31V125.136C4.73256 120.68 3.86311 118.948 2 117.834C2 117.586 2 116.844 2 116.844H26.0962C45.3484 116.844 62.7374 124.022 62.7374 140.235C62.7374 151.869 53.4219 158.923 41.0011 161.77L52.1798 181.324ZM26.0962 162.512C49.5714 162.512 52.925 149.765 52.925 140.235C52.925 130.581 49.6956 117.834 26.0962 117.834H14.5449V162.512H26.0962Z"/>
<path d="M117.506 163.502C124.586 165.359 131.045 172.537 130.051 183.8C129.306 192.587 121.481 204.22 103.843 204.22C86.7026 204.22 70.1831 195.805 69.6862 175.384C69.0652 153.973 88.5658 144.69 102.229 143.948C112.786 143.453 127.318 148.527 129.057 163.502C127.939 163.502 120.239 163.502 120.239 163.502H117.506ZM96.6392 145.433C88.1931 147.042 82.728 154.096 80.4923 162.512H120.114C118.5 151.745 108.812 143.082 96.6392 145.433ZM128.933 184.047C130.424 171.176 121.853 163.502 112.414 163.502H80.2439C78.6292 170.062 79.0018 177.364 81.1133 183.305C85.709 196.3 95.0245 201.993 107.694 201.498C118.376 201.003 127.691 193.701 128.933 184.047Z"/>
<path d="M229.618 195.31C230.115 199.765 231.232 201.498 233.096 202.612C233.096 202.859 233.096 203.478 233.096 203.478H217.818C217.818 203.478 217.818 202.859 217.818 202.612C219.681 201.498 220.302 199.394 219.93 195.31C219.433 191.225 217.694 170.309 217.073 163.874C216.079 154.591 212.477 144.072 202.789 146.176C191.362 148.651 189.871 167.834 189.747 180.829V195.31C189.747 199.641 190.617 201.498 192.48 202.612C192.48 202.859 192.48 203.478 192.48 203.478H177.202C177.202 203.478 177.202 202.859 177.202 202.612C179.065 201.498 179.935 199.641 179.935 195.31V163.874C179.935 154.468 175.588 144.319 165.899 146.176C151.988 148.775 151.367 174.641 151.367 185.161V195.31C151.367 199.641 152.361 201.498 154.224 202.612C154.224 202.859 154.224 203.478 154.224 203.478H138.822C138.822 203.478 138.822 202.859 138.822 202.612C140.685 201.498 141.679 199.641 141.679 195.31V153.478C141.679 149.146 141.306 147.908 138.822 147.537C138.822 147.289 138.822 146.671 138.822 146.671L150.498 143.948H151.367V171.423C152.733 158.304 156.46 143.948 171.365 143.948C180.928 143.948 189.126 152.116 189.623 165.73L189.747 167.092C191.238 155.087 195.833 143.948 208.378 143.948C218.191 143.948 225.146 151.25 226.637 165.73C228.003 177.735 229.121 190.73 229.618 195.31Z"/>
<path d="M251.922 195.31C251.922 199.641 252.791 201.498 254.779 202.612C254.779 202.859 254.779 203.478 254.779 203.478H239.377C239.377 203.478 239.377 202.859 239.377 202.612C241.24 201.498 242.109 199.641 242.109 195.31V153.478C242.109 149.146 241.737 147.908 239.377 147.537C239.377 147.289 239.377 146.671 239.377 146.671L251.052 143.948H251.922V195.31ZM246.705 133.923C243.476 133.923 240.867 131.324 240.867 128.106C240.867 124.888 243.476 122.289 246.705 122.289C249.934 122.289 252.543 124.888 252.543 128.106C252.543 131.324 249.934 133.923 246.705 133.923Z"/>
<path d="M321.395 195.31C321.892 199.765 323.01 201.498 324.873 202.612C324.873 202.859 324.873 203.478 324.873 203.478H309.471C309.471 203.478 309.471 202.859 309.471 202.612C311.459 201.498 311.956 199.394 311.583 195.31C311.21 191.225 309.347 170.309 308.726 163.874C307.857 154.591 303.261 144.072 292.579 146.176C278.668 148.898 276.06 174.765 276.06 185.161V195.31C276.06 199.641 276.929 201.498 278.916 202.612C278.916 202.859 278.916 203.478 278.916 203.478H263.515C263.515 203.478 263.515 202.859 263.515 202.612C265.378 201.498 266.247 199.641 266.247 195.31V153.478C266.247 149.146 265.875 147.908 263.515 147.537C263.515 147.289 263.515 146.671 263.515 146.671L275.19 143.948H276.06V174.641C277.674 160.78 281.897 143.948 298.044 143.948C308.229 143.948 316.924 150.879 318.414 165.73C319.657 177.735 320.899 190.73 321.395 195.31Z"/>
<path d="M343.622 195.31C343.622 199.641 344.491 201.498 346.478 202.612C346.478 202.859 346.478 203.478 346.478 203.478H331.077C331.077 203.478 331.077 202.859 331.077 202.612C332.94 201.498 333.809 199.641 333.809 195.31V153.478C333.809 149.146 333.437 147.908 331.077 147.537C331.077 147.289 331.077 146.671 331.077 146.671L342.752 143.948H343.622V195.31ZM338.405 133.923C335.176 133.923 332.567 131.324 332.567 128.106C332.567 124.888 335.176 122.289 338.405 122.289C341.634 122.289 344.243 124.888 344.243 128.106C344.243 131.324 341.634 133.923 338.405 133.923Z"/>
<path d="M379.216 143.948C385.675 143.948 394.121 148.032 399.089 151.869L396.605 163.255H395.984C392.133 152.735 384.184 145.062 377.104 145.062C368.658 145.062 363.938 149.765 363.317 154.839C361.578 171.423 403.436 166.968 402.07 187.141C401.325 196.918 392.133 204.22 378.222 204.22C368.161 204.22 360.709 200.879 354.002 195.928L356.61 183.552H357.231C361.454 192.215 370.77 202.488 381.824 202.488C390.767 202.488 397.474 197.909 398.22 192.587C400.58 176.374 357.231 183.552 360.212 159.294C361.206 151.25 365.677 143.948 379.216 143.948Z"/>
<path d="M421.104 183.305C425.7 196.3 436.257 203.23 448.802 201.993C461.099 200.755 467.806 189.864 469.793 186.399L470.538 186.77C466.688 193.701 459.36 203.354 444.579 204.22C427.438 205.087 410.298 195.805 409.801 175.384C409.18 153.973 428.68 143.948 442.343 143.948C449.423 143.948 459.36 147.166 465.819 150.507L463.955 160.78H463.21C460.229 153.354 448.429 142.71 436.754 145.433C421.476 148.898 415.887 168.453 421.104 183.305Z"/>
<path d="M525.911 163.502C532.99 165.359 539.449 172.537 538.456 183.8C537.71 192.587 529.885 204.22 512.248 204.22C495.107 204.22 478.588 195.805 478.091 175.384C477.47 153.973 496.97 144.69 510.633 143.948C521.191 143.453 535.723 148.527 537.462 163.502C536.344 163.502 528.643 163.502 528.643 163.502H525.911ZM505.044 145.433C496.598 147.042 491.133 154.096 488.897 162.512H528.519C526.904 151.745 517.216 143.082 505.044 145.433ZM537.338 184.047C538.828 171.176 530.258 163.502 520.818 163.502H488.648C487.034 170.062 487.406 177.364 489.518 183.305C494.113 196.3 503.429 201.993 516.098 201.498C526.78 201.003 536.096 193.701 537.338 184.047Z"/>
</mask>
<path d="M52.1798 181.324C59.508 194.072 63.4827 198.28 68.3267 202.612V203.478H49.1988V202.612C52.4282 199.394 49.8198 194.938 44.9758 186.399L31.6856 163.255C29.8225 163.379 27.9593 163.502 26.0962 163.502H14.5449V195.31C14.5449 199.641 15.4144 201.498 17.2775 202.612C17.2775 202.859 17.2775 203.478 17.2775 203.478H2C2 203.478 2 202.859 2 202.612C3.86311 201.498 4.73256 199.641 4.73256 195.31V125.136C4.73256 120.68 3.86311 118.948 2 117.834C2 117.586 2 116.844 2 116.844H26.0962C45.3484 116.844 62.7374 124.022 62.7374 140.235C62.7374 151.869 53.4219 158.923 41.0011 161.77L52.1798 181.324ZM26.0962 162.512C49.5714 162.512 52.925 149.765 52.925 140.235C52.925 130.581 49.6956 117.834 26.0962 117.834H14.5449V162.512H26.0962Z" stroke="white" stroke-width="3.62664" mask="url(#path-2-outside-2_281_47)"/>
<path d="M117.506 163.502C124.586 165.359 131.045 172.537 130.051 183.8C129.306 192.587 121.481 204.22 103.843 204.22C86.7026 204.22 70.1831 195.805 69.6862 175.384C69.0652 153.973 88.5658 144.69 102.229 143.948C112.786 143.453 127.318 148.527 129.057 163.502C127.939 163.502 120.239 163.502 120.239 163.502H117.506ZM96.6392 145.433C88.1931 147.042 82.728 154.096 80.4923 162.512H120.114C118.5 151.745 108.812 143.082 96.6392 145.433ZM128.933 184.047C130.424 171.176 121.853 163.502 112.414 163.502H80.2439C78.6292 170.062 79.0018 177.364 81.1133 183.305C85.709 196.3 95.0245 201.993 107.694 201.498C118.376 201.003 127.691 193.701 128.933 184.047Z" stroke="white" stroke-width="3.62664" mask="url(#path-2-outside-2_281_47)"/>
<path d="M229.618 195.31C230.115 199.765 231.232 201.498 233.096 202.612C233.096 202.859 233.096 203.478 233.096 203.478H217.818C217.818 203.478 217.818 202.859 217.818 202.612C219.681 201.498 220.302 199.394 219.93 195.31C219.433 191.225 217.694 170.309 217.073 163.874C216.079 154.591 212.477 144.072 202.789 146.176C191.362 148.651 189.871 167.834 189.747 180.829V195.31C189.747 199.641 190.617 201.498 192.48 202.612C192.48 202.859 192.48 203.478 192.48 203.478H177.202C177.202 203.478 177.202 202.859 177.202 202.612C179.065 201.498 179.935 199.641 179.935 195.31V163.874C179.935 154.468 175.588 144.319 165.899 146.176C151.988 148.775 151.367 174.641 151.367 185.161V195.31C151.367 199.641 152.361 201.498 154.224 202.612C154.224 202.859 154.224 203.478 154.224 203.478H138.822C138.822 203.478 138.822 202.859 138.822 202.612C140.685 201.498 141.679 199.641 141.679 195.31V153.478C141.679 149.146 141.306 147.908 138.822 147.537C138.822 147.289 138.822 146.671 138.822 146.671L150.498 143.948H151.367V171.423C152.733 158.304 156.46 143.948 171.365 143.948C180.928 143.948 189.126 152.116 189.623 165.73L189.747 167.092C191.238 155.087 195.833 143.948 208.378 143.948C218.191 143.948 225.146 151.25 226.637 165.73C228.003 177.735 229.121 190.73 229.618 195.31Z" stroke="white" stroke-width="3.62664" mask="url(#path-2-outside-2_281_47)"/>
<path d="M251.922 195.31C251.922 199.641 252.791 201.498 254.779 202.612C254.779 202.859 254.779 203.478 254.779 203.478H239.377C239.377 203.478 239.377 202.859 239.377 202.612C241.24 201.498 242.109 199.641 242.109 195.31V153.478C242.109 149.146 241.737 147.908 239.377 147.537C239.377 147.289 239.377 146.671 239.377 146.671L251.052 143.948H251.922V195.31ZM246.705 133.923C243.476 133.923 240.867 131.324 240.867 128.106C240.867 124.888 243.476 122.289 246.705 122.289C249.934 122.289 252.543 124.888 252.543 128.106C252.543 131.324 249.934 133.923 246.705 133.923Z" stroke="white" stroke-width="3.62664" mask="url(#path-2-outside-2_281_47)"/>
<path d="M321.395 195.31C321.892 199.765 323.01 201.498 324.873 202.612C324.873 202.859 324.873 203.478 324.873 203.478H309.471C309.471 203.478 309.471 202.859 309.471 202.612C311.459 201.498 311.956 199.394 311.583 195.31C311.21 191.225 309.347 170.309 308.726 163.874C307.857 154.591 303.261 144.072 292.579 146.176C278.668 148.898 276.06 174.765 276.06 185.161V195.31C276.06 199.641 276.929 201.498 278.916 202.612C278.916 202.859 278.916 203.478 278.916 203.478H263.515C263.515 203.478 263.515 202.859 263.515 202.612C265.378 201.498 266.247 199.641 266.247 195.31V153.478C266.247 149.146 265.875 147.908 263.515 147.537C263.515 147.289 263.515 146.671 263.515 146.671L275.19 143.948H276.06V174.641C277.674 160.78 281.897 143.948 298.044 143.948C308.229 143.948 316.924 150.879 318.414 165.73C319.657 177.735 320.899 190.73 321.395 195.31Z" stroke="white" stroke-width="3.62664" mask="url(#path-2-outside-2_281_47)"/>
<path d="M343.622 195.31C343.622 199.641 344.491 201.498 346.478 202.612C346.478 202.859 346.478 203.478 346.478 203.478H331.077C331.077 203.478 331.077 202.859 331.077 202.612C332.94 201.498 333.809 199.641 333.809 195.31V153.478C333.809 149.146 333.437 147.908 331.077 147.537C331.077 147.289 331.077 146.671 331.077 146.671L342.752 143.948H343.622V195.31ZM338.405 133.923C335.176 133.923 332.567 131.324 332.567 128.106C332.567 124.888 335.176 122.289 338.405 122.289C341.634 122.289 344.243 124.888 344.243 128.106C344.243 131.324 341.634 133.923 338.405 133.923Z" stroke="white" stroke-width="3.62664" mask="url(#path-2-outside-2_281_47)"/>
<path d="M379.216 143.948C385.675 143.948 394.121 148.032 399.089 151.869L396.605 163.255H395.984C392.133 152.735 384.184 145.062 377.104 145.062C368.658 145.062 363.938 149.765 363.317 154.839C361.578 171.423 403.436 166.968 402.07 187.141C401.325 196.918 392.133 204.22 378.222 204.22C368.161 204.22 360.709 200.879 354.002 195.928L356.61 183.552H357.231C361.454 192.215 370.77 202.488 381.824 202.488C390.767 202.488 397.474 197.909 398.22 192.587C400.58 176.374 357.231 183.552 360.212 159.294C361.206 151.25 365.677 143.948 379.216 143.948Z" stroke="white" stroke-width="3.62664" mask="url(#path-2-outside-2_281_47)"/>
<path d="M421.104 183.305C425.7 196.3 436.257 203.23 448.802 201.993C461.099 200.755 467.806 189.864 469.793 186.399L470.538 186.77C466.688 193.701 459.36 203.354 444.579 204.22C427.438 205.087 410.298 195.805 409.801 175.384C409.18 153.973 428.68 143.948 442.343 143.948C449.423 143.948 459.36 147.166 465.819 150.507L463.955 160.78H463.21C460.229 153.354 448.429 142.71 436.754 145.433C421.476 148.898 415.887 168.453 421.104 183.305Z" stroke="white" stroke-width="3.62664" mask="url(#path-2-outside-2_281_47)"/>
<path d="M525.911 163.502C532.99 165.359 539.449 172.537 538.456 183.8C537.71 192.587 529.885 204.22 512.248 204.22C495.107 204.22 478.588 195.805 478.091 175.384C477.47 153.973 496.97 144.69 510.633 143.948C521.191 143.453 535.723 148.527 537.462 163.502C536.344 163.502 528.643 163.502 528.643 163.502H525.911ZM505.044 145.433C496.598 147.042 491.133 154.096 488.897 162.512H528.519C526.904 151.745 517.216 143.082 505.044 145.433ZM537.338 184.047C538.828 171.176 530.258 163.502 520.818 163.502H488.648C487.034 170.062 487.406 177.364 489.518 183.305C494.113 196.3 503.429 201.993 516.098 201.498C526.78 201.003 536.096 193.701 537.338 184.047Z" stroke="white" stroke-width="3.62664" mask="url(#path-2-outside-2_281_47)"/>
</svg>
