<svg width="75" height="49" viewBox="0 0 75 49" fill="none" xmlns="http://www.w3.org/2000/svg">
<path d="M65.1244 41.4055C65.1244 45.108 62.1229 48.1095 58.4204 48.1095C54.7179 48.1095 51.7164 45.108 51.7164 41.4055C51.7164 37.703 54.7179 34.7015 58.4204 34.7015C62.1229 34.7015 65.1244 37.703 65.1244 41.4055Z" fill="#919191"/>
<path d="M35.8706 41.4055C35.8706 45.108 32.8692 48.1095 29.1667 48.1095C25.4642 48.1095 22.4627 45.108 22.4627 41.4055C22.4627 37.703 25.4642 34.7015 29.1667 34.7015C32.8692 34.7015 35.8706 37.703 35.8706 41.4055Z" fill="#919191"/>
<path d="M21.2438 41.4055C21.2438 45.108 18.2423 48.1095 14.5398 48.1095C10.8373 48.1095 7.83582 45.108 7.83582 41.4055C7.83582 37.703 10.8373 34.7015 14.5398 34.7015C18.2423 34.7015 21.2438 37.703 21.2438 41.4055Z" fill="#919191"/>
<path d="M0 8C0 3.58172 3.58172 0 8 0L63.061 0C67.1532 0 70.5856 3.08816 71.0165 7.15758L74.0637 35.9337C74.564 40.6589 70.8597 44.7761 66.1081 44.7761H8C3.58172 44.7761 0 41.1944 0 36.7761V8Z" fill="#6785EF"/>
<path d="M10.0746 12.9552C10.0746 10.7461 11.8655 8.95522 14.0746 8.95522H28.4627C30.6718 8.95522 32.4627 10.7461 32.4627 12.9552V27.3433C32.4627 29.5524 30.6718 31.3433 28.4627 31.3433H14.0746C11.8655 31.3433 10.0746 29.5524 10.0746 27.3433V12.9552Z" fill="white"/>
<path d="M71.2069 8.95522L73.5776 31.3433H65.5672C63.358 31.3433 61.5672 29.5524 61.5672 27.3433V12.9552C61.5672 10.7461 63.358 8.95522 65.5672 8.95522H71.2069Z" fill="#FFAD33"/>
<path d="M35.8209 12.9552C35.8209 10.7461 37.6118 8.95522 39.8209 8.95522H54.209C56.4181 8.95522 58.209 10.7461 58.209 12.9552V27.3433C58.209 29.5524 56.4181 31.3433 54.209 31.3433H39.8209C37.6118 31.3433 35.8209 29.5524 35.8209 27.3433V12.9552Z" fill="white"/>
<path d="M0 31.3433V8.95522H2.71643C4.92556 8.95522 6.71642 10.7461 6.71642 12.9552V27.3433C6.71642 29.5524 4.92556 31.3433 2.71642 31.3433H0Z" fill="#FFAD33"/>
<path d="M0.102425 38.0597C0.0350267 37.6418 0 37.213 0 36.7761V33.5821H73.8147L74.0637 35.9337C74.1407 36.661 74.1181 37.374 74.0074 38.0597H0.102425Z" fill="#FFAD33"/>
</svg>
