<svg width="32" height="32" viewBox="0 0 32 32" fill="none" xmlns="http://www.w3.org/2000/svg">
<path d="M4.31707 27C3.79837 26.3516 4.07226 24.983 4.07226 24.2254C4.07226 22.265 4.43513 20.1214 4.7523 18.1866C4.87133 17.4605 5.05059 14.138 5.67716 13.7799C6.87318 13.0965 8.07326 12.3734 9.3086 11.7126C12.2378 10.1458 14.6569 7.41246 17.9044 6.55787C18.0267 6.52568 19.1932 5.99735 19.1964 6.00023C20.3596 7.03413 21.0428 8.6891 22.2974 9.67247C23.5937 10.6884 25.169 11.3892 26.4049 12.5015C27.0954 13.1229 28.5538 14.1404 28.5538 15.1672C28.5538 18.4007 28.309 21.6695 28.309 24.9327C28.309 26.4804 26.6697 26.0207 25.48 26.0207C24.5429 26.0207 23.6659 26.2656 22.7327 26.2656C22.2656 26.2656 22.0556 26.0207 21.5766 26.0207C20.9153 26.0207 19.708 26.2804 19.1148 25.9663C18.981 25.8955 19.2508 24.7363 19.2508 24.4974C19.2508 23.6779 19.2464 23.0073 19.006 22.2261C18.8493 21.7167 18.3314 21.1136 18.2716 20.6348C18.1608 19.7486 16.3255 19.6029 15.701 19.4107C12.4493 18.4102 12.396 22.5757 12.396 24.7967C12.396 26.5111 12.2627 26.4497 10.6687 26.1431C9.26493 25.8732 8.27125 26.1317 7.01005 26.456C6.45006 26.6 5.87011 26.7552 5.29634 26.7552" stroke="#F5EFEB" stroke-width="1.96132" stroke-linecap="round"/>
</svg>
