<svg width="384" height="130" viewBox="0 0 384 130" fill="none" xmlns="http://www.w3.org/2000/svg">
<g filter="url(#filter0_d_336_2)">
<path d="M35.4368 7.22412V9.39144H37.4901V16.2356H35.4368V18.4029H26.8246V47.8327H24.7714V50H17.2428V47.8327H15.0755V18.4029H6.57735V16.2356H4.41003V9.39144H6.57735V7.22412H35.4368Z" fill="#111111"/>
<path d="M69.4361 48.1179H67.5539V50H60.5957V48.1179H58.7136V31.0075H56.7744V28.9543H52.8961V31.0075H50.9569V48.1179H49.0748V50H42.2306V48.1179H40.3485V9.10626H42.2306V7.22412H49.0748V9.10626H50.9569V18.0036H62.4779V20.171H64.8733V22.5664H67.3258V24.9619H69.4361V48.1179Z" fill="#111111"/>
<path d="M92.0396 41.5019V36.4828H84.6251V38.0798H82.9141V39.9049H84.6251V41.5019H92.0396ZM100.709 20.4561H102.534V47.9468H100.709V50H78.5224V47.3764H76.4121V45.038H74.4159V42.9848H72.5908V34.6577H74.4159V32.6045H76.4121V30.2661H78.5224V28.0988H92.0396V25.3611H76.241V23.3079H74.3018V17.8325H76.241V15.8363H98.7697V17.8325H100.709V20.4561Z" fill="#111111"/>
<path d="M116.569 48.1179H114.687V50H107.843V48.1179H105.96V17.9466H107.843V15.7793H114.402V17.9466H116.854V15.7793H129.801V17.9466H132.253V20.6272H134.649V23.3649H136.759V48.1179H134.877V50H127.919V48.1179H126.037V29.0683H123.869V26.787H118.793V29.0683H116.569V48.1179Z" fill="#111111"/>
<path d="M151.38 41.9011V48.1179H149.498V50H142.654V48.1179H140.772V9.10626H142.654V7.22412H149.498V9.10626H151.38V23.8212H153.091V21.7679H154.973V19.7147H156.798V17.7185H158.68V15.8363H165.525V17.7185H167.407V25.133H165.525V27.3003H163.699V29.4676H161.817V31.6349H159.992V34.3726H161.817V36.5399H163.699V38.7072H165.525V40.7604H167.407V48.1179H165.525V50H158.68V48.1179H156.798V46.1217H154.973V44.0684H153.091V41.9011H151.38Z" fill="#111111"/>
<path d="M189.15 42.9277V41.0456H186.983V38.9924H184.873V36.5399H182.99V17.6044H184.93V15.8363H191.318V17.6044H193.2V31.3497H195.025V33.6881H199.245V31.3497H201.07V17.7185H202.953V15.8363H209.226V17.7185H211.109V51.1977H209.226V53.4791H207.116V55.7035H204.949V57.5286H186.184V55.7035H184.131V49.943H186.184V48.0038H198.333V46.0646H200.614V42.9277H189.15Z" fill="#111111"/>
<path d="M230.945 25.4181H227.067V27.3573H224.786V38.479H227.067V40.4182H230.945V38.479H233.227V27.3573H230.945V25.4181ZM237.504 15.8363V18.0607H239.672V20.4561H241.782V23.1368H243.664V42.7566H241.782V45.4943H239.672V47.8897H237.504V50H220.508V47.8897H218.341V45.4943H216.23V42.7566H214.348V23.1368H216.23V20.4561H218.341V18.0607H220.508V15.8363H237.504Z" fill="#111111"/>
<path d="M267.623 17.6614H269.505V15.7793H276.349V17.6614H278.231V47.8327H276.349V50H269.79V47.8327H267.338V50H254.391V47.8327H251.939V45.1521H249.543V42.4144H247.433V17.6614H249.315V15.7793H256.273V17.6614H258.155V36.711H260.323V38.9924H265.399V36.711H267.623V17.6614Z" fill="#111111"/>
<path d="M299.494 21.2546V12.8705H301.376V10.7603H303.487V8.93516H305.654V7.22412H315.977V9.10626H317.745V14.0112H315.977V15.8363H313.924V17.6614H310.502V21.2546H316.262V23.1368H318.145V29.9809H316.262V31.863H310.502V48.1749H308.734V50.0571H301.319V48.1749H299.494V31.863H294.361V29.9809H292.479V23.1368H294.361V21.2546H299.494Z" fill="#111111"/>
<path d="M338.164 25.4181H334.285V27.3573H332.004V38.479H334.285V40.4182H338.164V38.479H340.445V27.3573H338.164V25.4181ZM344.723 15.8363V18.0607H346.89V20.4561H349V23.1368H350.882V42.7566H349V45.4943H346.89V47.8897H344.723V50H327.726V47.8897H325.559V45.4943H323.449V42.7566H321.567V23.1368H323.449V20.4561H325.559V18.0607H327.726V15.8363H344.723Z" fill="#111111"/>
<path d="M369.366 30.6083V32.6045H366.4V48.1179H364.518V50H357.104V48.1179H355.221V16.4067H357.104V14.5245H364.518V16.4067H366.4V18.8021H369.138V17.0911H377.579V18.9732H379.404V24.7337H377.579V26.7299H375.126V28.6691H372.218V30.6083H369.366Z" fill="#111111"/>
<path d="M70.4456 91.4714V87.8782H68.1071V84.4561H65.8258V81.7185H62.6889V84.4561H60.4075V87.8782H58.0691V91.4714H70.4456ZM70.4456 101.509H58.0691V111.662H55.7307V114H49.4569V111.662H47.0044V83.8858H49.4569V80.3496H51.7953V76.9846H54.0766V73.6196H56.4151V71.2241H72.0996V73.6196H74.438V76.9846H76.7194V80.3496H79.0578V83.8858H81.5673V111.662H79.1718V114H72.9551V111.662H70.4456V101.509Z" fill="#111111"/>
<path d="M111.949 81.7185H114.002V88.3345H111.949V90.0455H99.3442V91.9847H97.0629V101.966H99.3442V103.905H111.949V105.844H114.002V112.175H111.949V114H91.9297V111.89H89.7624V109.494H87.6522V106.757H85.77V87.1938H87.6522V84.5132H89.7624V82.1177H91.9297V79.8363H111.949V81.7185Z" fill="#111111"/>
<path d="M143.307 81.7185H145.36V88.3345H143.307V90.0455H130.702V91.9847H128.421V101.966H130.702V103.905H143.307V105.844H145.36V112.175H143.307V114H123.288V111.89H121.12V109.494H119.01V106.757H117.128V87.1938H119.01V84.5132H121.12V82.1177H123.288V79.8363H143.307V81.7185Z" fill="#111111"/>
<path d="M158.353 92.498H167.935V89.9885H165.938V88.3345H160.349V89.9885H158.353V92.498ZM175.919 86.4523H177.801V99.171H175.919V101.053H158.353V102.821H160.634V104.76H175.52V106.7H177.573V112.175H175.52V114H154.645V112.175H152.478V109.951H150.368V107.669H148.486V86.4523H150.368V83.9999H152.421V81.6614H154.474V79.8363H171.813V81.6614H173.866V83.9999H175.919V86.4523Z" fill="#111111"/>
<path d="M191.622 89.3611V99.171H197.325V97.2319H199.093V91.3003H197.325V89.3611H191.622ZM203.656 79.8363V81.9466H205.823V84.9124H207.876V87.6501H209.759V100.882H207.876V103.563H205.823V106.528H203.656V108.81H191.622V119.589H189.74V121.472H182.895V119.589H181.013V81.7185H182.895V79.8363H203.656Z" fill="#111111"/>
<path d="M229.81 90.3877V103.62H232.377V105.559H235V107.27H237.054V112.175H235V114.057H224.962V112.346H222.795V110.521H220.685V108.411H218.803V90.3877H214.24V88.5056H212.358V81.6614H214.24V79.7793H218.803V73.1063H220.628V71.2241H228.042V73.1063H229.81V79.7793H235V81.6614H236.883V88.5056H235V90.3877H229.81Z" fill="#111111"/>
<path d="M249.742 114H242.898V112.118H241.016V86.2242H242.898V84.3421H249.742V86.2242H251.624V112.118H249.742V114ZM249.913 71.2241V73.0492H251.738V79.8363H249.913V81.6614H242.727V79.8363H240.902V73.0492H242.727V71.2241H249.913Z" fill="#111111"/>
<path d="M266.312 112.118H264.43V114H257.586V112.118H255.704V81.9466H257.586V79.7793H264.145V81.9466H266.598V79.7793H279.544V81.9466H281.997V84.6272H284.392V87.3649H286.503V112.118H284.62V114H277.662V112.118H275.78V93.0684H273.613V90.787H268.537V93.0684H266.312V112.118Z" fill="#111111"/>
<path d="M307.968 88.7337H302.663V90.4448H300.952V96.4334H302.663V98.1444H307.968V88.7337ZM318.576 115.198H316.694V117.479H314.584V119.703H312.416V121.529H293.709V119.703H291.656V113.943H293.709V112.004H305.857V110.065H308.139V106.928H296.675V105.046H294.507V102.992H292.397V100.54H290.515V86.3383H292.397V83.9428H294.507V81.8326H296.675V79.8363H316.694V81.7185H318.576V115.198Z" fill="#111111"/>
<path d="M332.595 70.3686V72.1937H334.421V97.8022H332.595V99.6273H325.979V97.8022H324.154V72.1937H325.979V70.3686H332.595ZM332.595 102.992V104.817H334.421V111.605H332.595V113.43H325.979V111.605H324.154V104.817H325.979V102.992H332.595Z" fill="#111111"/>
</g>
<g filter="url(#filter1_d_336_2)">
<path d="M35.4368 0.224121V2.39144H37.4901V9.23558H35.4368V11.4029H26.8246V40.8327H24.7714V43H17.2428V40.8327H15.0755V11.4029H6.57735V9.23558H4.41003V2.39144H6.57735V0.224121H35.4368Z" fill="white"/>
<path d="M69.4361 41.1179H67.5539V43H60.5957V41.1179H58.7136V24.0075H56.7744V21.9543H52.8961V24.0075H50.9569V41.1179H49.0748V43H42.2306V41.1179H40.3485V2.10626H42.2306V0.224121H49.0748V2.10626H50.9569V11.0036H62.4779V13.171H64.8733V15.5664H67.3258V17.9619H69.4361V41.1179Z" fill="white"/>
<path d="M92.0396 34.5019V29.4828H84.6251V31.0798H82.9141V32.9049H84.6251V34.5019H92.0396ZM100.709 13.4561H102.534V40.9468H100.709V43H78.5224V40.3764H76.4121V38.038H74.4159V35.9848H72.5908V27.6577H74.4159V25.6045H76.4121V23.2661H78.5224V21.0988H92.0396V18.3611H76.241V16.3079H74.3018V10.8325H76.241V8.83634H98.7697V10.8325H100.709V13.4561Z" fill="white"/>
<path d="M116.569 41.1179H114.687V43H107.843V41.1179H105.96V10.9466H107.843V8.7793H114.402V10.9466H116.854V8.7793H129.801V10.9466H132.253V13.6272H134.649V16.3649H136.759V41.1179H134.877V43H127.919V41.1179H126.037V22.0683H123.869V19.787H118.793V22.0683H116.569V41.1179Z" fill="white"/>
<path d="M151.38 34.9011V41.1179H149.498V43H142.654V41.1179H140.772V2.10626H142.654V0.224121H149.498V2.10626H151.38V16.8212H153.091V14.7679H154.973V12.7147H156.798V10.7185H158.68V8.83634H165.525V10.7185H167.407V18.133H165.525V20.3003H163.699V22.4676H161.817V24.6349H159.992V27.3726H161.817V29.5399H163.699V31.7072H165.525V33.7604H167.407V41.1179H165.525V43H158.68V41.1179H156.798V39.1217H154.973V37.0684H153.091V34.9011H151.38Z" fill="white"/>
<path d="M189.15 35.9277V34.0456H186.983V31.9924H184.873V29.5399H182.99V10.6044H184.93V8.83634H191.318V10.6044H193.2V24.3497H195.025V26.6881H199.245V24.3497H201.07V10.7185H202.953V8.83634H209.226V10.7185H211.109V44.1977H209.226V46.4791H207.116V48.7035H204.949V50.5286H186.184V48.7035H184.131V42.943H186.184V41.0038H198.333V39.0646H200.614V35.9277H189.15Z" fill="white"/>
<path d="M230.945 18.4181H227.067V20.3573H224.786V31.479H227.067V33.4182H230.945V31.479H233.227V20.3573H230.945V18.4181ZM237.504 8.83634V11.0607H239.672V13.4561H241.782V16.1368H243.664V35.7566H241.782V38.4943H239.672V40.8897H237.504V43H220.508V40.8897H218.341V38.4943H216.23V35.7566H214.348V16.1368H216.23V13.4561H218.341V11.0607H220.508V8.83634H237.504Z" fill="white"/>
<path d="M267.623 10.6614H269.505V8.7793H276.349V10.6614H278.231V40.8327H276.349V43H269.79V40.8327H267.338V43H254.391V40.8327H251.939V38.1521H249.543V35.4144H247.433V10.6614H249.315V8.7793H256.273V10.6614H258.155V29.711H260.323V31.9924H265.399V29.711H267.623V10.6614Z" fill="white"/>
<path d="M299.494 14.2546V5.87054H301.376V3.76026H303.487V1.93516H305.654V0.224121H315.977V2.10626H317.745V7.01123H315.977V8.83634H313.924V10.6614H310.502V14.2546H316.262V16.1368H318.145V22.9809H316.262V24.863H310.502V41.1749H308.734V43.0571H301.319V41.1749H299.494V24.863H294.361V22.9809H292.479V16.1368H294.361V14.2546H299.494Z" fill="white"/>
<path d="M338.164 18.4181H334.285V20.3573H332.004V31.479H334.285V33.4182H338.164V31.479H340.445V20.3573H338.164V18.4181ZM344.723 8.83634V11.0607H346.89V13.4561H349V16.1368H350.882V35.7566H349V38.4943H346.89V40.8897H344.723V43H327.726V40.8897H325.559V38.4943H323.449V35.7566H321.567V16.1368H323.449V13.4561H325.559V11.0607H327.726V8.83634H344.723Z" fill="white"/>
<path d="M369.366 23.6083V25.6045H366.4V41.1179H364.518V43H357.104V41.1179H355.221V9.40668H357.104V7.52454H364.518V9.40668H366.4V11.8021H369.138V10.0911H377.579V11.9732H379.404V17.7337H377.579V19.7299H375.126V21.6691H372.218V23.6083H369.366Z" fill="white"/>
<path d="M70.4456 84.4714V80.8782H68.1071V77.4561H65.8258V74.7185H62.6889V77.4561H60.4075V80.8782H58.0691V84.4714H70.4456ZM70.4456 94.5095H58.0691V104.662H55.7307V107H49.4569V104.662H47.0044V76.8858H49.4569V73.3496H51.7953V69.9846H54.0766V66.6196H56.4151V64.2241H72.0996V66.6196H74.438V69.9846H76.7194V73.3496H79.0578V76.8858H81.5673V104.662H79.1718V107H72.9551V104.662H70.4456V94.5095Z" fill="white"/>
<path d="M111.949 74.7185H114.002V81.3345H111.949V83.0455H99.3442V84.9847H97.0629V94.9657H99.3442V96.9049H111.949V98.8441H114.002V105.175H111.949V107H91.9297V104.89H89.7624V102.494H87.6522V99.7566H85.77V80.1938H87.6522V77.5132H89.7624V75.1177H91.9297V72.8363H111.949V74.7185Z" fill="white"/>
<path d="M143.307 74.7185H145.36V81.3345H143.307V83.0455H130.702V84.9847H128.421V94.9657H130.702V96.9049H143.307V98.8441H145.36V105.175H143.307V107H123.288V104.89H121.12V102.494H119.01V99.7566H117.128V80.1938H119.01V77.5132H121.12V75.1177H123.288V72.8363H143.307V74.7185Z" fill="white"/>
<path d="M158.353 85.498H167.935V82.9885H165.938V81.3345H160.349V82.9885H158.353V85.498ZM175.919 79.4523H177.801V92.171H175.919V94.0532H158.353V95.8213H160.634V97.7604H175.52V99.6996H177.573V105.175H175.52V107H154.645V105.175H152.478V102.951H150.368V100.669H148.486V79.4523H150.368V76.9999H152.421V74.6614H154.474V72.8363H171.813V74.6614H173.866V76.9999H175.919V79.4523Z" fill="white"/>
<path d="M191.622 82.3611V92.171H197.325V90.2319H199.093V84.3003H197.325V82.3611H191.622ZM203.656 72.8363V74.9466H205.823V77.9124H207.876V80.6501H209.759V93.8821H207.876V96.5627H205.823V99.5285H203.656V101.81H191.622V112.589H189.74V114.472H182.895V112.589H181.013V74.7185H182.895V72.8363H203.656Z" fill="white"/>
<path d="M229.81 83.3877V96.6197H232.377V98.5589H235V100.27H237.054V105.175H235V107.057H224.962V105.346H222.795V103.521H220.685V101.411H218.803V83.3877H214.24V81.5056H212.358V74.6614H214.24V72.7793H218.803V66.1063H220.628V64.2241H228.042V66.1063H229.81V72.7793H235V74.6614H236.883V81.5056H235V83.3877H229.81Z" fill="white"/>
<path d="M249.742 107H242.898V105.118H241.016V79.2242H242.898V77.3421H249.742V79.2242H251.624V105.118H249.742V107ZM249.913 64.2241V66.0492H251.738V72.8363H249.913V74.6614H242.727V72.8363H240.902V66.0492H242.727V64.2241H249.913Z" fill="white"/>
<path d="M266.312 105.118H264.43V107H257.586V105.118H255.704V74.9466H257.586V72.7793H264.145V74.9466H266.598V72.7793H279.544V74.9466H281.997V77.6272H284.392V80.3649H286.503V105.118H284.62V107H277.662V105.118H275.78V86.0684H273.613V83.787H268.537V86.0684H266.312V105.118Z" fill="white"/>
<path d="M307.968 81.7337H302.663V83.4448H300.952V89.4334H302.663V91.1444H307.968V81.7337ZM318.576 108.198H316.694V110.479H314.584V112.703H312.416V114.529H293.709V112.703H291.656V106.943H293.709V105.004H305.857V103.065H308.139V99.9277H296.675V98.0456H294.507V95.9924H292.397V93.5399H290.515V79.3383H292.397V76.9428H294.507V74.8326H296.675V72.8363H316.694V74.7185H318.576V108.198Z" fill="white"/>
<path d="M332.595 63.3686V65.1937H334.421V90.8022H332.595V92.6273H325.979V90.8022H324.154V65.1937H325.979V63.3686H332.595ZM332.595 95.9924V97.8175H334.421V104.605H332.595V106.43H325.979V104.605H324.154V97.8175H325.979V95.9924H332.595Z" fill="white"/>
</g>
<defs>
<filter id="filter0_d_336_2" x="0.410034" y="7.22412" width="382.994" height="122.305" filterUnits="userSpaceOnUse" color-interpolation-filters="sRGB">
<feFlood flood-opacity="0" result="BackgroundImageFix"/>
<feColorMatrix in="SourceAlpha" type="matrix" values="0 0 0 0 0 0 0 0 0 0 0 0 0 0 0 0 0 0 127 0" result="hardAlpha"/>
<feOffset dy="4"/>
<feGaussianBlur stdDeviation="2"/>
<feComposite in2="hardAlpha" operator="out"/>
<feColorMatrix type="matrix" values="0 0 0 0 0 0 0 0 0 0 0 0 0 0 0 0 0 0 0.25 0"/>
<feBlend mode="normal" in2="BackgroundImageFix" result="effect1_dropShadow_336_2"/>
<feBlend mode="normal" in="SourceGraphic" in2="effect1_dropShadow_336_2" result="shape"/>
</filter>
<filter id="filter1_d_336_2" x="0.410034" y="0.224121" width="382.994" height="122.305" filterUnits="userSpaceOnUse" color-interpolation-filters="sRGB">
<feFlood flood-opacity="0" result="BackgroundImageFix"/>
<feColorMatrix in="SourceAlpha" type="matrix" values="0 0 0 0 0 0 0 0 0 0 0 0 0 0 0 0 0 0 127 0" result="hardAlpha"/>
<feOffset dy="4"/>
<feGaussianBlur stdDeviation="2"/>
<feComposite in2="hardAlpha" operator="out"/>
<feColorMatrix type="matrix" values="0 0 0 0 0 0 0 0 0 0 0 0 0 0 0 0 0 0 0.25 0"/>
<feBlend mode="normal" in2="BackgroundImageFix" result="effect1_dropShadow_336_2"/>
<feBlend mode="normal" in="SourceGraphic" in2="effect1_dropShadow_336_2" result="shape"/>
</filter>
</defs>
</svg>
