<?xml version="1.0" encoding="UTF-8"?><svg id="_레이어_2" xmlns="http://www.w3.org/2000/svg" viewBox="0 0 1609 911.08"><defs><style>.cls-1{fill:none;stroke:#fff;stroke-miterlimit:10;}</style></defs><g id="_레이어_1-2"><path class="cls-1" d="M2.54,2.05c10.72-6.04,14.27,7.49,26.57,7.49S41.42,1.54,53.73,1.54s12.31,8,24.61,8S90.64,1.54,102.95,1.54s12.31,8,24.61,8,12.31-8,24.61-8,12.31,8,24.61,8,12.31-8,24.61-8,12.31,8,24.61,8,12.31-8,24.61-8,12.31,8,24.62,8,12.31-8,24.61-8,12.31,8,24.61,8,12.31-8,24.61-8,12.31,8,24.61,8,12.31-8,24.62-8,12.31,8,24.61,8,12.31-8,24.62-8,12.31,8,24.61,8,12.31-8,24.62-8,12.31,8,24.61,8,12.31-8,24.62-8,12.31,8,24.61,8,12.31-8,24.62-8,12.31,8,24.61,8,12.31-8,24.61-8,12.31,8,24.62,8,12.31-8,24.61-8,12.31,8,24.61,8,12.31-8,24.62-8,12.31,8,24.62,8,12.31-8,24.61-8,12.31,8,24.61,8,12.31-8,24.61-8,12.31,8,24.61,8,12.31-8,24.62-8,12.31,8,24.61,8,12.31-8,24.62-8,12.31,8,24.61,8,12.31-8,24.61-8,12.31,8,24.61,8,12.31-8,24.61-8,12.31,8,24.62,8,12.31-8,24.62-8,12.31,8,24.62,8,12.31-8,24.61-8,12.31,8,24.61,8,12.31-8,24.62-8,12.31,8,24.62,8,12.31-8,24.62-8,12.31,8,24.62,8,12.31-8,24.62-8,12.31,8,24.62,8,12.31-8,24.62-8,12.31,8,24.62,8,12.31-8,24.62-8,12.31,8,24.61,8,12.31-8,24.62-8,12.31,8,24.62,8,12.31-8,24.62-8,12.31,8,24.62,8,12.31-8,24.62-8,12.31,8,24.62,8,12.31-8,24.63-8,11.93,1.45,22.66,7.49c6.03,3.39,5.96,3.44,5.96,10.36s-8,6.92-8,13.85,8,6.92,8,13.84-8,6.92-8,13.84,8,6.92,8,13.85-8,6.92-8,13.85,8,6.92,8,13.84-8,6.92-8,13.85,8,6.92,8,13.85-8,6.92-8,13.84,8,6.92,8,13.84-8,6.92-8,13.84,8,6.92,8,13.84-8,6.92-8,13.84,8,6.92,8,13.84-8,6.92-8,13.84,8,6.92,8,13.84-8,6.92-8,13.85,8,6.92,8,13.84-8,6.92-8,13.84,8,6.92,8,13.84-8,6.92-8,13.85,8,6.92,8,13.84-8,6.92-8,13.84c0,6.92,8,6.92,8,13.84,0,6.92-8,6.92-8,13.85s8,6.92,8,13.84-8,6.92-8,13.84,8,6.92,8,13.85-8,6.92-8,13.84,8,6.92,8,13.85-8,6.92-8,13.85,8,6.92,8,13.84-8,6.92-8,13.85,8,6.92,8,13.84c0,6.92-8,6.92-8,13.85s8,6.92,8,13.85-8,6.92-8,13.85,8,6.92,8,13.85-8,6.92-8,13.85,8,6.92,8,13.85-8,6.92-8,13.85,8,6.92,8,13.85-8,6.92-8,13.85,8,6.92,8,13.85-8,6.92-8,13.85,8,6.92,8,13.85-8,6.92-8,13.85,8,6.92,8,13.85-8,6.92-8,13.84c0,6.92,8,6.92,8,13.85s-8,6.92-8,13.85,8,6.92,8,13.85-8,6.92-8,13.85c0,6.92,8,6.92,8,13.85s-8,6.93-8,13.85c0,6.92,8,6.92,8,13.85s-8,6.92-8,13.85,8,6.93,8,13.85-8,6.92-8,13.85,8,6.92,8,13.85-8,6.93-8,13.85,8,6.92,8,13.85-9.76,8.31-7.84,14.97c2.62,9.1,11.84,12.84,5.81,16.24-10.72,6.04-14.27-7.49-26.57-7.49-12.31,0-12.31,8-24.61,8-12.31,0-12.31-8-24.61-8-12.31,0-12.31,8-24.61,8s-12.31-8-24.61-8-12.31,8-24.61,8c-12.31,0-12.31-8-24.61-8s-12.31,8-24.61,8-12.31-8-24.61-8-12.31,8-24.61,8-12.31-8-24.62-8-12.31,8-24.61,8-12.31-8-24.61-8c-12.31,0-12.31,8-24.61,8-12.31,0-12.31-8-24.61-8s-12.31,8-24.62,8-12.31-8-24.61-8-12.31,8-24.62,8-12.31-8-24.61-8-12.31,8-24.62,8-12.31-8-24.61-8-12.31,8-24.62,8-12.31-8-24.61-8c-12.31,0-12.31,8-24.62,8-12.31,0-12.31-8-24.61-8-12.31,0-12.31,8-24.61,8s-12.31-8-24.62-8-12.31,8-24.61,8c-12.31,0-12.31-8-24.61-8-12.31,0-12.31,8-24.62,8-12.31,0-12.31-8-24.62-8s-12.31,8-24.61,8-12.31-8-24.61-8c-12.31,0-12.31,8-24.61,8s-12.31-8-24.61-8-12.31,8-24.62,8-12.31-8-24.61-8-12.31,8-24.62,8c-12.31,0-12.31-8-24.61-8-12.31,0-12.31,8-24.61,8-12.31,0-12.31-8-24.61-8s-12.31,8-24.61,8c-12.31,0-12.31-8-24.62-8s-12.31,8-24.62,8-12.31-8-24.62-8c-12.31,0-12.31,8-24.61,8-12.31,0-12.31-8-24.61-8s-12.31,8-24.62,8-12.31-8-24.62-8-12.31,8-24.62,8c-12.31,0-12.31-8-24.62-8-12.31,0-12.31,8-24.62,8s-12.31-8-24.62-8-12.31,8-24.62,8-12.31-8-24.62-8-12.31,8-24.62,8c-12.31,0-12.31-8-24.61-8-12.31,0-12.31,8-24.62,8-12.31,0-12.31-8-24.62-8s-12.31,8-24.62,8c-12.31,0-12.31-8-24.62-8s-12.31,8-24.62,8-12.31-8-24.62-8c-12.31,0-12.31,8-24.63,8s-11.93-1.45-22.66-7.49c-6.03-3.39-5.96-3.44-5.96-10.36s8-6.92,8-13.85-8-6.92-8-13.84,8-6.92,8-13.84-8-6.92-8-13.85,8-6.92,8-13.85-8-6.92-8-13.84c0-6.92,8-6.92,8-13.85s-8-6.92-8-13.85,8-6.92,8-13.84-8-6.92-8-13.84,8-6.92,8-13.84-8-6.92-8-13.84c0-6.92,8-6.92,8-13.84s-8-6.92-8-13.84,8-6.92,8-13.84-8-6.92-8-13.84c0-6.92,8-6.92,8-13.85s-8-6.92-8-13.84,8-6.92,8-13.84-8-6.92-8-13.84c0-6.92,8-6.92,8-13.85s-8-6.92-8-13.84,8-6.92,8-13.84c0-6.92-8-6.92-8-13.84,0-6.92,8-6.92,8-13.85s-8-6.92-8-13.84,8-6.92,8-13.84c0-6.92-8-6.92-8-13.85,0-6.92,8-6.92,8-13.84s-8-6.92-8-13.85,8-6.92,8-13.85-8-6.92-8-13.84,8-6.92,8-13.85-8-6.92-8-13.84c0-6.92,8-6.92,8-13.85s-8-6.92-8-13.85,8-6.92,8-13.85-8-6.92-8-13.85,8-6.92,8-13.85-8-6.92-8-13.85,8-6.92,8-13.85-8-6.92-8-13.85,8-6.92,8-13.85-8-6.92-8-13.85,8-6.92,8-13.85-8-6.92-8-13.85,8-6.92,8-13.85-8-6.92-8-13.85,8-6.92,8-13.84c0-6.92-8-6.92-8-13.85s8-6.92,8-13.85-8-6.92-8-13.85c0-6.92,8-6.92,8-13.85,0-6.92-8-6.92-8-13.85s8-6.93,8-13.85S.5,123.28,.5,116.36s8-6.92,8-13.85S.5,95.58,.5,88.66s8-6.92,8-13.85S.5,67.89,.5,60.96c0-6.93,8-6.93,8-13.85S.5,40.18,.5,33.26s8-6.93,8-13.86S-3.5,5.45,2.54,2.05"/></g></svg>