<?xml version="1.0" encoding="UTF-8"?>
<svg id="Layer_2" data-name="Layer 2" xmlns="http://www.w3.org/2000/svg" preserveAspectRatio="none" viewBox="0 0 379.94 209.94">
  <defs>
    <style>
      .cls-1 {
        stroke-dasharray: 0 0 2.02 2.02;
      }

      .cls-1, .cls-2, .cls-3, .cls-4 {
        stroke: #fff;
        stroke-miterlimit: 10;
        stroke-width: .5px;
      }

      .cls-1, .cls-2, .cls-3, .cls-4, .cls-5 {
        fill: none;
      }

      .cls-3 {
        stroke-dasharray: 0 0 2 2;
      }

      .cls-4 {
        stroke-dasharray: 0 0 1.91 1.91;
      }

      .cls-5 {
        opacity: .7;
      }
    </style>
  </defs>
  <g id="Layer_1-2" data-name="Layer 1">
    <g class="cls-5">
      <g>
        <line class="cls-2" y1="139.94" x2="1" y2="139.94"/>
        <path class="cls-1" d="m3.02,139.94h28.19l13.28,12.23c1.54,1.42,4.47,1.42,6.01,0l13.28-12.23h29.2"/>
        <polyline class="cls-2" points="93.99 139.94 94.99 139.94 94.99 140.94"/>
        <line class="cls-4" x1="94.99" y1="142.85" x2="94.99" y2="160.99"/>
        <polyline class="cls-2" points="94.99 161.94 94.99 162.94 94.12 163.45"/>
        <path class="cls-3" d="m92.4,164.47l-14.01,8.26c-1.92,1.13-1.92,3.29,0,4.43l14.88,8.77"/>
        <polyline class="cls-2" points="94.12 186.44 94.99 186.94 94.99 187.94"/>
        <line class="cls-4" x1="94.99" y1="189.85" x2="94.99" y2="207.99"/>
        <line class="cls-2" x1="94.99" y1="208.94" x2="94.99" y2="209.94"/>
      </g>
      <g>
        <line class="cls-2" x1="189.97" y1="209.94" x2="189.97" y2="208.94"/>
        <line class="cls-4" x1="189.97" y1="207.03" x2="189.97" y2="188.9"/>
        <polyline class="cls-2" points="189.97 187.94 189.97 186.94 189.11 186.44"/>
        <path class="cls-3" d="m187.38,185.42l-14.01-8.26c-1.92-1.13-1.92-3.29,0-4.43l14.88-8.77"/>
        <polyline class="cls-2" points="189.11 163.45 189.97 162.94 189.97 161.94"/>
        <line class="cls-4" x1="189.97" y1="160.03" x2="189.97" y2="141.9"/>
        <polyline class="cls-2" points="189.97 140.94 189.97 139.94 188.97 139.94"/>
        <path class="cls-1" d="m186.95,139.94h-28.19l-13.28-12.23c-1.54-1.42-4.47-1.42-6.01,0l-13.28,12.23h-29.2"/>
        <polyline class="cls-2" points="95.99 139.94 94.99 139.94 94.99 138.94"/>
        <line class="cls-4" x1="94.99" y1="137.03" x2="94.99" y2="118.9"/>
        <polyline class="cls-2" points="94.99 117.94 94.99 116.94 95.85 116.44"/>
        <path class="cls-3" d="m97.57,115.42l14.01-8.26c1.92-1.13,1.92-3.29,0-4.43l-14.88-8.77"/>
        <polyline class="cls-2" points="95.85 93.45 94.99 92.94 94.99 91.94"/>
        <line class="cls-4" x1="94.99" y1="90.03" x2="94.99" y2="71.9"/>
        <polyline class="cls-2" points="94.99 70.94 94.99 69.94 94.99 70 93.99 70"/>
        <path class="cls-1" d="m91.97,70h-28.19l-13.28-12.23c-1.54-1.42-4.47-1.42-6.01,0l-13.28,12.23H2.01"/>
        <line class="cls-2" x1="1" y1="70" y2="70"/>
      </g>
      <g>
        <line class="cls-2" x1="94.99" x2="94.99" y2="1"/>
        <line class="cls-4" x1="94.99" y1="2.91" x2="94.99" y2="21.05"/>
        <polyline class="cls-2" points="94.99 22 94.99 23 95.85 23.51"/>
        <path class="cls-3" d="m97.57,24.53l14.01,8.26c1.92,1.13,1.92,3.29,0,4.43l-14.88,8.77"/>
        <polyline class="cls-2" points="95.85 46.49 94.99 47 94.99 48"/>
        <line class="cls-4" x1="94.99" y1="49.91" x2="94.99" y2="68.05"/>
        <polyline class="cls-2" points="94.99 69 94.99 70 95.99 70"/>
        <path class="cls-1" d="m98.01,70h28.19l13.28-12.23c1.54-1.42,4.47-1.42,6.01,0l13.28,12.23h29.2"/>
        <polyline class="cls-2" points="188.97 70 189.97 70 189.97 69.94 189.97 70.94"/>
        <line class="cls-4" x1="189.97" y1="72.85" x2="189.97" y2="90.99"/>
        <polyline class="cls-2" points="189.97 91.94 189.97 92.94 189.11 93.45"/>
        <path class="cls-3" d="m187.38,94.47l-14.01,8.26c-1.92,1.13-1.92,3.29,0,4.43l14.88,8.77"/>
        <polyline class="cls-2" points="189.11 116.44 189.97 116.94 189.97 117.94"/>
        <line class="cls-4" x1="189.97" y1="119.85" x2="189.97" y2="137.99"/>
        <polyline class="cls-2" points="189.97 138.94 189.97 139.94 190.97 139.94"/>
        <path class="cls-1" d="m192.99,139.94h28.19l13.28,12.23c1.54,1.42,4.47,1.42,6.01,0l13.28-12.23h29.2"/>
        <polyline class="cls-2" points="283.96 139.94 284.96 139.94 284.96 140.94"/>
        <line class="cls-4" x1="284.96" y1="142.85" x2="284.96" y2="160.99"/>
        <polyline class="cls-2" points="284.96 161.94 284.96 162.94 285.82 163.45"/>
        <path class="cls-3" d="m287.54,164.47l14.01,8.26c1.92,1.13,1.92,3.29,0,4.43l-14.88,8.77"/>
        <polyline class="cls-2" points="285.82 186.44 284.96 186.94 284.96 187.94"/>
        <line class="cls-4" x1="284.96" y1="189.85" x2="284.96" y2="207.99"/>
        <line class="cls-2" x1="284.96" y1="208.94" x2="284.96" y2="209.94"/>
      </g>
      <g>
        <line class="cls-2" x1="284.96" x2="284.96" y2="1"/>
        <line class="cls-4" x1="284.96" y1="2.91" x2="284.96" y2="21.05"/>
        <polyline class="cls-2" points="284.96 22 284.96 23 284.1 23.51"/>
        <path class="cls-3" d="m282.37,24.53l-14.01,8.26c-1.92,1.13-1.92,3.29,0,4.43l14.88,8.77"/>
        <polyline class="cls-2" points="284.1 46.49 284.96 47 284.96 48"/>
        <line class="cls-4" x1="284.96" y1="49.91" x2="284.96" y2="68.05"/>
        <polyline class="cls-2" points="284.96 69 284.96 70 283.96 70"/>
        <path class="cls-1" d="m281.94,70h-28.19l-13.28,12.23c-1.54,1.42-4.47,1.42-6.01,0l-13.28-12.23h-29.2"/>
        <polyline class="cls-2" points="190.97 70 189.97 70 189.97 69"/>
        <line class="cls-4" x1="189.97" y1="67.09" x2="189.97" y2="48.95"/>
        <polyline class="cls-2" points="189.97 48 189.97 47 189.11 46.49"/>
        <path class="cls-3" d="m187.38,45.47l-14.01-8.26c-1.92-1.13-1.92-3.29,0-4.43l14.88-8.77"/>
        <polyline class="cls-2" points="189.11 23.51 189.97 23 189.97 22"/>
        <line class="cls-4" x1="189.97" y1="20.09" x2="189.97" y2="1.95"/>
        <line class="cls-2" x1="189.97" y1="1" x2="189.97"/>
      </g>
      <g>
        <line class="cls-2" x1="379.94" y1="139.94" x2="378.94" y2="139.94"/>
        <path class="cls-1" d="m376.92,139.94h-28.19l-13.28-12.23c-1.54-1.42-4.47-1.42-6.01,0l-13.28,12.23h-29.2"/>
        <polyline class="cls-2" points="285.96 139.94 284.96 139.94 284.96 138.94"/>
        <line class="cls-4" x1="284.96" y1="137.03" x2="284.96" y2="118.9"/>
        <polyline class="cls-2" points="284.96 117.94 284.96 116.94 284.1 116.44"/>
        <path class="cls-3" d="m282.37,115.42l-14.01-8.26c-1.92-1.13-1.92-3.29,0-4.43l14.88-8.77"/>
        <polyline class="cls-2" points="284.1 93.45 284.96 92.94 284.96 91.94"/>
        <line class="cls-4" x1="284.96" y1="90.03" x2="284.96" y2="71.9"/>
        <polyline class="cls-2" points="284.96 70.94 284.96 69.94 285.96 69.94"/>
        <path class="cls-1" d="m287.98,69.94h28.19l13.28,12.23c1.54,1.42,4.47,1.42,6.01,0l13.28-12.23h29.2"/>
        <line class="cls-2" x1="378.94" y1="69.94" x2="379.94" y2="69.94"/>
      </g>
    </g>
  </g>
</svg>