<svg width="37" height="31" viewBox="0 0 37 31" fill="none" xmlns="http://www.w3.org/2000/svg">
<path d="M24.5289 29.0688C27.5342 27.5662 31.2808 26.7531 32.4161 23.3472C33.4348 20.2911 35.257 17.6643 35.257 14.427C35.257 11.3385 35.3529 9.27072 33.1114 6.89741C32.0296 5.7519 31.0861 4.47404 29.5354 3.95712C28.5309 3.6223 26.1017 2.23186 23.5 2C20.8983 1.76814 19.2092 2.35962 16.8603 3.14258C14.4662 3.94061 11.4888 5.93643 9.90693 7.97022C8.69364 9.53017 7.46485 12.3896 7.36398 14.4071C7.22889 17.1089 7.91135 18.3554 9.5096 20.4863M2.3576 17.9831C4.09361 18.5618 6.32826 19.0765 7.90046 19.9499C8.72959 20.4106 10.0052 21.719 10.96 20.9433C12.1901 19.9438 13.1046 17.8315 13.9598 16.4732C14.6124 15.4368 14.1099 14.4647 14.5956 13.4932C15.2637 12.1571 11.7661 13.4909 10.96 13.6522C9.71341 13.9015 8.44342 14.1937 7.18525 14.3872C5.74848 14.6083 2.95027 15.2448 2 16.1951" stroke="white" stroke-width="3" stroke-linecap="round"/>
</svg>
