<svg width="739" height="430" viewBox="0 0 739 430" fill="none" xmlns="http://www.w3.org/2000/svg">
<path d="M714.728 0.110352H24.2261C11.2913 0.110352 0.805664 10.5672 0.805664 23.4663V406.013C0.805664 418.912 11.2913 429.369 24.2261 429.369H714.728C727.662 429.369 738.148 418.912 738.148 406.013V23.4663C738.148 10.5672 727.662 0.110352 714.728 0.110352Z" fill="#FFF5EB"/>
<path d="M78.4461 0.110352H39.626V429.369H78.4461V0.110352Z" fill="#91BAC7"/>
<path d="M156.06 0.110352H117.24V429.369H156.06V0.110352Z" fill="#91BAC7"/>
<path d="M233.674 0.110352H194.854V429.369H233.674V0.110352Z" fill="#91BAC7"/>
<path d="M311.287 0.110352H272.467V429.369H311.287V0.110352Z" fill="#91BAC7"/>
<path d="M388.9 0.110352H350.08V429.369H388.9V0.110352Z" fill="#91BAC7"/>
<path d="M466.514 0.110352H427.694V429.369H466.514V0.110352Z" fill="#91BAC7"/>
<path d="M544.128 0.110352H505.308V429.369H544.128V0.110352Z" fill="#91BAC7"/>
<path d="M621.741 0.110352H582.921V429.369H621.741V0.110352Z" fill="#91BAC7"/>
<path d="M699.354 0.110352H660.534V429.369H699.354V0.110352Z" fill="#91BAC7"/>
<path d="M369.249 0.350586L0.324219 214.74L369.249 429.129L738.148 214.74L369.249 0.350586Z" fill="#002E66"/>
<path d="M157.209 264.224C149.349 261.505 142.906 257.612 137.906 252.52C132.907 247.454 129.03 241.721 126.303 235.376C123.576 241.721 119.699 247.454 114.7 252.52C109.7 257.585 103.257 261.505 95.3965 264.224V255.186C98.4443 253.373 101.198 251.053 103.578 248.254C105.984 245.454 107.989 242.281 109.593 238.735C111.197 235.189 112.427 231.35 113.256 227.217C114.085 223.085 114.486 218.845 114.486 214.473V174.746H97.7225V166.081H154.803V174.746H138.04V214.473C138.04 218.845 138.441 223.085 139.27 227.217C140.098 231.35 141.328 235.189 142.932 238.735C144.537 242.281 146.542 245.454 148.895 248.254C151.247 251.053 154.001 253.373 157.156 255.186V264.224H157.209ZM162.289 267.93V210.74H146.167V202.075H162.289V176.08C162.289 172.933 163.118 170.294 164.775 168.108C166.433 165.921 169.24 164.828 173.224 164.828H183.785V267.93H162.316H162.289ZM191.217 267.93V176.106C191.217 172.96 192.046 170.321 193.703 168.134C195.361 165.948 198.168 164.855 202.152 164.855H212.953V267.957H191.244L191.217 267.93Z" fill="#FFF8D6"/>
<path d="M313.452 187.757C313.452 191.622 312.516 195.169 310.671 198.341C308.8 201.514 306.153 204.26 302.731 206.58C299.309 208.899 295.191 210.659 290.432 211.912C285.673 213.139 280.433 213.779 274.739 213.779C269.044 213.779 263.804 213.165 259.045 211.912C254.286 210.686 250.195 208.899 246.746 206.58C243.324 204.26 240.677 201.514 238.806 198.341C236.934 195.169 236.025 191.649 236.025 187.757C236.025 183.864 236.961 180.344 238.806 177.172C240.677 173.999 243.324 171.253 246.746 168.933C250.169 166.614 254.286 164.854 259.045 163.601C263.804 162.374 269.044 161.734 274.739 161.734C280.433 161.734 285.673 162.348 290.432 163.601C295.191 164.827 299.282 166.614 302.731 168.933C306.153 171.253 308.8 173.999 310.671 177.172C312.543 180.344 313.452 183.864 313.452 187.757ZM328.344 229.589H243.084V220.924H352.406V248.386H267.761V259.264H353.021V267.929H254.607C250.623 267.929 247.816 266.836 246.158 264.65C244.501 262.463 243.672 259.797 243.672 256.678V239.961H328.317V229.563L328.344 229.589ZM289.63 187.757C289.63 185.517 289.336 183.384 288.748 181.331C288.16 179.278 287.251 177.438 286.021 175.812C284.791 174.212 283.241 172.906 281.369 171.919C279.498 170.933 277.305 170.426 274.739 170.426C272.172 170.426 269.953 170.933 268.108 171.919C266.237 172.906 264.686 174.212 263.456 175.812C262.226 177.412 261.291 179.251 260.729 181.331C260.141 183.384 259.847 185.544 259.847 187.757C259.847 189.969 260.141 192.156 260.729 194.262C261.317 196.368 262.226 198.208 263.456 199.834C264.686 201.434 266.237 202.714 268.108 203.674C269.98 204.634 272.172 205.087 274.739 205.087C277.305 205.087 279.524 204.607 281.369 203.674C283.241 202.714 284.791 201.434 286.021 199.834C287.251 198.235 288.16 196.368 288.748 194.262C289.336 192.156 289.63 189.996 289.63 187.757ZM328.344 215.965V176.105C328.344 172.959 329.172 170.32 330.83 168.133C332.488 165.947 335.295 164.854 339.278 164.854H352.432V215.965H328.344Z" fill="#FFF8D6"/>
<path d="M465.365 234.523H380.105V225.857H422.802V216.446H376.015V207.781H494.159V216.446H447.372V225.857H489.454V250.866H404.809V259.292H490.069V267.957H391.655C387.671 267.957 384.864 266.864 383.207 264.677C381.549 262.491 380.72 259.825 380.72 256.705V242.468H465.365V234.549V234.523ZM447.506 177.839C448.014 179.732 449.377 181.678 451.596 183.651C453.842 185.624 456.81 187.464 460.526 189.171C464.242 190.877 468.654 192.263 473.733 193.383C478.813 194.503 484.481 195.169 490.684 195.436V204.235C485.069 204.075 479.401 203.621 473.733 202.875C468.065 202.128 462.745 201.115 457.799 199.835C452.853 198.556 448.361 196.956 444.404 195.009C440.421 193.063 437.319 190.877 435.1 188.397C432.855 190.877 429.753 193.09 425.796 195.009C421.813 196.956 417.348 198.556 412.402 199.835C407.456 201.115 402.109 202.128 396.467 202.875C390.799 203.621 385.158 204.075 379.517 204.235V195.436C385.639 195.196 391.254 194.503 396.334 193.383C401.413 192.263 405.825 190.877 409.541 189.171C413.257 187.491 416.252 185.651 418.471 183.651C420.717 181.678 422.08 179.732 422.561 177.839H380.747V169.174H422.829V161.122H447.399V169.174H489.481V177.839H447.533H447.506Z" fill="#FFF8D6"/>
<path d="M505.683 224.258V215.593H519.345V174.134H506.939V165.468H595.675V174.134H583.884V215.593H597.413V224.258H505.709H505.683ZM628.292 267.957H529.878C525.895 267.957 523.088 266.864 521.43 264.678C519.772 262.492 518.943 259.825 518.943 256.706V233.323H543.032V259.185H628.292V267.984V267.957ZM543.407 215.62H559.796V174.16H543.407V215.62ZM603.589 237.029V176.133C603.589 172.987 604.417 170.348 606.075 168.161C607.733 165.975 610.54 164.882 614.523 164.882H627.677V190.371H643.077V199.036H627.677V237.029H603.589Z" fill="#FFF8D6"/>
<path d="M307.277 318.588V320.534H323.612V321.974H307.063C306.635 321.974 306.234 321.841 305.86 321.601C305.486 321.361 305.299 320.934 305.299 320.348V317.175H321.26V315.362H305.218V313.949H313.266V312.082H304.042V310.643H324.468V312.082H315.244V313.949H323.211V318.588H307.25H307.277ZM315.217 302.884H323.185V304.324H315.298C315.512 304.964 315.913 305.497 316.501 305.977C317.089 306.457 317.811 306.857 318.613 307.15C319.415 307.47 320.271 307.683 321.126 307.843C322.008 307.976 322.81 308.056 323.532 308.03V309.496C322.703 309.496 321.848 309.39 320.939 309.256C320.03 309.096 319.174 308.883 318.319 308.59C317.463 308.296 316.688 307.923 315.966 307.497C315.244 307.07 314.656 306.563 314.175 305.977C313.694 306.563 313.105 307.07 312.384 307.497C311.662 307.923 310.886 308.296 310.031 308.59C309.175 308.883 308.32 309.123 307.411 309.256C306.502 309.416 305.646 309.496 304.844 309.496V308.03C305.566 308.056 306.368 308.03 307.25 307.843C308.133 307.657 308.961 307.47 309.763 307.15C310.565 306.83 311.261 306.43 311.876 305.977C312.49 305.497 312.865 304.964 313.052 304.324H305.218V302.884H313.159V301.098H315.137V302.884H315.217Z" fill="#FFF8D6"/>
<path d="M352.541 308.136H342.783V311.415H354.546V312.855H342.756C342.034 312.855 341.526 312.695 341.232 312.348C340.938 312.002 340.804 311.522 340.804 310.909V306.723H350.563V303.577H340.697V302.164H352.541V308.136ZM358.236 321.973V316.508H342.435V315.068H360.241V322H358.263L358.236 321.973ZM354.119 304.27H358.236V303.523C358.236 302.937 358.343 302.564 358.53 302.35C358.744 302.137 359.091 302.03 359.599 302.03H360.214V313.495H358.236V309.709H354.119V308.269H358.236V305.736H354.119V304.297V304.27Z" fill="#FFF8D6"/>
<path d="M378.1 321.121V319.681H385.773V313.523H387.751V319.681H398.285V321.121H378.1ZM396.627 302.298V310.35C396.627 311.256 396.601 312.216 396.52 313.229C396.44 314.242 396.333 315.149 396.2 316.002H394.275C394.382 315.256 394.489 314.456 394.515 313.576C394.569 312.696 394.595 311.843 394.622 310.99H379.035V309.55H394.622V303.764H379.035V302.325H396.601L396.627 302.298Z" fill="#FFF8D6"/>
<path d="M427.374 303.577H416.733V306.483H427.374V307.869H416.733V310.935H429.78V312.375H416.68C415.985 312.375 415.477 312.215 415.183 311.869C414.889 311.522 414.755 311.069 414.755 310.482V302.137H427.401V303.55L427.374 303.577ZM434.459 318.454C434.459 319.681 433.71 320.667 432.213 321.414C430.716 322.133 428.417 322.507 425.289 322.507C422.161 322.507 419.888 322.133 418.418 321.414C416.92 320.694 416.199 319.707 416.199 318.454C416.199 317.201 416.947 316.214 418.418 315.468C419.888 314.748 422.187 314.375 425.315 314.375C428.444 314.375 430.743 314.748 432.24 315.468C433.737 316.188 434.486 317.201 434.486 318.454H434.459ZM432.481 318.454C432.481 317.948 432.293 317.521 431.892 317.174C431.518 316.828 430.983 316.561 430.315 316.348C429.647 316.134 428.898 315.975 428.016 315.895C427.134 315.815 426.251 315.761 425.289 315.761C424.326 315.761 423.417 315.815 422.562 315.895C421.706 316.001 420.958 316.134 420.289 316.348C419.648 316.561 419.113 316.828 418.739 317.174C418.364 317.521 418.15 317.948 418.15 318.454C418.15 318.961 418.337 319.387 418.739 319.734C419.113 320.08 419.648 320.347 420.289 320.56C420.931 320.774 421.706 320.907 422.562 321.014C423.417 321.094 424.326 321.147 425.289 321.147C426.251 321.147 427.16 321.094 428.016 321.014C428.871 320.934 429.647 320.774 430.315 320.56C430.983 320.347 431.491 320.08 431.892 319.734C432.267 319.387 432.481 318.961 432.481 318.454ZM434.165 313.948H432.187V303.523C432.187 302.937 432.293 302.564 432.481 302.35C432.695 302.137 433.042 302.03 433.55 302.03H434.165V313.948Z" fill="#FFF8D6"/>
<path d="M312.168 109.212H305.083V124.703H312.756V126.142H305.029C304.334 126.142 303.826 125.929 303.532 125.529C303.238 125.102 303.104 124.623 303.104 124.036V107.772H312.168V109.212ZM322.167 127.475H320.215V116.917H316.766V127.475H314.815V109.025C314.815 108.439 314.922 108.065 315.109 107.852C315.323 107.639 315.67 107.532 316.178 107.532H316.766V115.478H320.215V109.052C320.215 108.465 320.322 108.092 320.509 107.879C320.723 107.666 321.071 107.559 321.579 107.559H322.167V127.502V127.475Z" fill="#FFF8D6"/>
<path d="M338.583 110.145V108.705H345.133V106.652H347.112V108.705H353.475V110.145H338.583ZM352.967 114.971C352.967 116.117 352.379 117.077 351.175 117.77C349.972 118.464 348.288 118.837 346.122 118.837C345.053 118.837 344.091 118.73 343.235 118.544C342.379 118.357 341.658 118.09 341.069 117.744C340.481 117.397 340.027 116.997 339.733 116.517C339.412 116.037 339.278 115.504 339.278 114.944C339.278 114.384 339.439 113.851 339.733 113.371C340.053 112.891 340.481 112.491 341.069 112.145C341.658 111.798 342.379 111.531 343.235 111.345C344.091 111.158 345.053 111.052 346.122 111.052C348.288 111.052 349.972 111.398 351.175 112.118C352.379 112.838 352.967 113.771 352.967 114.918V114.971ZM359.276 124.063C359.276 125.262 358.528 126.196 357.031 126.915C355.533 127.635 353.234 127.982 350.079 127.982C346.925 127.982 344.652 127.635 343.182 126.915C341.684 126.196 340.962 125.236 340.962 124.063C340.962 122.89 341.711 121.93 343.182 121.21C344.679 120.49 346.978 120.143 350.079 120.143C353.181 120.143 355.533 120.49 357.031 121.21C358.528 121.93 359.276 122.89 359.276 124.063ZM350.962 114.971C350.962 114.571 350.828 114.224 350.561 113.904C350.293 113.611 349.946 113.345 349.518 113.131C349.09 112.918 348.555 112.758 347.967 112.678C347.379 112.598 346.737 112.545 346.096 112.545C345.454 112.545 344.839 112.598 344.251 112.678C343.663 112.785 343.155 112.918 342.7 113.131C342.246 113.345 341.898 113.584 341.631 113.904C341.364 114.198 341.23 114.571 341.23 114.971C341.23 115.371 341.364 115.744 341.631 116.037C341.898 116.331 342.246 116.597 342.7 116.811C343.155 117.024 343.663 117.184 344.251 117.264C344.839 117.37 345.454 117.397 346.096 117.397C346.737 117.397 347.379 117.344 347.967 117.264C348.555 117.184 349.09 117.024 349.518 116.811C349.946 116.597 350.293 116.357 350.561 116.037C350.828 115.744 350.962 115.371 350.962 114.971ZM357.271 124.063C357.271 123.609 357.084 123.209 356.683 122.89C356.282 122.57 355.774 122.303 355.106 122.116C354.437 121.93 353.689 121.77 352.806 121.69C351.951 121.61 351.042 121.556 350.079 121.556C349.117 121.556 348.235 121.61 347.379 121.69C346.523 121.77 345.748 121.93 345.107 122.116C344.465 122.303 343.93 122.57 343.529 122.89C343.128 123.209 342.941 123.609 342.941 124.063C342.941 124.516 343.128 124.916 343.529 125.236C343.93 125.556 344.438 125.822 345.107 126.009C345.775 126.196 346.523 126.329 347.379 126.436C348.235 126.516 349.144 126.569 350.079 126.569C351.015 126.569 351.951 126.516 352.806 126.436C353.662 126.356 354.437 126.196 355.106 126.009C355.774 125.822 356.309 125.556 356.683 125.236C357.057 124.916 357.271 124.516 357.271 124.063ZM353.662 111.665H357.111V109.025C357.111 108.439 357.218 108.065 357.405 107.852C357.619 107.639 357.966 107.532 358.474 107.532H359.089V119.903H357.111V117.237H353.662V115.797H357.111V113.131H353.662V111.691V111.665Z" fill="#FFF8D6"/>
<path d="M394.086 107.745H396.064V116.144H388.097V118.25H397.321V119.69H376.895V118.25H386.118V116.144H379.969C379.247 116.144 378.766 115.957 378.499 115.61C378.258 115.264 378.124 114.784 378.124 114.171V107.745H380.103V110.465H394.059V107.745H394.086ZM394.086 127.448V122.996H377.884V121.556H396.091V127.475H394.112L394.086 127.448ZM380.13 114.704H394.086V111.931H380.13V114.704Z" fill="#FFF8D6"/>
<path d="M419.752 119.956C419.458 120.756 419.057 121.529 418.496 122.276C417.934 123.022 417.319 123.689 416.571 124.302C415.822 124.915 415.02 125.422 414.138 125.848C413.256 126.275 412.347 126.568 411.438 126.755V125.315C412.453 125.048 413.389 124.649 414.271 124.062C415.154 123.502 415.929 122.782 416.597 121.929C417.266 121.076 417.774 120.063 418.175 118.943C418.549 117.823 418.763 116.57 418.763 115.21V107.532H420.741V115.21C420.741 116.57 420.929 117.796 421.33 118.943C421.731 120.089 422.239 121.076 422.907 121.929C423.575 122.782 424.351 123.502 425.233 124.062C426.115 124.622 427.078 125.048 428.067 125.315V126.755C427.158 126.568 426.249 126.275 425.367 125.848C424.484 125.422 423.682 124.915 422.961 124.302C422.212 123.689 421.57 123.022 421.009 122.276C420.447 121.529 420.02 120.756 419.726 119.956H419.752ZM430.42 127.448V108.998C430.42 108.411 430.527 108.038 430.714 107.825C430.928 107.612 431.275 107.505 431.783 107.505H432.398V115.85H435.366V117.29H432.398V127.448H430.42Z" fill="#FFF8D6"/>
</svg>
