<svg width="821" height="537" viewBox="0 0 821 537" fill="none" xmlns="http://www.w3.org/2000/svg">
<path d="M817.703 144.26H645.574C600.873 60.341 512.384 3.20996 410.494 3.20996C308.605 3.20996 220.088 60.341 175.388 144.26H3.25879V393.102H175.388C220.088 476.994 308.605 534.152 410.494 534.152C512.384 534.152 600.9 477.021 645.601 393.102H817.73V144.26H817.703Z" fill="#FFF5EB"/>
<path d="M410.495 536.826C311.366 536.826 220.839 482.822 173.78 395.776H0.579102V141.587H173.78C220.812 54.5402 311.366 0.537109 410.495 0.537109C509.624 0.537109 600.177 54.5402 647.209 141.587H820.41V395.776H647.209C600.15 482.822 509.597 536.826 410.495 536.826ZM5.93887 390.429H176.996L177.746 391.846C223.653 477.957 312.813 531.479 410.495 531.479C508.176 531.479 597.336 477.984 643.243 391.846L643.993 390.429H815.05V146.934H643.993L643.243 145.517C597.336 59.3791 508.15 5.88395 410.495 5.88395C312.839 5.88395 223.653 59.3791 177.746 145.517L176.996 146.934H5.93887V390.429Z" fill="#0B5200"/>
<path d="M410.496 479.053C526.961 479.053 621.376 384.866 621.376 268.681C621.376 152.496 526.961 58.3096 410.496 58.3096C294.03 58.3096 199.615 152.496 199.615 268.681C199.615 384.866 294.03 479.053 410.496 479.053Z" fill="#FFE5A6"/>
<path d="M122.193 198.905C122.032 201.097 122.032 204.305 122.193 208.583C122.353 212.86 122.434 217.592 122.434 222.779V316.562C122.434 317.07 122.461 318.541 122.568 320.973C122.648 323.406 123.023 325.999 123.693 328.78C124.363 331.56 125.328 334.02 126.588 336.185C127.847 338.377 129.643 339.447 132.001 339.447C132.51 339.447 132.751 339.955 132.751 340.944V342.949C132.751 343.965 132.51 344.446 132.001 344.446H48.8441C48.3349 344.446 48.0938 343.938 48.0938 342.949V340.944C48.0938 339.928 48.3349 339.447 48.8441 339.447C51.2024 339.447 52.9979 338.351 54.2575 336.185C55.517 334.02 56.4282 331.533 57.0178 328.78C57.6073 326.026 57.9289 323.433 58.0361 320.973C58.1165 318.541 58.1701 317.07 58.1701 316.562C58.1701 301.805 58.1969 286.941 58.3041 271.943C58.3845 256.945 58.4381 240.557 58.4381 222.805V200.937C58.4381 200.429 58.3845 199.653 58.3041 198.557C58.2237 197.461 57.8485 196.338 57.1786 195.162C56.5086 193.986 55.5438 192.943 54.2843 192.008C53.0247 191.099 51.2024 190.617 48.8709 190.617C48.3617 190.617 48.1205 190.109 48.1205 189.12V187.623C48.1205 186.607 48.3617 186.126 48.8709 186.126H131.545C132.055 186.126 132.296 186.634 132.296 187.623V189.12C132.296 190.136 132.055 190.617 131.545 190.617C127.847 190.617 125.382 191.633 124.122 193.638C122.863 195.643 122.219 197.408 122.219 198.932L122.193 198.905Z" fill="#E62A00"/>
<path d="M264.576 188.612C266.425 187.944 268.14 188.96 269.748 191.633C271.329 194.306 272.642 197.889 273.66 202.327C274.679 206.765 275.295 211.63 275.563 216.897C275.804 222.164 275.483 227.083 274.545 231.601C273.607 236.119 272.106 239.942 270.016 243.043C267.925 246.144 264.924 247.615 261.065 247.454C257.527 247.454 254.392 246.117 251.605 243.444C248.845 240.771 245.977 237.402 243.029 233.392C240.081 229.382 236.946 225.051 233.569 220.453C230.219 215.854 226.253 211.523 221.724 207.513C217.704 203.984 213.577 202.247 209.37 202.247C207.012 202.247 205.002 202.861 203.313 204.145C201.625 205.401 200.58 207.192 200.151 209.545C199.722 211.898 200.151 214.731 201.411 218.1C202.67 221.442 205.055 225.318 208.593 229.676C212.13 233.873 216.204 237.509 220.813 240.61C225.422 243.711 230.219 246.599 235.177 249.272C240.135 251.945 245.012 254.672 249.783 257.453C254.58 260.206 258.814 263.281 262.512 266.623C266.21 269.964 269.238 273.921 271.597 278.439C273.955 282.957 275.134 288.411 275.134 294.774C275.134 301.644 273.875 308.141 271.356 314.263C268.837 320.385 264.897 325.785 259.511 330.491C254.124 335.196 247.237 338.885 238.849 341.559C230.434 344.232 220.357 345.569 208.593 345.569C185.063 345.569 167.483 342.093 155.799 335.142C144.115 328.191 138.272 318.594 138.272 306.35C138.272 297.795 140.175 291.592 143.954 287.743C147.732 283.893 153.575 281.968 161.48 281.968C169.386 281.968 176.005 284.027 180.883 288.117C185.76 292.234 188.199 298.303 188.199 306.35C188.199 312.231 186.698 316.616 183.67 319.556C180.641 322.497 177.024 324.876 172.843 326.721C178.551 329.582 184.527 330.999 190.745 330.999C195.622 330.999 199.99 330.116 203.849 328.352C207.708 326.587 210.656 324.288 212.666 321.428C214.676 318.567 215.48 315.359 215.051 311.75C214.622 308.141 212.479 304.505 208.619 300.816C205.27 297.474 201.143 294.399 196.265 291.646C191.388 288.892 186.403 286.165 181.258 283.465C176.139 280.792 170.994 277.985 165.875 275.044C160.757 272.103 156.174 268.815 152.154 265.125C148.134 261.436 144.838 257.212 142.319 252.427C139.8 247.641 138.54 242.161 138.54 235.958C138.54 229.088 140.014 222.591 142.962 216.469C145.91 210.347 150.278 205 156.067 200.375C161.855 195.777 169.172 192.114 177.988 189.441C186.805 186.767 197.016 185.431 208.619 185.431C215.828 185.27 221.724 185.484 226.253 186.046C230.782 186.634 234.561 187.302 237.589 188.051C240.617 188.799 243.163 189.521 245.28 190.189C247.371 190.858 249.702 191.205 252.221 191.205C255.41 191.205 259.537 190.377 264.576 188.692V188.612Z" fill="#E62A00"/>
<path d="M335.378 319.85C335.378 320.198 335.512 321.401 335.753 323.486C335.994 325.598 336.504 327.817 337.254 330.143C338.004 332.495 339.05 334.634 340.416 336.559C341.756 338.484 343.605 339.446 345.964 339.446C346.473 339.446 346.714 339.954 346.714 340.943V343.456C346.714 344.125 346.473 344.472 345.964 344.472H280.95C280.44 344.472 280.199 344.151 280.199 343.456V340.943C280.199 339.927 280.44 339.446 280.95 339.446C283.308 339.446 285.264 338.484 286.872 336.559C288.48 334.634 289.82 332.495 290.892 330.143C291.991 327.79 292.795 325.571 293.277 323.486C293.786 321.401 294.027 320.171 294.027 319.85L322.997 203.449C324.176 198.771 325.221 195.188 326.159 192.756C327.07 190.323 328.625 188.558 330.822 187.489C332.993 186.393 336.021 185.805 339.907 185.724C343.766 185.644 349.233 185.591 356.281 185.591H362.847C369.895 185.591 375.362 185.644 379.221 185.724C383.08 185.805 386.055 186.393 388.172 187.489C390.262 188.585 391.816 190.35 392.835 192.756C393.853 195.188 394.925 198.744 396.104 203.449L422.072 306.028C422.582 308.221 423.332 311.188 424.35 314.958C425.369 318.727 426.628 322.47 428.129 326.133C429.63 329.822 431.452 332.977 433.542 335.57C435.633 338.163 438.125 339.473 440.966 339.473C441.287 339.473 441.475 339.981 441.475 340.97V343.243C441.475 344.071 441.314 344.499 440.966 344.499H355.022C354.512 344.499 354.298 344.365 354.405 344.125C354.486 343.884 354.539 343.59 354.539 343.243V340.97C354.539 340.302 354.486 339.874 354.405 339.714C354.325 339.553 354.539 339.473 355.022 339.473C357.192 339.473 358.64 338.564 359.309 336.719C359.979 334.875 360.221 332.789 360.06 330.437C359.899 328.084 359.604 325.919 359.175 323.914C358.747 321.909 358.452 320.652 358.291 320.144L350.734 287.716H334.869L335.378 319.904V319.85ZM334.628 222.805C333.958 222.965 333.663 224.596 333.743 227.697C333.824 230.798 333.958 233.686 334.119 236.359L334.628 273.814H347.491L338.674 235.611C338.514 234.274 338.246 232.857 337.924 231.333C337.576 229.836 337.254 228.446 336.906 227.189C336.557 225.933 336.236 224.89 335.887 224.035C335.539 223.206 335.137 222.778 334.628 222.778V222.805Z" fill="#E62A00"/>
<path d="M499.708 319.85C499.708 320.198 499.842 321.401 500.083 323.486C500.325 325.598 500.834 327.817 501.584 330.143C502.334 332.495 503.38 334.634 504.746 336.559C506.086 338.484 507.935 339.446 510.294 339.446C510.803 339.446 511.044 339.954 511.044 340.943V343.456C511.044 344.125 510.803 344.472 510.294 344.472H445.28C444.77 344.472 444.529 344.151 444.529 343.456V340.943C444.529 339.927 444.77 339.446 445.28 339.446C447.638 339.446 449.594 338.484 451.202 336.559C452.81 334.634 454.15 332.495 455.222 330.143C456.321 327.79 457.125 325.571 457.607 323.486C458.116 321.401 458.358 320.171 458.358 319.85L487.327 203.449C488.506 198.771 489.551 195.188 490.489 192.756C491.4 190.323 492.955 188.558 495.152 187.489C497.323 186.393 500.351 185.805 504.237 185.724C508.096 185.644 513.563 185.591 520.611 185.591H527.177C534.225 185.591 539.692 185.644 543.551 185.724C547.41 185.805 550.385 186.393 552.502 187.489C554.592 188.585 556.147 190.35 557.165 192.756C558.183 195.188 559.255 198.744 560.434 203.449L586.402 306.028C586.912 308.221 587.662 311.188 588.68 314.958C589.699 318.727 590.958 322.47 592.459 326.133C593.96 329.822 595.782 332.977 597.872 335.57C599.963 338.163 602.455 339.473 605.296 339.473C605.617 339.473 605.805 339.981 605.805 340.97V343.243C605.805 344.071 605.644 344.499 605.296 344.499H519.352C518.843 344.499 518.628 344.365 518.735 344.125C518.816 343.884 518.869 343.59 518.869 343.243V340.97C518.869 340.302 518.816 339.874 518.735 339.714C518.655 339.553 518.869 339.473 519.352 339.473C521.522 339.473 522.97 338.564 523.64 336.719C524.309 334.875 524.551 332.789 524.39 330.437C524.229 328.084 523.934 325.919 523.506 323.914C523.077 321.909 522.782 320.652 522.621 320.144L515.064 287.716H499.199L499.708 319.904V319.85ZM498.958 222.805C498.288 222.965 497.993 224.596 498.073 227.697C498.154 230.798 498.288 233.686 498.449 236.359L498.958 273.814H511.821L503.004 235.611C502.844 234.274 502.576 232.857 502.254 231.333C501.906 229.836 501.584 228.446 501.236 227.189C500.887 225.933 500.566 224.89 500.217 224.035C499.869 223.206 499.467 222.778 498.958 222.778V222.805Z" fill="#E62A00"/>
<path d="M609.824 265.045C609.824 237.215 616.872 216.683 630.995 203.45C645.118 190.216 666.45 183.345 695.018 182.837C705.255 182.677 715.09 183.64 724.497 185.725C733.903 187.837 742.184 191.259 749.312 196.044C756.441 200.83 762.176 206.978 766.464 214.518C770.751 222.057 772.895 231.28 772.895 242.161C772.895 253.737 769.867 262.399 763.81 268.173C757.754 273.948 748.937 276.835 737.36 276.835C725.783 276.835 716.645 273.948 710.508 268.173C704.371 262.399 701.316 253.71 701.316 242.161C701.316 231.253 703.888 222.885 709.007 217.031C714.125 211.176 722.245 207.887 733.34 207.219C732 204.038 729.696 201.471 726.399 199.546C723.13 197.622 719.378 196.659 715.197 196.659C711.017 196.659 707.077 197.782 702.977 200.054C698.85 202.327 695.152 206.096 691.882 211.363C688.613 216.656 686.04 223.634 684.191 232.349C682.342 241.065 681.833 251.945 682.69 265.045C683.2 273.44 684.968 280.605 687.97 286.54C690.998 292.501 694.723 297.34 699.198 301.136C703.647 304.906 708.471 307.66 713.697 309.424C718.896 311.188 724.041 312.071 729.079 312.071C734.948 312.071 740.12 311.028 744.569 308.916C749.018 306.831 752.099 303.917 753.761 300.254C754.431 298.57 755.556 297.367 757.164 296.618C758.772 295.87 760.407 295.495 762.069 295.495C764.239 295.495 766.196 296.03 767.857 297.126C769.545 298.222 770.215 299.773 769.867 301.778C767 316.856 759.067 328.298 746.043 336.105C733.019 343.911 716.001 347.788 695.018 347.788C666.799 347.788 645.547 340.97 631.263 327.309C616.98 313.648 609.851 292.902 609.851 265.072L609.824 265.045Z" fill="#E62A00"/>
<path d="M333.448 389.28C334.815 387.917 335.485 387.248 336.852 385.885C341.944 390.964 344.65 393.237 350.332 397.247C349.206 398.824 348.67 399.599 347.545 401.177C347.33 400.589 346.982 399.974 346.526 399.332C346.044 398.69 345.642 398.236 345.24 397.942C344.355 397.274 343.927 396.926 343.069 396.231C338.889 401.417 336.798 404.037 332.644 409.224C332.403 409.518 332.216 410.026 332.108 410.721C331.974 411.416 332.001 412.111 332.189 412.753C329.134 410.373 327.633 409.117 324.712 406.47C325.382 406.55 326.052 406.47 326.722 406.203C327.392 405.962 327.847 405.695 328.089 405.401C332.51 400.401 334.708 397.915 339.13 392.916C338.299 392.194 337.897 391.82 337.066 391.071C336.718 390.75 336.155 390.403 335.431 390.029C334.708 389.654 334.038 389.414 333.395 389.28H333.448Z" fill="#073300"/>
<path d="M362.793 412.966C363.785 411.843 364.91 410.907 366.17 410.186C367.429 409.464 368.823 409.009 370.324 408.795C371.824 408.582 373.405 408.795 375.094 409.41C376.809 410.025 378.176 410.881 379.167 412.004C380.186 413.126 380.936 414.356 381.418 415.72C381.901 417.083 382.169 418.527 382.169 420.024C382.169 421.548 382.035 422.938 381.713 424.248C381.392 425.558 380.829 426.868 380.052 428.151C379.274 429.434 378.256 430.53 376.997 431.413C375.737 432.295 374.263 432.883 372.548 433.15C370.833 433.418 368.876 433.177 366.733 432.429C364.615 431.68 362.981 430.611 361.802 429.274C360.622 427.964 359.845 426.547 359.443 425.05C359.041 423.553 358.961 422.056 359.175 420.559C359.416 419.061 359.818 417.698 360.408 416.468C360.998 415.238 361.802 414.062 362.766 412.913L362.793 412.966ZM365.232 418.66C364.964 419.329 364.696 420.158 364.508 421.147C364.294 422.136 364.24 423.152 364.374 424.194C364.481 425.21 364.83 426.199 365.366 427.082C365.929 427.991 366.786 428.659 367.965 429.087C369.171 429.514 370.27 429.568 371.262 429.22C372.253 428.873 373.111 428.338 373.861 427.616C374.611 426.895 375.201 426.093 375.683 425.21C376.166 424.328 376.487 423.553 376.702 422.884C376.889 422.243 377.05 421.414 377.13 420.398C377.238 419.382 377.184 418.366 377.023 417.35C376.863 416.335 376.541 415.399 376.059 414.57C375.576 413.715 374.853 413.126 373.861 412.779C372.896 412.431 371.958 412.431 371.047 412.779C370.136 413.1 369.278 413.608 368.528 414.276C367.778 414.944 367.081 415.693 366.518 416.522C365.929 417.35 365.5 418.072 365.232 418.687V418.66Z" fill="#073300"/>
<path d="M399.4 438.926C399.936 438.578 400.392 438.097 400.74 437.509C401.089 436.921 401.357 436.439 401.544 436.065C404.439 429.382 405.698 426.013 407.922 419.196C407.976 418.955 408.003 418.715 408.003 418.501C408.003 418.153 407.949 417.806 407.869 417.485C407.815 417.271 407.762 417.004 407.681 416.763C407.601 416.496 407.467 416.282 407.306 416.068C411.138 416.175 413.068 416.121 416.9 415.881C416.739 416.095 416.632 416.335 416.552 416.603C416.471 416.87 416.418 417.111 416.364 417.351C416.337 417.592 416.31 417.832 416.31 418.02C416.31 418.207 416.31 418.34 416.31 418.421C416.31 418.634 416.364 418.875 416.418 419.089C418.91 425.799 420.33 429.141 423.493 435.691C423.68 436.065 423.975 436.52 424.35 437.081C424.725 437.642 425.208 438.097 425.77 438.445C422.394 438.872 420.705 439.006 417.302 439.22C417.49 439.006 417.65 438.765 417.731 438.498C417.811 438.231 417.892 437.99 417.945 437.803C418.026 437.429 418.079 437.081 418.052 436.76C418.052 436.52 417.999 436.279 417.918 436.065C417.49 434.996 417.275 434.434 416.873 433.365C413.229 434.06 411.379 434.327 407.681 434.755C407.467 435.37 407.386 435.691 407.172 436.306C407.118 436.52 407.065 436.76 407.065 436.974C407.065 437.054 407.065 437.161 407.065 437.348C407.065 437.536 407.092 437.776 407.172 438.044C407.226 438.231 407.306 438.471 407.413 438.739C407.52 439.006 407.681 439.22 407.842 439.434C404.465 439.38 402.777 439.3 399.4 439.006V438.926ZM415.667 429.943C414.167 426.04 413.47 424.062 412.21 420.105C411.004 424.463 410.334 426.655 408.887 430.959C411.621 430.611 412.987 430.424 415.667 429.916V429.943Z" fill="#073300"/>
<path d="M441.207 417.351C440.939 416.415 440.965 415.453 441.233 414.544C441.501 413.635 441.957 412.779 442.573 412.004C443.19 411.229 443.94 410.534 444.798 409.919C445.655 409.304 446.593 408.796 447.558 408.422C448.764 407.941 449.943 407.727 451.122 407.753C451.283 407.753 451.444 407.753 451.631 407.753C451.792 407.753 451.98 407.727 452.114 407.7C452.462 407.62 452.811 407.513 453.159 407.352C453.561 407.165 453.856 406.978 454.07 406.791C455.196 409.197 455.785 410.427 456.911 412.833C456.375 412.512 455.812 412.218 455.196 411.951C454.579 411.683 453.936 411.496 453.293 411.336C452.623 411.202 451.953 411.122 451.256 411.149C450.559 411.149 449.89 411.309 449.22 411.576C448.764 411.764 448.308 412.004 447.853 412.298C447.397 412.619 446.995 412.94 446.674 413.314C446.352 413.688 446.111 414.089 445.95 414.544C445.789 414.998 445.789 415.453 445.95 415.907C446.245 416.736 446.781 417.271 447.612 417.511C448.442 417.752 449.327 417.859 450.238 417.859C450.961 417.859 451.685 417.859 452.409 417.832C453.105 417.805 453.856 417.779 454.606 417.779C456.509 417.806 458.063 418.1 459.242 418.714C460.448 419.329 461.44 420.372 462.11 421.816C462.512 422.698 462.592 423.66 462.378 424.649C462.137 425.639 461.681 426.601 460.957 427.51C460.261 428.419 459.349 429.274 458.304 430.023C457.232 430.772 456.107 431.386 454.901 431.841C453.427 432.402 451.98 432.643 450.586 432.59C450.238 432.59 449.809 432.59 449.407 432.67C449.059 432.723 448.576 432.803 448.067 432.964C447.612 433.097 447.21 433.285 446.888 433.472C446.111 430.932 445.709 429.649 444.932 427.082C445.468 427.43 446.03 427.777 446.674 428.125C447.29 428.446 447.96 428.713 448.684 428.9C449.38 429.087 450.131 429.168 450.935 429.141C451.712 429.141 452.516 428.98 453.293 428.686C453.856 428.472 454.392 428.205 454.928 427.858C455.464 427.51 455.892 427.136 456.294 426.735C456.67 426.334 456.938 425.879 457.098 425.425C457.259 424.97 457.232 424.516 457.045 424.061C457.045 424.008 457.018 423.981 456.991 423.928C456.804 423.527 456.536 423.179 456.134 422.938C455.678 422.644 455.115 422.484 454.445 422.404C453.775 422.324 453.159 422.297 452.543 422.27C451.792 422.243 451.042 422.243 450.291 422.27C449.541 422.27 448.791 422.27 448.067 422.19C447.317 422.11 446.566 422.003 445.843 421.816C445.119 421.628 444.476 421.361 443.887 421.014C443.19 420.586 442.627 420.051 442.225 419.463C441.823 418.875 441.528 418.233 441.314 417.565C441.314 417.511 441.26 417.431 441.233 417.351H441.207Z" fill="#073300"/>
<path d="M472.4 401.177C471.275 399.599 470.739 398.824 469.613 397.247C475.295 393.237 478.028 390.964 483.093 385.885C484.46 387.248 485.13 387.917 486.497 389.28C485.88 389.387 485.183 389.654 484.46 390.029C483.736 390.403 483.2 390.75 482.825 391.071C481.994 391.847 481.592 392.221 480.735 392.969C485.157 397.969 487.354 400.455 491.776 405.454C492.044 405.748 492.499 406.016 493.169 406.256C493.839 406.497 494.536 406.577 495.206 406.524C492.285 409.17 490.784 410.427 487.729 412.806C487.917 412.165 487.917 411.469 487.783 410.774C487.649 410.079 487.461 409.571 487.22 409.277C483.039 404.091 480.976 401.471 476.795 396.284C475.938 396.979 475.509 397.3 474.651 397.969C474.276 398.263 473.847 398.717 473.365 399.359C472.883 400 472.534 400.615 472.347 401.203L472.4 401.177Z" fill="#073300"/>
<path d="M352.181 127.418C352.395 127.204 352.583 126.83 352.77 126.322C352.931 125.814 353.065 125.279 353.145 124.718C353.226 124.156 353.253 123.622 353.253 123.14C353.253 122.659 353.119 122.312 352.931 122.098C354.834 120.387 355.799 119.585 357.782 118.034C357.621 118.622 357.674 119.13 357.942 119.585C358.21 120.039 358.452 120.414 358.666 120.681C362.337 125.306 364.187 127.605 367.858 132.203C368.072 132.471 368.421 132.738 368.93 133.005C369.439 133.273 369.948 133.433 370.458 133.487C368.367 135.091 367.349 135.946 365.393 137.791C365.419 137.283 365.339 136.748 365.151 136.187C364.964 135.652 364.776 135.251 364.535 134.984C361.212 131.321 359.55 129.476 356.227 125.814C355.316 127.151 354.887 127.846 354.057 129.236C353.306 128.487 352.931 128.113 352.207 127.391L352.181 127.418Z" fill="#073300"/>
<path d="M377.023 111.11C377.077 110.094 377.345 109.078 377.881 108.089C378.417 107.1 379.221 106.191 380.293 105.362C381.365 104.534 382.678 103.865 384.179 103.411C385.572 102.983 387.019 102.823 388.467 102.876C389.914 102.93 391.254 103.277 392.486 103.919C393.719 104.56 394.737 105.469 395.595 106.646C396.453 107.822 396.989 109.346 397.283 111.164C397.471 112.313 397.444 113.543 397.203 114.88C396.962 116.217 396.56 117.446 395.943 118.649C395.327 119.826 394.55 120.895 393.612 121.831C392.674 122.766 391.522 123.435 390.155 123.863C389.646 124.023 389.19 124.13 388.842 124.157C388.467 124.183 388.118 124.21 387.797 124.21C387.475 124.21 387.127 124.21 386.778 124.21C386.43 124.21 386.055 124.237 385.626 124.29C385.385 124.317 385.063 124.397 384.715 124.531C384.393 124.665 384.152 124.798 383.964 124.959L381.686 119.638C382.196 119.933 382.758 120.173 383.402 120.387C384.045 120.601 384.688 120.761 385.358 120.868C386.028 120.975 386.698 121.029 387.395 121.002C388.091 121.002 388.735 120.868 389.351 120.681C390.021 120.467 390.557 120.146 391.039 119.692C391.495 119.237 391.87 118.73 392.165 118.168C392.46 117.607 392.701 116.992 392.862 116.377C393.022 115.762 393.103 115.174 393.13 114.639C392.594 115.414 391.95 116.029 391.2 116.511C390.45 116.992 389.646 117.393 388.788 117.66C387.368 118.088 386.108 118.329 384.929 118.329C383.75 118.329 382.705 118.195 381.767 117.847C380.829 117.5 379.998 117.019 379.301 116.377C378.605 115.735 378.042 114.987 377.667 114.131C377.238 113.169 377.05 112.153 377.077 111.11H377.023ZM381.954 112.073C382.142 112.554 382.41 113.008 382.758 113.409C383.107 113.837 383.536 114.185 384.045 114.452C384.554 114.719 385.09 114.88 385.706 114.96C386.323 115.04 386.966 114.96 387.663 114.746C388.359 114.532 388.949 114.211 389.405 113.757C389.86 113.329 390.208 112.821 390.45 112.287C390.691 111.752 390.852 111.19 390.905 110.576C390.959 109.987 390.905 109.426 390.798 108.945C390.691 108.517 390.476 108.089 390.155 107.662C389.833 107.234 389.405 106.886 388.922 106.619C388.44 106.352 387.877 106.164 387.234 106.058C386.617 105.977 385.921 106.004 385.304 106.218C384.5 106.485 383.804 106.913 383.294 107.367C382.758 107.822 382.383 108.33 382.115 108.865C381.847 109.399 381.713 109.934 381.713 110.495C381.713 111.03 381.794 111.565 381.981 112.046L381.954 112.073Z" fill="#073300"/>
<path d="M414.703 104.453C415.212 103.571 415.909 102.795 416.82 102.181C417.731 101.566 418.857 101.111 420.17 100.871C421.483 100.63 422.957 100.63 424.511 100.897C425.931 101.165 427.298 101.673 428.558 102.368C429.817 103.09 430.862 103.999 431.64 105.121C432.444 106.244 432.926 107.527 433.14 108.971C433.355 110.415 433.14 111.992 432.578 113.756C432.229 114.853 431.613 115.949 430.809 117.018C430.005 118.087 429.04 118.996 427.941 119.772C426.843 120.547 425.663 121.135 424.404 121.536C423.144 121.937 421.804 122.017 420.411 121.777C419.875 121.697 419.446 121.563 419.098 121.429C418.749 121.296 418.428 121.162 418.16 121.001C417.865 120.841 417.57 120.681 417.275 120.52C416.981 120.36 416.605 120.199 416.23 120.066C415.989 119.986 415.694 119.905 415.319 119.879C414.997 119.852 414.703 119.879 414.462 119.932C414.622 117.633 414.73 116.483 414.89 114.184C415.185 114.665 415.587 115.173 416.043 115.628C416.498 116.109 417.007 116.537 417.543 116.938C418.079 117.339 418.642 117.686 419.258 117.981C419.875 118.275 420.491 118.488 421.134 118.595C421.804 118.702 422.448 118.676 423.064 118.488C423.68 118.301 424.243 118.007 424.779 117.633C425.315 117.259 425.797 116.831 426.226 116.35C426.655 115.869 427.003 115.387 427.271 114.933C426.441 115.361 425.583 115.628 424.699 115.735C423.814 115.842 422.93 115.788 422.046 115.655C420.598 115.387 419.366 115.013 418.347 114.505C417.302 113.97 416.471 113.355 415.801 112.634C415.131 111.885 414.622 111.083 414.328 110.201C414.006 109.292 413.872 108.383 413.926 107.447C413.979 106.405 414.274 105.415 414.783 104.506L414.703 104.453ZM418.562 107.581C418.508 108.089 418.562 108.597 418.642 109.158C418.749 109.693 418.991 110.201 419.285 110.682C419.607 111.137 420.009 111.538 420.518 111.885C421.027 112.233 421.644 112.447 422.367 112.58C423.091 112.714 423.734 112.687 424.35 112.5C424.967 112.313 425.503 112.046 425.958 111.671C426.414 111.297 426.816 110.869 427.137 110.361C427.459 109.853 427.673 109.372 427.807 108.864C427.915 108.436 427.915 107.955 427.807 107.42C427.7 106.886 427.513 106.405 427.191 105.923C426.896 105.442 426.467 105.041 425.958 104.667C425.449 104.293 424.833 104.025 424.163 103.945C423.332 103.811 422.528 103.892 421.858 104.052C421.188 104.212 420.598 104.48 420.143 104.827C419.66 105.175 419.285 105.603 419.044 106.084C418.776 106.565 418.615 107.073 418.562 107.581Z" fill="#073300"/>
<path d="M455.222 113.676C460.341 116.965 462.779 118.836 467.362 123.14C466.237 124.343 465.647 124.958 464.521 126.161C464.361 125.573 464.066 124.931 463.61 124.263C463.181 123.595 462.753 123.113 462.378 122.766C460.18 120.895 459.028 120.012 456.723 118.355C455.624 119.023 455.061 119.371 453.989 120.039C454.552 120.199 455.088 120.413 455.651 120.734C456.187 121.028 456.723 121.376 457.205 121.723C458.626 122.766 459.751 123.969 460.502 125.199C461.252 126.402 461.734 127.578 461.895 128.701C462.056 129.824 461.976 130.84 461.681 131.775C461.359 132.711 460.877 133.513 460.207 134.155C459.537 134.796 458.76 135.304 457.849 135.652C456.937 136.026 455.946 136.186 454.901 136.16C453.855 136.133 452.784 135.919 451.631 135.518C450.506 135.117 449.326 134.476 448.201 133.593C447.772 133.272 447.37 132.898 446.995 132.497C446.593 132.123 446.271 131.668 445.977 131.214C445.628 130.653 445.173 130.198 444.663 129.877C444.422 129.717 444.154 129.61 443.913 129.556C445.119 127.605 445.735 126.642 446.941 124.691C446.968 125.225 447.022 125.76 447.102 126.322C447.183 126.883 447.343 127.444 447.531 127.979C447.745 128.514 448.013 129.048 448.362 129.53C448.71 130.011 449.139 130.465 449.648 130.84C450.291 131.321 450.934 131.642 451.551 131.829C452.167 132.016 452.784 132.069 453.373 132.016C453.963 131.962 454.499 131.802 455.008 131.561C455.517 131.294 455.946 130.947 456.321 130.546C456.669 130.145 456.937 129.663 457.125 129.102C457.313 128.541 457.366 127.979 457.259 127.364C457.179 126.749 456.937 126.134 456.589 125.52C456.214 124.905 455.678 124.316 454.927 123.755C454.713 123.595 454.445 123.434 454.097 123.22C453.748 123.033 453.319 122.846 452.837 122.712C452.355 122.579 451.792 122.472 451.149 122.418C450.506 122.365 449.809 122.418 449.032 122.499C449.326 120.493 449.46 119.478 449.675 117.446C451.819 115.842 452.944 115.066 455.195 113.569L455.222 113.676Z" fill="#073300"/>
<path d="M616.846 168.83C578.121 89.322 499.038 39.9172 410.467 39.9172C321.897 39.9172 242.841 89.322 204.089 168.83L199.266 166.477C218.239 127.525 247.638 94.5886 284.298 71.2497C321.951 47.2691 365.579 34.5703 410.467 34.5703C455.356 34.5703 498.984 47.2423 536.637 71.2497C573.297 94.6154 602.696 127.552 621.669 166.477L616.846 168.83Z" fill="#E62A00"/>
<path d="M410.494 502.792C365.606 502.792 321.977 490.12 284.325 466.113C247.664 442.747 218.266 409.811 199.292 370.886L204.116 368.533C242.84 448.041 321.924 497.446 410.494 497.446C499.064 497.446 578.121 448.041 616.872 368.533L621.696 370.886C602.722 409.838 573.324 442.774 536.663 466.113C499.01 490.12 455.382 502.792 410.494 502.792Z" fill="#E62A00"/>
</svg>
