<?xml version="1.0" encoding="UTF-8"?><svg id="_레이어_2" xmlns="http://www.w3.org/2000/svg" viewBox="0 0 173.46 429.04"><g id="_레이어_1-2"><g><rect x="6.91" y="6.91" width="159.65" height="415.22" style="fill:#e5dfce;"/><rect x="6.91" y="220.68" width="159.65" height="201.45" style="fill:#cbe2dc;"/><g><path d="M79.94,116.9c-1.66,0-2.85-.4-3.56-1.2-.72-.8-1.08-1.95-1.08-3.44v-2.82c-2.49,2.37-5.21,4.23-8.16,5.55-2.96,1.33-6.39,1.96-10.32,1.91-2.49-.06-4.52-.82-6.09-2.28-1.57-1.46-2.36-3.6-2.36-6.42V47.87c0-1.49,.39-2.57,1.16-3.23,.77-.66,1.79-.99,3.07-.99h37.87c1.44,0,2.5,.39,3.19,1.16,.69,.77,1.04,1.8,1.04,3.07V112.26c0,1.49-.36,2.64-1.08,3.44-.72,.8-1.91,1.2-3.56,1.2h-10.11Zm-10.19-15.08c1.82,0,3.67-.52,5.55-1.57V53.58c0-1.1-.58-1.66-1.74-1.66h-4.14c-1.11,0-1.66,.55-1.66,1.66v45.41c0,.83,.11,1.51,.33,2.03,.22,.53,.77,.79,1.66,.79Zm47.73-20.3v30.75c0,1.49-.36,2.64-1.08,3.44s-1.91,1.2-3.56,1.2h-10.11c-1.66,0-2.85-.4-3.56-1.2-.72-.8-1.08-1.95-1.08-3.44V48.28c0-1.49,.36-2.64,1.08-3.44,.72-.8,1.91-1.2,3.56-1.2h10.11c1.66,0,2.85,.4,3.56,1.2s1.08,1.95,1.08,3.44v24.94h8.54c.5,0,.94,.12,1.33,.37,.39,.25,.58,.7,.58,1.37v4.81c0,.66-.21,1.12-.62,1.37-.41,.25-.84,.37-1.28,.37h-8.54Z" style="fill:#513bd6;"/><path d="M59.39,135.29c0-1.49,.36-2.64,1.08-3.44,.72-.8,1.91-1.2,3.56-1.2h10.11c1.66,0,2.84,.4,3.56,1.2,.72,.8,1.08,1.95,1.08,3.44v5.64c0,6.02-1.02,11.05-3.07,15.08-2.04,4.03-4.67,7.32-7.87,9.86-3.21,2.54-6.74,4.46-10.61,5.76-3.87,1.3-7.62,2.22-11.27,2.78-1.1,.17-1.66-.19-1.66-1.08v-4.23c0-.5,.06-.81,.17-.95,.11-.14,.39-.29,.83-.46,2.54-1.05,4.71-2.17,6.5-3.36,1.79-1.19,3.26-2.64,4.39-4.35,1.13-1.71,1.95-3.81,2.44-6.3,.5-2.49,.75-5.58,.75-9.28v-9.12Zm60.58,62.9c0,1.21-.24,2.36-.7,3.44-.47,1.08-1.11,2.03-1.91,2.86-.8,.83-1.74,1.48-2.82,1.95-1.08,.47-2.22,.7-3.44,.7H60.05c-3.59,0-6.16-.77-7.71-2.32s-2.32-3.89-2.32-7.04v-14.58c0-1.49,.36-2.64,1.08-3.44,.72-.8,1.91-1.2,3.56-1.2h10.11c1.66,0,2.84,.4,3.56,1.2,.72,.8,1.08,1.95,1.08,3.44v13.92c0,.72,.11,1.19,.33,1.41s.66,.33,1.33,.33h31.08v-.66c0-1.22,.23-2.36,.7-3.44,.47-1.08,1.12-2.02,1.95-2.82s1.78-1.44,2.86-1.91c1.08-.47,2.22-.7,3.44-.7s2.36,.24,3.44,.7c1.08,.47,2.02,1.11,2.82,1.91s1.44,1.74,1.91,2.82c.47,1.08,.7,2.22,.7,3.44Zm-24.53-34.23c0,1.27-.26,2.5-.79,3.69-.53,1.19-1.24,2.24-2.16,3.15s-1.98,1.63-3.19,2.15c-1.22,.53-2.51,.79-3.89,.79-1.27,0-2.5-.26-3.69-.79-1.19-.52-2.24-1.24-3.15-2.15-.91-.91-1.63-1.96-2.15-3.15-.53-1.19-.79-2.42-.79-3.69,0-1.38,.26-2.68,.79-3.9,.52-1.21,1.24-2.28,2.15-3.19,.91-.91,1.96-1.63,3.15-2.15,1.19-.52,2.42-.79,3.69-.79,1.38,0,2.68,.26,3.89,.79,1.21,.53,2.28,1.24,3.19,2.15s1.63,1.98,2.16,3.19c.52,1.22,.79,2.51,.79,3.9Zm22.04-3.48v19.64c0,1.49-.36,2.64-1.08,3.44-.72,.8-1.91,1.2-3.56,1.2h-10.11c-1.66,0-2.85-.4-3.56-1.2-.72-.8-1.08-1.95-1.08-3.44v-44.83c0-1.49,.36-2.64,1.08-3.44,.72-.8,1.91-1.2,3.56-1.2h10.11c1.66,0,2.85,.4,3.56,1.2s1.08,1.95,1.08,3.44v16.91h8.54c.5,0,.94,.12,1.33,.37,.39,.25,.58,.71,.58,1.37v4.81c0,.66-.21,1.12-.62,1.37-.41,.25-.84,.37-1.28,.37h-8.54Z" style="fill:#513bd6;"/><path d="M97.26,265.07v8.45c0,1.49-.36,2.64-1.08,3.44-.72,.8-1.91,1.2-3.56,1.2h-10.11c-1.66,0-2.85-.4-3.56-1.2-.72-.8-1.08-1.95-1.08-3.44v-8.45h-27.84c-.44,0-.87-.12-1.28-.37-.42-.25-.62-.7-.62-1.37v-4.81c0-.66,.19-1.12,.58-1.37,.39-.25,.83-.37,1.33-.37H123.36c.5,0,.94,.12,1.33,.37,.39,.25,.58,.7,.58,1.37v4.81c0,.66-.21,1.12-.62,1.37-.41,.25-.84,.37-1.28,.37h-26.1Zm23.45-22.38c0,3.15-.77,5.5-2.32,7.04s-4.12,2.32-7.71,2.32H62.7c-3.59,0-6.16-.77-7.71-2.32-1.55-1.55-2.32-3.9-2.32-7.04v-20.39c0-1.49,.36-2.64,1.08-3.44,.72-.8,1.91-1.2,3.56-1.2h10.11c1.66,0,2.85,.4,3.56,1.2s1.08,1.95,1.08,3.44v5.06h29.25v-5.06c0-1.49,.36-2.64,1.08-3.44,.72-.8,1.91-1.2,3.56-1.2h10.11c1.66,0,2.84,.4,3.56,1.2,.72,.8,1.08,1.95,1.08,3.44v20.39Zm-58.01,51.46c-3.59,0-6.16-.77-7.71-2.32-1.55-1.55-2.32-3.89-2.32-7.04v-11.27c0-1.49,.36-2.64,1.08-3.44,.72-.8,1.91-1.2,3.56-1.2h10.11c1.66,0,2.85,.4,3.56,1.2s1.08,1.95,1.08,3.44v10.61c0,.72,.11,1.19,.33,1.41s.66,.33,1.33,.33h30v-.66c0-1.22,.23-2.36,.7-3.44,.47-1.08,1.12-2.02,1.95-2.82,.83-.8,1.78-1.44,2.86-1.91,1.08-.47,2.22-.7,3.44-.7s2.36,.24,3.44,.7c1.08,.47,2.02,1.11,2.82,1.91,.8,.8,1.44,1.74,1.91,2.82,.47,1.08,.71,2.22,.71,3.44s-.24,2.36-.71,3.44c-.47,1.08-1.11,2.03-1.91,2.86-.8,.83-1.74,1.48-2.82,1.95-1.08,.47-2.22,.7-3.44,.7H62.7Zm36.88-50.38c1.16,0,1.74-.55,1.74-1.66v-6.46h-29.25v6.46c0,1.11,.55,1.66,1.66,1.66h25.86Z" style="fill:#f75f44;"/><path d="M61.04,309.32c0-1.49,.36-2.64,1.08-3.44s1.91-1.2,3.56-1.2h10.11c1.66,0,2.84,.4,3.56,1.2,.72,.8,1.08,1.95,1.08,3.44v5.64c0,6.02-1.02,11.05-3.07,15.08-2.04,4.03-4.67,7.32-7.87,9.86-3.21,2.54-6.74,4.46-10.61,5.76-3.87,1.3-7.62,2.22-11.27,2.78-1.11,.17-1.66-.19-1.66-1.08v-4.23c0-.5,.05-.81,.17-.95,.11-.14,.39-.29,.83-.46,2.54-1.05,4.71-2.17,6.51-3.36,1.79-1.19,3.26-2.64,4.39-4.35,1.13-1.71,1.95-3.81,2.45-6.3,.5-2.49,.75-5.58,.75-9.28v-9.12Zm60.58,67.21c0,1.49-.36,2.64-1.08,3.44-.72,.8-1.91,1.2-3.56,1.2h-10.11c-1.66,0-2.85-.4-3.56-1.2-.72-.8-1.08-1.95-1.08-3.44v-14.75c0-.72-.11-1.19-.33-1.41-.22-.22-.66-.33-1.33-.33H51.93c-.44,0-.87-.12-1.29-.37-.41-.25-.62-.7-.62-1.37v-4.81c0-.66,.19-1.12,.58-1.37,.39-.25,.83-.37,1.33-.37H116.98c1.44,0,2.57,.35,3.4,1.04,.83,.69,1.24,1.89,1.24,3.6v20.14Zm-24.53-38.53c0,1.27-.26,2.5-.79,3.69-.53,1.19-1.24,2.24-2.15,3.15-.91,.91-1.98,1.63-3.19,2.15-1.22,.53-2.51,.79-3.9,.79-1.27,0-2.5-.26-3.69-.79-1.19-.52-2.24-1.24-3.15-2.15-.91-.91-1.63-1.96-2.15-3.15-.53-1.19-.79-2.42-.79-3.69,0-1.38,.26-2.68,.79-3.9,.52-1.21,1.24-2.28,2.15-3.19,.91-.91,1.96-1.63,3.15-2.15,1.19-.52,2.42-.79,3.69-.79,1.38,0,2.68,.26,3.9,.79,1.21,.53,2.28,1.24,3.19,2.15,.91,.91,1.63,1.98,2.15,3.19,.52,1.22,.79,2.51,.79,3.9Zm24.53,5.88c0,1.49-.36,2.64-1.08,3.44-.72,.8-1.91,1.2-3.56,1.2h-10.11c-1.66,0-2.85-.4-3.56-1.2-.72-.8-1.08-1.95-1.08-3.44v-34.56c0-1.49,.36-2.64,1.08-3.44,.72-.8,1.91-1.2,3.56-1.2h10.11c1.66,0,2.84,.4,3.56,1.2,.72,.8,1.08,1.95,1.08,3.44v34.56Z" style="fill:#f75f44;"/></g><path d="M159.65,429.04H13.81c-7.63,0-13.81-6.18-13.81-13.81V13.81C0,6.18,6.18,0,13.81,0H159.65c7.63,0,13.81,6.18,13.81,13.81V415.22c0,7.63-6.18,13.81-13.81,13.81Zm-132.03-13.81h118.22c7.63,0,13.81-6.18,13.81-13.81V27.62c0-7.63-6.18-13.81-13.81-13.81H27.62c-7.63,0-13.81,6.18-13.81,13.81V401.41c0,7.63,6.18,13.81,13.81,13.81Z" style="fill:#b2b2b2;"/></g></g></svg>