<svg width="733" height="407" viewBox="0 0 733 407" fill="none" xmlns="http://www.w3.org/2000/svg">
<path d="M366.776 405.769C568.415 405.769 731.875 315.205 731.875 203.489C731.875 91.7721 568.415 1.20801 366.776 1.20801C165.138 1.20801 1.67773 91.7721 1.67773 203.489C1.67773 315.205 165.138 405.769 366.776 405.769Z" fill="#CA2F26" stroke="#F1AB6A" stroke-width="2" stroke-miterlimit="10"/>
<path d="M217.473 311.611L225.47 303.68L252.324 277.511C252.324 277.324 252.137 277.217 251.763 277.217H200.649V257.216H537.048V277.217H373.703L373.141 277.511L360.008 286.323C360.008 286.51 360.115 286.617 360.303 286.617H497.676L519.368 308.968L544.51 334.844H408.581C401.146 327.206 395.743 321.412 392.292 317.486L386.301 311.318L378.303 302.799C377.929 302.399 377.635 302.212 377.448 302.212H360.303C360.115 302.212 359.821 302.399 359.447 302.799L344.308 318.688C341.071 322.4 336.016 327.794 329.169 334.87H193.24C192.866 335.271 200.943 327.527 217.526 311.638L217.473 311.611ZM194.631 181.938H307.156C307.343 181.938 307.45 181.831 307.45 181.644V166.637L248.901 173.099V137.53C248.901 137.343 248.794 137.236 248.607 137.236H197.493V83.4281H354.552V158.412H415.963V181.644C415.963 181.831 416.07 181.938 416.258 181.938H543.066V212.808H194.631V181.938ZM227.182 220.178H510.755L498.478 248.11H227.182V220.178ZM363.111 83.4281H537.315V165.756L431.664 177.505V137.503C431.664 137.316 431.557 137.209 431.37 137.209H363.111V83.4014V83.4281Z" fill="#E0CDCD"/>
<path d="M93.608 280.155C91.6554 280.155 90.1843 279.407 89.1412 277.912C88.098 276.416 87.5898 274.68 87.5898 272.704C87.5898 270.969 88.098 269.286 89.1412 267.684C90.1843 266.082 91.6822 265.281 93.608 265.281H129.208V237.028C116.985 234.171 107.971 229.311 102.14 222.421C96.3094 215.532 93.394 207.627 93.394 198.708C93.394 193.127 94.5709 187.867 96.9246 182.9C99.2783 177.933 102.862 173.607 107.65 169.895C112.438 166.183 118.483 163.272 125.758 161.163C133.033 159.053 141.539 158.012 151.275 158.012C161.011 158.012 169.49 159.08 176.792 161.163C184.067 163.272 190.138 166.183 195.006 169.895C199.874 173.607 203.512 177.96 205.946 182.9C208.38 187.867 209.584 193.127 209.584 198.708C209.584 207.521 206.641 215.345 200.73 222.234C194.819 229.124 185.832 233.984 173.769 236.841V265.281H214.585C216.538 265.281 218.009 266.082 219.052 267.684C220.095 269.286 220.603 270.969 220.603 272.704C220.603 274.68 220.095 276.416 219.052 277.912C218.009 279.407 216.511 280.155 214.585 280.155H93.608ZM173.983 137.557H208.139C210.092 137.557 211.563 138.358 212.606 139.987C213.649 141.589 214.157 143.271 214.157 145.007C214.157 146.983 213.649 148.719 212.606 150.214C211.563 151.71 210.065 152.457 208.139 152.457H94.8651C92.9125 152.457 91.4414 151.71 90.3983 150.214C89.3552 148.719 88.847 146.983 88.847 145.007C88.847 143.271 89.3552 141.589 90.3983 139.987C91.4414 138.385 92.9393 137.557 94.8651 137.557H129.021V128.264C129.021 126.021 129.636 124.045 130.893 122.309C132.151 120.573 133.809 119.131 135.895 117.93C137.981 116.755 140.335 115.847 142.983 115.232C145.631 114.618 148.333 114.298 151.114 114.298C154.03 114.298 156.865 114.618 159.647 115.232C162.428 115.847 164.862 116.755 166.922 117.93C169.008 119.105 170.693 120.573 172.031 122.309C173.341 124.045 174.01 126.021 174.01 128.264V137.557H173.983ZM134.638 198.735C134.638 202.58 134.959 206.132 135.574 209.416C136.189 212.701 137.206 215.558 138.597 217.962C139.987 220.392 141.726 222.314 143.812 223.73C145.899 225.145 148.386 225.866 151.302 225.866C154.217 225.866 156.758 225.145 158.898 223.73C161.037 222.314 162.83 220.392 164.194 217.962C165.585 215.532 166.628 212.701 167.323 209.416C168.019 206.132 168.366 202.58 168.366 198.735C168.366 194.89 168.019 191.311 167.323 187.947C166.628 184.609 165.585 181.725 164.194 179.295C162.803 176.865 161.037 174.969 158.898 173.527C156.731 172.111 154.217 171.39 151.302 171.39C148.386 171.39 145.899 172.111 143.812 173.527C141.726 174.942 139.987 176.865 138.597 179.295C137.206 181.725 136.189 184.582 135.574 187.947C134.959 191.311 134.638 194.89 134.638 198.735ZM268.106 194.275H286C287.953 194.275 289.424 195.077 290.467 196.706C291.51 198.308 292.018 199.99 292.018 201.726C292.018 203.702 291.483 205.438 290.467 206.933C289.424 208.428 287.926 209.176 286 209.176H268.106V278.339C268.106 280.689 267.491 282.745 266.234 284.481C264.977 286.216 263.319 287.658 261.232 288.86C259.146 290.035 256.766 290.943 254.037 291.557C251.336 292.171 248.527 292.492 245.612 292.492C242.697 292.492 240.156 292.171 237.588 291.557C235.02 290.943 232.693 290.035 230.607 288.86C228.521 287.685 226.862 286.216 225.605 284.481C224.348 282.745 223.733 280.689 223.733 278.339V134.806C223.733 132.456 224.348 130.4 225.605 128.664C226.862 126.929 228.521 125.487 230.607 124.285C232.693 123.11 235.02 122.229 237.588 121.695C240.156 121.134 242.83 120.867 245.612 120.867C248.527 120.867 251.336 121.134 254.037 121.695C256.739 122.256 259.146 123.11 261.232 124.285C263.319 125.46 264.977 126.929 266.234 128.664C267.491 130.4 268.106 132.456 268.106 134.806V194.302V194.275Z" fill="#1DB87C"/>
<path d="M588.697 189.228V204.662H657.197C659.149 204.662 660.62 205.463 661.664 207.066C662.707 208.668 663.215 210.35 663.215 212.086C663.215 214.062 662.68 215.798 661.664 217.293C660.62 218.789 659.123 219.536 657.197 219.536H475.637C473.685 219.536 472.214 218.789 471.17 217.293C470.127 215.798 469.619 214.062 469.619 212.086C469.619 210.35 470.127 208.668 471.17 207.066C472.214 205.463 473.711 204.662 475.637 204.662H544.137V189.228H528.302C513.03 189.228 501.796 186.37 494.574 180.682C487.352 174.994 483.742 166.796 483.742 156.142V137.743C483.742 135.393 484.357 133.337 485.614 131.601C486.871 129.865 488.529 128.423 490.616 127.222C492.702 126.047 495.082 125.139 497.811 124.524C500.512 123.91 503.267 123.59 506.049 123.59H643.877C645.829 123.59 647.3 124.391 648.344 126.02C649.387 127.622 649.895 129.304 649.895 131.04C649.895 133.016 649.387 134.752 648.344 136.247C647.3 137.743 645.803 138.491 643.877 138.491H528.329V174.38H644.92C646.872 174.38 648.344 175.181 649.387 176.81C650.43 178.413 650.938 180.095 650.938 181.831C650.938 183.807 650.403 185.542 649.387 187.038C648.344 188.533 646.846 189.281 644.92 189.281H588.697V189.228ZM481.254 261.915C481.254 257.456 482.779 253.236 485.828 249.284C488.877 245.332 493.799 241.861 500.619 238.87C507.413 235.906 516.213 233.582 526.965 231.9C537.717 230.218 550.743 229.39 566.016 229.39C581.288 229.39 594.341 230.218 605.147 231.9C615.979 233.582 624.833 235.906 631.68 238.87C638.554 241.834 643.556 245.305 646.658 249.284C649.788 253.263 651.339 257.456 651.339 261.915C651.339 266.375 649.788 270.567 646.658 274.466C643.529 278.365 638.527 281.809 631.68 284.773C624.806 287.738 615.953 290.061 605.147 291.743C594.314 293.425 581.262 294.253 566.016 294.253C550.77 294.253 537.744 293.425 526.965 291.743C516.213 290.061 507.44 287.738 500.619 284.773C493.825 281.809 488.877 278.365 485.828 274.466C482.779 270.567 481.254 266.375 481.254 261.915ZM526.43 261.915C526.43 264.399 527.099 266.748 528.409 268.992C529.72 271.235 531.913 273.131 534.962 274.76C538.012 276.362 542.077 277.644 547.132 278.578C552.188 279.513 558.42 279.967 565.775 279.967C573.131 279.967 579.577 279.513 584.712 278.578C589.848 277.644 594.02 276.388 597.203 274.76C600.386 273.157 602.713 271.235 604.184 268.992C605.628 266.748 606.377 264.399 606.377 261.915C606.377 259.432 605.655 257.108 604.184 254.945C602.74 252.782 600.413 250.86 597.203 249.177C594.02 247.495 589.848 246.187 584.712 245.172C579.577 244.184 573.264 243.676 565.775 243.676C558.286 243.676 552.214 244.184 547.132 245.172C542.077 246.16 538.012 247.495 534.962 249.177C531.913 250.86 529.72 252.782 528.409 254.945C527.099 257.108 526.43 259.432 526.43 261.915Z" fill="#1DB87C"/>
<path d="M566.015 295.617C550.743 295.617 537.556 294.763 526.777 293.08C515.945 291.398 506.984 289.021 500.11 286.004C493.129 282.959 487.994 279.354 484.811 275.295C481.575 271.156 479.943 266.67 479.943 261.917C479.943 257.164 481.575 252.651 484.811 248.458C487.994 244.319 493.129 240.687 500.11 237.643C506.984 234.626 515.945 232.249 526.777 230.567C537.556 228.884 550.743 228.03 566.015 228.03C581.288 228.03 594.528 228.884 605.36 230.567C616.246 232.249 625.287 234.626 632.241 237.643C639.276 240.687 644.491 244.319 647.755 248.458C651.044 252.651 652.73 257.19 652.73 261.917C652.73 266.643 651.044 271.183 647.755 275.295C644.518 279.354 639.302 282.959 632.241 286.004C625.287 289.021 616.246 291.398 605.36 293.08C594.501 294.763 581.288 295.617 566.015 295.617ZM566.015 230.727C550.876 230.727 537.824 231.555 527.178 233.21C516.587 234.866 507.84 237.163 501.18 240.073C494.627 242.957 489.813 246.322 486.924 250.087C484.062 253.799 482.618 257.778 482.618 261.917C482.618 266.056 484.062 270.008 486.924 273.64C489.813 277.352 494.627 280.69 501.18 283.547C507.84 286.458 516.587 288.781 527.178 290.436C537.824 292.092 550.876 292.92 566.015 292.92C581.154 292.92 594.234 292.092 604.959 290.436C615.631 288.781 624.431 286.484 631.171 283.547C637.805 280.663 642.673 277.325 645.642 273.613C648.557 269.981 650.028 266.029 650.028 261.89C650.028 257.751 648.557 253.772 645.642 250.06C642.673 246.295 637.805 242.931 631.171 240.047C624.431 237.136 615.605 234.813 604.959 233.157C594.26 231.501 581.154 230.674 566.015 230.674V230.727ZM565.801 281.304C558.392 281.304 552.053 280.823 546.918 279.889C541.756 278.927 537.53 277.619 534.347 275.936C531.084 274.227 528.703 272.118 527.259 269.661C525.814 267.231 525.092 264.614 525.092 261.917C525.092 259.22 525.814 256.63 527.259 254.253C528.703 251.903 531.084 249.793 534.32 248.004C537.476 246.269 541.702 244.88 546.891 243.865C552.027 242.85 558.392 242.343 565.775 242.343C573.157 242.343 579.763 242.85 584.979 243.865C590.221 244.88 594.555 246.269 597.844 247.978C601.215 249.74 603.729 251.823 605.307 254.173C606.912 256.549 607.714 259.14 607.714 261.89C607.714 264.641 606.912 267.231 605.307 269.688C603.729 272.118 601.215 274.201 597.818 275.91C594.528 277.565 590.195 278.9 584.952 279.835C579.763 280.77 573.317 281.25 565.775 281.25L565.801 281.304ZM565.801 245.04C558.58 245.04 552.374 245.521 547.426 246.509C542.505 247.47 538.546 248.779 535.631 250.354C532.795 251.903 530.763 253.692 529.559 255.642C528.382 257.591 527.767 259.701 527.767 261.917C527.767 264.133 528.382 266.296 529.559 268.299C530.736 270.302 532.769 272.064 535.604 273.56C538.519 275.109 542.505 276.337 547.399 277.245C552.374 278.153 558.553 278.607 565.801 278.607C573.05 278.607 579.469 278.153 584.498 277.245C589.473 276.337 593.565 275.109 596.641 273.56C599.61 272.064 601.776 270.275 603.087 268.272C604.424 266.243 605.066 264.16 605.066 261.944C605.066 259.727 604.424 257.671 603.114 255.722C601.776 253.746 599.61 251.956 596.641 250.408C593.592 248.805 589.499 247.497 584.524 246.536C579.496 245.574 573.21 245.067 565.828 245.067L565.801 245.04ZM657.196 220.873H475.637C473.229 220.873 471.357 219.939 470.073 218.069C468.87 216.36 468.281 214.358 468.281 212.088C468.281 210.112 468.87 208.162 470.047 206.346C471.33 204.37 473.256 203.329 475.637 203.329H542.799V190.565H528.302C512.788 190.565 501.153 187.6 493.745 181.726C486.229 175.797 482.404 167.172 482.404 156.144V137.745C482.404 135.128 483.126 132.804 484.517 130.828C485.881 128.932 487.7 127.357 489.946 126.075C492.14 124.847 494.654 123.885 497.489 123.245C500.271 122.604 503.16 122.283 506.021 122.283H643.849C646.23 122.283 648.183 123.325 649.44 125.301C650.617 127.117 651.205 129.066 651.205 131.042C651.205 133.285 650.59 135.315 649.413 137.024C648.129 138.866 646.203 139.828 643.849 139.828H529.639V173.047H644.893C647.273 173.047 649.199 174.088 650.483 176.064C651.66 177.907 652.248 179.83 652.248 181.806C652.248 184.049 651.633 186.052 650.456 187.787C649.145 189.657 647.273 190.591 644.893 190.591H590.008V203.356H657.17C659.55 203.356 661.476 204.397 662.76 206.373C663.937 208.216 664.525 210.138 664.525 212.115C664.525 214.358 663.91 216.36 662.733 218.096C661.422 219.965 659.55 220.9 657.17 220.9L657.196 220.873ZM475.637 205.999C474.139 205.999 473.069 206.56 472.293 207.815C471.384 209.231 470.956 210.619 470.956 212.115C470.956 213.824 471.384 215.292 472.267 216.547C473.069 217.669 474.139 218.203 475.637 218.203H657.196C658.721 218.203 659.791 217.669 660.566 216.547C661.449 215.266 661.877 213.824 661.877 212.115C661.877 210.619 661.422 209.231 660.54 207.815C659.737 206.587 658.667 205.999 657.196 205.999H587.36V187.894H644.919C646.444 187.894 647.514 187.36 648.29 186.239C649.172 184.957 649.6 183.515 649.6 181.806C649.6 180.31 649.145 178.922 648.263 177.506C647.46 176.278 646.39 175.691 644.919 175.691H526.991V137.13H643.876C645.401 137.13 646.471 136.596 647.246 135.475C648.129 134.193 648.557 132.751 648.557 131.042C648.557 129.547 648.102 128.158 647.22 126.743C646.417 125.514 645.347 124.927 643.876 124.927H506.048C503.374 124.927 500.726 125.221 498.131 125.835C495.563 126.422 493.263 127.277 491.311 128.398C489.411 129.467 487.86 130.828 486.737 132.377C485.64 133.899 485.105 135.635 485.105 137.745V156.144C485.105 166.318 488.582 174.222 495.43 179.643C502.357 185.117 513.43 187.894 528.329 187.894H545.5V205.999H475.663H475.637Z" fill="#E0CDCD"/>
<path d="M245.585 293.747C242.723 293.747 239.915 293.427 237.267 292.786C234.592 292.145 232.131 291.184 229.938 289.955C227.691 288.673 225.872 287.071 224.508 285.202C223.091 283.253 222.395 280.903 222.395 278.286V134.753C222.395 132.136 223.117 129.786 224.508 127.837C225.872 125.941 227.691 124.365 229.938 123.084C232.131 121.855 234.619 120.921 237.293 120.333C242.723 119.158 248.848 119.212 254.305 120.333C257.14 120.921 259.681 121.829 261.874 123.084C264.121 124.365 265.94 125.941 267.304 127.837C268.721 129.786 269.417 132.136 269.417 134.753V192.914H285.973C288.354 192.914 290.28 193.955 291.563 195.931C292.74 197.747 293.329 199.697 293.329 201.673C293.329 203.916 292.714 205.919 291.537 207.654C290.226 209.524 288.354 210.458 285.973 210.458H269.417V278.286C269.417 280.903 268.695 283.253 267.304 285.202C265.94 287.071 264.121 288.673 261.874 289.955C259.681 291.184 257.14 292.145 254.331 292.786C251.523 293.427 248.581 293.747 245.612 293.747H245.585ZM245.585 122.122C242.91 122.122 240.316 122.389 237.855 122.923C235.448 123.458 233.228 124.285 231.249 125.38C229.35 126.448 227.798 127.81 226.675 129.359C225.578 130.881 225.043 132.617 225.043 134.727V278.259C225.043 280.342 225.578 282.104 226.675 283.626C227.798 285.202 229.35 286.537 231.249 287.605C233.201 288.727 235.448 289.581 237.882 290.169C242.937 291.397 248.634 291.317 253.716 290.169C256.284 289.581 258.584 288.727 260.537 287.605C262.436 286.537 263.987 285.175 265.11 283.626C266.207 282.104 266.742 280.369 266.742 278.259V207.761H285.973C287.498 207.761 288.568 207.227 289.343 206.106C290.226 204.824 290.654 203.382 290.654 201.673C290.654 200.177 290.199 198.789 289.317 197.373C288.514 196.145 287.444 195.558 285.973 195.558H266.742V134.727C266.742 132.644 266.207 130.881 265.11 129.359C263.987 127.784 262.436 126.448 260.537 125.38C258.584 124.285 256.284 123.458 253.743 122.923C251.148 122.389 248.394 122.122 245.585 122.122ZM214.558 281.463H93.5811C91.1738 281.463 89.3015 280.529 88.0176 278.66C86.814 276.951 86.2256 274.948 86.2256 272.678C86.2256 270.675 86.814 268.752 87.9909 266.937C89.2748 264.961 91.2006 263.919 93.5811 263.919H127.844V238.043C115.915 235.106 106.928 230.139 101.097 223.249C95.0789 216.146 92.0297 207.895 92.0297 198.682C92.0297 192.941 93.2601 187.413 95.6941 182.313C98.1281 177.185 101.873 172.646 106.794 168.827C111.689 165.035 117.948 162.018 125.357 159.855C132.739 157.718 141.432 156.65 151.221 156.65C161.011 156.65 169.73 157.718 177.086 159.855C184.495 161.991 190.78 165.009 195.755 168.827C200.757 172.646 204.555 177.185 207.069 182.313C209.583 187.44 210.841 192.941 210.841 198.709C210.841 207.788 207.765 216.013 201.666 223.089C195.782 229.952 186.822 234.919 175.026 237.856V263.919H214.505C216.885 263.919 218.838 264.961 220.095 266.937C221.272 268.752 221.86 270.702 221.86 272.678C221.86 274.921 221.245 276.951 220.068 278.66C218.784 280.502 216.859 281.463 214.505 281.463H214.558ZM93.5811 266.589C92.0832 266.589 91.0133 267.15 90.2377 268.405C89.3283 269.821 88.9003 271.209 88.9003 272.705C88.9003 274.414 89.3282 275.882 90.2109 277.137C91.0133 278.259 92.0832 278.793 93.5811 278.793H214.558C216.083 278.793 217.153 278.259 217.929 277.137C218.811 275.856 219.239 274.414 219.239 272.705C219.239 271.209 218.784 269.821 217.902 268.405C217.099 267.177 216.029 266.589 214.558 266.589H172.405V235.747L173.421 235.506C185.163 232.729 193.99 227.976 199.687 221.353C205.357 214.758 208.219 207.12 208.219 198.709C208.219 193.368 207.042 188.241 204.715 183.488C202.388 178.734 198.831 174.515 194.177 170.937C189.47 167.332 183.505 164.474 176.39 162.418C169.249 160.362 160.797 159.321 151.248 159.321C141.699 159.321 133.247 160.362 126.106 162.418C119.018 164.474 113.08 167.332 108.452 170.937C103.852 174.515 100.375 178.734 98.1281 183.461C95.8546 188.214 94.7312 193.341 94.7312 198.682C94.7312 207.254 97.5664 214.918 103.157 221.514C108.773 228.136 117.627 232.889 129.502 235.667L130.546 235.907V266.563H93.6078L93.5811 266.589ZM151.248 227.175C148.065 227.175 145.283 226.374 143.01 224.798C140.763 223.276 138.891 221.166 137.393 218.603C135.949 216.066 134.879 213.049 134.21 209.63C133.568 206.292 133.247 202.607 133.247 198.682C133.247 194.756 133.568 191.071 134.21 187.653C134.852 184.182 135.922 181.111 137.393 178.574C138.864 176.01 140.763 173.901 143.01 172.379C145.31 170.803 148.092 170.002 151.248 170.002C154.404 170.002 157.213 170.803 159.593 172.352C161.92 173.901 163.846 175.984 165.317 178.574C166.761 181.111 167.858 184.155 168.58 187.627C169.302 191.045 169.65 194.756 169.65 198.682C169.65 202.607 169.302 206.292 168.58 209.657C167.858 213.049 166.761 216.066 165.317 218.603C163.819 221.193 161.893 223.276 159.593 224.825C157.239 226.4 154.431 227.175 151.248 227.175ZM151.248 172.699C148.627 172.699 146.353 173.34 144.508 174.595C142.609 175.904 140.977 177.693 139.72 179.909C138.409 182.179 137.446 184.956 136.858 188.134C136.243 191.392 135.949 194.943 135.949 198.682C135.949 202.42 136.243 205.945 136.858 209.123C137.446 212.247 138.409 214.971 139.72 217.268C141.004 219.511 142.609 221.3 144.508 222.608C146.353 223.864 148.627 224.504 151.248 224.504C153.869 224.504 156.169 223.89 158.095 222.582C160.048 221.273 161.706 219.484 162.99 217.268C164.301 214.971 165.29 212.247 165.959 209.096C166.628 205.919 166.975 202.42 166.975 198.682C166.975 194.943 166.628 191.419 165.959 188.161C165.29 184.956 164.301 182.179 162.99 179.909C161.706 177.693 160.074 175.904 158.095 174.595C156.169 173.313 153.869 172.673 151.248 172.673V172.699ZM208.086 153.74H94.8114C92.4042 153.74 90.5319 152.805 89.248 150.936C88.0444 149.227 87.456 147.224 87.456 144.954C87.456 142.978 88.0444 141.029 89.2213 139.213C90.5051 137.237 92.4309 136.195 94.8114 136.195H127.63V128.238C127.63 125.727 128.352 123.458 129.743 121.508C131.107 119.612 132.926 118.037 135.173 116.755C137.339 115.527 139.854 114.565 142.609 113.924C148.172 112.616 154.27 112.669 159.86 113.924C162.749 114.565 165.344 115.527 167.51 116.755C169.73 118.01 171.602 119.612 173.02 121.481C174.518 123.458 175.267 125.727 175.267 128.238V136.195H208.086C210.466 136.195 212.392 137.237 213.676 139.213C214.853 141.029 215.441 142.978 215.441 144.954C215.441 147.197 214.826 149.227 213.649 150.936C212.365 152.778 210.439 153.74 208.086 153.74ZM94.8114 138.866C93.3136 138.866 92.2437 139.426 91.468 140.681C90.5586 142.097 90.1307 143.485 90.1307 144.981C90.1307 146.69 90.5586 148.158 91.4413 149.414C92.2437 150.535 93.3136 151.069 94.8114 151.069H208.086C209.61 151.069 210.68 150.535 211.456 149.414C212.338 148.132 212.766 146.69 212.766 144.981C212.766 143.485 212.312 142.097 211.429 140.681C210.627 139.453 209.557 138.866 208.086 138.866H172.592V128.238C172.592 126.288 172.03 124.606 170.88 123.084C169.677 121.508 168.099 120.146 166.173 119.078C164.22 117.983 161.893 117.102 159.245 116.515C154.03 115.366 148.359 115.286 143.197 116.515C140.683 117.102 138.436 117.957 136.483 119.078C134.584 120.146 133.033 121.508 131.91 123.057C130.813 124.579 130.278 126.261 130.278 128.238V138.866H94.7847H94.8114Z" fill="#E0CDCD"/>
</svg>
