<svg width="810" height="480" viewBox="0 0 810 480" fill="none" xmlns="http://www.w3.org/2000/svg">
<path d="M399.69 476.539C391.887 476.539 384.083 474.64 377.162 471.056L29.266 291.313C12.8038 282.807 2.88916 266.678 2.67536 248.142C2.46157 229.606 12.0823 213.264 28.3306 204.437L386.435 9.63462C393.624 5.72948 401.721 3.66992 409.899 3.66992C418.077 3.66992 425.506 5.569 432.427 9.15317L780.323 188.897C796.759 197.402 806.7 213.531 806.914 232.04C807.101 250.576 797.507 266.919 781.259 275.746L423.154 470.548C415.965 474.453 407.868 476.513 399.69 476.513V476.539Z" fill="#061A27"/>
<path d="M409.899 6.34365C417.195 6.34365 424.517 8.05549 431.198 11.5327L779.094 191.276C812.206 208.394 812.713 255.604 779.976 273.418L421.872 468.22C414.95 471.991 407.334 473.864 399.691 473.864C392.047 473.864 385.072 472.152 378.391 468.675L30.4956 288.931C-2.61566 271.813 -3.12341 224.603 29.6137 206.79L387.718 11.9874C394.64 8.21597 402.256 6.34365 409.899 6.34365ZM409.899 0.994141C401.294 0.994141 392.742 3.16069 385.179 7.27981L27.0749 202.082C9.918 211.417 -0.210475 228.642 0.0033183 248.168C0.217112 267.694 10.693 284.705 28.037 293.666L375.933 473.409C383.255 477.18 391.46 479.186 399.691 479.186C407.922 479.186 416.848 477.02 424.411 472.901L782.515 278.099C799.672 268.764 809.774 251.538 809.56 232.013C809.346 212.487 798.87 195.475 781.526 186.515L433.63 6.77161C426.308 3.00021 418.104 0.994141 409.873 0.994141L409.899 0.994141Z" fill="#D38736"/>
<path d="M779.067 191.275L689.381 144.922C629.572 186.113 558.459 212.486 483.364 228.829C348.246 257.181 202.492 253.544 86.6162 317.925L378.364 468.674C392.047 475.735 408.322 475.575 421.845 468.219L779.949 273.417C812.686 255.603 812.205 208.394 779.067 191.275Z" fill="#004B7F"/>
<path d="M602.02 99.7728C488.175 177.287 342.555 189.217 208.105 223.453C151.69 238.084 103.426 265.822 69.7539 309.179L73.1746 310.945C203.402 207.806 386.863 209.063 542.158 153.91C572.704 142.248 607.205 132.967 637.937 118.309L602.02 99.7461V99.7728Z" fill="#004B7F"/>
<path d="M343.57 61.7109C320.533 71.0993 299.074 84.3661 280.367 100.789C266.149 113.28 253.562 127.51 240.414 141.124H267.165C286.219 109.322 312.516 81.9053 343.596 61.7109H343.57Z" fill="#190E02"/>
<path d="M385.019 138.664C407.334 132.352 431.492 132.806 453.54 139.921C442.743 133.823 431.92 127.724 421.123 121.599C436.997 123.017 453.299 119.031 466.715 110.445C422.192 116.062 376.868 121.893 336.087 140.617C335.739 140.777 335.392 140.938 335.071 141.098H377.349C379.888 140.215 382.427 139.359 385.019 138.637V138.664Z" fill="#190E02"/>
<mask id="mask0_453_1240" style="mask-type:luminance" maskUnits="userSpaceOnUse" x="5" y="6" width="800" height="468">
<path d="M387.717 11.9858L29.6125 206.788C-3.12462 224.602 -2.64358 271.811 30.4944 288.93L378.39 468.673C392.073 475.734 408.348 475.574 421.87 468.218L779.975 273.416C812.712 255.602 812.231 208.393 779.093 191.274L431.197 11.5311C417.514 4.46971 401.239 4.6302 387.717 11.9858Z" fill="white"/>
</mask>
<g mask="url(#mask0_453_1240)">
<path d="M250.141 192.157C261.098 187.37 273.124 185.604 284.669 182.448C302.12 177.687 318.502 169.716 334.563 161.344C348.566 154.042 362.516 146.366 377.375 141.123H335.097C309.789 152.865 282.905 169.449 256.395 161.13C259.655 154.283 263.289 147.623 267.191 141.123H240.44C232.557 149.254 224.486 157.172 215.72 164.34C192.176 183.598 164.543 196.731 139.77 214.144C130.978 220.322 24.1878 293.744 29.1051 290.321C28.8111 293.423 31.7775 292.995 34.9844 296.232L55.8293 306.369C69.1914 317.068 85.2259 319.743 109.278 333.117C145.756 298.479 205.886 211.496 250.194 192.131L250.141 192.157Z" fill="#190E02"/>
</g>
<path d="M269.944 117.641C279.485 123.9 291.938 122.348 303.189 120.53C298.593 127.939 302.735 138.531 310.298 142.837C317.861 147.143 327.481 146.234 335.499 142.837C329.325 149.898 337.236 162.175 346.616 162.336C355.996 162.47 363.693 154.526 367.407 145.886C372.699 155.676 385.82 160.383 396.136 156.157C406.451 151.931 412.545 139.413 409.471 128.688C415.057 135.107 426.628 131.095 430.45 123.498C434.271 115.875 432.748 106.808 431.145 98.4628C435.848 102.448 443.652 97.6871 444.827 91.6422C446.03 85.5972 442.983 79.6058 440.07 74.2028C450.119 79.3918 464.256 71.2606 464.844 59.9731C465.458 48.6856 452.257 39.11 441.727 43.1757C436.864 33.7605 423.314 30.1764 414.415 35.9806C425.319 11.5066 377.375 0.994802 382.56 38.6286C375.104 38.2006 364.388 30.7915 355.622 29.4274L343.249 36.1678C342.42 38.0669 341.752 40.3939 341.298 43.2826C340.763 41.5708 340.015 39.9392 339.133 38.4146L247.442 88.2987C254.818 88.8872 262.167 89.4756 269.543 90.0641C258.8 93.8622 260.404 111.382 269.944 117.641Z" fill="#E77AAB"/>
<path d="M499.666 148.211C505.198 146.045 509.073 140.909 511.505 135.479C512.708 132.778 513.643 129.889 513.456 126.947C513.082 121.678 509.207 117.398 505.385 113.734C504.477 112.878 503.515 111.915 503.381 110.684C503.194 109.267 504.156 107.983 504.904 106.752C510.41 97.8723 506.695 85.2474 498.384 78.9083C490.072 72.5691 478.528 71.7934 468.453 74.5217C458.164 62.1643 437.479 60.4257 425.293 70.9108C422.567 66.23 416.581 64.0634 411.236 64.8391C405.891 65.6148 401.134 68.878 397.5 72.9168C395.255 75.4044 393.277 78.4803 393.384 81.8238C393.491 85.1672 396.564 88.5374 399.851 87.842C391.54 87.1198 383.176 87.414 374.945 88.7514C370.081 89.5271 365.083 90.7842 361.288 93.9137C357.494 97.0431 355.276 102.58 357.253 107.073C352.175 106.859 346.51 107.02 342.956 110.631C339.161 114.483 339.455 121.143 342.635 125.502C345.815 129.862 351.24 132.109 356.612 132.751C361.983 133.393 367.382 132.644 372.753 132.109C373.742 132.002 374.757 131.922 375.666 132.323C377.376 133.099 377.857 135.212 378.552 136.95C380.503 141.872 385.821 145.242 391.113 144.868C396.404 144.493 401.214 140.481 402.524 135.346C399.477 140.107 401.054 146.954 405.383 150.592C409.713 154.229 416.1 154.764 421.391 152.731C426.683 150.699 430.852 146.446 433.684 141.551C441.915 144.841 449.211 157.011 458.297 154.791C467.384 152.571 477.699 148.826 481.2 140.668C479.57 146.874 495.818 149.682 499.747 148.131L499.666 148.211Z" fill="#E45B82"/>
<path d="M595.873 141.123H213.716C159.107 141.123 114.837 185.432 114.837 240.089C114.837 294.746 159.107 339.055 213.716 339.055H595.873C650.482 339.055 694.752 294.746 694.752 240.089C694.752 185.432 650.482 141.123 595.873 141.123Z" fill="#F0F0F0"/>
<path d="M196.854 265.421C196.854 267.401 196.426 269.38 195.544 271.306C194.662 273.232 192.738 274.863 189.745 276.201C186.752 277.538 182.422 278.474 176.81 279.009C171.172 279.571 163.689 279.517 154.335 278.849H126.916C123.977 279.303 121.331 279.624 118.899 279.838C116.494 280.052 114.196 280.159 112.004 280.159C100.753 280.159 93.9386 277.19 91.6136 271.225C92.3351 269.781 92.8429 268.23 93.1369 266.518C93.4308 264.806 93.5644 263.014 93.5644 261.142V204.865C88.8877 201.655 86.4024 197.483 86.1084 192.294C89.4756 189.753 93.5912 187.907 98.5084 186.757C103.399 185.607 108.263 185.018 113.1 185.018C116.761 185.018 120.182 185.366 123.415 186.088C126.622 186.81 129.348 187.88 131.54 189.325C132.715 188.121 134.239 187.158 136.136 186.436C138.034 185.714 140.225 185.366 142.71 185.366H154.335C157.703 184.697 161.658 183.975 166.174 183.226C170.691 182.45 175.207 182.103 179.67 182.156C184.133 182.21 188.222 182.878 191.963 184.136C195.704 185.393 198.35 187.746 199.98 191.17C198.804 193.149 198.003 195.664 197.575 198.713C197.147 201.762 196.907 204.357 196.907 206.577V265.502L196.854 265.421ZM136.109 199.221V266.919H154.309V197.242H142.897C141.428 197.242 140.091 197.402 138.835 197.75C137.579 198.071 136.671 198.579 136.083 199.248L136.109 199.221ZM257.811 297.545C257.811 299.524 257.384 301.477 256.502 303.43C255.62 305.355 253.723 306.987 250.81 308.324C247.87 309.662 243.648 310.571 238.089 311.133C232.53 311.694 225.074 311.641 215.721 310.972V190.635C215.721 187.88 215.641 185.098 215.507 182.263C215.373 179.455 214.999 176.619 214.411 173.731C218.206 172.955 222.455 172.206 227.132 171.484C231.809 170.762 236.779 170.414 242.044 170.414C245.545 170.414 248.538 170.708 251.024 171.323C253.509 171.939 255.593 172.714 257.277 173.651C258.961 174.587 260.27 175.576 261.232 176.619C262.194 177.663 262.809 178.626 263.103 179.508C261.339 181.488 260.03 184.002 259.148 187.051C258.266 190.1 257.838 192.695 257.838 194.915V297.545H257.811Z" fill="#EBA61C"/>
<path d="M415.51 204.999C414.789 212.167 412.624 219.87 409.043 228.082C405.462 236.293 400.625 244.077 394.558 251.432C388.492 258.761 381.223 265.314 372.725 271.038C364.253 276.789 354.659 280.748 343.996 282.968C341.645 283.529 339.132 283.77 336.433 283.717C333.734 283.663 330.955 283.128 328.095 282.138C325.236 281.149 322.43 279.624 319.651 277.591C316.871 275.559 314.172 272.697 311.526 269.059C321.895 266.518 331.088 262.693 339.052 257.558C347.016 252.422 353.67 246.591 359.015 240.011C364.36 233.458 368.289 226.557 370.854 219.309C373.42 212.087 374.462 205.159 374.034 198.526H351.88C348.967 199.729 346.695 201.414 345.092 203.581C343.489 205.721 342.313 208.021 341.591 210.455C336.46 210.455 332.077 209.947 328.443 208.957C324.782 207.968 321.762 206.657 319.33 205.079C316.925 203.474 315.161 201.735 314.065 199.863C312.969 197.991 312.408 196.172 312.408 194.407C312.408 192.213 313.21 190.314 314.813 188.79C316.417 187.238 318.769 186.463 321.842 186.463H372.511C375.878 185.794 380.101 185.072 385.232 184.323C390.336 183.547 395.093 183.173 399.476 183.173C404.152 183.173 408.455 183.815 412.41 185.072C416.365 186.329 419.278 188.736 421.176 192.267C420.16 193.47 419.118 195.182 418.103 197.402C417.087 199.622 416.205 202.137 415.484 205.025L415.51 204.999ZM492.262 241.429C491.541 239.877 490.285 238.888 488.521 238.46C486.757 238.032 485.154 237.791 483.684 237.791L477.11 238.112V297.545C477.11 299.524 476.682 301.477 475.8 303.43C474.918 305.355 473.021 306.987 470.108 308.324C467.168 309.662 462.946 310.571 457.387 311.133C451.828 311.694 444.372 311.641 435.019 310.972V190.635C435.019 187.88 434.939 185.098 434.805 182.263C434.645 179.455 434.297 176.619 433.709 173.731C437.504 172.955 441.753 172.206 446.43 171.484C451.107 170.762 456.078 170.414 461.342 170.414C464.843 170.414 467.836 170.708 470.322 171.323C472.807 171.939 474.891 172.714 476.575 173.651C478.259 174.587 479.568 175.576 480.53 176.619C481.466 177.663 482.107 178.626 482.401 179.508C480.637 181.488 479.328 184.002 478.446 187.051C477.564 190.1 477.136 192.695 477.136 194.915V225.862L498.195 225.193C501.108 225.086 503.166 225.648 504.342 226.851C505.517 228.055 506.105 229.446 506.105 230.997C506.105 233.538 504.849 235.919 502.364 238.112C499.879 240.332 496.511 241.429 492.289 241.429H492.262Z" fill="#EBA61C"/>
<path d="M570.993 189.431C568.935 189.993 567.144 191.17 565.621 192.988C564.098 194.807 563.109 196.653 562.655 198.525C556.669 198.418 551.805 197.268 548.063 195.048C544.322 192.855 541.837 190.447 540.607 187.853C539.351 185.258 539.405 182.878 540.714 180.738C542.024 178.598 544.883 177.502 549.266 177.502H600.363C603.73 176.833 607.658 176.111 612.202 175.362C616.745 174.586 621.234 174.238 625.697 174.292C630.16 174.345 634.249 175.014 637.99 176.271C641.732 177.528 644.377 179.882 646.008 183.306C644.832 185.285 644.03 187.532 643.602 190.019C643.175 192.507 642.934 194.861 642.934 197.054V205.988C642.934 207.967 642.507 209.946 641.625 211.872C640.743 213.798 638.819 215.43 635.826 216.767C632.833 218.104 628.503 219.04 622.891 219.575C617.252 220.137 609.77 220.084 600.416 219.415H587.695V238.299L618.829 237.47C629.492 232.842 638.418 230.729 645.58 231.184C648.199 231.398 650.23 232.013 651.62 233.003C653.009 233.992 653.918 235.33 654.372 236.988C654.8 238.646 654.88 240.545 654.586 242.685C654.292 244.825 653.784 247.125 653.063 249.559C651.459 249.238 649.215 248.998 646.382 248.891C643.522 248.784 641.144 248.784 639.246 248.891L577.62 250.389C574.681 250.843 572.222 251.164 570.164 251.378C568.107 251.592 565.995 251.699 563.804 251.699C552.553 251.699 545.738 248.73 543.413 242.766C544.135 241.321 544.643 239.77 544.937 238.058C545.231 236.346 545.364 234.554 545.364 232.682V223.4C543.173 221.849 541.409 220.03 540.1 217.944C538.79 215.858 538.042 213.851 537.908 211.979C541.275 209.331 545.391 207.593 550.308 206.763C555.199 205.934 560.063 205.533 564.9 205.533C566.37 205.533 568.213 205.586 570.485 205.693C572.757 205.8 575.028 205.961 577.273 206.202C579.545 206.416 581.629 206.656 583.526 206.87C585.424 207.084 586.814 207.325 587.695 207.539V207.7L600.416 207.539V189.484H571.019L570.993 189.431ZM607.177 275.852C604.238 277.056 601.993 278.741 600.389 280.908C598.786 283.047 597.61 285.348 596.889 287.782C591.758 287.782 587.375 287.273 583.74 286.284C580.079 285.294 577.059 284.01 574.627 282.486C572.222 280.934 570.458 279.222 569.363 277.35C568.267 275.478 567.706 273.659 567.706 271.894C567.706 269.674 568.507 267.801 570.111 266.277C571.714 264.725 574.066 263.95 577.139 263.95H658.728C662.096 263.281 666.158 262.559 670.888 261.81C675.645 261.034 680.215 260.66 684.597 260.66C689.274 260.66 693.416 261.302 696.997 262.559C700.578 263.816 703.331 266.223 705.229 269.754C704.213 270.957 703.358 272.669 702.716 274.889C702.048 277.109 701.728 279.624 701.728 282.512V301.396C701.728 304.044 701.033 306.344 699.643 308.27C698.253 310.196 695.955 311.747 692.748 312.898C689.541 314.048 685.185 314.797 679.707 315.144C674.228 315.465 667.467 315.358 659.423 314.823V275.932H607.231L607.177 275.852ZM719.232 224.042C718.51 222.491 717.254 221.501 715.491 221.073C713.727 220.645 712.123 220.405 710.654 220.405L704.079 220.726V240.759C704.079 243.407 703.572 245.734 702.556 247.714C701.541 249.693 699.483 251.271 696.409 252.421C693.336 253.572 689.06 254.32 683.582 254.668C678.103 254.989 670.888 254.829 661.989 254.16V190.608C661.989 187.853 661.909 185.071 661.775 182.236C661.615 179.427 661.267 176.592 660.679 173.703C664.474 172.928 668.723 172.179 673.4 171.457C678.077 170.734 683.047 170.387 688.312 170.387C691.813 170.387 694.806 170.681 697.291 171.296C699.777 171.911 701.861 172.687 703.545 173.623C705.229 174.559 706.538 175.549 707.5 176.592C708.435 177.635 709.077 178.598 709.371 179.481C707.607 181.46 706.297 183.974 705.416 187.024C704.534 190.073 704.106 192.667 704.106 194.887V208.448L725.165 207.78C728.078 207.673 730.135 208.234 731.311 209.438C732.487 210.642 733.075 212.033 733.075 213.584C733.075 216.125 731.819 218.506 729.334 220.699C726.848 222.919 723.481 224.015 719.259 224.015L719.232 224.042Z" fill="#EBA61C"/>
<path d="M318.475 377.785H308.828V383.001C308.828 383.536 308.614 383.911 308.213 384.125C307.786 384.339 307.385 384.339 306.957 384.125C306.53 383.911 306.343 383.536 306.343 383.001V377.785H296.909C296.455 377.785 296.134 377.598 295.947 377.25C295.76 376.876 295.76 376.528 295.947 376.154C296.134 375.779 296.455 375.592 296.909 375.592H318.502C318.956 375.592 319.277 375.779 319.491 376.154C319.678 376.528 319.678 376.876 319.491 377.25C319.304 377.625 318.983 377.785 318.502 377.785H318.475ZM317.968 370.002C315.91 369.601 314.039 368.878 312.329 367.835C310.619 366.765 309.256 365.615 308.267 364.305C308.026 363.984 307.839 363.823 307.732 363.823C307.625 363.823 307.438 363.984 307.198 364.305C306.156 365.669 304.632 366.926 302.628 368.076C300.624 369.226 298.86 369.815 297.337 369.922C296.936 369.922 296.615 369.761 296.401 369.413C296.187 369.066 296.161 368.691 296.348 368.29C296.508 367.889 296.856 367.675 297.363 367.595C298.993 367.354 300.624 366.712 302.254 365.669C303.884 364.626 305.14 363.449 306.049 362.111C306.69 361.175 307.278 360.72 307.812 360.747C308.347 360.747 308.935 361.229 309.576 362.111C310.512 363.422 311.794 364.626 313.371 365.696C314.975 366.765 316.631 367.434 318.395 367.702C318.903 367.782 319.224 368.023 319.384 368.451C319.544 368.878 319.464 369.28 319.224 369.627C318.956 369.975 318.556 370.109 318.021 370.002H317.968Z" fill="#F0F0F0"/>
<path d="M346.375 381.236C346.722 381.664 346.829 382.092 346.642 382.52C346.455 382.948 346.161 383.162 345.76 383.215C345.332 383.269 344.932 383.082 344.504 382.707C342.927 380.915 341.671 378.749 340.736 376.261C340.255 377.411 339.667 378.535 338.972 379.658C338.277 380.781 337.582 381.718 336.888 382.44C336.594 382.761 336.246 382.948 335.872 382.948C335.498 382.975 335.231 382.894 335.017 382.68C334.803 382.467 334.669 382.226 334.616 381.932C334.563 381.637 334.669 381.316 334.91 380.995C336.594 378.963 337.796 376.983 338.518 375.031C339.239 373.078 339.613 370.671 339.613 367.782V363.556H337.021C336.567 363.556 336.219 363.369 336.032 362.994C335.845 362.62 335.845 362.272 336.032 361.898C336.219 361.523 336.567 361.336 337.021 361.336H344.798C345.252 361.336 345.573 361.523 345.76 361.898C345.947 362.272 345.947 362.62 345.76 362.994C345.573 363.369 345.252 363.556 344.798 363.556H342.019V367.782C342.019 370.831 342.313 373.346 342.927 375.298C343.542 377.251 344.664 379.23 346.348 381.209L346.375 381.236ZM351.746 382.493C351.746 383.001 351.532 383.376 351.132 383.59C350.704 383.804 350.303 383.804 349.902 383.59C349.501 383.376 349.288 383.001 349.288 382.493V372.677H345.626C345.172 372.677 344.851 372.49 344.638 372.115C344.451 371.741 344.451 371.393 344.638 371.019C344.825 370.644 345.145 370.457 345.626 370.457H349.288V361.978C349.288 361.577 349.421 361.282 349.689 361.068C349.956 360.854 350.223 360.748 350.544 360.748C350.864 360.748 351.132 360.855 351.399 361.095C351.666 361.336 351.8 361.657 351.8 362.058V382.493H351.746ZM356.984 383.001C356.984 383.51 356.77 383.884 356.37 384.125C355.942 384.339 355.541 384.339 355.114 384.125C354.686 383.911 354.472 383.536 354.472 383.001V361.657C354.472 361.122 354.686 360.748 355.114 360.534C355.541 360.32 355.942 360.32 356.37 360.534C356.797 360.774 356.984 361.149 356.984 361.684V382.975V383.001Z" fill="#F0F0F0"/>
<path d="M389.615 373.132C388.68 373.319 387.664 373.453 386.622 373.587C385.58 373.721 384.564 373.801 383.549 373.854C382.533 373.908 381.544 373.961 380.476 373.961C379.407 373.961 378.391 374.015 377.402 374.015H374.356C373.875 374.015 373.554 373.828 373.367 373.453C373.18 373.079 373.207 372.731 373.447 372.357C373.661 371.982 374.035 371.795 374.569 371.795C377.028 371.795 378.658 371.795 379.46 371.741V369.655C377.857 369.602 376.52 369.2 375.451 368.478C374.382 367.729 373.821 366.713 373.821 365.429C373.821 364.145 374.463 363.022 375.719 362.192C376.975 361.363 378.685 360.935 380.85 360.935C383.014 360.935 384.698 361.337 385.901 362.166C387.103 362.995 387.691 364.065 387.691 365.429C387.691 366.793 387.157 367.756 386.114 368.478C385.072 369.2 383.682 369.602 381.999 369.655V371.661C384.057 371.581 386.595 371.313 389.615 370.912C389.989 370.859 390.283 370.992 390.524 371.313C390.764 371.634 390.791 371.982 390.657 372.383C390.524 372.758 390.176 372.998 389.615 373.105V373.132ZM395.147 379.605C395.147 382.253 391.566 383.59 384.404 383.59C377.242 383.59 373.661 382.253 373.661 379.605C373.661 376.957 377.242 375.7 384.404 375.7C391.566 375.7 395.147 377.011 395.147 379.605ZM392.635 379.605C392.635 379.097 391.967 378.696 390.631 378.375C389.295 378.054 387.21 377.893 384.404 377.893C381.598 377.893 379.54 378.054 378.177 378.375C376.814 378.696 376.146 379.097 376.146 379.605C376.146 380.113 376.814 380.541 378.177 380.889C379.54 381.237 381.625 381.397 384.404 381.397C387.183 381.397 389.241 381.237 390.604 380.889C391.967 380.541 392.635 380.113 392.635 379.605ZM385.179 365.456C385.179 364.814 384.805 364.279 384.057 363.824C383.308 363.369 382.239 363.155 380.823 363.155C379.407 363.155 378.311 363.369 377.536 363.824C376.734 364.279 376.36 364.814 376.36 365.456C376.36 366.098 376.761 366.579 377.509 366.954C378.284 367.328 379.407 367.515 380.85 367.515C382.293 367.515 383.388 367.328 384.11 366.954C384.832 366.579 385.179 366.098 385.179 365.456ZM396.884 370.27H394.987V373.721C394.987 374.229 394.773 374.603 394.372 374.817C393.971 375.031 393.544 375.031 393.143 374.817C392.715 374.603 392.528 374.229 392.528 373.721V361.658C392.528 361.256 392.662 360.962 392.902 360.721C393.17 360.507 393.437 360.4 393.757 360.4C394.078 360.4 394.345 360.507 394.613 360.721C394.88 360.935 395.013 361.256 395.013 361.658V368.077H396.911C397.365 368.077 397.686 368.264 397.9 368.639C398.087 369.013 398.087 369.361 397.9 369.735C397.713 370.11 397.392 370.297 396.911 370.297L396.884 370.27Z" fill="#F0F0F0"/>
<path d="M435.795 375.752H414.201C413.747 375.752 413.4 375.565 413.213 375.19C413.025 374.816 413.025 374.468 413.213 374.094C413.4 373.719 413.747 373.559 414.201 373.559H423.688V370.429H416.954C415.297 370.429 414.469 369.707 414.469 368.236V363.582C414.469 362.111 415.297 361.389 416.954 361.389H434.351C434.806 361.389 435.126 361.576 435.34 361.95C435.527 362.325 435.527 362.673 435.34 363.047C435.153 363.421 434.832 363.609 434.351 363.609H417.702C417.194 363.609 416.954 363.823 416.954 364.224V367.621C416.954 368.049 417.194 368.263 417.702 368.263H434.699C435.153 368.263 435.501 368.45 435.688 368.824C435.875 369.199 435.875 369.547 435.688 369.921C435.501 370.296 435.153 370.456 434.699 370.456H426.201V373.586H435.795C436.249 373.586 436.596 373.773 436.783 374.12C436.97 374.495 436.97 374.843 436.783 375.217C436.596 375.592 436.249 375.779 435.795 375.779V375.752ZM435.18 383.536H416.954C415.297 383.536 414.469 382.813 414.469 381.342V378.213C414.469 377.678 414.682 377.303 415.083 377.089C415.484 376.875 415.912 376.875 416.339 377.089C416.767 377.303 416.954 377.678 416.954 378.213V380.7C416.954 381.128 417.194 381.342 417.702 381.342H435.18C435.634 381.342 435.955 381.53 436.169 381.904C436.356 382.278 436.356 382.626 436.169 383.001C435.982 383.375 435.661 383.562 435.18 383.562V383.536Z" fill="#F0F0F0"/>
<path d="M454.128 383.163C453.727 383.457 453.353 383.591 453.006 383.564C452.658 383.537 452.391 383.43 452.231 383.189C452.07 382.949 451.963 382.708 451.937 382.414C451.91 382.119 451.99 381.852 452.231 381.558C453.54 380.247 454.582 378.883 455.304 377.492C456.052 376.101 456.533 374.737 456.747 373.4C456.961 372.062 457.094 370.618 457.148 369.067C457.201 367.515 457.201 365.884 457.148 364.225C457.148 363.824 456.907 363.61 456.426 363.61H453.273C452.818 363.61 452.471 363.423 452.284 363.048C452.097 362.674 452.097 362.326 452.284 361.952C452.471 361.577 452.792 361.39 453.273 361.39H457.148C458.805 361.39 459.633 362.112 459.66 363.53C459.66 365.108 459.66 366.606 459.687 367.97C459.687 369.361 459.633 370.725 459.473 372.062C459.312 373.4 459.045 374.684 458.698 375.914C458.35 377.118 457.789 378.348 457.041 379.605C456.293 380.836 455.331 382.039 454.155 383.163H454.128ZM463.562 383.056C463.428 383.35 463.187 383.51 462.84 383.564C462.493 383.617 462.145 383.564 461.851 383.43C461.557 383.27 461.343 383.029 461.21 382.708C461.103 382.387 461.21 381.986 461.584 381.504C462.573 380.167 463.375 378.776 463.936 377.305C464.497 375.834 464.844 374.443 464.978 373.079C465.112 371.741 465.192 370.297 465.218 368.746C465.245 367.194 465.245 365.67 465.218 364.199C465.218 363.797 464.978 363.583 464.47 363.583H461.29C460.836 363.583 460.515 363.396 460.328 363.022C460.141 362.647 460.141 362.299 460.328 361.925C460.515 361.551 460.836 361.363 461.29 361.363H465.218C466.875 361.363 467.704 362.086 467.704 363.557C467.757 365.108 467.757 366.766 467.704 368.505C467.65 370.243 467.543 371.902 467.383 373.48C467.223 375.058 466.822 376.663 466.207 378.348C465.566 380.033 464.711 381.584 463.562 383.029V383.056ZM475.213 373.453H473.316V383.056C473.316 383.564 473.102 383.911 472.701 384.125C472.3 384.339 471.873 384.339 471.445 384.125C471.018 383.911 470.831 383.564 470.831 383.056V361.658C470.831 361.256 470.964 360.962 471.231 360.721C471.499 360.507 471.766 360.4 472.087 360.4C472.407 360.4 472.675 360.507 472.942 360.721C473.209 360.935 473.343 361.256 473.343 361.658V371.26H475.24C475.694 371.26 476.015 371.447 476.202 371.822C476.389 372.196 476.389 372.544 476.202 372.918C476.015 373.293 475.694 373.48 475.24 373.48L475.213 373.453Z" fill="#F0F0F0"/>
<path d="M514.07 383.536H492.423C491.969 383.536 491.621 383.349 491.434 382.975C491.247 382.6 491.247 382.252 491.434 381.878C491.621 381.504 491.969 381.316 492.423 381.316H514.07C514.524 381.316 514.871 381.504 515.058 381.878C515.246 382.252 515.246 382.6 515.058 382.975C514.871 383.349 514.524 383.536 514.07 383.536ZM513.402 372.73C509.206 371.848 505.812 369.28 503.22 365.081C500.841 368.852 497.608 371.313 493.465 372.516C492.797 372.704 492.289 372.65 491.969 372.302C491.621 371.981 491.514 371.58 491.675 371.126C491.835 370.671 492.183 370.377 492.69 370.27C494.374 369.922 496.111 369.066 497.902 367.648C499.692 366.231 500.975 364.653 501.696 362.887C502.124 361.844 502.632 361.336 503.246 361.336C503.834 361.336 504.369 361.871 504.796 362.887C505.625 364.813 506.801 366.445 508.324 367.729C509.847 369.039 511.664 369.949 513.829 370.403C514.337 370.51 514.658 370.778 514.791 371.206C514.925 371.634 514.871 372.008 514.604 372.356C514.337 372.704 513.936 372.811 513.402 372.704V372.73Z" fill="#F0F0F0"/>
<path d="M363.721 406.699H445.871" stroke="#F0F0F0" stroke-width="0.5" stroke-miterlimit="10"/>
</svg>
