<?xml version="1.0" encoding="UTF-8"?><svg id="_레이어_2" xmlns="http://www.w3.org/2000/svg" xmlns:xlink="http://www.w3.org/1999/xlink" viewBox="0 0 54.82 67.15"><defs><linearGradient id="_무제_그라디언트_6" x1="52.8" y1="11.48" x2="8.46" y2="60.84" gradientUnits="userSpaceOnUse"><stop offset="0" stop-color="#673606"/><stop offset="1" stop-color="#382201"/></linearGradient></defs><g id="_레이어_1-2"><g><circle cx="27.41" cy="39.74" r="27.41" style="fill:url(#_무제_그라디언트_6);"/><g><path d="M19.35,45.17v-.05s.01-.76,.01-.76l.03-1.61v-.17s0-.75,0-.75h-3.55v.51H7.98v2.4h4.09s0,0,0,.01H7.47v2.4h3.37c-.12,.12-.26,.25-.42,.38-.21,.18-.4,.33-.57,.45-.18,.14-.38,.27-.59,.39-.23,.14-.43,.26-.61,.36-.14,.08-.31,.17-.5,.26-.2,.1-.39,.19-.59,.28l-.66,.3,.28,.67,.22,.53,.26,.62,.64-.18c.25-.07,.53-.16,.86-.26,.33-.11,.65-.22,.97-.33,.29-.11,.61-.24,.96-.39,.35-.15,.7-.32,1.03-.5,.36-.2,.7-.42,1.02-.66,.32-.24,.6-.48,.84-.72,.25-.25,.5-.57,.75-.95,.24-.37,.43-.73,.57-1.06,.1-.23,.21-.54,.31-.92,.09-.36,.16-.66,.2-.9,.02-.13,.05-.29,.07-.47,0,.32,0,.63,.01,.94,0,.73,.01,1.46,.01,2.18s0,1.45-.01,2.18c0,.73-.02,1.48-.04,2.24v.17s0,.75,0,.75h3.55v-.9c-.02-.77-.03-1.52-.04-2.25,0-.59-.01-1.18-.01-1.77h1.69v-2.42h-1.68Z"/><path d="M30.93,41.83h-.75v.08h-2.44v.9c.02,.54,.03,1.04,.03,1.52,0,.23,0,.47,0,.7h-.38s0-.05,0-.07c0-.18,0-.47,0-.87,0-.39,.01-.66,.02-.81v-.19s0-.75,0-.75h-6.2v2.4h2.75v.53h-2.62v.89c0,.21,.02,.5,.03,.9,0,.4,.01,.69,.01,.86s0,.46-.01,.86c0,.4-.02,.69-.02,.86-.02,.22,.02,.44,.11,.63,.08,.17,.19,.32,.33,.43,.13,.11,.31,.2,.53,.26,.17,.04,.33,.06,.48,.06h4.94c0,.15,0,.29,0,.44v.17s0,.75,0,.75h2.44v.13h3.42v-.9c-.02-.77-.03-1.52-.04-2.25,0-.73-.01-1.46-.01-2.18s0-1.45,.01-2.18c0-.73,.02-1.48,.04-2.24v-.17s0-.75,0-.75h-2.67Zm-3.14,6.8h-2.93v-.99h2.57v-.15h.37c0,.38,0,.77,0,1.14Z"/><path d="M47.22,43.96h-.91c0-.07,0-.15,0-.22,0-.33,.01-.66,.02-.99v-.17s0-.75,0-.75h-3.55v.9c.02,.77,.03,1.52,.04,2.25,0,.06,0,.11,0,.17,0-.03-.02-.06-.03-.09-.03-.1-.09-.28-.17-.49-.09-.24-.18-.42-.27-.57-.06-.1-.16-.25-.28-.42-.14-.19-.26-.33-.38-.45-.09-.1-.23-.22-.41-.36-.2-.16-.4-.28-.59-.38-.11-.05-.25-.11-.4-.17-.16-.06-.33-.11-.49-.15-.12-.02-.27-.05-.47-.07-.22-.03-.39-.04-.54-.04s-.32,.01-.53,.04c-.19,.02-.34,.05-.44,.06-.18,.04-.34,.09-.51,.15-.16,.06-.3,.12-.43,.18-.18,.09-.37,.21-.56,.36-.19,.15-.33,.27-.43,.37-.12,.11-.24,.26-.37,.44-.13,.17-.22,.32-.29,.44-.08,.15-.16,.32-.25,.54-.09,.22-.15,.4-.19,.54-.04,.17-.09,.39-.14,.7-.05,.33-.08,.62-.08,.89s.03,.57,.08,.89c.05,.31,.1,.54,.14,.69,.05,.15,.11,.32,.2,.54,.09,.22,.17,.4,.24,.54,.08,.14,.18,.28,.3,.46,.13,.18,.25,.32,.38,.45,.1,.1,.24,.22,.43,.37,.19,.15,.38,.27,.56,.36,.12,.06,.26,.12,.43,.18,.17,.06,.32,.11,.47,.15,.13,.03,.29,.05,.48,.07,.21,.03,.38,.04,.53,.04s.32-.01,.54-.04c.21-.02,.36-.05,.46-.07,.17-.03,.33-.09,.5-.15,.16-.06,.3-.12,.42-.18,.18-.08,.38-.21,.57-.37,.18-.14,.31-.26,.42-.36,.11-.11,.24-.26,.37-.44,.13-.17,.23-.32,.3-.44,.08-.13,.17-.32,.26-.57,.08-.21,.14-.38,.18-.5,.01-.03,.02-.07,.03-.1,0,.39,0,.78-.01,1.17,0,.73-.02,1.48-.04,2.24v.17s0,.75,0,.75h3.55v-.9c0-.62-.02-1.22-.03-1.81,0-.32-.01-.64-.02-.96h1.69v-2.42h-1.69v-.03h0s.94-.01,.94-.01h.75v-2.42h-.75Zm-8.25,5.17s-.07,.02-.13,.03c-.03,0-.04,0-.06,0-.02,0-.03,0-.05,0-.07-.01-.12-.03-.16-.04,0,0,0,0,0,0,0,0-.01,0-.03-.02-.05-.03-.09-.06-.13-.1-.02-.02-.06-.06-.11-.14-.06-.09-.12-.18-.16-.26-.02-.05-.06-.17-.1-.31-.05-.16-.08-.32-.12-.47-.02-.1-.04-.29-.06-.52-.02-.24-.03-.45-.03-.62s.01-.39,.03-.63c.02-.23,.04-.41,.06-.53,.03-.13,.07-.29,.11-.46,.04-.13,.08-.24,.11-.33,.04-.07,.09-.15,.15-.23,.04-.06,.08-.11,.12-.15,.03-.03,.07-.06,.12-.09,.03-.02,.05-.03,.06-.03,0,0,.06-.01,.13-.03,.03,0,.05-.01,.07-.01,0,0,.02,0,.05,0,.07,.01,.12,.03,.16,.04,0,0,0,0,0,0,0,0,.01,0,.03,.02,.05,.03,.09,.06,.13,.1,.05,.04,.08,.08,.11,.12,.07,.11,.12,.2,.17,.28,.02,.04,.06,.14,.1,.29,.04,.17,.08,.34,.11,.49,.02,.1,.04,.28,.06,.51,.02,.24,.03,.45,.03,.63s-.01,.38-.03,.62c-.02,.24-.04,.42-.06,.55-.03,.13-.07,.29-.11,.46-.04,.15-.08,.25-.11,.3-.04,.08-.09,.17-.16,.27-.03,.05-.06,.09-.09,.11-.06,.05-.1,.08-.14,.11-.02,.01-.04,.02-.05,.03Z"/></g><g><g><path d="M16.21,51.11v-.53c.02-.77,.03-1.51,.04-2.25,0-.73,.01-1.46,.01-2.19s0-1.46-.01-2.19c0-.73-.02-1.48-.04-2.24v-.54h2.8v.53l-.04,2.81h1.69v1.67h-1.69c0,.71,0,1.43,.01,2.15,0,.74,.02,1.48,.04,2.24v.54h-2.8Zm-8.83-2.36l.33-.15c.2-.09,.4-.19,.6-.29,.2-.1,.38-.19,.53-.28,.17-.1,.38-.22,.61-.36,.22-.13,.43-.27,.62-.41,.19-.13,.38-.29,.6-.47,.21-.18,.39-.34,.53-.5,.15-.16,.29-.33,.42-.5,.01-.02,.02-.03,.03-.05h-3.8v-1.65h4.53v-.02c.05-.19,.08-.39,.11-.62,0-.04,0-.08,.01-.12h-4.14v-1.65h7.23l-.02,.39c0,.19-.03,.42-.06,.69-.03,.26-.06,.49-.1,.67-.03,.21-.1,.5-.19,.85-.1,.36-.19,.65-.3,.88-.13,.31-.31,.64-.54,1-.23,.36-.46,.66-.7,.89-.22,.22-.49,.45-.8,.68-.3,.23-.63,.44-.97,.62-.33,.18-.66,.34-1.01,.49-.34,.15-.65,.27-.93,.38-.32,.11-.64,.22-.96,.33-.32,.1-.61,.19-.85,.26l-.32,.09-.48-1.17Z" style="fill:#ff9600;"/><path d="M18.63,41.55v.15c0,.55-.02,1.08-.03,1.61,0,.53-.02,1.05-.03,1.57h1.69v.92h-1.69v.33c0,.73,0,1.46,.01,2.19,0,.74,.02,1.48,.04,2.25v.15h-2.05v-.15c.02-.76,.03-1.51,.04-2.25,0-.74,.01-1.47,.01-2.19s0-1.46-.01-2.19-.02-1.48-.04-2.25v-.15h2.05m-3.44,.51c0,.19-.03,.41-.06,.66-.03,.25-.06,.47-.1,.65-.03,.21-.1,.49-.19,.83s-.18,.61-.28,.83c-.12,.29-.29,.61-.51,.94-.22,.34-.43,.61-.65,.83s-.47,.43-.76,.65c-.29,.22-.6,.42-.92,.6-.32,.17-.64,.33-.97,.47-.33,.15-.64,.27-.91,.37-.31,.11-.62,.22-.94,.32-.32,.1-.6,.19-.84,.26l-.22-.53c.21-.09,.41-.19,.62-.29s.38-.2,.54-.28c.18-.1,.39-.22,.62-.37,.24-.14,.45-.28,.65-.43,.19-.14,.39-.3,.62-.49s.41-.36,.56-.53c.16-.17,.31-.35,.45-.54,.14-.19,.26-.38,.37-.58,0-.02,.01-.03,.02-.04,0,0,.01-.02,.02-.03h-4.11v-.9h4.44c.02-.06,.03-.12,.05-.17,.02-.05,.03-.1,.04-.15,.04-.2,.08-.42,.11-.65,.03-.24,.05-.42,.06-.54h-4.18v-.9h6.47m4.19-1.26h-3.55v.51H7.98v2.4h4.09s0,0,0,.01H7.47v2.4h3.37c-.12,.12-.26,.25-.42,.38-.21,.18-.4,.33-.57,.45-.18,.14-.38,.27-.59,.39-.23,.14-.43,.26-.61,.36-.14,.08-.31,.17-.5,.26s-.39,.19-.59,.28l-.66,.3,.28,.67,.22,.53,.26,.62,.64-.18c.25-.07,.53-.16,.86-.26,.33-.11,.65-.22,.97-.33,.29-.11,.61-.24,.96-.39,.35-.15,.7-.32,1.03-.5,.36-.2,.7-.42,1.02-.66,.32-.24,.6-.48,.84-.72,.25-.25,.5-.57,.75-.95,.24-.37,.43-.73,.57-1.06,.1-.23,.21-.54,.31-.92,.09-.36,.16-.66,.2-.9,.02-.13,.05-.29,.07-.47,0,.32,0,.63,.01,.94,0,.73,.01,1.46,.01,2.18s0,1.45-.01,2.18c0,.73-.02,1.48-.04,2.24v.17s0,.75,0,.75h3.55v-.9c-.02-.77-.03-1.52-.04-2.25,0-.59-.01-1.18-.01-1.77h1.69v-2.42h-1.68v-.05s.01-.76,.01-.76l.03-1.61v-.17s0-.75,0-.75h0Z"/></g><g><path d="M30.55,51.11v-.13h-2.44v-.53c.02-.77,.03-1.5,.04-2.21,0-.7,.01-1.42,.01-2.14v-.02h-1.12v.15h-2.57v1.74h3.54v1.65h-5.21c-.12,0-.25-.02-.38-.05-.17-.04-.29-.11-.4-.2-.09-.07-.16-.17-.22-.3-.06-.13-.09-.29-.07-.46,0-.17,.02-.46,.02-.86s.01-.69,.01-.87,0-.47-.01-.87-.02-.69-.03-.87v-.53h2.62v-1.28h-2.75v-1.65h5.45v.53c0,.17-.01,.45-.02,.84,0,.4,0,.7,0,.87,0,.11,0,.26,0,.45h1.13c0-.36,0-.72,0-1.08,0-.48-.02-.99-.03-1.5v-.54h2.44v-.08h2.67v.53c-.02,.77-.03,1.52-.04,2.25,0,.73-.01,1.46-.01,2.19s0,1.46,.01,2.19c0,.74,.02,1.48,.04,2.24v.54h-2.67Z" style="fill:#ff9600;"/><path d="M32.85,41.55v.15c-.02,.76-.03,1.51-.04,2.25s-.01,1.47-.01,2.19,0,1.46,.01,2.19c0,.74,.02,1.48,.04,2.25v.15h-1.92v-.15c.02-.76,.03-1.51,.04-2.25,0-.74,.01-1.47,.01-2.19s0-1.46-.01-2.19-.02-1.48-.04-2.25v-.15h1.92m-2.54,.08v.15c-.02,.76-.03,1.49-.04,2.19,0,.7-.01,1.41-.01,2.14s0,1.44,.01,2.15,.02,1.44,.04,2.2v.15h-1.82v-.15c.02-.76,.03-1.49,.04-2.2s.01-1.42,.01-2.15v-.21c0-.07,0-.13-.01-.19h-1.55v-.95h1.55c0-.49,0-.97,0-1.46,0-.49-.02-.99-.03-1.51v-.15h1.82m-3.64,.44v.15c0,.15-.01,.43-.02,.84,0,.41,0,.7,0,.88s0,.48,0,.89c0,.41,.01,.71,.02,.88v.15h-2.57v2.49h3.54v.9h-4.84c-.09,0-.19-.01-.29-.04-.1-.03-.18-.06-.24-.12-.05-.04-.09-.1-.13-.17-.03-.07-.05-.16-.04-.28,0-.18,.02-.47,.03-.88s.01-.7,.01-.88,0-.47-.01-.88-.02-.7-.03-.88v-.14h2.62v-2.03h-2.75v-.9h4.7m6.93-1.26h-3.42v.08h-2.44v.9c.02,.54,.03,1.04,.03,1.52,0,.23,0,.47,0,.7h-.38s0-.05,0-.07c0-.18,0-.47,0-.87,0-.39,.01-.66,.02-.81v-.19s0-.75,0-.75h-6.2v2.4h2.75v.53h-2.62v.89c0,.21,.02,.5,.03,.9,0,.4,.01,.69,.01,.86s0,.46-.01,.86c0,.4-.02,.69-.02,.86-.02,.22,.02,.44,.11,.63,.08,.17,.19,.32,.33,.43,.13,.11,.31,.2,.53,.26,.17,.04,.33,.06,.48,.06h4.94c0,.15,0,.29,0,.44v.17s0,.75,0,.75h2.44v.13h3.42v-.9c-.02-.77-.03-1.52-.04-2.25,0-.73-.01-1.46-.01-2.18s0-1.45,.01-2.18c0-.73,.02-1.48,.04-2.24v-.17s0-.75,0-.75h0Zm-6.18,5.66h.37c0,.38,0,.77,0,1.14h-2.93v-.99h2.57v-.15h0Z"/></g><g><path d="M43.15,51.11v-.53c.02-.77,.03-1.51,.04-2.25,0-.73,.01-1.46,.01-2.19s0-1.46-.01-2.19c0-.73-.02-1.48-.04-2.24v-.54h2.8v.53c0,.34-.03,1.4-.03,1.6h1.67v1.67h-1.69v.79h1.69v1.67h-1.69c0,.44,0,.89,.02,1.34,.01,.59,.03,1.95,.03,1.95v.38h-2.8Zm-4.37-1.1c-.13,0-.29-.01-.49-.04-.18-.02-.33-.04-.43-.06-.14-.03-.28-.07-.44-.13-.15-.06-.28-.11-.4-.17-.16-.08-.32-.18-.5-.32-.17-.13-.3-.25-.39-.34-.1-.1-.22-.24-.34-.4-.12-.16-.21-.29-.27-.41-.07-.13-.15-.29-.23-.51-.08-.2-.14-.36-.18-.48-.04-.15-.08-.37-.13-.67-.05-.3-.08-.58-.08-.83s.03-.53,.08-.83c.05-.3,.09-.52,.13-.65,.04-.14,.1-.3,.18-.51,.08-.2,.16-.37,.22-.49,.07-.12,.16-.26,.28-.42,.12-.16,.23-.3,.34-.4,.09-.09,.22-.21,.39-.34,.18-.14,.34-.25,.5-.32,.11-.06,.25-.11,.4-.17,.15-.06,.29-.1,.42-.13,.12-.02,.26-.04,.45-.06,.19-.02,.36-.04,.49-.04s.3,.01,.49,.04c.19,.02,.33,.04,.42,.06,.15,.03,.29,.08,.44,.13,.14,.05,.27,.11,.38,.17,.16,.08,.34,.19,.51,.33,.17,.13,.29,.24,.39,.34,.1,.1,.22,.24,.34,.4,.12,.16,.21,.3,.27,.41,.07,.12,.15,.29,.24,.5,.08,.2,.13,.37,.17,.5,.04,.12,.09,.35,.14,.66,.05,.3,.07,.58,.07,.83s-.02,.52-.07,.83c-.05,.31-.1,.54-.14,.68-.03,.11-.09,.27-.17,.47-.08,.22-.17,.39-.24,.52-.06,.1-.15,.24-.27,.4-.12,.16-.23,.3-.34,.4-.09,.09-.22,.2-.38,.33-.17,.14-.34,.25-.52,.33-.1,.05-.23,.11-.38,.16-.15,.06-.3,.1-.44,.13-.09,.02-.24,.04-.43,.06-.2,.02-.36,.03-.49,.03Zm0-7.21s-.06,0-.13,.02c-.08,.02-.14,.03-.19,.05-.03,0-.07,.03-.12,.06-.06,.04-.12,.08-.17,.13-.06,.05-.12,.12-.18,.21-.07,.11-.13,.2-.18,.29-.04,.09-.09,.23-.13,.39-.05,.17-.09,.34-.12,.5-.02,.12-.04,.31-.06,.56-.02,.25-.03,.47-.03,.66s.01,.4,.03,.65c.02,.25,.04,.44,.07,.58,.03,.14,.07,.31,.12,.48,.04,.16,.09,.3,.15,.41,.04,.06,.09,.16,.16,.26,.06,.09,.12,.16,.18,.22,.05,.04,.11,.09,.16,.12,.05,.03,.09,.05,.14,.07,.04,.01,.1,.03,.17,.04,.07,.02,.12,.02,.14,.02,.04,0,.09,0,.13-.02,.07-.02,.13-.03,.18-.05,.04-.01,.08-.04,.13-.06,.06-.04,.12-.08,.17-.13,.07-.06,.13-.12,.18-.21,.07-.11,.13-.21,.17-.29,.05-.1,.1-.23,.14-.38,.04-.18,.08-.35,.12-.5,.02-.12,.04-.32,.06-.57,.02-.25,.03-.47,.03-.65,0-.19-.01-.41-.03-.66-.02-.25-.04-.44-.07-.56-.03-.15-.07-.32-.12-.5-.04-.15-.09-.28-.14-.39-.05-.08-.1-.18-.17-.29-.05-.08-.11-.15-.17-.2-.06-.05-.12-.1-.18-.13-.05-.03-.09-.05-.14-.07-.04,0-.1-.03-.17-.04-.05-.01-.1-.02-.14-.02Z" style="fill:#ff9600;"/><path d="M45.58,41.55v.15c0,.33-.01,.67-.02,.99,0,.33-.01,.66-.02,.98h1.68v.92h-1.69v1.54h1.69v.92h-1.69c0,.56,0,1.14,.02,1.73,.01,.59,.02,1.18,.03,1.79v.15h-2.05v-.15c.02-.76,.03-1.51,.04-2.25,0-.74,.01-1.47,.01-2.19s0-1.46-.01-2.19-.02-1.48-.04-2.25v-.15h2.05m-6.8,.13c.12,0,.27,.01,.45,.03s.31,.04,.4,.06c.12,.03,.25,.06,.38,.12,.13,.05,.25,.1,.35,.15,.15,.07,.29,.16,.44,.28,.15,.12,.27,.22,.35,.31,.09,.09,.19,.21,.3,.36,.11,.15,.19,.27,.25,.37,.07,.11,.14,.26,.21,.45,.07,.19,.13,.34,.16,.46,.04,.13,.09,.33,.13,.62,.04,.28,.06,.54,.06,.77s-.02,.49-.06,.77c-.04,.28-.08,.49-.13,.62-.03,.11-.09,.26-.16,.46-.07,.19-.14,.34-.21,.46-.06,.1-.14,.23-.25,.37-.11,.15-.21,.27-.3,.36-.08,.09-.2,.19-.35,.31-.15,.12-.3,.21-.44,.28-.1,.05-.22,.1-.35,.15-.13,.05-.26,.09-.38,.12-.09,.02-.22,.04-.4,.06-.18,.02-.33,.03-.45,.03s-.27-.01-.44-.03c-.18-.02-.31-.04-.4-.06-.11-.03-.24-.06-.37-.12s-.26-.1-.36-.15c-.14-.07-.28-.16-.44-.28-.15-.12-.27-.22-.36-.31-.09-.09-.2-.21-.3-.36-.11-.15-.19-.27-.25-.37-.06-.11-.13-.26-.21-.46-.08-.19-.13-.34-.17-.46-.03-.13-.08-.33-.12-.62s-.07-.54-.07-.77,.02-.49,.07-.77,.09-.49,.12-.62c.03-.12,.09-.27,.17-.46,.08-.19,.14-.34,.21-.45,.06-.1,.14-.23,.25-.37,.11-.14,.21-.26,.3-.36,.08-.09,.21-.19,.36-.31,.15-.12,.3-.21,.44-.28,.1-.05,.22-.1,.36-.15,.14-.05,.26-.09,.37-.12,.09-.02,.23-.04,.4-.06,.17-.02,.32-.03,.44-.03m0,7.21c.07,0,.14,0,.22-.03,.08-.02,.15-.03,.21-.05,.08-.03,.15-.06,.22-.11,.07-.05,.14-.1,.21-.16,.09-.08,.18-.17,.25-.29,.07-.12,.13-.22,.19-.31,.07-.13,.13-.28,.17-.47,.05-.18,.09-.36,.12-.52,.03-.15,.05-.35,.07-.62,.02-.26,.03-.49,.03-.68s-.01-.43-.03-.69c-.02-.26-.04-.47-.07-.6-.03-.16-.08-.34-.12-.52s-.1-.34-.17-.47c-.05-.09-.11-.2-.19-.31-.07-.12-.16-.21-.25-.29-.07-.06-.14-.11-.21-.16-.07-.05-.15-.08-.22-.11-.06-.02-.13-.03-.21-.05-.08-.02-.15-.03-.22-.03-.06,0-.13,0-.21,.03-.08,.02-.15,.03-.21,.05-.08,.03-.15,.06-.22,.11-.07,.05-.14,.1-.21,.16-.09,.08-.17,.17-.24,.29-.08,.12-.14,.22-.19,.31-.06,.13-.12,.29-.17,.47-.05,.18-.09,.36-.13,.52-.03,.14-.05,.34-.07,.6-.02,.27-.03,.5-.03,.69s.01,.42,.03,.68c.02,.27,.04,.47,.07,.62,.03,.16,.08,.33,.13,.52,.05,.18,.11,.34,.17,.47,.05,.09,.12,.2,.19,.31s.16,.21,.24,.29c.07,.06,.14,.11,.21,.16,.07,.05,.15,.08,.22,.11,.06,.02,.13,.04,.21,.05,.08,.02,.15,.03,.21,.03m7.55-8.09h-3.55v.9c.02,.77,.03,1.52,.04,2.25,0,.06,0,.11,0,.17,0-.03-.02-.06-.03-.09-.03-.1-.09-.28-.17-.49-.09-.24-.18-.42-.27-.57-.06-.1-.16-.25-.28-.42-.14-.19-.26-.33-.38-.45-.09-.1-.23-.22-.41-.36-.2-.16-.4-.28-.59-.38-.11-.05-.25-.11-.4-.17-.16-.06-.33-.11-.49-.15-.12-.02-.27-.05-.47-.07-.22-.03-.39-.04-.54-.04s-.32,.01-.53,.04c-.19,.02-.34,.05-.44,.06-.18,.04-.34,.09-.51,.15-.16,.06-.3,.12-.43,.18-.18,.09-.37,.21-.56,.36-.19,.15-.33,.27-.43,.37-.12,.11-.24,.26-.37,.44-.13,.17-.22,.32-.29,.44-.08,.15-.16,.32-.25,.54-.09,.22-.15,.4-.19,.54-.04,.17-.09,.39-.14,.7-.05,.33-.08,.62-.08,.89s.03,.57,.08,.89c.05,.31,.1,.54,.14,.69,.05,.15,.11,.32,.2,.54,.09,.22,.17,.4,.24,.54,.08,.14,.18,.28,.3,.46,.13,.18,.25,.32,.38,.45,.1,.1,.24,.22,.43,.37,.19,.15,.38,.27,.56,.36,.12,.06,.26,.12,.43,.18,.17,.06,.32,.11,.47,.15,.13,.03,.29,.05,.48,.07,.21,.03,.38,.04,.53,.04s.32-.01,.54-.04c.21-.02,.36-.05,.46-.07,.17-.03,.33-.09,.5-.15,.16-.06,.3-.12,.42-.18,.18-.08,.38-.21,.57-.37,.18-.14,.31-.26,.42-.36,.11-.11,.24-.26,.37-.44,.13-.17,.23-.32,.3-.44,.08-.13,.17-.32,.26-.56,.08-.21,.14-.38,.18-.5,.01-.03,.02-.07,.03-.1,0,.39,0,.78-.01,1.17,0,.73-.02,1.48-.04,2.24v.17s0,.75,0,.75h3.55v-.9c0-.62-.02-1.22-.03-1.81,0-.32-.01-.64-.02-.96h1.69v-2.42h-1.69v-.03h0s.94-.01,.94-.01h.75v-2.42h-1.66c0-.07,0-.15,0-.22,0-.33,.01-.66,.02-.99v-.17s0-.75,0-.75h0Zm-8.17,2.91c.04-.07,.09-.15,.15-.23,.04-.06,.08-.11,.12-.15,.03-.03,.07-.06,.12-.09,.03-.02,.05-.03,.06-.03,0,0,.06-.01,.13-.03,.03,0,.05-.01,.07-.01,0,0,.02,0,.05,0,.07,.01,.12,.03,.16,.04,0,0,0,0,0,0,0,0,.01,0,.03,.02,.05,.03,.09,.06,.13,.1,.05,.04,.08,.08,.11,.12,.07,.11,.12,.2,.17,.28,.02,.04,.06,.14,.1,.29,.04,.17,.08,.34,.11,.49,.02,.1,.04,.28,.06,.51,.02,.24,.03,.45,.03,.63s-.01,.38-.03,.62c-.02,.24-.04,.42-.06,.55-.03,.13-.07,.29-.11,.46-.04,.15-.08,.25-.11,.3-.04,.08-.09,.17-.16,.27-.03,.05-.06,.09-.09,.11-.06,.05-.1,.08-.14,.11-.02,.01-.04,.02-.05,.03-.02,0-.07,.02-.13,.03-.03,0-.04,0-.06,0-.02,0-.03,0-.05,0-.07-.01-.12-.03-.16-.04,0,0,0,0,0,0,0,0-.01,0-.03-.02-.05-.03-.09-.06-.13-.1-.02-.02-.06-.06-.11-.14-.06-.09-.12-.18-.16-.26-.02-.05-.06-.17-.1-.31-.05-.16-.08-.32-.12-.47-.02-.1-.04-.29-.06-.52-.02-.24-.03-.45-.03-.62,0-.18,.01-.39,.03-.63,.02-.23,.04-.41,.06-.53,.03-.13,.07-.29,.11-.46,.04-.13,.08-.24,.11-.33h0Z"/></g></g><ellipse cx="27.41" cy="28.79" rx="9.05" ry="7.53" style="fill:#fff; stroke:#000; stroke-miterlimit:10;"/><circle cx="27.41" cy="27.95" r="3.59" style="fill:#ff9000; stroke:#000; stroke-miterlimit:10;"/><text transform="translate(13.17 57.53) rotate(33.7)" style="fill:#fff; font-family:ChosunLo, ChosunLo; font-size:4px;"><tspan x="0" y="0">일</tspan></text><text transform="translate(16.95 59.99) rotate(22.31)" style="fill:#fff; font-family:ChosunLo, ChosunLo; font-size:4px;"><tspan x="0" y="0">본</tspan></text><text transform="translate(21.15 61.66) rotate(10.85)" style="fill:#fff; font-family:ChosunLo, ChosunLo; font-size:4px;"><tspan x="0" y="0">카</tspan></text><text transform="translate(25.63 62.47) rotate(-.93)" style="fill:#fff; font-family:ChosunLo, ChosunLo; font-size:4px;"><tspan x="0" y="0">레</tspan></text><text transform="translate(30.13 62.37) rotate(-11.83)" style="fill:#fff; font-family:ChosunLo, ChosunLo; font-size:4px;"><tspan x="0" y="0">전</tspan></text><text transform="translate(34.53 61.39) rotate(-23.28)" style="fill:#fff; font-family:ChosunLo, ChosunLo; font-size:4px;"><tspan x="0" y="0">문</tspan></text><text transform="translate(38.68 59.55) rotate(-34.74)" style="fill:#fff; font-family:ChosunLo, ChosunLo; font-size:4px;"><tspan x="0" y="0">점</tspan></text><ellipse cx="13.4" cy="26.56" rx="2.06" ry="3.02" transform="translate(-10.27 8.55) rotate(-25.96)" style="fill:none; stroke:#4bc100; stroke-miterlimit:10;"/><ellipse cx="41" cy="24.12" rx="3.02" ry="2.06" transform="translate(3.04 52.78) rotate(-67.52)" style="fill:none; stroke:#4bc100; stroke-miterlimit:10;"/><ellipse cx="37.86" cy="34.76" rx="1.51" ry="1.96" style="fill:none; stroke:#3d6b00; stroke-miterlimit:10;"/><ellipse cx="14.4" cy="35.63" rx="1.96" ry="1.51" transform="translate(-12.17 7.87) rotate(-21.74)" style="fill:none; stroke:#3d6b00; stroke-miterlimit:10;"/><circle cx="27.35" cy="26.22" r=".66" style="fill:#ffb454;"/></g></g></svg>