<svg width="803" height="332" viewBox="0 0 803 332" fill="none" xmlns="http://www.w3.org/2000/svg">
<path d="M401.638 331.848C623.304 331.848 803 257.681 803 166.193C803 74.7036 623.304 0.537109 401.638 0.537109C179.971 0.537109 0.275391 74.7036 0.275391 166.193C0.275391 257.681 179.971 331.848 401.638 331.848Z" fill="white"/>
<path d="M401.638 313.818C612.058 313.818 782.638 247.723 782.638 166.192C782.638 84.6606 612.058 18.5664 401.638 18.5664C191.217 18.5664 20.6377 84.6606 20.6377 166.192C20.6377 247.723 191.217 313.818 401.638 313.818Z" fill="#0088CF"/>
<g opacity="0.53">
<mask id="mask0_453_1215" style="mask-type:luminance" maskUnits="userSpaceOnUse" x="20" y="18" width="763" height="296">
<path d="M401.639 313.82C612.059 313.82 782.639 247.725 782.639 166.194C782.639 84.6626 612.059 18.5684 401.639 18.5684C191.218 18.5684 20.6387 84.6626 20.6387 166.194C20.6387 247.725 191.218 313.82 401.639 313.82Z" fill="white"/>
</mask>
<g mask="url(#mask0_453_1215)">
<path d="M401.397 0.538086C401.183 0.538086 400.996 0.538086 400.809 0.538086C400.782 0.538086 400.755 0.538086 400.728 0.538086C400.541 0.538086 400.354 0.538086 400.167 0.538086C400.14 0.538086 400.086 0.538086 400.06 0.538086C399.872 0.538086 399.685 0.538086 399.498 0.538086C399.498 0.538086 399.444 0.538086 399.417 0.538086C399.203 0.538086 399.043 0.538086 398.829 0.538086C398.615 0.538086 398.454 0.538086 398.24 0.538086C398.213 0.538086 398.186 0.538086 398.16 0.538086C397.972 0.538086 397.785 0.538086 397.598 0.538086C397.571 0.538086 397.518 0.538086 397.491 0.538086C397.303 0.538086 397.116 0.538086 396.929 0.538086C396.902 0.538086 396.875 0.538086 396.849 0.538086C396.635 0.538086 396.474 0.538086 396.26 0.538086C396.046 0.538086 395.859 0.538086 395.671 0.538086C395.671 0.538086 395.618 0.538086 395.591 0.538086C395.404 0.538086 395.216 0.538086 395.029 0.538086C395.002 0.538086 394.976 0.538086 394.922 0.538086C394.735 0.538086 394.547 0.538086 394.36 0.538086H394.307C394.119 0.538086 393.932 0.538086 393.745 0.538086C393.745 0.538086 393.745 0.538086 393.718 0.538086C393.504 0.538086 393.343 0.538086 393.129 0.538086C393.103 0.538086 393.076 0.538086 393.022 0.538086C392.835 0.538086 392.648 0.538086 392.46 0.538086C392.434 0.538086 392.38 0.538086 392.353 0.538086C392.166 0.538086 391.979 0.538086 391.818 0.538086C391.791 0.538086 391.765 0.538086 391.711 0.538086C391.524 0.538086 391.337 0.538086 391.176 0.538086C391.176 0.538086 391.149 0.538086 391.123 0.538086C390.935 0.538086 390.748 0.538086 390.561 0.538086C390.534 0.538086 390.507 0.538086 390.454 0.538086C390.266 0.538086 390.079 0.538086 389.892 0.538086C389.865 0.538086 389.838 0.538086 389.811 0.538086C389.624 0.538086 389.437 0.538086 389.249 0.538086C389.249 0.538086 389.196 0.538086 389.169 0.538086C388.982 0.538086 388.795 0.538086 388.607 0.538086C388.607 0.538086 388.581 0.538086 388.554 0.538086C388.366 0.538086 388.179 0.538086 387.992 0.538086C387.965 0.538086 387.938 0.538086 387.912 0.538086C387.724 0.538086 387.537 0.538086 387.35 0.538086C387.323 0.538086 387.296 0.538086 387.243 0.538086C387.055 0.538086 386.868 0.538086 386.681 0.538086C386.681 0.538086 386.654 0.538086 386.627 0.538086C386.44 0.538086 386.253 0.538086 386.065 0.538086C386.065 0.538086 386.039 0.538086 386.012 0.538086C385.825 0.538086 385.637 0.538086 385.423 0.538086C385.423 0.538086 385.37 0.538086 385.343 0.538086C385.156 0.538086 384.968 0.538086 384.781 0.538086C384.781 0.538086 384.727 0.538086 384.701 0.538086C384.513 0.538086 384.326 0.538086 384.112 0.538086C384.112 0.538086 384.085 0.538086 384.059 0.538086C383.871 0.538086 383.657 0.538086 383.47 0.538086C383.283 0.538086 383.095 0.538086 382.881 0.538086C382.881 0.538086 382.828 0.538086 382.801 0.538086C382.614 0.538086 382.426 0.538086 382.239 0.538086C382.239 0.538086 382.186 0.538086 382.159 0.538086C381.971 0.538086 381.757 0.538086 381.57 0.538086C381.356 0.538086 381.169 0.538086 380.955 0.538086C380.767 0.538086 380.553 0.538086 380.366 0.538086C380.366 0.538086 380.339 0.538086 380.312 0.538086C380.125 0.538086 379.911 0.538086 379.724 0.538086C379.724 0.538086 379.697 0.538086 379.67 0.538086C379.055 0.538086 378.413 0.564757 377.797 0.591429C377.583 0.591429 377.369 0.591429 377.155 0.591429C369.69 0.778128 362.251 1.04484 354.893 1.41824L399.899 161.953C400.381 161.953 400.943 161.926 401.531 161.926V0.538086H401.397ZM308.763 5.01886C305.07 5.39226 301.405 5.76566 297.766 6.16573C297.766 6.16573 297.739 6.16573 297.712 6.16573C297.364 6.1924 297.043 6.24574 296.695 6.27241C296.669 6.27241 296.615 6.27241 296.588 6.27241C296.428 6.27241 296.24 6.29909 296.08 6.32576C296.026 6.32576 295.946 6.32576 295.893 6.32576C295.759 6.32576 295.652 6.35243 295.518 6.3791C295.411 6.3791 295.331 6.3791 295.224 6.40577C295.143 6.40577 295.063 6.40577 294.983 6.43244C294.849 6.43244 294.715 6.45911 294.581 6.48579C294.501 6.48579 294.448 6.48579 294.367 6.48579C294.26 6.48579 294.153 6.48579 294.046 6.51246C293.966 6.51246 293.913 6.51246 293.832 6.51246C293.698 6.51246 293.538 6.53913 293.404 6.5658C293.351 6.5658 293.27 6.5658 293.217 6.5658C293.056 6.5658 292.922 6.59247 292.762 6.61914C292.708 6.61914 292.655 6.61914 292.601 6.61914C292.468 6.61914 292.334 6.64581 292.2 6.67248C292.173 6.67248 292.12 6.67248 292.093 6.67248C291.932 6.67248 291.745 6.72583 291.585 6.72583C291.558 6.72583 291.504 6.72583 291.478 6.72583C291.317 6.72583 291.157 6.7525 290.969 6.77917C290.942 6.77917 290.889 6.77917 290.862 6.77917C290.702 6.77917 290.514 6.83251 290.327 6.83251C290.166 6.83251 289.979 6.88585 289.792 6.88585C289.765 6.88585 289.738 6.88585 289.685 6.88585C289.524 6.88585 289.337 6.9392 289.15 6.9392C289.15 6.9392 289.096 6.9392 289.069 6.9392C288.695 6.99254 288.32 7.01921 287.946 7.07255C287.946 7.07255 287.946 7.07255 287.919 7.07255C287.732 7.07255 287.571 7.1259 287.357 7.15257C287.357 7.15257 287.33 7.15257 287.303 7.15257C286.715 7.23258 286.153 7.28592 285.564 7.36594C284.976 7.44595 284.414 7.49929 283.825 7.57931C283.236 7.65932 282.674 7.73934 282.086 7.79268C281.497 7.87269 280.935 7.95271 280.346 8.03272C279.758 8.11273 279.196 8.19275 278.607 8.27276C278.42 8.27276 278.233 8.3261 278.045 8.35278C278.045 8.35278 278.045 8.35278 278.019 8.35278C277.644 8.40612 277.269 8.45946 276.895 8.5128C276.895 8.5128 276.868 8.5128 276.841 8.5128C276.654 8.5128 276.467 8.56615 276.306 8.59282C276.306 8.59282 276.306 8.59282 276.279 8.59282C275.905 8.64616 275.53 8.6995 275.182 8.75284C275.182 8.75284 275.156 8.75284 275.129 8.75284C274.941 8.75284 274.781 8.80619 274.594 8.83286C274.567 8.83286 274.54 8.83286 274.513 8.83286C274.326 8.83286 274.165 8.8862 274.005 8.91287C274.005 8.91287 274.005 8.91287 273.978 8.91287C273.818 8.91287 273.657 8.96622 273.497 8.99289C273.47 8.99289 273.416 8.99289 273.39 8.99289C273.229 8.99289 273.068 9.04623 272.908 9.0729C272.854 9.0729 272.828 9.0729 272.774 9.0729C272.614 9.0729 272.453 9.12624 272.292 9.15291C272.266 9.15291 272.239 9.15291 272.212 9.15291C272.078 9.15291 271.918 9.20626 271.784 9.20626C271.731 9.20626 271.704 9.20626 271.65 9.20626C271.49 9.20626 271.356 9.2596 271.195 9.2596C271.142 9.2596 271.088 9.2596 271.035 9.2596C270.874 9.2596 270.741 9.31294 270.58 9.31294C270.526 9.31294 270.473 9.31294 270.419 9.31294C270.312 9.31294 270.179 9.33961 270.045 9.36628C269.991 9.36628 269.938 9.36628 269.884 9.36628C269.751 9.36628 269.59 9.41963 269.456 9.41963C269.403 9.41963 269.322 9.41963 269.269 9.4463C269.135 9.4463 269.001 9.49964 268.868 9.49964C268.787 9.49964 268.734 9.49964 268.653 9.52631C268.546 9.52631 268.466 9.52631 268.386 9.57966C268.279 9.57966 268.199 9.60633 268.092 9.633C267.985 9.633 267.878 9.65967 267.797 9.68634C267.717 9.68634 267.637 9.68634 267.556 9.71301C267.423 9.71301 267.316 9.73968 267.182 9.76635C267.102 9.76635 267.021 9.76635 266.941 9.79303C266.861 9.79303 266.807 9.79303 266.7 9.8197C266.566 9.8197 266.433 9.87304 266.272 9.87304C266.219 9.87304 266.138 9.87304 266.085 9.89971C265.978 9.89971 265.897 9.92638 265.79 9.95305C265.764 9.95305 265.737 9.95305 265.71 9.95305C265.523 9.97972 265.336 10.0064 265.148 10.0331C265.095 10.0331 265.068 10.0331 265.014 10.0331C264.827 10.0597 264.667 10.0864 264.479 10.1131C264.479 10.1131 264.426 10.1131 264.399 10.1131C264.292 10.1131 264.185 10.1398 264.078 10.1664L398.106 161.926C398.347 161.899 398.588 161.846 398.855 161.819L308.763 5.01886ZM221.186 18.3278C215.46 19.528 209.814 20.7816 204.248 22.1152C204.061 22.1685 203.9 22.1952 203.74 22.2485C203.392 22.3285 203.071 22.4085 202.75 22.4886C202.723 22.4886 202.696 22.4886 202.669 22.4886C202.509 22.5152 202.375 22.5686 202.188 22.5952C202.188 22.5952 202.188 22.5952 202.161 22.5952C202.001 22.6219 201.867 22.6753 201.706 22.7019C201.706 22.7019 201.679 22.7019 201.653 22.7019C201.492 22.7286 201.332 22.7819 201.198 22.8086C201.171 22.8086 201.144 22.8086 201.118 22.8086C200.957 22.8353 200.823 22.8886 200.663 22.9153C200.663 22.9153 200.663 22.9153 200.636 22.9153C200.475 22.942 200.342 22.9953 200.181 23.022C200.181 23.022 200.128 23.022 200.101 23.022C199.967 23.0487 199.806 23.102 199.646 23.1287C199.619 23.1287 199.566 23.1287 199.539 23.1287C199.405 23.1553 199.245 23.2087 199.084 23.2354C199.084 23.2354 199.03 23.2354 199.004 23.2354C198.897 23.262 198.736 23.2887 198.629 23.3154C198.576 23.3154 198.549 23.3154 198.495 23.342C198.362 23.3687 198.201 23.4221 198.067 23.4487C198.014 23.4487 197.987 23.4487 197.933 23.4754C197.8 23.5021 197.666 23.5287 197.532 23.5821C197.505 23.5821 197.452 23.5821 197.425 23.6088C197.291 23.6354 197.184 23.6621 197.05 23.6888C196.997 23.6888 196.97 23.6888 196.917 23.7154C196.783 23.7421 196.649 23.7955 196.515 23.8221C196.462 23.8221 196.408 23.8221 196.381 23.8488C196.274 23.8755 196.114 23.9021 196.007 23.9555C195.98 23.9555 195.953 23.9555 195.927 23.9555C195.793 23.9822 195.659 24.0355 195.498 24.0622C195.445 24.0622 195.418 24.0622 195.365 24.0888C195.231 24.1155 195.097 24.1689 194.963 24.1955C194.91 24.1955 194.883 24.1955 194.83 24.2222C194.723 24.2489 194.589 24.2755 194.482 24.3022C194.455 24.3022 194.401 24.3022 194.375 24.3289C194.241 24.3556 194.107 24.4089 193.973 24.4356C193.92 24.4356 193.893 24.4356 193.839 24.4622C193.706 24.4889 193.572 24.5423 193.411 24.5689C193.385 24.5689 193.331 24.5689 193.304 24.5689C193.171 24.5956 193.037 24.6223 192.903 24.6756H192.849C192.716 24.7023 192.555 24.7556 192.421 24.7823C192.395 24.7823 192.341 24.7823 192.314 24.809C192.154 24.8356 192.02 24.889 191.859 24.9157C191.859 24.9157 191.833 24.9157 191.806 24.9157C191.645 24.9423 191.512 24.9957 191.378 25.0223C191.378 25.0223 191.351 25.0223 191.324 25.0223C191.164 25.049 191.003 25.1024 190.869 25.129H190.816C190.655 25.1824 190.495 25.209 190.334 25.2624C190.334 25.2624 190.334 25.2624 190.308 25.2624C190.147 25.289 189.986 25.3424 189.826 25.3957C189.826 25.3957 189.826 25.3957 189.799 25.3957C189.639 25.4491 189.478 25.4757 189.317 25.5291C189.317 25.5291 189.291 25.5291 189.264 25.5291C188.943 25.6091 188.595 25.6891 188.274 25.7958C188.113 25.8491 187.953 25.8758 187.766 25.9292C185.438 26.5426 183.137 27.156 180.862 27.7962L396.34 162.433C396.661 162.353 396.982 162.273 397.277 162.193L221.186 18.3278ZM143.482 39.7449C143.482 39.7449 143.428 39.7449 143.402 39.7716C143.295 39.8249 143.161 39.8516 143.054 39.9049C143 39.9049 142.947 39.9316 142.893 39.9583C142.733 40.0116 142.545 40.0649 142.385 40.145C142.358 40.145 142.305 40.145 142.278 40.1716C142.144 40.225 141.983 40.2783 141.85 40.3317C141.796 40.3317 141.743 40.3583 141.689 40.385C141.555 40.4383 141.448 40.465 141.315 40.5184C141.261 40.5184 141.208 40.5717 141.154 40.5717C141.02 40.625 140.913 40.6517 140.779 40.7051C140.726 40.7051 140.699 40.7317 140.646 40.7584C140.298 40.8918 139.95 40.9984 139.602 41.1318H139.549C139.388 41.1851 139.254 41.2385 139.094 41.2918C139.04 41.2918 139.013 41.3185 138.96 41.3452C138.826 41.3985 138.692 41.4519 138.559 41.5052C138.532 41.5052 138.478 41.5052 138.452 41.5319C138.291 41.5852 138.157 41.6386 137.997 41.6919H137.943C137.595 41.8253 137.247 41.9586 136.873 42.092C136.846 42.092 136.819 42.092 136.793 42.1186C136.632 42.172 136.498 42.2253 136.338 42.2787C136.311 42.2787 136.284 42.2787 136.231 42.3053C136.097 42.3587 135.936 42.412 135.803 42.4654C135.776 42.4654 135.749 42.4654 135.722 42.492C135.374 42.6254 135.027 42.7587 134.652 42.8921C134.491 42.9454 134.331 43.0255 134.144 43.0788C134.117 43.0788 134.09 43.0788 134.063 43.1055C133.903 43.1588 133.769 43.2122 133.608 43.2655C133.582 43.2655 133.555 43.2655 133.528 43.2922C133.368 43.3455 133.207 43.4255 133.046 43.4789C132.699 43.6122 132.351 43.7456 131.976 43.8789C131.976 43.8789 131.949 43.8789 131.923 43.8789C131.762 43.9323 131.628 43.9856 131.468 44.039C131.441 44.039 131.388 44.039 131.361 44.0656C131.227 44.119 131.066 44.1723 130.933 44.2257C130.906 44.2257 130.879 44.2257 130.852 44.2523C130.505 44.3857 130.157 44.5191 129.809 44.6524C129.648 44.7058 129.488 44.7858 129.3 44.8391C129.274 44.8391 129.247 44.8391 129.193 44.8658C129.06 44.9191 128.926 44.9725 128.792 45.0258C128.765 45.0258 128.712 45.0525 128.685 45.0792C128.551 45.1325 128.417 45.1858 128.257 45.2392C128.23 45.2392 128.177 45.2392 128.15 45.2659C127.802 45.3992 127.481 45.5326 127.133 45.6659C127.106 45.6659 127.053 45.6926 127.026 45.7193C126.892 45.7726 126.758 45.8259 126.625 45.8793C126.571 45.8793 126.518 45.906 126.491 45.9326C126.384 45.986 126.25 46.0393 126.143 46.066C126.09 46.066 126.036 46.0927 126.009 46.1193C125.875 46.1727 125.742 46.226 125.608 46.2794C125.581 46.2794 125.554 46.2794 125.528 46.306C125.367 46.3594 125.207 46.4394 125.019 46.4927C124.992 46.4927 124.966 46.4927 124.939 46.5194C124.805 46.5727 124.671 46.6261 124.538 46.6794C124.484 46.6794 124.431 46.7328 124.377 46.7328C124.27 46.7861 124.163 46.8128 124.056 46.8661C124.002 46.8661 123.949 46.9195 123.869 46.9461C123.762 46.9995 123.655 47.0262 123.548 47.0795C123.494 47.0795 123.441 47.1328 123.387 47.1595C123.253 47.2129 123.119 47.2662 123.012 47.3195C122.959 47.3195 122.932 47.3462 122.879 47.3729C122.745 47.4262 122.584 47.4796 122.424 47.5596C122.344 47.5862 122.317 47.6129 122.236 47.6396C122.156 47.6663 122.049 47.7196 121.969 47.7463C121.889 47.773 121.808 47.7996 121.755 47.8263C121.675 47.853 121.594 47.9063 121.487 47.933C121.407 47.9596 121.327 47.9863 121.246 48.013C121.166 48.0397 121.086 48.093 121.006 48.1197C120.925 48.1463 120.845 48.173 120.792 48.1997C120.685 48.253 120.578 48.2797 120.497 48.333C120.363 48.3864 120.23 48.4397 120.096 48.4931C120.016 48.5197 119.962 48.5464 119.882 48.5731C119.802 48.5998 119.695 48.6531 119.614 48.6798C119.534 48.7064 119.48 48.7331 119.4 48.7598C119.32 48.7865 119.24 48.8398 119.133 48.8665C119.079 48.8931 118.999 48.9198 118.945 48.9465C118.865 48.9732 118.758 49.0265 118.678 49.0532C118.624 49.0532 118.597 49.0798 118.544 49.1065C118.196 49.2665 117.821 49.3999 117.474 49.5599C117.447 49.5599 117.42 49.5866 117.367 49.6133C117.26 49.6666 117.126 49.72 117.019 49.7466C116.992 49.7466 116.938 49.7733 116.912 49.8C116.805 49.8533 116.671 49.9067 116.564 49.96C116.564 49.96 116.537 49.96 116.51 49.96C115.975 50.1734 115.413 50.4134 114.905 50.6535C113.139 51.4002 111.4 52.1737 109.687 52.9205L394.253 163.286C394.574 163.153 394.922 163.02 395.27 162.886L143.482 39.7449ZM79.7991 68.0165C78.6485 68.6566 77.5247 69.2967 76.4009 69.9635C76.4009 69.9635 76.3474 69.9635 76.3474 69.9901C76.2403 70.0435 76.1333 70.1235 76.0263 70.1768C76.0263 70.1768 75.9728 70.1768 75.9728 70.2035C75.7855 70.3102 75.5982 70.4169 75.4109 70.5236C75.3841 70.5236 75.3306 70.5769 75.3038 70.6036C75.2235 70.6569 75.1433 70.7103 75.063 70.7369C75.0095 70.7369 74.956 70.7903 74.9292 70.8169C74.8757 70.8436 74.8222 70.8703 74.7954 70.897C74.7152 70.9503 74.6616 70.977 74.5814 71.0303C74.5279 71.057 74.4743 71.0837 74.4208 71.137C74.3673 71.1637 74.3138 71.1903 74.2603 71.2437C74.2068 71.2704 74.1533 71.297 74.0997 71.3237C74.0195 71.377 73.9392 71.4037 73.8857 71.4571C73.8322 71.4571 73.8054 71.5104 73.7519 71.5371C73.6716 71.5904 73.5913 71.6438 73.5111 71.6971C73.4843 71.6971 73.4308 71.7504 73.404 71.7504C73.3238 71.8038 73.2702 71.8305 73.2167 71.8571C73.19 71.8571 73.1365 71.9105 73.1097 71.9105C73.0294 71.9638 72.9224 72.0172 72.8421 72.0705C72.8154 72.0705 72.7619 72.1238 72.7351 72.1238C72.6548 72.1772 72.5746 72.2305 72.4943 72.2572C72.4675 72.2572 72.414 72.3105 72.3873 72.3105C72.307 72.3639 72.2535 72.3906 72.1732 72.4439C72.1464 72.4439 72.1197 72.4706 72.0662 72.4972C71.9859 72.5506 71.9056 72.6039 71.7986 72.6573C71.7718 72.6573 71.7183 72.7106 71.6916 72.7373C71.6113 72.7906 71.531 72.8173 71.4507 72.8706C71.424 72.8706 71.3972 72.8973 71.3437 72.924C71.2634 72.9773 71.2099 73.004 71.1297 73.0573C71.1029 73.0573 71.0494 73.1107 71.0226 73.1107C70.9424 73.164 70.8621 73.2174 70.7818 73.2707C70.7551 73.2707 70.7015 73.3241 70.6748 73.3241C70.6213 73.3507 70.541 73.4041 70.4875 73.4574C70.434 73.4841 70.3804 73.5107 70.3269 73.5641C70.2734 73.5908 70.1931 73.6441 70.1396 73.6708C70.1129 73.6708 70.0593 73.7241 70.0326 73.7508C69.9523 73.8041 69.872 73.8575 69.7918 73.9108C69.765 73.9108 69.7383 73.9375 69.6847 73.9642C69.6045 74.0175 69.551 74.0442 69.4707 74.0975C69.4439 74.0975 69.3904 74.1509 69.3637 74.1775C69.2834 74.2309 69.2031 74.2842 69.1228 74.3109C69.0961 74.3109 69.0426 74.3642 69.0158 74.3909C68.9355 74.4442 68.8553 74.4976 68.775 74.5509C68.7482 74.5509 68.6947 74.6043 68.668 74.6043C68.5877 74.6576 68.5342 74.6843 68.4807 74.7376C68.4539 74.7376 68.4271 74.791 68.3736 74.791C68.2934 74.8443 68.2131 74.8977 68.1328 74.951C68.1061 74.951 68.0525 75.0043 68.0258 75.031C67.9455 75.0844 67.8652 75.1377 67.785 75.191C67.7582 75.191 67.7047 75.2444 67.6779 75.2444C67.6244 75.2711 67.5442 75.3244 67.4906 75.3777C67.4639 75.3777 67.4371 75.4311 67.3836 75.4311C67.3033 75.4844 67.2231 75.5378 67.1428 75.5911C67.116 75.5911 67.0625 75.6445 67.0358 75.6445C66.9555 75.6978 66.8752 75.7511 66.7949 75.8045C66.7682 75.8045 66.7414 75.8312 66.7147 75.8578C66.6344 75.9112 66.5809 75.9378 66.5006 75.9912C66.4738 75.9912 66.4471 76.0445 66.3936 76.0445C66.3133 76.0979 66.233 76.1512 66.1528 76.2046C66.126 76.2046 66.0992 76.2579 66.0457 76.2579C65.9655 76.3112 65.8852 76.3646 65.8317 76.3913C65.8049 76.3913 65.7514 76.4446 65.7246 76.4713C65.6444 76.5246 65.5908 76.5513 65.5373 76.6046C65.5106 76.6046 65.4571 76.658 65.4303 76.6846C65.35 76.738 65.2698 76.7913 65.1895 76.8447C65.1627 76.8447 65.1092 76.898 65.0825 76.9247C65.0289 76.9513 64.9487 77.0047 64.8952 77.0314C64.8416 77.058 64.7881 77.0847 64.7614 77.1114C64.6811 77.1647 64.6276 77.1914 64.5741 77.2447C64.5473 77.2447 64.4938 77.2981 64.467 77.3247C64.3868 77.3781 64.3065 77.4314 64.2262 77.4848C64.1995 77.4848 64.1459 77.5381 64.1192 77.5648C64.0657 77.5915 64.0122 77.6448 63.9586 77.6715C63.9051 77.6981 63.8784 77.7248 63.8249 77.7515C63.7446 77.8048 63.6911 77.8315 63.6108 77.8848C63.584 77.8848 63.5305 77.9382 63.5038 77.9649C63.4235 78.0182 63.3432 78.0715 63.263 78.1249C63.2362 78.1249 63.2094 78.1782 63.1559 78.1782C63.1024 78.2316 63.0221 78.2582 62.9686 78.3116C62.9419 78.3116 62.9151 78.3649 62.8883 78.3649C62.8081 78.4183 62.7278 78.4716 62.6475 78.525C62.6208 78.525 62.5673 78.5783 62.5405 78.605C62.4602 78.6583 62.38 78.7117 62.2997 78.765C62.2997 78.765 62.2462 78.7917 62.2194 78.8183C62.1659 78.8717 62.0856 78.925 62.0053 78.9517C62.0053 78.9517 61.9518 78.9784 61.9251 79.005C61.8448 79.0584 61.7645 79.1117 61.6575 79.1651C61.6575 79.1651 61.604 79.1917 61.5772 79.2184C61.497 79.2718 61.3899 79.3251 61.3097 79.4051C61.3097 79.4051 61.2829 79.4051 61.2561 79.4318C61.1759 79.4851 61.0956 79.5385 61.0153 79.5918C61.0153 79.5918 60.9886 79.5918 60.9618 79.6185C60.8815 79.6718 60.7745 79.7252 60.6942 79.8052C60.6942 79.8052 60.6407 79.8318 60.6407 79.8585C60.4534 79.9919 60.2661 80.1252 60.0788 80.2319C60.0788 80.2319 60.052 80.2319 60.0253 80.2586C59.945 80.3119 59.838 80.3919 59.731 80.4453C57.9382 81.6722 56.1455 82.9257 54.433 84.1793L392.808 164.22C392.996 164.086 393.21 163.953 393.45 163.793L79.7991 68.0165ZM33.6156 101.649C33.134 102.102 32.6791 102.556 32.2243 103.036C32.0905 103.169 31.9567 103.303 31.8497 103.409C31.8497 103.409 31.7961 103.463 31.7694 103.489C31.7159 103.543 31.6624 103.596 31.6088 103.649C31.5821 103.676 31.5286 103.729 31.5018 103.756C31.5018 103.756 31.4483 103.809 31.4215 103.836C31.368 103.889 31.3145 103.943 31.2342 104.023C31.2342 104.023 31.2075 104.049 31.1807 104.076C31.1272 104.129 31.0737 104.183 30.9934 104.263C30.9131 104.343 30.8596 104.396 30.7794 104.476C30.7794 104.476 30.7794 104.476 30.7526 104.503C30.6723 104.583 30.6188 104.636 30.5385 104.716C26.0165 109.41 22.0029 114.184 18.5244 119.092C18.4709 119.172 18.4174 119.225 18.3639 119.305V119.359C18.3639 119.359 18.2301 119.492 18.1766 119.572C18.1766 119.572 18.1766 119.599 18.1498 119.625C18.1231 119.679 18.0695 119.732 18.0428 119.785C18.0428 119.812 18.016 119.839 17.9893 119.865L392.032 164.967C392.113 164.86 392.193 164.753 392.3 164.647L33.6156 101.649ZM7.60736 138.802C7.60736 138.802 7.60736 138.802 7.60736 138.829C7.60736 138.882 7.58061 138.935 7.55385 138.989C7.55385 139.042 7.52709 139.069 7.50033 139.122C7.50033 139.149 7.50033 139.202 7.47358 139.229C7.47358 139.282 7.42006 139.362 7.3933 139.416C7.3933 139.416 7.3933 139.469 7.36655 139.496C7.36655 139.549 7.31303 139.602 7.28627 139.682C7.28627 139.682 7.28627 139.709 7.28627 139.736C7.25952 139.816 7.23276 139.869 7.206 139.949C7.206 139.949 7.206 139.976 7.206 140.002C7.17924 140.082 7.15249 140.136 7.12573 140.216C7.12573 140.216 7.12573 140.242 7.12573 140.269C7.09897 140.349 7.07221 140.429 7.04546 140.509C7.0187 140.589 6.99194 140.669 6.96518 140.749C6.93843 140.829 6.91167 140.909 6.88491 140.989C6.85815 141.069 6.8314 141.149 6.80464 141.229C6.10894 143.123 5.52028 145.016 4.98513 146.91C4.90486 147.177 4.85134 147.417 4.77107 147.684C4.77107 147.764 4.71756 147.844 4.6908 147.95C4.61053 148.217 4.55701 148.457 4.5035 148.724C4.5035 148.804 4.44998 148.884 4.44998 148.964C4.39647 149.124 4.36971 149.311 4.31619 149.471C4.31619 149.551 4.28944 149.631 4.26268 149.711C4.20916 149.977 4.15565 150.217 4.07538 150.484C4.07538 150.564 4.04862 150.644 4.02186 150.751C3.48671 153.151 3.08535 155.578 2.79102 158.005L391.845 165.793C391.845 165.607 391.925 165.42 391.979 165.26L7.58061 138.802H7.60736ZM391.711 166.647L3.05859 177.475C3.05859 177.475 3.05859 177.502 3.05859 177.529C3.05859 177.582 3.05859 177.662 3.08535 177.715C3.08535 177.742 3.08535 177.796 3.08535 177.822C3.08535 177.876 3.08535 177.902 3.08535 177.956C3.08535 178.009 3.08535 178.062 3.11211 178.116C3.11211 178.142 3.11211 178.169 3.11211 178.196C3.11211 178.249 3.11211 178.329 3.13886 178.382V178.436C3.16562 178.596 3.19238 178.756 3.24589 178.916C3.24589 178.916 3.24589 178.916 3.24589 178.942C3.24589 179.022 3.27265 179.102 3.29941 179.182C4.28944 184.517 5.89488 189.771 8.089 194.972C8.089 194.972 8.089 194.998 8.089 195.025C8.11576 195.105 8.14251 195.159 8.16927 195.239V195.292C8.19603 195.345 8.22279 195.399 8.24954 195.479C8.24954 195.505 8.2763 195.532 8.30306 195.585C8.30306 195.639 8.32982 195.665 8.35657 195.719C8.35657 195.772 8.38333 195.799 8.41009 195.852C8.41009 195.879 8.43685 195.932 8.4636 195.985C8.4636 196.039 8.49036 196.065 8.51712 196.119C8.51712 196.119 8.51712 196.145 8.51712 196.172C8.54388 196.252 8.59739 196.332 8.62415 196.412C8.67766 196.519 8.70442 196.599 8.75794 196.705L391.684 167.127C391.604 166.967 391.577 166.807 391.551 166.647H391.711ZM392.059 167.474L20.1566 215.509C21.7621 217.642 23.4478 219.749 25.2406 221.83C25.2406 221.83 25.2406 221.83 25.2406 221.857C25.3208 221.937 25.3743 222.017 25.4546 222.097C25.4814 222.15 25.5349 222.177 25.5616 222.23C25.5616 222.257 25.6152 222.283 25.6419 222.31C25.6954 222.363 25.7489 222.417 25.7757 222.47C25.8025 222.497 25.8292 222.523 25.856 222.577C25.8827 222.603 25.9095 222.63 25.9362 222.683C25.9898 222.737 26.0433 222.79 26.0968 222.843C26.0968 222.843 26.1503 222.897 26.1503 222.923C26.2038 222.977 26.2573 223.057 26.3109 223.11C26.3109 223.11 26.3376 223.137 26.3644 223.163C26.4179 223.217 26.4714 223.297 26.5249 223.35C26.5249 223.35 26.5249 223.35 26.5517 223.377C26.6052 223.457 26.6855 223.51 26.739 223.59C29.7626 226.977 33.027 230.311 36.559 233.592L392.246 167.714C392.246 167.714 392.032 167.5 391.952 167.394L392.059 167.474ZM392.808 168.167L58.179 250.875C60.052 252.182 61.9518 253.462 63.9051 254.742C63.9051 254.742 63.9051 254.742 63.9319 254.742C64.0389 254.796 64.1459 254.876 64.2262 254.929C64.253 254.929 64.2797 254.982 64.3332 254.982C64.3868 255.009 64.4403 255.062 64.4938 255.089C64.5741 255.142 64.6276 255.169 64.7079 255.222C64.7614 255.249 64.8149 255.276 64.8416 255.302C64.8952 255.329 64.9219 255.356 64.9754 255.382C65.0289 255.409 65.1092 255.462 65.1627 255.489C65.2162 255.516 65.2698 255.569 65.35 255.596C65.3768 255.596 65.4303 255.649 65.4571 255.676C65.5373 255.729 65.6176 255.782 65.6979 255.836C65.6979 255.836 65.7514 255.862 65.7782 255.889C65.8584 255.942 65.9387 255.996 66.019 256.049C66.019 256.049 66.0457 256.049 66.0725 256.076C66.1528 256.129 66.2598 256.182 66.3401 256.262C66.3401 256.262 66.3936 256.289 66.4203 256.316C66.5274 256.369 66.6076 256.423 66.7147 256.503C66.8217 256.556 66.902 256.636 67.009 256.689C67.009 256.689 67.009 256.689 67.0358 256.689C67.1428 256.743 67.2498 256.823 67.3301 256.876C67.3301 256.876 67.3301 256.876 67.3568 256.876C67.5709 257.009 67.785 257.143 67.999 257.276C68.1061 257.356 68.2131 257.409 68.3201 257.489C68.5342 257.623 68.7482 257.756 68.9623 257.889C69.2834 258.103 69.6312 258.289 69.9523 258.503C70.9691 259.116 71.9591 259.73 73.0027 260.343C73.5646 260.69 74.1265 261.01 74.7152 261.357C74.8222 261.437 74.9292 261.49 75.0362 261.543C75.2503 261.677 75.4644 261.81 75.7052 261.917C75.7052 261.917 75.7319 261.917 75.7587 261.943C75.8657 261.997 75.9728 262.077 76.0798 262.13C76.1868 262.184 76.2938 262.264 76.4009 262.317C76.5079 262.37 76.6149 262.45 76.722 262.504C76.722 262.504 76.7487 262.504 76.7755 262.53C76.8825 262.584 76.9895 262.637 77.0966 262.717C77.0966 262.717 77.0966 262.717 77.1233 262.717C77.2304 262.77 77.3106 262.824 77.4177 262.877C77.4177 262.877 77.4444 262.877 77.4712 262.877C77.5782 262.93 77.6852 262.984 77.7655 263.064C77.7655 263.064 77.819 263.09 77.8458 263.117C77.9528 263.17 78.0331 263.224 78.1401 263.277C78.1401 263.277 78.1669 263.277 78.1936 263.304C78.2739 263.357 78.3542 263.41 78.4344 263.437C78.4612 263.437 78.5147 263.464 78.5415 263.49C78.6217 263.544 78.7288 263.597 78.8091 263.65C78.8358 263.65 78.8893 263.704 78.9161 263.704C78.9964 263.757 79.0766 263.784 79.1569 263.837C79.2104 263.864 79.2639 263.89 79.2907 263.917C79.3442 263.944 79.4245 263.997 79.478 264.024C79.5315 264.024 79.5583 264.077 79.6118 264.104C79.692 264.157 79.7723 264.184 79.8526 264.237C79.9061 264.237 79.9329 264.291 79.9864 264.317C80.0399 264.344 80.0934 264.371 80.1737 264.424C80.2272 264.451 80.3075 264.504 80.361 264.531C80.4145 264.557 80.4948 264.611 80.5483 264.637C80.6018 264.637 80.6286 264.691 80.6821 264.717C80.7623 264.771 80.8426 264.797 80.9229 264.851C80.9764 264.877 81.0299 264.904 81.0834 264.931C81.137 264.931 81.1637 264.984 81.2172 265.011C81.2975 265.064 81.3778 265.117 81.4848 265.144C81.5383 265.144 81.5651 265.197 81.6186 265.224C81.6721 265.251 81.7256 265.277 81.7791 265.331C81.8059 265.331 81.8594 265.384 81.9129 265.411C81.9932 265.464 82.1002 265.517 82.1805 265.571C82.234 265.571 82.2608 265.624 82.2875 265.624C82.3678 265.677 82.4748 265.731 82.5551 265.784C82.5819 265.784 82.6354 265.837 82.6621 265.837C82.7156 265.864 82.7959 265.891 82.8494 265.944C82.8762 265.944 82.9297 265.997 82.9565 265.997C83.0635 266.051 83.1438 266.104 83.2508 266.158C83.2776 266.158 83.3311 266.211 83.3578 266.211C83.4649 266.264 83.5719 266.318 83.6522 266.371C83.6789 266.371 83.7324 266.398 83.7592 266.424C83.8127 266.451 83.893 266.504 83.9465 266.531C83.9733 266.531 84 266.558 84.0268 266.584C84.0803 266.611 84.1338 266.638 84.1873 266.664L393.317 168.327C393.049 168.194 392.835 168.034 392.621 167.9L392.808 168.167ZM394.414 169.021L114.905 281.6C116.938 282.48 118.999 283.334 121.086 284.187C121.594 284.401 122.129 284.614 122.638 284.827C122.638 284.827 122.638 284.827 122.665 284.827C122.825 284.881 122.959 284.961 123.119 285.014C123.146 285.014 123.173 285.014 123.226 285.041C123.36 285.094 123.494 285.147 123.655 285.201C123.681 285.201 123.708 285.201 123.735 285.227C124.083 285.361 124.404 285.494 124.752 285.628C124.778 285.628 124.805 285.628 124.832 285.654C124.966 285.708 125.1 285.761 125.233 285.814C125.287 285.814 125.34 285.868 125.394 285.868C125.501 285.921 125.608 285.948 125.742 286.001C125.795 286.001 125.849 286.054 125.902 286.054C126.009 286.108 126.143 286.134 126.25 286.188C126.304 286.188 126.357 286.214 126.411 286.241C126.571 286.294 126.732 286.374 126.892 286.428C126.946 286.428 126.999 286.454 127.026 286.481C127.133 286.534 127.24 286.561 127.374 286.614C127.454 286.641 127.534 286.668 127.588 286.694C127.668 286.721 127.775 286.774 127.856 286.801C127.936 286.828 128.016 286.854 128.096 286.881C128.177 286.908 128.257 286.934 128.337 286.988C128.417 287.014 128.498 287.041 128.578 287.094C128.658 287.121 128.739 287.148 128.819 287.201C128.953 287.255 129.06 287.308 129.22 287.361C129.327 287.388 129.407 287.441 129.515 287.468C129.595 287.495 129.702 287.548 129.782 287.575C129.862 287.575 129.916 287.628 129.996 287.655C130.076 287.681 130.183 287.735 130.29 287.761C130.344 287.761 130.424 287.815 130.478 287.841C130.585 287.868 130.665 287.921 130.772 287.948C130.826 287.948 130.879 288.001 130.959 288.028C131.066 288.081 131.147 288.108 131.281 288.135C131.307 288.135 131.334 288.135 131.361 288.161C131.602 288.268 131.869 288.348 132.11 288.455C132.11 288.455 132.163 288.455 132.19 288.481C132.297 288.535 132.404 288.561 132.511 288.615C132.565 288.615 132.618 288.641 132.672 288.668C132.779 288.695 132.886 288.748 132.993 288.775C133.046 288.775 133.1 288.828 133.154 288.828C133.261 288.881 133.368 288.908 133.475 288.961C133.501 288.961 133.555 288.988 133.582 289.015C133.983 289.148 134.358 289.308 134.732 289.442C134.759 289.442 134.812 289.442 134.839 289.468C134.973 289.522 135.08 289.548 135.187 289.602C135.214 289.602 135.267 289.628 135.294 289.655C135.428 289.708 135.535 289.735 135.642 289.788C135.669 289.788 135.722 289.788 135.749 289.815C136.311 290.028 136.846 290.215 137.408 290.428C137.435 290.428 137.488 290.455 137.515 290.482C137.649 290.535 137.756 290.562 137.89 290.615C137.916 290.615 137.97 290.615 137.997 290.668C138.13 290.722 138.237 290.748 138.371 290.802C138.398 290.802 138.425 290.802 138.452 290.828C138.853 290.962 139.254 291.122 139.656 291.255C139.682 291.255 139.709 291.255 139.763 291.282C139.87 291.335 140.003 291.362 140.11 291.415C140.164 291.415 140.217 291.442 140.271 291.469C140.378 291.522 140.485 291.549 140.619 291.602C140.672 291.602 140.726 291.629 140.753 291.655C140.886 291.709 140.967 291.735 141.101 291.789C141.127 291.789 141.154 291.789 141.208 291.815C141.448 291.895 141.689 291.975 141.93 292.082C141.957 292.082 142.01 292.082 142.037 292.109C142.144 292.135 142.251 292.189 142.358 292.215C142.412 292.215 142.492 292.269 142.545 292.269C142.652 292.295 142.759 292.349 142.84 292.375C142.92 292.375 142.974 292.429 143.054 292.455C143.161 292.482 143.241 292.509 143.321 292.562C143.402 292.589 143.482 292.615 143.562 292.642C143.642 292.669 143.723 292.695 143.83 292.722C143.964 292.775 144.097 292.829 144.258 292.882C144.365 292.909 144.445 292.935 144.525 292.989C144.632 293.016 144.713 293.069 144.82 293.096C144.9 293.096 144.98 293.149 145.061 293.176C145.168 293.202 145.248 293.256 145.355 293.282C145.435 293.282 145.489 293.336 145.569 293.362C145.676 293.389 145.783 293.442 145.89 293.469C145.97 293.469 145.997 293.522 146.077 293.522C146.238 293.576 146.398 293.629 146.559 293.682C146.559 293.682 146.559 293.682 146.586 293.682C146.773 293.736 146.934 293.816 147.121 293.869C147.148 293.869 147.174 293.869 147.201 293.896C147.362 293.949 147.496 294.002 147.656 294.056C147.683 294.056 147.736 294.056 147.763 294.082C147.924 294.136 148.057 294.189 148.218 294.242C148.245 294.242 148.272 294.242 148.325 294.269C148.7 294.402 149.047 294.509 149.422 294.642L395.538 169.367C395.19 169.234 394.842 169.101 394.494 168.967L394.414 169.021ZM396.474 169.714L187.204 306.031C190.923 307.018 194.723 307.978 198.522 308.912C199.03 309.045 199.539 309.152 200.047 309.285C200.047 309.285 200.047 309.285 200.074 309.285C200.395 309.365 200.743 309.445 201.064 309.525C201.064 309.525 201.091 309.525 201.118 309.525C201.278 309.552 201.439 309.605 201.599 309.632H201.653C201.974 309.712 202.295 309.792 202.616 309.872C202.643 309.872 202.669 309.872 202.696 309.872C202.857 309.898 202.991 309.952 203.151 309.978C203.178 309.978 203.205 309.978 203.231 309.978C203.365 310.005 203.526 310.058 203.686 310.085C203.686 310.085 203.713 310.085 203.74 310.085C203.874 310.112 204.034 310.165 204.168 310.192C204.195 310.192 204.248 310.192 204.275 310.192C204.435 310.218 204.569 310.272 204.703 310.298C204.73 310.298 204.783 310.298 204.81 310.298C204.944 310.325 205.078 310.352 205.211 310.405C205.211 310.405 205.238 310.405 205.265 310.405C205.426 310.432 205.559 310.485 205.72 310.512C205.773 310.512 205.8 310.512 205.854 310.539C205.987 310.565 206.148 310.619 206.282 310.645C206.309 310.645 206.362 310.645 206.389 310.672C206.523 310.699 206.63 310.725 206.763 310.752C206.79 310.752 206.844 310.752 206.87 310.779C207.004 310.805 207.165 310.832 207.299 310.885C207.352 310.885 207.379 310.885 207.432 310.912C207.566 310.939 207.7 310.965 207.86 311.019C207.914 311.019 207.941 311.019 207.994 311.045C208.101 311.045 208.235 311.099 208.342 311.125C208.369 311.125 208.422 311.125 208.449 311.152C208.583 311.179 208.717 311.205 208.85 311.232C208.904 311.232 208.957 311.259 209.038 311.285C209.172 311.312 209.305 311.339 209.439 311.365C209.493 311.365 209.546 311.365 209.6 311.392C209.707 311.392 209.814 311.445 209.894 311.472C209.948 311.472 210.028 311.499 210.081 311.525C210.215 311.552 210.322 311.579 210.456 311.605C210.536 311.605 210.59 311.632 210.67 311.659C210.777 311.659 210.884 311.712 210.964 311.739C211.045 311.739 211.152 311.792 211.232 311.792C211.312 311.792 211.392 311.819 211.473 311.845C211.526 311.845 211.606 311.872 211.66 311.899C211.794 311.925 211.928 311.952 212.035 311.979C212.088 311.979 212.168 312.005 212.222 312.032C212.329 312.032 212.436 312.085 212.543 312.112C212.623 312.112 212.704 312.139 212.784 312.165C212.864 312.165 212.971 312.192 213.051 312.219C213.105 312.219 213.185 312.246 213.239 312.272C213.372 312.299 213.48 312.326 213.613 312.352C213.667 312.352 213.747 312.379 213.801 312.406C213.908 312.406 214.015 312.459 214.122 312.486C214.202 312.486 214.255 312.512 214.336 312.539C214.443 312.539 214.55 312.592 214.657 312.619C214.71 312.619 214.764 312.619 214.817 312.646C214.951 312.672 215.085 312.699 215.219 312.726C215.272 312.726 215.326 312.726 215.379 312.752C215.513 312.779 215.62 312.806 215.727 312.832C215.781 312.832 215.834 312.832 215.888 312.859C216.021 312.886 216.129 312.912 216.262 312.939C216.316 312.939 216.369 312.939 216.396 312.966C216.53 312.992 216.69 313.019 216.824 313.072C216.878 313.072 216.904 313.072 216.958 313.072C217.092 313.099 217.226 313.126 217.386 313.152C217.386 313.152 217.413 313.152 217.44 313.152C217.6 313.179 217.761 313.232 217.921 313.259C217.948 313.259 217.975 313.259 218.002 313.259C218.162 313.286 218.323 313.339 218.483 313.366C218.483 313.366 218.537 313.366 218.563 313.366C218.724 313.392 218.885 313.446 219.045 313.472C219.206 313.499 219.393 313.552 219.553 313.579H219.607C222.363 314.166 225.146 314.726 227.929 315.286L397.33 169.741C397.036 169.687 396.715 169.607 396.394 169.527L396.474 169.714ZM398.186 170.061L271.195 322.861C285.832 324.941 300.843 326.701 316.175 328.088L398.962 170.168C398.695 170.168 398.454 170.114 398.186 170.088V170.061ZM400.006 170.221L362.331 331.075C367.415 331.289 372.553 331.449 377.69 331.582C377.904 331.582 378.092 331.582 378.306 331.582C378.306 331.582 378.332 331.582 378.359 331.582C378.546 331.582 378.761 331.582 378.948 331.582H379.001C379.189 331.582 379.376 331.582 379.563 331.582C379.59 331.582 379.617 331.582 379.644 331.582C379.831 331.582 380.018 331.582 380.179 331.582C380.205 331.582 380.232 331.582 380.259 331.582C380.419 331.582 380.607 331.582 380.794 331.582C380.821 331.582 380.874 331.582 380.901 331.582C381.088 331.582 381.249 331.582 381.436 331.582C381.463 331.582 381.49 331.582 381.517 331.582C381.677 331.582 381.891 331.582 382.052 331.582C382.078 331.582 382.105 331.582 382.159 331.582C382.319 331.582 382.533 331.582 382.694 331.582C382.721 331.582 382.747 331.582 382.774 331.582C382.935 331.582 383.149 331.582 383.309 331.582C383.336 331.582 383.363 331.582 383.416 331.582C383.604 331.582 383.791 331.582 383.978 331.582C383.978 331.582 384.032 331.582 384.059 331.582C384.246 331.582 384.46 331.582 384.647 331.582C384.647 331.582 384.674 331.582 384.701 331.582C385.985 331.582 387.243 331.636 388.527 331.636C388.527 331.636 388.581 331.636 388.607 331.636C388.795 331.636 388.982 331.636 389.169 331.636C389.196 331.636 389.249 331.636 389.276 331.636C389.437 331.636 389.624 331.636 389.785 331.636C389.838 331.636 389.892 331.636 389.945 331.636C390.106 331.636 390.24 331.636 390.4 331.636C390.48 331.636 390.534 331.636 390.614 331.636C390.748 331.636 390.908 331.636 391.042 331.636C391.122 331.636 391.203 331.636 391.256 331.636C391.39 331.636 391.524 331.636 391.658 331.636C391.738 331.636 391.818 331.636 391.898 331.636C392.032 331.636 392.166 331.636 392.3 331.636C392.38 331.636 392.46 331.636 392.541 331.636C392.674 331.636 392.808 331.636 392.942 331.636C393.022 331.636 393.103 331.636 393.183 331.636C393.317 331.636 393.45 331.636 393.557 331.636C393.638 331.636 393.718 331.636 393.798 331.636C393.932 331.636 394.039 331.636 394.173 331.636C394.253 331.636 394.333 331.636 394.414 331.636C394.547 331.636 394.655 331.636 394.788 331.636C394.869 331.636 394.949 331.636 395.056 331.636C395.19 331.636 395.323 331.636 395.43 331.636C395.511 331.636 395.591 331.636 395.698 331.636C395.832 331.636 395.939 331.636 396.073 331.636C396.153 331.636 396.26 331.636 396.34 331.636C396.474 331.636 396.581 331.636 396.715 331.636C396.795 331.636 396.902 331.636 396.982 331.636C397.116 331.636 397.223 331.636 397.357 331.636C397.437 331.636 397.544 331.636 397.625 331.636C397.758 331.636 397.865 331.636 397.999 331.636C398.079 331.636 398.16 331.636 398.267 331.636C398.401 331.636 398.508 331.636 398.641 331.636C398.722 331.636 398.829 331.636 398.909 331.636C399.043 331.636 399.15 331.636 399.284 331.636C399.364 331.636 399.444 331.636 399.551 331.636C399.685 331.636 399.819 331.636 399.952 331.636C400.033 331.636 400.113 331.636 400.193 331.636C400.354 331.636 400.488 331.636 400.648 331.636C400.702 331.636 400.755 331.636 400.835 331.636C401.05 331.636 401.264 331.636 401.478 331.636C401.665 331.636 401.879 331.636 402.066 331.636C402.12 331.636 402.173 331.636 402.227 331.636C402.361 331.636 402.521 331.636 402.655 331.636C402.709 331.636 402.762 331.636 402.816 331.636C403.03 331.636 403.19 331.636 403.377 331.636C403.404 331.636 403.431 331.636 403.458 331.636C403.618 331.636 403.779 331.636 403.939 331.636C403.993 331.636 404.073 331.636 404.127 331.636C404.287 331.636 404.421 331.636 404.582 331.636C404.608 331.636 404.662 331.636 404.689 331.636C404.903 331.636 405.09 331.636 405.304 331.636C405.518 331.636 405.705 331.636 405.919 331.636C406.963 331.636 407.953 331.636 408.997 331.636L401.718 170.034H401.397C400.889 170.034 400.407 170.034 399.979 170.034L400.006 170.221ZM404.153 170.141C403.859 170.168 403.565 170.194 403.244 170.221L455.608 330.382C466.445 329.769 477.148 328.995 487.69 328.008C488.038 327.982 488.386 327.955 488.761 327.902C488.975 327.902 489.189 327.848 489.43 327.848C489.456 327.848 489.51 327.848 489.537 327.848C489.697 327.848 489.884 327.822 490.045 327.795C490.098 327.795 490.179 327.795 490.206 327.795C490.313 327.795 490.393 327.795 490.5 327.768C490.634 327.768 490.741 327.768 490.874 327.742C490.955 327.742 491.062 327.742 491.142 327.715C491.222 327.715 491.303 327.715 491.356 327.715C491.49 327.715 491.624 327.715 491.757 327.688C491.838 327.688 491.918 327.688 491.998 327.688C492.079 327.688 492.159 327.688 492.239 327.688C492.373 327.688 492.507 327.662 492.667 327.635C492.747 327.635 492.801 327.635 492.881 327.635C493.042 327.635 493.176 327.608 493.336 327.582C493.39 327.582 493.443 327.582 493.497 327.582C493.63 327.582 493.737 327.582 493.871 327.555C493.925 327.555 493.978 327.555 494.032 327.555C494.192 327.555 494.353 327.528 494.513 327.501C494.567 327.501 494.62 327.501 494.647 327.501C494.808 327.501 494.968 327.475 495.156 327.448C495.182 327.448 495.236 327.448 495.263 327.448C495.637 327.421 495.985 327.368 496.36 327.341C496.36 327.341 496.413 327.341 496.44 327.341C496.627 327.341 496.815 327.315 497.002 327.288C497.002 327.288 497.029 327.288 497.055 327.288C498.527 327.128 499.999 326.995 501.47 326.835L404.18 170.328L404.153 170.141ZM405.732 169.874C405.465 169.927 405.17 169.981 404.903 170.034L545.915 320.7C555.654 319.127 565.18 317.42 574.518 315.553C574.866 315.473 575.214 315.419 575.562 315.339C575.562 315.339 575.615 315.339 575.642 315.339C575.803 315.313 575.963 315.286 576.124 315.233C576.151 315.233 576.204 315.233 576.231 315.233C576.365 315.206 576.498 315.179 576.632 315.153C576.659 315.153 576.712 315.153 576.739 315.153C576.873 315.126 577.007 315.099 577.141 315.073C577.194 315.073 577.248 315.073 577.328 315.046C577.462 315.019 577.569 314.993 577.729 314.966C577.81 314.966 577.863 314.939 577.943 314.913C578.024 314.913 578.104 314.886 578.184 314.859C578.318 314.833 578.478 314.806 578.612 314.779C578.639 314.779 578.693 314.779 578.719 314.779C581.984 314.112 585.195 313.419 588.406 312.726L405.759 169.981L405.732 169.874ZM407.766 169.287C407.418 169.421 407.07 169.527 406.722 169.634L628.328 302.564C628.328 302.564 628.435 302.537 628.488 302.51C628.595 302.484 628.702 302.457 628.809 302.43C628.89 302.43 628.97 302.377 629.05 302.35C629.157 302.324 629.264 302.297 629.371 302.27C629.451 302.27 629.532 302.217 629.612 302.19C629.746 302.164 629.88 302.11 630.013 302.084C630.12 302.057 630.201 302.03 630.308 302.004C630.442 301.977 630.575 301.924 630.709 301.897C630.789 301.897 630.87 301.844 630.95 301.817C631.057 301.79 631.164 301.764 631.244 301.737C631.325 301.71 631.405 301.684 631.485 301.657C631.592 301.63 631.672 301.604 631.779 301.577C631.86 301.55 631.94 301.524 632.047 301.497C632.154 301.47 632.261 301.444 632.368 301.39C632.448 301.39 632.529 301.337 632.582 301.337C632.743 301.284 632.93 301.23 633.091 301.177C633.171 301.177 633.251 301.124 633.331 301.097C633.438 301.07 633.519 301.044 633.626 301.017C633.706 300.99 633.786 300.964 633.893 300.937C633.974 300.91 634.081 300.884 634.188 300.857C634.268 300.83 634.348 300.804 634.455 300.777C634.562 300.75 634.642 300.724 634.749 300.697C634.83 300.697 634.937 300.643 635.017 300.617C635.124 300.59 635.231 300.563 635.338 300.51C635.472 300.483 635.579 300.43 635.713 300.403C635.846 300.377 635.954 300.323 636.087 300.297C636.168 300.297 636.248 300.243 636.328 300.217C636.435 300.19 636.516 300.163 636.622 300.137C636.703 300.137 636.783 300.083 636.863 300.057C636.97 300.03 637.051 300.003 637.158 299.977C637.238 299.977 637.345 299.923 637.425 299.897C637.532 299.87 637.613 299.843 637.72 299.817C637.8 299.817 637.88 299.763 637.96 299.737C638.121 299.683 638.281 299.63 638.442 299.577C638.522 299.577 638.576 299.523 638.656 299.497C638.763 299.47 638.87 299.417 638.977 299.39C639.057 299.39 639.138 299.337 639.218 299.31C639.325 299.283 639.405 299.257 639.512 299.23C639.593 299.23 639.673 299.177 639.753 299.15C639.86 299.123 639.967 299.097 640.047 299.07C640.128 299.07 640.208 299.017 640.288 298.99C640.422 298.963 640.529 298.91 640.636 298.883C640.69 298.883 640.743 298.857 640.823 298.83C640.984 298.776 641.171 298.723 641.332 298.67C641.412 298.67 641.492 298.616 641.546 298.59C641.653 298.563 641.76 298.536 641.867 298.483C641.947 298.483 642.028 298.43 642.108 298.403C642.215 298.376 642.295 298.35 642.402 298.323C642.482 298.296 642.563 298.27 642.67 298.243C642.777 298.216 642.857 298.19 642.964 298.163C643.044 298.163 643.125 298.11 643.205 298.083C643.339 298.056 643.446 298.003 643.579 297.95C643.686 297.923 643.767 297.896 643.874 297.843C643.981 297.816 644.115 297.763 644.222 297.736C644.302 297.736 644.382 297.683 644.462 297.656C644.569 297.63 644.65 297.603 644.757 297.576C644.837 297.55 644.917 297.523 645.024 297.496C645.105 297.47 645.212 297.443 645.292 297.416C645.372 297.39 645.453 297.363 645.56 297.336C645.667 297.31 645.747 297.283 645.854 297.23C645.934 297.23 646.014 297.176 646.095 297.15C646.255 297.096 646.416 297.043 646.576 296.99C646.657 296.99 646.737 296.936 646.817 296.91C646.924 296.883 647.004 296.856 647.111 296.829C647.192 296.803 647.272 296.776 647.379 296.749C647.459 296.723 647.566 296.696 647.647 296.669C647.727 296.643 647.807 296.616 647.887 296.589C647.994 296.563 648.075 296.536 648.182 296.483C648.262 296.456 648.342 296.429 648.423 296.403C648.53 296.376 648.637 296.323 648.744 296.296C648.877 296.243 648.984 296.216 649.091 296.189C649.198 296.163 649.306 296.109 649.413 296.083C649.493 296.056 649.573 296.029 649.68 296.003C649.76 295.976 649.867 295.949 649.948 295.923C650.028 295.896 650.108 295.869 650.215 295.843C650.296 295.816 650.376 295.789 650.483 295.763C650.563 295.736 650.67 295.709 650.75 295.683C650.831 295.656 650.938 295.629 651.018 295.603C651.098 295.576 651.179 295.549 651.286 295.523C651.393 295.496 651.5 295.443 651.607 295.416C651.74 295.363 651.874 295.336 652.008 295.283C652.088 295.256 652.169 295.229 652.249 295.203C652.356 295.176 652.436 295.149 652.516 295.123C652.597 295.123 652.677 295.069 652.757 295.043C652.864 295.016 652.945 294.989 653.025 294.936C653.105 294.909 653.185 294.883 653.266 294.856C653.373 294.829 653.453 294.802 653.533 294.776C653.614 294.749 653.694 294.722 653.774 294.696C653.961 294.642 654.149 294.562 654.336 294.509C654.389 294.509 654.443 294.482 654.497 294.456C654.604 294.429 654.684 294.376 654.791 294.349C654.871 294.349 654.925 294.296 655.005 294.269C655.112 294.242 655.219 294.189 655.299 294.162C655.38 294.162 655.433 294.109 655.513 294.082C655.62 294.056 655.727 294.002 655.808 293.976C655.861 293.976 655.915 293.922 655.995 293.922C656.102 293.896 656.209 293.842 656.343 293.816C656.343 293.816 656.343 293.816 656.37 293.816C656.637 293.736 656.931 293.629 657.199 293.522C657.226 293.522 657.253 293.522 657.279 293.496C657.413 293.442 657.52 293.416 657.627 293.362C657.681 293.362 657.734 293.336 657.761 293.309C657.868 293.282 658.002 293.229 658.109 293.176C658.162 293.176 658.189 293.149 658.243 293.122C658.35 293.096 658.483 293.042 658.617 292.989C658.644 292.989 658.671 292.989 658.697 292.962C659.126 292.802 659.527 292.669 659.955 292.509C659.955 292.509 659.982 292.509 660.009 292.509C660.142 292.455 660.276 292.429 660.41 292.375C660.41 292.375 660.463 292.375 660.49 292.375C660.624 292.322 660.758 292.269 660.892 292.242H660.945C661.534 292.002 662.122 291.815 662.711 291.602C662.872 291.549 663.005 291.495 663.166 291.442C663.808 291.202 664.45 290.988 665.092 290.748L407.739 169.421L407.766 169.287ZM409.612 168.434C409.344 168.594 409.077 168.727 408.782 168.861L698.325 276.959C704.426 274.159 710.286 271.252 715.905 268.265C716.387 268.025 716.868 267.758 717.323 267.491C717.323 267.491 717.35 267.491 717.377 267.491C717.484 267.438 717.564 267.384 717.671 267.331C717.698 267.331 717.751 267.278 717.778 267.278C717.858 267.224 717.965 267.171 718.046 267.144C718.099 267.144 718.153 267.091 718.179 267.064C718.26 267.011 718.34 266.984 718.42 266.931C718.474 266.904 718.527 266.878 718.581 266.851C718.715 266.771 718.822 266.718 718.955 266.638C719.036 266.584 719.116 266.558 719.196 266.504C719.25 266.478 719.303 266.451 719.383 266.398C719.464 266.344 719.544 266.318 719.624 266.264C719.678 266.238 719.731 266.211 719.785 266.184C719.865 266.131 719.972 266.078 720.052 266.024C720.106 266.024 720.133 265.971 720.186 265.944C720.293 265.891 720.4 265.811 720.507 265.757C720.507 265.757 720.561 265.757 720.588 265.731C720.882 265.571 721.149 265.411 721.444 265.251C721.578 265.171 721.711 265.091 721.845 265.011C723.745 263.97 725.591 262.904 727.411 261.837L409.532 168.434H409.612ZM410.629 167.687C410.629 167.687 410.388 167.927 410.227 168.034L752.215 245.407C752.215 245.407 752.268 245.354 752.322 245.327C752.349 245.327 752.402 245.274 752.429 245.247C752.482 245.221 752.536 245.167 752.563 245.141C752.563 245.141 752.59 245.114 752.616 245.087C752.697 245.007 752.804 244.954 752.884 244.874C752.884 244.874 752.937 244.847 752.964 244.82C753.044 244.767 753.125 244.687 753.232 244.634C753.232 244.634 753.258 244.607 753.285 244.58C753.446 244.447 753.606 244.34 753.767 244.207C753.767 244.207 753.794 244.207 753.82 244.18C753.927 244.1 754.008 244.02 754.115 243.967C754.115 243.967 754.115 243.967 754.141 243.967C754.195 243.914 754.248 243.887 754.302 243.834C754.302 243.834 754.516 243.674 754.623 243.594C754.623 243.594 754.65 243.594 754.677 243.567C754.757 243.487 754.864 243.434 754.944 243.354C754.944 243.354 754.971 243.327 754.998 243.3C755.051 243.247 755.105 243.22 755.158 243.167C755.158 243.167 755.372 243.007 755.479 242.927C755.479 242.927 755.506 242.927 755.533 242.9C755.64 242.82 755.72 242.74 755.827 242.66C755.881 242.607 755.934 242.58 755.988 242.527C756.095 242.447 756.175 242.367 756.282 242.287C756.282 242.287 756.336 242.233 756.362 242.233C756.443 242.18 756.523 242.1 756.603 242.047C756.603 242.047 756.657 242.02 756.683 241.993C756.737 241.967 756.79 241.913 756.817 241.887C756.817 241.887 756.871 241.833 756.897 241.833C756.978 241.78 757.058 241.7 757.112 241.647C757.138 241.62 757.165 241.593 757.192 241.567C757.245 241.513 757.299 241.487 757.352 241.433C757.406 241.407 757.433 241.353 757.486 241.327C757.513 241.3 757.566 241.273 757.593 241.22C757.647 241.167 757.7 241.14 757.754 241.087C757.807 241.06 757.834 241.033 757.888 240.98C757.941 240.953 757.968 240.9 758.021 240.873C758.048 240.846 758.102 240.82 758.128 240.793C758.182 240.74 758.262 240.686 758.316 240.633C758.342 240.633 758.369 240.58 758.396 240.553C758.476 240.5 758.53 240.446 758.61 240.393C758.61 240.393 758.663 240.366 758.69 240.34C758.744 240.286 758.797 240.233 758.878 240.18C758.878 240.18 758.904 240.153 758.931 240.126C759.011 240.073 759.065 240.02 759.145 239.94C759.145 239.94 759.199 239.886 759.225 239.886C759.306 239.833 759.386 239.753 759.439 239.7C759.439 239.7 759.439 239.7 759.466 239.673C759.546 239.62 759.627 239.54 759.68 239.486C759.68 239.486 759.68 239.486 759.707 239.46C759.787 239.406 759.868 239.326 759.948 239.246C759.948 239.246 759.948 239.246 759.975 239.219C760.135 239.086 760.322 238.926 760.483 238.793C760.563 238.713 760.643 238.659 760.75 238.579C764.818 235.112 768.591 231.565 772.096 227.964L410.602 167.794L410.629 167.687ZM411.057 167.02C411.057 167.02 410.95 167.26 410.87 167.394L786.919 209.481C786.919 209.481 786.946 209.428 786.973 209.401C786.973 209.401 786.973 209.374 787 209.348C787.026 209.294 787.08 209.214 787.133 209.161C787.133 209.161 787.16 209.108 787.187 209.081C787.214 209.028 787.267 208.974 787.294 208.894C787.294 208.868 787.321 208.841 787.347 208.814C787.347 208.761 787.401 208.734 787.428 208.681C787.454 208.628 787.481 208.574 787.508 208.548C787.508 208.521 787.562 208.467 787.588 208.441C787.588 208.414 787.642 208.361 787.669 208.334C787.695 208.281 787.722 208.227 787.776 208.174C787.776 208.121 787.829 208.094 787.856 208.041C787.856 208.041 787.883 207.987 787.909 207.961C787.963 207.881 787.99 207.827 788.043 207.747C788.043 207.747 788.043 207.694 788.07 207.694C788.123 207.614 788.15 207.534 788.204 207.481C788.204 207.481 788.204 207.454 788.23 207.427C788.23 207.374 788.284 207.347 788.311 207.294L788.337 207.241C788.391 207.161 788.418 207.107 788.471 207.027C788.471 207.027 788.471 207.001 788.498 206.974C788.552 206.894 788.605 206.814 788.632 206.734C788.632 206.734 788.632 206.734 788.632 206.681C788.659 206.627 788.685 206.601 788.712 206.547C788.712 206.547 788.819 206.36 788.873 206.28C788.873 206.28 788.873 206.254 788.899 206.227C788.953 206.147 788.98 206.094 789.033 206.014C789.033 206.014 789.033 205.987 789.06 205.96C789.14 205.827 789.221 205.694 789.301 205.56C789.301 205.56 789.301 205.534 789.301 205.507C789.354 205.427 789.381 205.347 789.435 205.267C789.435 205.267 789.435 205.24 789.461 205.214C789.515 205.134 789.542 205.08 789.595 205C789.595 205 789.622 204.947 789.622 204.92C789.622 204.867 789.675 204.84 789.702 204.787C789.702 204.787 789.729 204.734 789.756 204.707C789.782 204.654 789.836 204.574 789.863 204.52C789.863 204.52 789.889 204.467 789.916 204.44C789.943 204.387 789.996 204.307 790.023 204.253C790.023 204.227 790.05 204.2 790.077 204.173C790.077 204.147 790.13 204.093 790.13 204.067C790.157 204.013 790.184 203.96 790.211 203.907C790.211 203.88 790.264 203.827 790.264 203.8C790.264 203.773 790.291 203.747 790.318 203.693C790.344 203.64 790.371 203.587 790.398 203.533C790.398 203.507 790.425 203.453 790.451 203.427C790.451 203.4 790.478 203.347 790.505 203.32C790.532 203.267 790.558 203.213 790.585 203.16C790.585 203.133 790.612 203.107 790.639 203.053C790.665 203 790.692 202.947 790.719 202.893C790.719 202.867 790.746 202.813 790.772 202.787C790.772 202.733 790.826 202.68 790.853 202.653C790.853 202.653 790.879 202.6 790.906 202.573C790.933 202.52 790.986 202.44 791.013 202.386C791.013 202.386 791.013 202.333 791.04 202.306C791.067 202.226 791.12 202.173 791.147 202.12C791.147 202.12 791.147 202.066 791.174 202.066C791.201 202.013 791.227 201.96 791.281 201.88C791.281 201.88 791.281 201.853 791.281 201.826C791.308 201.746 791.361 201.693 791.388 201.613C791.388 201.613 791.388 201.56 791.415 201.56C791.441 201.506 791.495 201.426 791.522 201.373C791.522 201.373 791.522 201.346 791.548 201.32C791.575 201.24 791.629 201.186 791.655 201.106C791.682 201.026 791.736 200.973 791.762 200.893C791.762 200.893 791.762 200.893 791.762 200.866C791.789 200.786 791.843 200.733 791.869 200.653C791.869 200.653 791.869 200.626 791.869 200.599C791.896 200.519 791.95 200.439 791.977 200.386C792.003 200.306 792.057 200.226 792.084 200.146C792.11 200.066 792.164 199.986 792.191 199.906C792.191 199.906 792.191 199.906 792.191 199.879C792.217 199.799 792.271 199.719 792.298 199.639C792.298 199.639 792.298 199.639 792.298 199.613C792.378 199.453 792.458 199.293 792.538 199.133C792.592 199.053 792.619 198.973 792.645 198.893C792.726 198.732 792.806 198.546 792.886 198.386C792.886 198.386 792.967 198.226 792.993 198.146C793.1 197.906 793.234 197.639 793.341 197.399C793.368 197.319 793.421 197.239 793.448 197.159C793.528 196.999 793.582 196.839 793.662 196.679C793.689 196.599 793.742 196.519 793.769 196.439C793.796 196.359 793.85 196.279 793.876 196.199C793.876 196.199 793.93 196.039 793.983 195.959C793.983 195.959 793.983 195.959 793.983 195.932C794.01 195.852 794.037 195.799 794.064 195.719V195.665C794.09 195.585 794.117 195.532 794.144 195.452C794.144 195.452 794.144 195.425 794.144 195.399C794.144 195.345 794.197 195.292 794.224 195.239C794.224 195.239 794.224 195.185 794.251 195.159C794.251 195.105 794.304 195.052 794.331 194.972C794.331 194.945 794.331 194.918 794.358 194.892C794.358 194.838 794.411 194.785 794.438 194.705C794.438 194.678 794.465 194.625 794.492 194.598C794.492 194.572 794.518 194.518 794.545 194.492C794.545 194.438 794.599 194.385 794.625 194.332C794.625 194.332 794.625 194.278 794.652 194.252C795.134 193.051 795.589 191.851 796.017 190.651L410.655 167.154L411.057 167.02ZM799.201 151.818L411.137 165.687C411.164 165.847 411.191 166.033 411.191 166.22C411.191 166.3 411.191 166.354 411.191 166.434L800.539 171.208C800.539 171.208 800.539 170.941 800.566 170.808C800.566 170.808 800.566 170.781 800.566 170.754C800.566 170.701 800.566 170.621 800.566 170.568C800.566 170.541 800.566 170.488 800.566 170.461V170.408C800.566 170.328 800.566 170.221 800.566 170.141C800.592 169.527 800.619 168.914 800.646 168.301C800.646 168.221 800.646 168.141 800.646 168.034C800.646 168.034 800.646 168.007 800.646 167.98C800.646 167.927 800.646 167.874 800.646 167.847C800.646 167.794 800.646 167.74 800.646 167.687C800.646 167.66 800.646 167.607 800.646 167.58C800.646 167.527 800.646 167.474 800.646 167.42C800.646 167.394 800.646 167.367 800.646 167.314C800.646 167.26 800.646 167.207 800.646 167.154C800.646 167.154 800.646 167.127 800.646 167.1C800.646 167.02 800.646 166.94 800.646 166.887C800.646 166.887 800.646 166.86 800.646 166.834C800.646 166.754 800.646 166.674 800.646 166.594C800.646 166.594 800.646 166.567 800.646 166.54C800.646 166.46 800.646 166.38 800.646 166.3C800.646 166.3 800.646 166.14 800.646 166.06C800.646 166.033 800.646 166.007 800.646 165.98C800.646 165.927 800.646 165.873 800.646 165.82C800.646 165.793 800.646 165.767 800.646 165.74C800.646 165.687 800.646 165.633 800.646 165.58C800.646 165.553 800.646 165.527 800.646 165.5C800.646 165.447 800.646 165.393 800.646 165.34C800.646 165.313 800.646 165.287 800.646 165.26C800.646 165.207 800.646 165.127 800.646 165.073C800.646 165.073 800.646 165.047 800.646 165.02C800.646 164.94 800.646 164.86 800.646 164.78C800.646 164.78 800.646 164.753 800.646 164.727C800.646 164.647 800.646 164.593 800.646 164.513C800.646 164.513 800.646 164.46 800.646 164.433C800.646 164.38 800.646 164.327 800.646 164.273C800.646 164.246 800.646 164.22 800.646 164.193C800.646 164.14 800.646 164.086 800.646 164.033C800.646 164.006 800.646 163.98 800.646 163.953C800.646 163.9 800.646 163.846 800.646 163.766C800.646 163.766 800.646 163.713 800.646 163.686C800.646 163.606 800.646 163.526 800.646 163.446C800.646 163.366 800.646 163.286 800.646 163.18C800.646 163.18 800.646 163.153 800.646 163.126C800.646 163.073 800.646 162.993 800.646 162.94C800.646 162.94 800.646 162.886 800.646 162.86C800.646 162.806 800.646 162.753 800.646 162.673C800.646 162.646 800.646 162.62 800.646 162.593C800.646 162.54 800.646 162.486 800.646 162.433C800.646 162.406 800.646 162.38 800.646 162.353C800.646 162.299 800.646 162.219 800.646 162.166V162.113C800.646 161.953 800.646 161.766 800.619 161.606V161.553C800.619 161.499 800.619 161.419 800.619 161.366C800.619 161.366 800.619 161.313 800.619 161.286C800.619 161.233 800.619 161.153 800.619 161.099C800.619 161.099 800.619 161.046 800.619 161.019C800.619 160.966 800.619 160.886 800.619 160.833C800.619 160.833 800.619 160.806 800.619 160.779C800.619 160.619 800.592 160.432 800.566 160.272C800.566 160.272 800.566 160.112 800.566 160.032C800.566 160.032 800.566 160.006 800.566 159.979C800.566 159.899 800.566 159.846 800.566 159.766C800.566 159.766 800.566 159.739 800.566 159.712C800.566 159.659 800.566 159.579 800.566 159.499C800.566 159.499 800.566 159.472 800.566 159.446C800.566 159.366 800.566 159.286 800.566 159.206C800.539 158.939 800.512 158.672 800.485 158.432C800.485 158.432 800.485 158.432 800.485 158.405C800.485 158.325 800.485 158.245 800.459 158.165C800.459 158.085 800.459 158.005 800.432 157.925C800.191 155.952 799.87 154.005 799.469 152.058L799.201 151.818ZM780.391 113.918L410.789 164.913C410.789 164.913 410.95 165.127 411.003 165.233L792.512 132.641C790.13 127.814 787.24 123.093 783.842 118.425C783.789 118.345 783.735 118.265 783.682 118.185C783.575 118.025 783.468 117.892 783.334 117.732C783.334 117.732 783.334 117.732 783.334 117.705C783.28 117.625 783.227 117.572 783.173 117.492C783.173 117.492 783.173 117.465 783.146 117.438C783.093 117.385 783.039 117.305 783.013 117.252C783.013 117.252 782.986 117.225 782.959 117.198C782.906 117.145 782.879 117.092 782.852 117.038C782.852 117.038 782.826 116.985 782.799 116.958C782.745 116.905 782.718 116.852 782.665 116.772C782.665 116.745 782.611 116.718 782.611 116.692C782.585 116.638 782.531 116.585 782.504 116.558C782.478 116.505 782.451 116.478 782.424 116.425C782.397 116.372 782.371 116.345 782.344 116.318C782.344 116.292 782.29 116.238 782.264 116.211C782.237 116.158 782.183 116.105 782.156 116.051C782.13 116.025 782.103 115.971 782.076 115.945C782.076 115.945 782.049 115.891 782.023 115.891C781.969 115.811 781.916 115.758 781.862 115.678C781.862 115.678 781.862 115.651 781.835 115.625C781.407 115.065 780.952 114.505 780.498 113.944L780.391 113.918ZM740.763 78.8717L409.96 164.193C410.147 164.327 410.308 164.46 410.468 164.567L763.052 95.888C759.279 92.5541 755.212 89.2735 750.931 86.0463C750.931 86.0463 750.904 86.0196 750.877 86.0196C750.77 85.9396 750.69 85.8596 750.583 85.8062C750.583 85.8062 750.583 85.8062 750.556 85.8062C750.502 85.7795 750.449 85.7262 750.395 85.6995C750.395 85.6995 750.342 85.6729 750.315 85.6462C750.235 85.5928 750.155 85.5128 750.047 85.4595C750.021 85.4595 749.994 85.4061 749.967 85.4061C749.914 85.3528 749.833 85.3261 749.78 85.2728C749.726 85.2461 749.673 85.1928 749.619 85.1661C749.566 85.1394 749.539 85.1128 749.486 85.0594C749.432 85.0328 749.379 84.9794 749.352 84.9527C749.298 84.8994 749.245 84.8727 749.165 84.8194C749.111 84.7927 749.084 84.766 749.031 84.7127C749.004 84.686 748.951 84.6594 748.924 84.6327C748.843 84.5793 748.79 84.526 748.71 84.4726C748.683 84.446 748.629 84.4193 748.603 84.3926C748.549 84.3393 748.496 84.3126 748.415 84.2593C748.389 84.2326 748.335 84.2059 748.308 84.1793C748.255 84.1259 748.174 84.0993 748.121 84.0459C748.094 84.0459 748.067 83.9926 748.041 83.9926C747.96 83.9392 747.88 83.8859 747.8 83.8325C747.773 83.8325 747.746 83.7792 747.72 83.7792C747.639 83.7259 747.559 83.6725 747.479 83.5925C747.398 83.5392 747.292 83.4591 747.211 83.4058C747.211 83.4058 747.184 83.4058 747.158 83.3791C747.077 83.3258 746.97 83.2458 746.89 83.1924C746.89 83.1924 746.89 83.1924 746.863 83.1924C744.883 81.7788 742.823 80.3653 740.736 78.9784L740.763 78.8717ZM682.619 48.5998L408.301 163.34C408.622 163.473 408.943 163.633 409.237 163.766L713.818 63.0289C710.473 61.2953 707.048 59.5883 703.543 57.908C703.382 57.828 703.222 57.748 703.088 57.6947C702.633 57.4813 702.152 57.2413 701.697 57.0279C701.67 57.0279 701.616 57.0012 701.59 56.9745C701.483 56.9212 701.349 56.8679 701.242 56.8145C701.188 56.8145 701.162 56.7612 701.108 56.7612C701.001 56.7078 700.894 56.6545 700.76 56.6012C700.707 56.6012 700.68 56.5745 700.626 56.5478C700.493 56.4678 700.332 56.4144 700.198 56.3344C700.065 56.2544 699.904 56.2011 699.77 56.1211C699.717 56.0944 699.636 56.0677 699.583 56.041C699.503 56.0144 699.422 55.961 699.315 55.9344C699.235 55.9077 699.182 55.881 699.101 55.8277C699.021 55.801 698.941 55.7477 698.887 55.721C698.807 55.6943 698.727 55.641 698.646 55.6143C698.566 55.5876 698.513 55.561 698.432 55.5076C698.352 55.481 698.272 55.4276 698.191 55.4009C698.191 55.4009 698.138 55.4009 698.111 55.3743C697.924 55.2943 697.71 55.1876 697.523 55.1076C697.469 55.1076 697.416 55.0542 697.362 55.0275C697.282 54.9742 697.175 54.9475 697.094 54.8942C697.041 54.8942 696.987 54.8408 696.934 54.8142C696.854 54.7608 696.747 54.7342 696.64 54.6808C696.586 54.6808 696.559 54.6541 696.506 54.6275C696.399 54.5741 696.292 54.5208 696.185 54.4674C695.783 54.2807 695.382 54.094 694.981 53.934C694.847 53.8807 694.713 53.8273 694.606 53.774C694.606 53.774 694.606 53.774 694.579 53.774C690.699 52.0404 686.739 50.3334 682.672 48.6531L682.619 48.5998ZM609.223 24.729L406.24 162.673C406.588 162.753 406.936 162.86 407.257 162.966L647.566 35.7709C643.125 34.3306 638.603 32.917 634 31.5568C633.679 31.4501 633.358 31.3701 633.037 31.2634C632.903 31.2101 632.743 31.1834 632.609 31.1301C632.582 31.1301 632.529 31.1301 632.502 31.1034C632.368 31.0767 632.234 31.0234 632.101 30.97C632.101 30.97 632.047 30.97 632.02 30.97C631.913 30.9434 631.779 30.89 631.672 30.8633C631.619 30.8633 631.592 30.8633 631.539 30.8367C631.405 30.81 631.298 30.7567 631.164 30.73C631.11 30.73 631.057 30.7033 631.003 30.6766C630.923 30.65 630.816 30.6233 630.736 30.5966C630.656 30.5966 630.549 30.5433 630.468 30.5166C630.388 30.5166 630.334 30.4633 630.254 30.4633C630.174 30.4633 630.12 30.4366 630.04 30.4099C629.933 30.3833 629.826 30.3566 629.719 30.3299C629.639 30.3299 629.559 30.2766 629.478 30.2499C629.425 30.2499 629.371 30.2232 629.318 30.1966C629.184 30.1432 629.05 30.1166 628.89 30.0632C628.836 30.0632 628.809 30.0632 628.783 30.0365C628.488 29.9565 628.221 29.8765 627.926 29.7965C627.926 29.7965 627.9 29.7965 627.873 29.7965C624.073 28.703 620.247 27.6628 616.367 26.6226C616.367 26.6226 616.34 26.6226 616.314 26.6226C616.019 26.5426 615.752 26.4626 615.457 26.4092C615.404 26.4092 615.324 26.3826 615.27 26.3559C615.163 26.3292 615.029 26.3026 614.922 26.2492C614.842 26.2492 614.788 26.2225 614.708 26.1959C614.628 26.1959 614.574 26.1692 614.494 26.1425C614.387 26.1159 614.227 26.0625 614.119 26.0358C614.066 26.0358 614.012 26.0358 613.986 26.0092C613.879 25.9825 613.745 25.9558 613.638 25.9292C613.611 25.9292 613.584 25.9292 613.531 25.9292C613.397 25.9025 613.236 25.8491 613.103 25.8225C613.076 25.8225 613.049 25.8225 613.022 25.8225C612.862 25.7691 612.728 25.7425 612.568 25.7158C612.568 25.7158 612.568 25.7158 612.541 25.7158C611.444 25.4224 610.32 25.1557 609.223 24.8623V24.729ZM524.482 8.56615L404.582 162.326C404.849 162.353 405.09 162.406 405.357 162.46L567.936 15.6074C566.732 15.3673 565.501 15.154 564.297 14.9139C563.976 14.8606 563.628 14.7806 563.307 14.7272C563.12 14.7005 562.906 14.6472 562.718 14.6205C562.665 14.6205 562.638 14.6205 562.585 14.6205C562.397 14.5939 562.237 14.5672 562.049 14.5138C562.049 14.5138 561.996 14.5138 561.969 14.5138C561.862 14.5138 561.755 14.4872 561.675 14.4605C561.675 14.4605 561.594 14.4605 561.568 14.4605C561.407 14.4338 561.22 14.4072 561.059 14.3538C561.006 14.3538 560.952 14.3538 560.926 14.3538C560.792 14.3538 560.631 14.3005 560.497 14.2738C560.444 14.2738 560.364 14.2738 560.31 14.2471C560.23 14.2471 560.123 14.2205 560.043 14.1938C559.962 14.1938 559.882 14.1671 559.802 14.1404C559.668 14.1404 559.561 14.0871 559.427 14.0604C559.347 14.0604 559.293 14.0604 559.213 14.0338C559.106 14.0338 558.999 13.9804 558.865 13.9804C558.785 13.9804 558.678 13.9537 558.571 13.9271C558.491 13.9271 558.41 13.9004 558.33 13.8737C558.223 13.8737 558.116 13.8471 558.009 13.8204C557.929 13.8204 557.848 13.7937 557.741 13.767C557.661 13.767 557.554 13.7404 557.447 13.7137C557.394 13.7137 557.313 13.7137 557.26 13.687C557.126 13.687 556.992 13.6337 556.858 13.607C556.778 13.607 556.725 13.607 556.644 13.5803C556.511 13.5803 556.377 13.527 556.243 13.5003C556.189 13.5003 556.136 13.5003 556.082 13.4737C555.975 13.4737 555.868 13.447 555.735 13.4203C555.681 13.4203 555.628 13.4203 555.574 13.3937C555.414 13.3937 555.306 13.3403 555.146 13.3136C555.092 13.3136 555.039 13.3136 554.985 13.287C554.825 13.287 554.691 13.2336 554.557 13.207C554.504 13.207 554.477 13.207 554.424 13.207C554.29 13.207 554.156 13.1536 554.022 13.1269C553.995 13.1269 553.942 13.1269 553.915 13.1269C553.755 13.1269 553.594 13.0736 553.46 13.0469C553.407 13.0469 553.38 13.0469 553.326 13.0469C553.166 13.0469 553.005 12.9936 552.845 12.9669C552.845 12.9669 552.791 12.9669 552.765 12.9669C552.604 12.9669 552.47 12.9136 552.31 12.8869C552.31 12.8869 552.256 12.8869 552.229 12.8869C552.069 12.8602 551.882 12.8336 551.721 12.8069C551.694 12.8069 551.667 12.8069 551.641 12.8069C551.453 12.7802 551.32 12.7535 551.132 12.7269C551.132 12.7269 551.132 12.7269 551.106 12.7269C550.918 12.7002 550.758 12.6735 550.57 12.6469C550.383 12.6202 550.223 12.5935 550.035 12.5668H549.982C549.42 12.4868 548.885 12.3801 548.323 12.3001C542.115 11.2866 535.827 10.3265 529.459 9.41963C529.459 9.41963 529.432 9.41963 529.405 9.41963C529.218 9.41963 529.031 9.36628 528.843 9.33961C528.469 9.28627 528.094 9.23293 527.719 9.17959H527.666C527.505 9.15291 527.291 9.12624 527.131 9.09957C527.131 9.09957 527.104 9.09957 527.077 9.09957C526.89 9.09957 526.729 9.04623 526.542 9.01956C526.355 9.01956 526.194 8.96622 526.007 8.93954C525.98 8.93954 525.953 8.93954 525.9 8.93954C525.739 8.93954 525.552 8.8862 525.392 8.85953C525.365 8.85953 525.338 8.85953 525.311 8.85953C525.151 8.85953 524.99 8.80619 524.83 8.80619C524.83 8.80619 524.776 8.80619 524.749 8.80619C524.642 8.80619 524.509 8.77952 524.402 8.75284L524.482 8.56615ZM432.918 1.04484L402.575 162.166C402.976 162.166 403.377 162.193 403.699 162.219L479.208 3.6853C468.291 2.77847 457.214 2.08502 446.002 1.5516C445.601 1.5516 445.199 1.52492 444.798 1.49825C444.798 1.49825 444.771 1.49825 444.745 1.49825C444.557 1.49825 444.37 1.49825 444.183 1.49825C444.156 1.49825 444.129 1.49825 444.102 1.49825C443.915 1.49825 443.728 1.49825 443.54 1.49825C443.514 1.49825 443.46 1.49825 443.433 1.49825C443.273 1.49825 443.112 1.49825 442.952 1.49825C442.898 1.49825 442.871 1.49825 442.818 1.49825C442.657 1.49825 442.524 1.49825 442.363 1.49825C442.283 1.49825 442.229 1.49825 442.149 1.49825C441.988 1.49825 441.855 1.49825 441.694 1.49825C441.614 1.49825 441.534 1.49825 441.453 1.49825C441.346 1.49825 441.239 1.49825 441.105 1.49825C440.998 1.49825 440.865 1.49825 440.758 1.49825C440.677 1.49825 440.57 1.49825 440.49 1.49825C440.356 1.49825 440.196 1.49825 440.062 1.49825C439.982 1.49825 439.928 1.49825 439.848 1.49825C439.741 1.49825 439.634 1.49825 439.527 1.49825H439.473C439.259 1.49825 439.045 1.49825 438.831 1.49825C438.831 1.49825 438.778 1.49825 438.751 1.49825C436.824 1.41824 434.871 1.3649 432.918 1.28488V1.04484Z" fill="#006BCF"/>
</g>
</g>
<path d="M586.078 71.5361C535.988 71.8562 487.691 86.5521 438.51 92.4198C417.987 94.8735 396.822 95.4603 376.272 93.1932C348.926 90.1527 322.463 82.098 295.144 78.4973C270.741 75.2701 246.017 71.9095 221.454 71.7762C178.535 71.5361 137.007 84.1517 94.9174 90.9528C94.9174 102.502 92.4289 117.331 98.7169 125.465C105.219 133.84 116.163 141.495 118.999 152.857C125.742 179.768 135.294 206.146 147.523 231.457C153.463 243.753 164.674 252.314 177.197 258.209C207.352 272.424 243.047 274.505 276.119 270.051C323.239 263.676 348.792 230.524 368.272 192.624C375.577 177.208 376.379 159.445 385.985 145.362C391.685 137.014 404.956 140.508 414.429 140.481C423.901 140.455 431.928 155.231 434.871 165.072C445.28 199.905 462.619 236.871 497.109 255.115C548.591 282.373 629.719 277.279 663.139 228.123C676.224 208.893 679.836 185.556 686.392 163.765C690.379 150.51 693.964 134.694 708.146 127.412C713.872 124.479 709.858 112.743 710.688 105.915C711.597 98.4741 713.39 91.913 702.125 90.4461C682.458 87.8856 663.38 80.151 643.259 77.5372C624.181 75.0567 605.504 71.4561 586.051 71.5895L586.078 71.5361ZM254.847 83.9116C269.082 83.8316 283.237 84.7918 297.043 87.5389C379.403 103.888 381.062 135.734 347.16 201.559C319.52 255.195 262.285 268.637 204.623 255.781C178.026 249.86 159.858 232.444 151.295 208.6C142.251 183.422 135.401 156.698 136.953 130.24C139.04 94.8202 181.719 89.8326 212.302 86.6054C226.323 85.1118 240.612 83.9916 254.847 83.8849V83.9116ZM555.574 83.9116C569.809 83.9916 584.071 85.1385 598.119 86.6321C628.703 89.8593 671.381 94.8468 673.468 130.266C675.02 156.724 668.17 183.449 659.126 208.627C650.563 232.471 632.368 249.887 605.798 255.808C548.136 268.664 490.901 255.221 463.261 201.585C429.359 135.761 431.018 103.915 513.378 87.5656C527.211 84.8184 541.366 83.8583 555.574 83.9383V83.9116Z" fill="#4A8A6C"/>
<path d="M180.863 173.821H284.066V185.93H240.291V198.785H227.635V185.93H180.836V173.821H180.863ZM183.137 142.162H267.37V139.522H184.154V127.413H280.026V154.271H195.793V156.912H281.31V169.02H183.164V142.162H183.137Z" fill="#FF4AFD"/>
<path d="M296.722 128.667H309.378V155.659H349.22V128.667H361.876V138.749H368.325V127.28H380.981V198.759H368.325V150.724H361.876V197.506H296.748V128.667H296.722ZM349.22 185.397V167.741H309.378V185.397H349.22ZM386.038 127.28H398.694V198.759H386.038V127.28Z" fill="#FF4AFD"/>
<path d="M501.898 197.532H413.866V156.672H474.445V140.776H415.258V128.667H487.101V168.754H426.522V185.397H501.898V127.28H514.555V198.759H501.898V197.506V197.532Z" fill="#FF4AFD"/>
<path d="M566.143 126.906C593.837 126.906 606.494 136.481 606.494 149.23C606.494 161.979 593.73 171.661 566.143 171.661C538.556 171.661 525.927 162.192 525.927 149.23C525.927 136.268 538.449 126.906 566.143 126.906ZM530.342 174.301H542.998V186.65H628.622V198.759H530.342V174.301ZM566.143 159.552C588.406 159.552 593.837 155.391 593.837 149.203C593.837 143.016 588.272 138.988 566.143 138.988C544.015 138.988 538.556 143.282 538.556 149.203C538.556 155.124 543.988 159.552 566.143 159.552ZM613.584 127.28H626.241V129.813H639.512V141.789H626.241V180.622H613.584V127.28Z" fill="#FF4AFD"/>
<path d="M648.369 128.667H726.662V131.068H736.401V127.28H749.058V184.784C749.058 194.999 737.926 200.786 699.101 200.786C660.276 200.786 649.011 194.865 649.011 184.784C649.011 174.702 660.276 168.647 699.101 168.647C716.681 168.647 728.695 169.794 736.401 172.168V160.326H726.662V164.727H714.005V140.776H648.369V128.667ZM736.401 184.784C736.401 182.89 731.585 180.756 699.101 180.756C666.618 180.756 661.668 182.89 661.668 184.784C661.668 186.544 666.591 188.704 699.101 188.704C731.612 188.704 736.401 186.571 736.401 184.784ZM736.401 148.351V143.176H726.662V148.351H736.401Z" fill="#FF4AFD"/>
<path d="M67.5176 155.925H170.721V166.007H67.5176V155.925ZM68.4006 180.516C102.035 180.516 149.476 178.996 155.924 177.742V176.489L69.9258 177.635V168.434H168.581V184.57C164.166 185.717 94.7032 189.237 81.0569 188.864V190.118H169.731V198.946H68.4006V180.543V180.516ZM70.1666 127.307H82.8229V133.361H154.533V127.307H167.189V153.658H70.1666V127.307ZM154.533 144.696V142.296H82.8229V144.696H154.533Z" fill="#FF4AFD"/>
<path d="M170.72 199.905H67.4094V179.501H68.4261C94.5682 179.501 129.085 178.594 146.103 177.608L68.9613 178.621V167.392H169.623V185.316L168.874 185.502C165.69 186.329 134.785 188.063 110.061 189.076H170.747V199.905H170.72ZM69.4162 197.904H168.713V191.077H80.0389V187.796H81.0824C94.7288 188.223 159.081 184.862 167.589 183.689V169.393H70.9146V176.594L156.913 175.447V178.541L156.11 178.701C149.635 179.955 102.943 181.475 69.3894 181.502V197.904H69.4162ZM171.737 166.992H66.5264V154.91H171.737V166.992ZM68.5332 164.992H169.73V156.911H68.5332V164.992ZM168.205 154.644H69.1754V126.292H83.8385V132.346H153.542V126.292H168.205V154.644ZM71.1822 152.643H166.198V128.292H155.549V134.347H81.8317V128.292H71.1822V152.643ZM155.549 145.682H81.8317V141.281H155.549V145.682ZM83.8385 143.682H153.542V143.282H83.8385V143.682Z" fill="#00FF00"/>
<path d="M241.306 199.771H226.643V186.916H179.844V172.806H285.054V186.916H241.279V199.771H241.306ZM228.649 197.771H239.299V184.915H283.074V174.807H181.877V184.915H228.676V197.771H228.649ZM282.271 170.006H182.118V141.148H266.351V140.508H183.135V126.398H281.014V155.257H196.781V155.897H282.298V170.006H282.271ZM184.125 168.006H280.265V157.897H194.748V153.256H278.98V128.399H185.115V138.507H268.331V143.148H184.098V168.006H184.125Z" fill="#00FF00"/>
<path d="M399.683 199.771H385.02V126.292H399.683V199.771ZM387.027 197.771H397.677V128.292H387.027V197.771ZM381.97 199.771H367.307V151.736H362.865V198.518H295.73V127.679H310.394V154.67H348.229V127.679H362.892V137.761H367.334V126.292H381.997V199.771H381.97ZM369.314 197.771H379.963V128.292H369.314V139.761H360.858V129.679H350.209V156.671H308.36V129.679H297.711V196.518H360.831V149.736H369.287V197.771H369.314ZM350.209 186.409H308.36V166.752H350.209V186.409ZM310.367 184.409H348.202V168.753H310.367V184.409Z" fill="#00FF00"/>
<path d="M515.543 199.771H500.88V198.517H412.848V155.656H473.427V141.761H414.239V127.652H488.09V169.739H427.511V184.381H500.88V126.265H515.543V199.744V199.771ZM502.887 197.77H513.536V128.292H502.887V186.408H425.504V167.765H486.083V129.679H416.246V139.787H475.433V157.683H414.854V196.543H502.887V197.797V197.77Z" fill="#00FF00"/>
<path d="M629.637 199.771H529.35V173.313H544.013V185.662H629.637V199.771ZM531.357 197.771H627.63V187.662H542.006V175.314H531.357V197.771ZM627.229 181.608H612.566V126.265H627.229V128.799H640.501V142.775H627.229V181.608ZM614.573 179.608H625.222V140.774H638.494V130.799H625.222V128.265H614.573V179.608ZM566.141 172.646C539.946 172.646 524.908 164.112 524.908 149.202C524.908 134.293 540.32 125.892 566.141 125.892C591.962 125.892 607.482 134.613 607.482 149.202C607.482 163.792 592.417 172.646 566.141 172.646ZM566.141 127.892C541.203 127.892 526.915 135.653 526.915 149.202C526.915 162.751 541.203 170.646 566.141 170.646C591.079 170.646 605.475 162.831 605.475 149.202C605.475 135.573 590.758 127.892 566.141 127.892ZM566.141 160.538C546.1 160.538 537.564 157.15 537.564 149.202C537.564 141.254 546.1 138 566.141 138C586.183 138 594.852 141.361 594.852 149.202C594.852 157.044 586.531 160.538 566.141 160.538ZM566.141 139.974C542.595 139.974 539.571 144.908 539.571 149.176C539.571 153.79 542.729 158.511 566.141 158.511C589.554 158.511 592.845 153.79 592.845 149.176C592.845 144.882 589.822 139.974 566.141 139.974Z" fill="#00FF00"/>
<path d="M699.1 201.798C662.817 201.798 648.02 196.864 648.02 184.781C648.02 172.699 662.817 167.632 699.1 167.632C715.957 167.632 727.543 168.645 735.41 170.832V161.311H727.677V165.711H713.014V141.761H647.378V127.652H727.677V130.052H735.41V126.265H750.073V184.755C750.073 196.837 735.303 201.771 699.1 201.771V201.798ZM699.1 169.659C655.967 169.659 650.027 176.94 650.027 184.808C650.027 192.223 655.86 199.824 699.1 199.824C742.34 199.824 748.066 192.223 748.066 184.808V128.318H737.417V132.106H725.67V129.705H649.385V139.814H715.021V163.764H725.67V159.364H737.417V173.58L736.106 173.179C728.56 170.832 716.439 169.686 699.1 169.686V169.659ZM699.1 189.716C663.62 189.716 660.65 187.289 660.65 184.808C660.65 182.328 663.62 179.767 699.1 179.767C734.581 179.767 737.417 182.248 737.417 184.808C737.417 187.369 734.447 189.716 699.1 189.716ZM699.1 181.768C664.423 181.768 662.656 184.301 662.656 184.808C662.951 185.475 666.51 187.715 699.1 187.715C731.691 187.715 735.089 185.502 735.41 184.808C735.383 184.275 733.377 181.794 699.1 181.794V181.768ZM737.417 149.362H725.67V142.187H737.417V149.362ZM727.677 147.362H735.41V144.188H727.677V147.362Z" fill="#00FF00"/>
</svg>
