<svg width="563" height="784" viewBox="0 0 563 784" fill="none" xmlns="http://www.w3.org/2000/svg">
<path d="M562.155 280.365C562.155 125.523 436.496 0 281.486 0C126.477 0 0.817383 125.523 0.817383 280.365V503.004C0.817383 657.845 126.477 783.368 281.486 783.368C436.496 783.368 562.155 657.845 562.155 503.004V280.365Z" fill="#002D59"/>
<path d="M137.058 268.468C134.997 268.468 133.15 268.04 131.571 267.184C129.67 266.168 128.707 264.163 128.707 261.169V248.87C128.787 247.158 128.573 245.902 128.064 245.153C127.368 244.11 126.619 242.934 125.789 241.624C124.37 239.645 123.648 238.095 123.567 236.811C123.541 236.063 123.782 235.394 124.263 234.859C124.959 234.111 126.083 233.763 127.743 233.763H153.01C155.071 233.763 156.918 234.191 158.497 235.047C160.398 236.063 161.361 238.068 161.361 241.062V259.217H237.029V268.468H137.031H137.058ZM203.544 245.447V173.525C203.625 171.787 203.411 170.584 202.902 169.808C202.206 168.765 201.457 167.589 200.627 166.279C199.208 164.3 198.486 162.75 198.405 161.466C198.379 160.718 198.62 160.049 199.101 159.514C199.797 158.766 200.921 158.418 202.581 158.418H227.848C229.909 158.418 231.783 158.846 233.362 159.702C235.262 160.718 236.226 162.723 236.226 165.691V196.946H253.972V206.197H236.226V238.148C236.226 241.116 235.262 243.148 233.362 244.137C231.783 244.993 229.936 245.42 227.875 245.42H203.544V245.447ZM101.833 229.325L104.912 228.041C109.569 225.876 113.932 223.336 117.759 220.448C121.56 217.614 124.852 214.245 127.529 210.502C130.205 206.759 132.293 202.454 133.739 197.695C135.184 192.962 135.933 187.535 135.933 181.572V176.305H110.265V167.054H134.568C134.087 166.386 133.578 165.637 133.043 164.808C131.597 162.803 130.875 161.252 130.821 159.969C130.794 159.22 131.035 158.552 131.517 158.017C132.213 157.268 133.337 156.921 134.997 156.921H160.264C162.325 156.921 164.172 157.349 165.751 158.204C167.651 159.22 168.615 161.226 168.615 164.22V167.081H198.245V176.332H168.615V182.749C168.615 187.936 167.946 192.642 166.607 196.813C168.882 197.053 171.238 197.454 173.593 198.016C176.698 198.764 179.749 199.914 182.667 201.411C185.718 203.176 188.582 205.235 191.232 207.534C194.043 209.994 195.943 213.015 196.826 216.544C197.362 218.844 197.254 221.063 196.505 223.175C195.782 225.261 194.578 227.052 192.945 228.523C191.527 229.806 189.921 230.795 188.181 231.464C186.468 232.132 184.621 232.533 182.694 232.667C182.319 232.667 181.917 232.694 181.543 232.694C180.017 232.694 178.465 232.48 176.939 232.079C175.039 231.571 173.272 230.769 171.693 229.672C169.659 228.309 168.133 226.544 167.143 224.459C166.152 222.373 165.778 220.181 165.992 217.908C166.152 216.518 166.072 215.127 165.751 213.737C165.483 212.561 164.573 211.384 163.074 210.315C162.298 209.727 161.361 209.219 160.264 208.817C155.821 214.432 149.611 219.325 141.795 223.389C133.658 227.614 123.193 231.277 110.639 234.271L106.999 235.047L101.807 229.352L101.833 229.325Z" fill="#FFA300"/>
<path d="M160.264 158.471C162.084 158.471 163.69 158.845 165.055 159.567C166.42 160.289 167.116 161.84 167.116 164.219V168.604H196.746V174.807H167.116V182.748C167.116 188.577 166.259 193.71 164.52 198.176C167.33 198.336 170.247 198.764 173.272 199.486C176.27 200.208 179.187 201.304 182.025 202.774C184.942 204.459 187.699 206.437 190.295 208.71C192.892 210.983 194.605 213.71 195.408 216.945C195.863 218.95 195.782 220.849 195.14 222.693C194.498 224.538 193.454 226.116 192.008 227.399C190.724 228.549 189.305 229.431 187.699 230.046C186.093 230.661 184.433 231.035 182.64 231.142C182.292 231.142 181.917 231.169 181.57 231.169C180.151 231.169 178.759 230.982 177.367 230.608C175.627 230.153 174.048 229.431 172.576 228.415C170.756 227.185 169.418 225.661 168.561 223.816C167.705 221.971 167.357 220.046 167.544 218.068C167.731 216.544 167.624 214.993 167.276 213.416C166.902 211.838 165.831 210.394 164.011 209.111C162.914 208.255 161.495 207.587 159.782 207.052C155.419 212.881 149.209 217.881 141.126 222.052C133.069 226.223 122.791 229.805 110.318 232.8L107.588 233.361L104.456 229.912L105.554 229.458C110.372 227.239 114.761 224.645 118.723 221.704C122.684 218.763 126.057 215.314 128.84 211.41C131.624 207.507 133.765 203.095 135.264 198.176C136.763 193.256 137.513 187.748 137.513 181.599V174.807H111.844V168.604H137.111C136.843 167.749 136.442 167 135.96 166.305C135.452 165.61 134.943 164.861 134.381 164.006C133.096 162.241 132.454 160.877 132.4 159.915C132.347 158.952 133.23 158.471 135.05 158.471H160.317M227.928 159.968C229.748 159.968 231.354 160.343 232.719 161.065C234.085 161.786 234.78 163.337 234.78 165.717V198.496H252.526V204.699H234.78V238.174C234.78 240.554 234.085 242.104 232.719 242.826C231.354 243.548 229.748 243.923 227.928 243.923H205.124V173.524C205.204 171.519 204.91 170.021 204.24 168.979C203.544 167.936 202.795 166.786 201.992 165.476C200.707 163.711 200.065 162.348 200.011 161.385C199.958 160.423 200.841 159.942 202.661 159.942H227.928M153.09 235.287C154.911 235.287 156.516 235.661 157.882 236.383C159.247 237.105 159.943 238.655 159.943 241.035V260.713H235.61V266.916H137.138C135.318 266.916 133.712 266.542 132.347 265.82C130.982 265.098 130.286 263.548 130.286 261.168V248.869C130.366 246.864 130.072 245.366 129.402 244.324C128.707 243.281 127.957 242.131 127.154 240.821C125.869 239.056 125.227 237.693 125.173 236.73C125.12 235.768 126.003 235.287 127.85 235.287H153.117M160.344 155.396H135.077C132.989 155.396 131.49 155.904 130.5 156.947C129.724 157.776 129.322 158.845 129.376 160.022C129.456 161.573 130.205 163.31 131.758 165.503H108.819V177.802H134.488V181.545C134.488 187.347 133.765 192.614 132.373 197.213C130.982 201.785 128.947 205.956 126.378 209.565C123.782 213.202 120.623 216.437 116.929 219.191C113.155 221.998 108.9 224.511 104.296 226.624L103.306 227.051L99.3174 228.709L102.235 231.891L105.367 235.34L106.544 236.623L108.257 236.276L110.987 235.714C123.728 232.666 134.327 228.95 142.571 224.672C150.173 220.742 156.276 216.009 160.799 210.608C161.334 210.876 161.789 211.143 162.164 211.437C163.449 212.346 164.145 213.202 164.332 214.031C164.6 215.26 164.68 216.464 164.546 217.64C164.305 220.26 164.734 222.72 165.831 225.046C166.928 227.372 168.642 229.351 170.917 230.875C172.63 232.051 174.557 232.934 176.618 233.468C178.251 233.896 179.91 234.137 181.596 234.137C182.025 234.137 182.426 234.137 182.854 234.083C184.942 233.95 186.95 233.522 188.796 232.8C190.724 232.051 192.49 230.982 194.043 229.565C195.889 227.934 197.228 225.902 198.031 223.576C198.86 221.196 198.967 218.71 198.405 216.143C197.415 212.239 195.381 208.977 192.303 206.304C189.573 203.924 186.628 201.812 183.55 200.047C180.392 198.416 177.233 197.24 173.995 196.438C172.175 196.01 170.381 195.662 168.615 195.422C169.659 191.571 170.194 187.294 170.194 182.668V177.775H199.824V167.749C200.493 168.792 201.109 169.754 201.671 170.61C201.778 170.77 202.153 171.465 202.046 173.337V243.869V246.917H227.902C230.23 246.917 232.318 246.436 234.111 245.473C235.771 244.591 237.778 242.586 237.778 238.121V207.694H255.524V195.395H237.778V165.663C237.778 161.198 235.798 159.22 234.111 158.311C232.291 157.348 230.203 156.867 227.902 156.867H202.634C200.547 156.867 199.048 157.375 198.057 158.418C197.281 159.246 196.88 160.316 196.933 161.492C196.987 162.669 197.442 163.952 198.352 165.476H170.194V164.139C170.194 159.674 168.213 157.696 166.527 156.787C164.734 155.824 162.619 155.343 160.317 155.343L160.344 155.396ZM153.117 232.238H127.85C125.762 232.238 124.263 232.746 123.273 233.789C122.497 234.618 122.095 235.688 122.149 236.864C122.229 238.441 123.005 240.233 124.638 242.505C125.441 243.789 126.191 244.965 126.886 245.981C126.993 246.142 127.368 246.837 127.261 248.708V261.141C127.261 265.606 129.242 267.585 130.928 268.494C132.748 269.456 134.836 269.938 137.138 269.938H238.662V257.639H162.994V241.008C162.994 236.543 161.013 234.565 159.327 233.656C157.507 232.693 155.419 232.212 153.117 232.212V232.238Z" fill="#FFF5D0"/>
<path d="M324.58 257.879V248.628H460.123V257.879H324.58ZM437.774 226.195C435.632 226.195 433.357 225.794 431.055 224.992C427.95 223.869 425.702 222.051 424.337 219.564C423.106 217.319 422.089 214.645 421.339 211.624C421.205 211.089 420.884 210.394 420.402 209.618C419.921 208.816 419.278 207.987 418.448 207.159C417.619 206.33 416.575 205.528 415.317 204.725C414.059 203.95 412.533 203.282 410.74 202.693C408.92 202.078 406.645 201.464 403.968 200.822C401.479 200.234 398.936 199.699 396.366 199.218C392.914 203.201 388.604 206.704 383.572 209.672C378.326 212.773 372.625 215.447 366.656 217.613C360.66 219.778 354.397 221.49 348.054 222.666C341.71 223.869 335.527 224.671 329.639 225.046H327.016L324.205 220.099L326.159 219.618C331.78 218.254 337.454 216.276 343.022 213.682C348.589 211.089 353.594 208.068 357.957 204.672C362.266 201.303 365.8 197.506 368.476 193.416C371.072 189.432 372.384 185.207 372.384 180.849V176.144C372.384 174.031 371.983 172.935 371.661 172.4C371.019 171.358 370.296 170.208 369.493 168.898C368.075 166.919 367.352 165.369 367.272 164.085C367.245 163.336 367.486 162.668 367.968 162.133C368.664 161.385 369.788 161.037 371.447 161.037H397.116C399.177 161.037 401.024 161.465 402.603 162.32C404.503 163.336 405.467 165.369 405.467 168.336V176.037C405.467 178.443 405.226 180.742 404.744 182.935C404.423 184.379 404.022 185.796 403.54 187.186C406.538 187.373 409.749 187.694 413.149 188.122C417.351 188.656 421.446 189.405 425.327 190.341C429.61 191.437 433.866 192.934 437.961 194.806C442.19 196.731 445.884 199.405 448.908 202.774C450.862 204.832 452.254 207.292 453.003 210.073C453.78 212.96 453.78 215.26 453.003 217.051C452.522 218.522 451.585 220.019 450.273 221.463C448.935 222.88 447.249 224.03 445.214 224.832C443.234 225.634 441.039 226.088 438.657 226.195C438.362 226.195 438.068 226.195 437.774 226.195Z" fill="#FFA300"/>
<path d="M397.116 162.614C398.936 162.614 400.542 162.989 401.908 163.711C403.273 164.433 403.968 165.983 403.968 168.363V176.063C403.968 178.363 403.728 180.555 403.273 182.614C402.818 184.672 402.175 186.678 401.372 188.603C404.932 188.763 408.786 189.111 412.989 189.646C417.164 190.18 421.179 190.902 425.007 191.838C429.182 192.907 433.304 194.378 437.373 196.223C441.414 198.068 444.894 200.581 447.811 203.816C449.631 205.741 450.889 207.96 451.559 210.5C452.254 213.04 452.254 215.019 451.639 216.49C451.184 217.88 450.354 219.19 449.176 220.447C447.999 221.703 446.5 222.719 444.68 223.441C442.86 224.163 440.825 224.591 438.604 224.698C438.336 224.698 438.068 224.698 437.801 224.698C435.82 224.698 433.732 224.324 431.591 223.575C428.861 222.586 426.907 221.008 425.729 218.869C424.552 216.73 423.588 214.19 422.865 211.276C422.678 210.581 422.33 209.779 421.768 208.87C421.233 207.96 420.483 207.025 419.573 206.116C418.663 205.207 417.512 204.324 416.147 203.469C414.782 202.613 413.149 201.891 411.222 201.276C409.402 200.661 407.1 200.02 404.316 199.378C401.533 198.736 398.696 198.121 395.778 197.586C392.325 201.731 387.989 205.34 382.797 208.388C377.604 211.463 372.063 214.056 366.121 216.222C360.206 218.361 354.077 220.046 347.76 221.222C341.416 222.425 335.34 223.201 329.532 223.575H327.899L326.534 221.169C332.262 219.778 337.99 217.773 343.665 215.126C349.366 212.479 354.424 209.404 358.894 205.928C363.364 202.453 366.978 198.576 369.761 194.298C372.545 190.047 373.937 185.582 373.937 180.903V176.197C373.937 174.192 373.616 172.694 372.973 171.652C372.331 170.609 371.608 169.459 370.779 168.149C369.494 166.384 368.851 165.021 368.798 164.058C368.744 163.096 369.628 162.614 371.448 162.614H397.116ZM458.571 250.151V256.354H326.079V250.151H458.571ZM397.116 159.566H371.448C369.36 159.566 367.861 160.074 366.871 161.117C366.094 161.946 365.693 163.015 365.747 164.192C365.827 165.769 366.603 167.561 368.236 169.833C369.039 171.09 369.735 172.24 370.35 173.229C370.511 173.47 370.859 174.245 370.859 176.17V180.876C370.859 184.993 369.654 188.817 367.192 192.613C364.596 196.57 361.17 200.233 357.021 203.495C352.765 206.811 347.84 209.805 342.38 212.345C336.893 214.885 331.325 216.864 325.812 218.174L321.877 219.11L323.858 222.639L325.223 225.045L326.106 226.596H329.719C335.661 226.195 341.925 225.393 348.322 224.19C354.772 222.987 361.116 221.249 367.165 219.056C373.241 216.864 379.023 214.137 384.349 210.982C389.247 208.094 393.449 204.699 396.929 200.875C399.204 201.303 401.426 201.784 403.621 202.292C406.297 202.907 408.519 203.522 410.232 204.11C411.945 204.672 413.363 205.287 414.514 206.009C415.665 206.731 416.629 207.452 417.352 208.201C418.074 208.95 418.663 209.672 419.091 210.367C419.627 211.249 419.787 211.784 419.868 212.024C420.644 215.126 421.714 217.933 422.999 220.313C424.525 223.12 427.068 225.179 430.494 226.409C433.01 227.265 435.445 227.719 437.747 227.719C438.068 227.719 438.39 227.719 438.711 227.719C441.254 227.585 443.636 227.104 445.777 226.249C447.999 225.366 449.899 224.11 451.371 222.505C452.817 220.955 453.86 219.27 454.449 217.532C455.333 215.42 455.333 212.853 454.449 209.672C453.646 206.677 452.121 203.977 449.953 201.704C446.821 198.228 442.967 195.448 438.55 193.442C434.375 191.544 430.039 190.02 425.676 188.897C421.714 187.934 417.566 187.186 413.283 186.651C410.58 186.303 407.983 186.036 405.521 185.849C405.762 185.02 405.976 184.164 406.163 183.309C406.672 181.036 406.913 178.603 406.913 176.09V168.39C406.913 163.925 404.932 161.946 403.246 161.037C401.426 160.074 399.338 159.593 397.036 159.593L397.116 159.566ZM461.623 247.103H323.028V259.402H461.623V247.103Z" fill="#FFF5D0"/>
<path d="M147.522 639.31C147.522 638.214 147.79 637.625 148.299 637.545C148.834 637.465 149.423 637.599 150.146 637.92C160.611 642.919 165.964 645.165 176.751 649.122V652.01C169.578 649.39 166.018 647.946 158.978 644.871C158.978 652.946 158.978 656.983 158.978 665.058C167.517 668.801 171.853 670.512 180.605 673.587V676.501C168.213 672.17 162.11 669.656 150.146 663.935C149.45 663.587 148.834 663.133 148.299 662.544C147.763 661.956 147.522 661.101 147.522 660.004C147.522 651.743 147.522 647.598 147.522 639.337V639.31ZM197.254 696.26C197.254 698.024 196.638 699.308 195.434 700.083C194.229 700.832 192.623 701.233 190.643 701.233C188.662 701.233 186.414 700.939 183.898 700.324C181.382 699.709 178.839 698.933 176.296 697.998C175.6 697.73 175.252 697.623 174.556 697.356C171.96 696.393 169.39 695.27 166.848 694.014C164.305 692.757 162.03 691.367 160.022 689.843C158.015 688.346 156.382 686.741 155.151 685.057C153.893 683.372 153.277 681.661 153.277 679.87V678.907C153.277 677.196 153.893 676.1 155.151 675.565C156.409 675.031 158.042 674.897 160.049 675.164C162.083 675.432 164.358 675.966 166.901 676.768C169.444 677.571 171.987 678.453 174.556 679.415C175.252 679.683 175.6 679.816 176.296 680.057C178.892 681.02 181.435 682.036 183.924 683.105C186.414 684.175 188.662 685.324 190.616 686.554C192.597 687.784 194.176 689.121 195.407 690.592C196.611 692.035 197.227 693.613 197.227 695.324V696.287L197.254 696.26ZM164.84 684.923C164.84 686.26 165.188 687.49 165.884 688.613C166.58 689.709 167.436 690.698 168.427 691.527C169.417 692.383 170.488 693.078 171.612 693.639C172.736 694.201 173.726 694.655 174.583 694.976C175.279 695.244 175.627 695.377 176.323 695.618C177.179 695.939 178.143 696.206 179.16 696.447C180.204 696.661 181.167 696.714 182.104 696.607C183.041 696.474 183.79 696.126 184.433 695.511C185.048 694.896 185.37 693.934 185.37 692.57V691.608C185.37 690.271 185.075 689.094 184.433 688.078C183.817 687.062 183.041 686.207 182.104 685.458C181.167 684.709 180.204 684.094 179.16 683.613C178.116 683.132 177.179 682.704 176.323 682.41C175.627 682.143 175.279 682.036 174.583 681.768C173.726 681.447 172.709 681.127 171.585 680.806C170.461 680.485 169.39 680.351 168.4 680.378C167.41 680.405 166.58 680.672 165.884 681.18C165.188 681.688 164.84 682.624 164.84 683.961V684.923ZM184.968 681.635C184.968 671.849 184.968 666.983 184.968 657.197C184.995 656.288 184.888 655.539 184.62 654.978C184.353 654.416 184.058 653.775 183.71 653.053C183.202 652.063 182.934 651.342 182.934 650.887C182.934 650.432 183.255 650.326 184.005 650.593C188.046 651.956 190.081 652.598 194.149 653.828C194.872 654.042 195.514 654.416 196.076 654.898C196.638 655.406 196.906 656.208 196.906 657.304V667.999C199.77 668.828 201.215 669.229 204.079 669.977V672.865C201.188 672.116 199.77 671.715 196.906 670.886C196.906 675.619 196.906 677.972 196.906 682.704C196.906 683.8 196.638 684.442 196.076 684.629C195.514 684.816 194.872 684.79 194.149 684.576C190.482 683.479 188.635 682.891 184.995 681.688L184.968 681.635Z" fill="#FFF5D0"/>
<path d="M254.56 690.484C255.39 689.067 256.086 687.543 256.621 685.885C257.156 684.254 257.611 682.57 257.959 680.912C258.307 679.227 258.548 677.596 258.682 676.046C258.816 674.495 258.869 673.051 258.869 671.768V669.148C245.674 668.158 239.089 667.329 226.054 664.896V662.009C242.836 665.11 251.348 666.073 268.344 666.795C269.094 666.821 269.763 667.035 270.325 667.383C270.887 667.73 271.182 668.479 271.182 669.575V672.811C271.182 674.682 271.075 676.5 270.887 678.265C270.7 680.003 270.379 681.687 269.924 683.238C269.469 684.789 268.853 686.259 268.103 687.623C267.354 688.986 266.39 690.163 265.266 691.206C269.147 691.419 271.101 691.473 274.982 691.58C274.982 692.73 274.982 693.318 274.982 694.468C266.39 694.28 262.081 694.04 253.516 693.264C253.516 700.831 253.516 704.601 253.516 712.167C253.516 713.264 253.222 713.959 252.659 714.253C252.097 714.547 251.428 714.654 250.679 714.574C246.905 714.199 245.004 713.959 241.23 713.478C241.23 704.842 241.23 700.537 241.23 691.901C232.745 690.778 228.543 690.056 220.139 688.345V685.457C233.789 688.265 240.695 689.281 254.533 690.484H254.56Z" fill="#FFF5D0"/>
<path d="M332.61 672.838V666.555C319.548 668.774 312.937 669.523 299.741 670.325V667.437C316.738 666.421 325.223 665.325 341.978 661.929C342.728 661.769 343.37 661.822 343.932 662.036C344.494 662.25 344.762 662.918 344.762 664.015V668.319C344.762 669.255 344.735 670.164 344.655 671.047C344.574 671.956 344.387 672.918 344.093 673.961C343.798 675.004 343.343 676.127 342.754 677.303C342.166 678.479 341.336 679.816 340.292 681.314C343.584 680.672 345.244 680.324 348.509 679.576V682.463C326.855 687.329 315.828 688.773 293.772 689.682C293.772 688.533 293.772 687.944 293.772 686.795C308.788 686.18 316.31 685.431 331.191 682.971C331.593 681.634 331.914 680.351 332.101 679.148C332.289 677.945 332.423 676.795 332.503 675.725C319.95 677.864 313.633 678.586 300.946 679.388V676.501C313.66 675.699 320.003 674.95 332.61 672.811V672.838ZM344.012 698.639C344.012 699.735 343.745 700.511 343.183 700.965C342.621 701.42 341.978 701.714 341.229 701.874C329.211 704.281 323.162 705.163 311.01 706.339C311.01 708.478 311.01 709.521 311.01 711.66C324.42 710.35 331.111 709.334 344.36 706.553V709.494C327.391 713.077 318.772 714.254 301.535 715.377C300.785 715.43 300.116 715.296 299.554 715.002C298.992 714.708 298.697 713.986 298.697 712.89V707.088C298.697 705.992 298.992 705.243 299.554 704.869C300.116 704.495 300.785 704.281 301.535 704.227C313.713 703.425 319.789 702.73 331.861 700.698V694.896C318.558 697.115 311.84 697.864 298.43 698.612V695.698C315.64 694.736 324.259 693.666 341.255 690.27C342.005 690.11 342.647 690.163 343.209 690.377C343.771 690.591 344.039 691.26 344.039 692.356V698.639H344.012Z" fill="#FFF5D0"/>
<path d="M368.852 682.196C368.129 682.41 367.487 682.436 366.924 682.249C366.389 682.062 366.095 681.42 366.095 680.324V670.752C366.095 669.656 366.362 668.854 366.924 668.346C367.487 667.838 368.129 667.49 368.852 667.277C375.035 665.432 378.113 664.416 384.215 662.223V652.678C377.229 655.191 373.696 656.314 366.603 658.4V655.512C377.39 652.384 382.716 650.566 393.262 646.395C393.985 646.101 394.601 646.021 395.136 646.154C395.671 646.288 395.939 646.876 395.939 647.972V657.919C395.939 659.015 395.671 659.844 395.136 660.405C394.601 660.967 393.985 661.368 393.262 661.662C387.24 664.041 384.189 665.138 378.086 667.196V676.367C386.651 673.506 390.88 671.902 399.285 668.399V671.287C387.32 676.314 381.218 678.479 368.878 682.169L368.852 682.196ZM415.451 682.329C415.451 683.426 415.184 684.281 414.675 684.869C414.14 685.458 413.551 685.939 412.828 686.26C398.053 693.318 390.452 696.34 375.061 701.286C374.339 701.527 373.696 701.553 373.134 701.393C372.599 701.233 372.304 700.591 372.304 699.495C372.304 696.206 372.304 694.548 372.304 691.233C372.304 690.885 372.304 690.564 372.278 690.297C372.278 690.03 372.224 689.816 372.197 689.602C372.171 689.415 372.09 689.201 371.983 689.014C371.876 688.827 371.742 688.613 371.609 688.372C371.1 687.704 370.832 687.169 370.806 686.741C370.806 686.313 371.154 685.966 371.876 685.752C375.731 684.549 377.631 683.934 381.432 682.597C382.154 682.356 382.797 682.303 383.332 682.436C383.867 682.57 384.135 683.212 384.135 684.308V687.597C392.138 684.736 396.126 683.158 403.969 679.709V679.388C403.969 679.041 403.969 678.72 403.969 678.479C403.969 678.212 403.915 677.998 403.888 677.784C403.862 677.597 403.781 677.383 403.674 677.223C403.567 677.036 403.433 676.848 403.3 676.608C402.791 676.02 402.55 675.485 402.523 675.057C402.523 674.629 402.845 674.255 403.567 673.934C407.288 672.303 409.135 671.447 412.828 669.71C413.524 669.362 414.14 669.255 414.675 669.335C415.21 669.415 415.451 670.004 415.451 671.1C415.451 675.592 415.451 677.838 415.451 682.329ZM403.995 687.436C403.995 685.511 403.995 684.522 403.995 682.597C396.153 686.046 392.165 687.623 384.162 690.484V695.324C392.165 692.463 396.153 690.885 403.995 687.436ZM403.995 671.1V662.678C399.124 664.817 396.662 665.833 391.737 667.758V664.87C396.662 662.945 399.124 661.929 403.995 659.79V647.17C404.022 646.234 403.915 645.593 403.648 645.218C403.38 644.844 403.085 644.443 402.764 643.989C402.256 643.4 402.015 642.866 401.988 642.438C401.988 642.01 402.309 641.636 403.032 641.315C406.967 639.604 408.92 638.721 412.828 636.85C413.524 636.502 414.14 636.395 414.675 636.475C415.21 636.556 415.451 637.144 415.451 638.24C415.451 648.186 415.451 653.159 415.451 663.106C415.451 664.202 415.184 665.057 414.675 665.646C414.14 666.234 413.551 666.715 412.828 667.036C409.322 668.72 407.555 669.522 403.995 671.073V671.1Z" fill="#FFF5D0"/>
<path d="M552.038 506.052C384.349 601.583 178.625 601.583 10.9619 506.052V283.386C178.651 378.917 384.375 378.917 552.038 283.386V506.052Z" fill="#3E628F"/>
<path d="M281.487 604.843C309.175 604.843 331.62 582.423 331.62 554.765C331.62 527.107 309.175 504.687 281.487 504.687C253.8 504.687 231.354 527.107 231.354 554.765C231.354 582.423 253.8 604.843 281.487 604.843Z" fill="#9A1C00"/>
<path d="M182.185 505.649C209.872 505.649 232.317 483.228 232.317 455.571C232.317 427.913 209.872 405.492 182.185 405.492C154.497 405.492 132.052 427.913 132.052 455.571C132.052 483.228 154.497 505.649 182.185 505.649Z" fill="#FFB127"/>
<path d="M382.824 505.649C410.512 505.649 432.957 483.228 432.957 455.571C432.957 427.913 410.512 405.492 382.824 405.492C355.137 405.492 332.691 427.913 332.691 455.571C332.691 483.228 355.137 505.649 382.824 505.649Z" fill="#FFB127"/>
<path d="M281.487 406.482C309.175 406.482 331.62 384.061 331.62 356.404C331.62 328.746 309.175 306.325 281.487 306.325C253.8 306.325 231.354 328.746 231.354 356.404C231.354 384.061 253.8 406.482 281.487 406.482Z" fill="#FFF5D0"/>
<path d="M435.981 622.41L448.507 609.897L123.38 288.759L114.467 297.635L435.981 622.41Z" fill="black"/>
<path d="M114.842 610.379L126.539 622.063L448.16 297.395L439.835 289.106L114.842 610.379Z" fill="black"/>
<path d="M281.487 17.1919C428.968 17.1919 548.987 137.054 548.987 284.402V498.993C548.987 646.314 428.994 766.203 281.487 766.203C133.979 766.203 14.0132 646.314 14.0132 498.967V284.375C14.0132 137.054 134.006 17.1919 281.487 17.1919ZM281.487 14.1439C132.078 14.1439 10.9619 135.129 10.9619 284.375V498.967C10.9619 648.213 132.078 769.225 281.513 769.225C430.922 769.225 552.065 648.239 552.065 498.967V284.375C552.065 135.129 430.948 14.1172 281.513 14.1172L281.487 14.1439Z" fill="#FFF5D0"/>
<path d="M295.7 153.229L349.955 85.1035C359.43 73.2322 350.945 55.666 335.742 55.666H227.232C212.029 55.666 203.571 73.2055 213.019 85.1035L267.274 153.229C274.555 162.347 288.419 162.347 295.7 153.229Z" fill="#FFF4D0"/>
<path d="M245.353 99.8635C255.331 99.8635 263.42 91.7834 263.42 81.8161C263.42 71.8487 255.331 63.7686 245.353 63.7686C235.375 63.7686 227.286 71.8487 227.286 81.8161C227.286 91.7834 235.375 99.8635 245.353 99.8635Z" fill="#9A1C00"/>
<path d="M245.354 101.387C234.54 101.387 225.761 92.6174 225.761 81.8156C225.761 71.0139 234.54 62.2441 245.354 62.2441C256.167 62.2441 264.946 71.0139 264.946 81.8156C264.946 92.6174 256.167 101.387 245.354 101.387ZM245.354 65.2922C236.226 65.2922 228.812 72.6983 228.812 81.8156C228.812 90.933 236.226 98.3391 245.354 98.3391C254.481 98.3391 261.895 90.933 261.895 81.8156C261.895 72.6983 254.481 65.2922 245.354 65.2922Z" fill="#FFF5D0"/>
<path d="M281.487 99.8635C291.465 99.8635 299.554 91.7834 299.554 81.8161C299.554 71.8487 291.465 63.7686 281.487 63.7686C271.509 63.7686 263.42 71.8487 263.42 81.8161C263.42 91.7834 271.509 99.8635 281.487 99.8635Z" fill="#9A1C00"/>
<path d="M281.487 101.387C270.674 101.387 261.895 92.6174 261.895 81.8156C261.895 71.0139 270.674 62.2441 281.487 62.2441C292.301 62.2441 301.08 71.0139 301.08 81.8156C301.08 92.6174 292.301 101.387 281.487 101.387ZM281.487 65.2922C272.36 65.2922 264.946 72.6983 264.946 81.8156C264.946 90.933 272.36 98.3391 281.487 98.3391C290.615 98.3391 298.029 90.933 298.029 81.8156C298.029 72.6983 290.615 65.2922 281.487 65.2922Z" fill="#FFF5D0"/>
<path d="M317.623 99.8635C327.601 99.8635 335.69 91.7834 335.69 81.8161C335.69 71.8487 327.601 63.7686 317.623 63.7686C307.645 63.7686 299.556 71.8487 299.556 81.8161C299.556 91.7834 307.645 99.8635 317.623 99.8635Z" fill="#9A1C00"/>
<path d="M317.623 101.387C306.81 101.387 298.03 92.6174 298.03 81.8156C298.03 71.0139 306.81 62.2441 317.623 62.2441C328.437 62.2441 337.216 71.0139 337.216 81.8156C337.216 92.6174 328.437 101.387 317.623 101.387ZM317.623 65.2922C308.496 65.2922 301.082 72.6983 301.082 81.8156C301.082 90.933 308.496 98.3391 317.623 98.3391C326.75 98.3391 334.164 90.933 334.164 81.8156C334.164 72.6983 326.75 65.2922 317.623 65.2922Z" fill="#FFF5D0"/>
<path d="M263.795 122.295C273.773 122.295 281.862 114.215 281.862 104.248C281.862 94.2803 273.773 86.2002 263.795 86.2002C253.816 86.2002 245.728 94.2803 245.728 104.248C245.728 114.215 253.816 122.295 263.795 122.295Z" fill="#9A1C00"/>
<path d="M263.795 123.819C252.981 123.819 244.202 115.049 244.202 104.247C244.202 93.4455 252.981 84.6758 263.795 84.6758C274.608 84.6758 283.388 93.4455 283.388 104.247C283.388 115.049 274.608 123.819 263.795 123.819ZM263.795 87.7238C254.668 87.7238 247.253 95.13 247.253 104.247C247.253 113.365 254.668 120.771 263.795 120.771C272.922 120.771 280.336 113.365 280.336 104.247C280.336 95.13 272.922 87.7238 263.795 87.7238Z" fill="#FFF5D0"/>
<path d="M299.206 122.295C309.184 122.295 317.273 114.215 317.273 104.248C317.273 94.2803 309.184 86.2002 299.206 86.2002C289.228 86.2002 281.139 94.2803 281.139 104.248C281.139 114.215 289.228 122.295 299.206 122.295Z" fill="#9A1C00"/>
<path d="M299.206 123.819C288.393 123.819 279.613 115.049 279.613 104.247C279.613 93.4455 288.393 84.6758 299.206 84.6758C310.02 84.6758 318.799 93.4455 318.799 104.247C318.799 115.049 310.02 123.819 299.206 123.819ZM299.206 87.7238C290.079 87.7238 282.665 95.13 282.665 104.247C282.665 113.365 290.079 120.771 299.206 120.771C308.333 120.771 315.747 113.365 315.747 104.247C315.747 95.13 308.333 87.7238 299.206 87.7238Z" fill="#FFF5D0"/>
<path d="M281.487 144.755C291.465 144.755 299.554 136.675 299.554 126.708C299.554 116.74 291.465 108.66 281.487 108.66C271.509 108.66 263.42 116.74 263.42 126.708C263.42 136.675 271.509 144.755 281.487 144.755Z" fill="#9A1C00"/>
<path d="M281.487 146.279C270.674 146.279 261.895 137.509 261.895 126.707C261.895 115.905 270.674 107.136 281.487 107.136C292.301 107.136 301.08 115.905 301.08 126.707C301.08 137.509 292.301 146.279 281.487 146.279ZM281.487 110.184C272.36 110.184 264.946 117.59 264.946 126.707C264.946 135.825 272.36 143.231 281.487 143.231C290.615 143.231 298.029 135.825 298.029 126.707C298.029 117.59 290.615 110.184 281.487 110.184Z" fill="#FFF5D0"/>
</svg>
