<?xml version="1.0" encoding="UTF-8"?><svg id="_레이어_2" xmlns="http://www.w3.org/2000/svg" viewBox="0 0 192.36 114.83"><g id="_레이어_1-2"><g><g><path d="M69.35,56.83c0-14.76,11.97-26.73,26.73-26.73h0c14.76,0,26.73,11.97,26.73,26.73v1.42h28.1v-1.42c0-30.28-24.55-54.83-54.83-54.83h0c-30.28,0-54.83,24.55-54.83,54.83v1.42h28.1v-1.42Z" style="fill:#b0eab0;"/><polygon points="122.81 58.25 69.35 58.25 41.25 58.25 1.5 58.25 1.5 113.33 190.86 113.33 190.86 58.25 150.91 58.25 122.81 58.25" style="fill:#3b67ce;"/></g><g><path d="M30.9,88l.47,3.12c-1.65,.29-3.37,.51-5.17,.65-1.8,.15-4.03,.22-6.71,.22h-2.74v-17.96h12.46v3.2h-8.59v3.87h8.24v3.2h-8.24v4.48c2.15-.02,4.02-.09,5.59-.22,1.57-.13,3.13-.32,4.69-.56Zm9.72-3.2h-3.87v13.22h-3.9v-25.85h3.9v9.37h3.87v3.26Z" style="fill:#e5e5e5;"/><path d="M65.89,91.99v3.26h-24.05v-3.26h10.07v-3.44h-6.78v-9h13.54v-2.68h-13.57v-3.2h17.5v8.97h-13.51v2.71h14.12v3.2h-7.39v3.44h10.07Z" style="fill:#e5e5e5;"/></g><path d="M99.7,97.59c-.75,.62-1.66,1.16-2.73,1.64-1.07,.48-2.44,.72-4.1,.72-1.32,0-2.48-.17-3.48-.5-1-.33-1.85-.8-2.53-1.4s-1.2-1.31-1.55-2.12c-.35-.81-.53-1.69-.53-2.65,0-.82,.12-1.55,.36-2.19,.24-.64,.57-1.22,.99-1.74,.42-.52,.93-1,1.52-1.43s1.23-.85,1.91-1.26c-.34-.36-.67-.76-.99-1.2-.32-.43-.6-.89-.85-1.37-.25-.48-.45-.98-.6-1.5-.15-.52-.22-1.06-.22-1.61,0-.77,.17-1.51,.5-2.2,.33-.7,.81-1.3,1.43-1.83,.63-.52,1.38-.93,2.26-1.23,.88-.3,1.86-.44,2.96-.44,.98,0,1.88,.12,2.72,.36s1.55,.59,2.17,1.06c.61,.47,1.1,1.04,1.45,1.73,.35,.68,.53,1.46,.53,2.32,0,.75-.13,1.44-.38,2.05-.25,.61-.59,1.18-1.02,1.69-.43,.51-.94,.99-1.52,1.42-.58,.43-1.19,.84-1.83,1.23l3.69,4c.3-.73,.52-1.5,.68-2.32,.16-.82,.26-1.63,.31-2.43h5.71v4.2h-2.15c-.39,1.46-.9,2.72-1.54,3.79l4.75,5.16h-6.12l-1.78-1.95Zm-6.08-1.85c1.34,0,2.49-.32,3.45-.96l-5.02-5.43c-.77,.46-1.32,.92-1.64,1.4-.32,.48-.48,1.03-.48,1.64v.34c0,.87,.31,1.58,.92,2.15,.61,.57,1.54,.85,2.77,.85Zm.27-16.6c-.62,0-1.13,.17-1.55,.51-.42,.34-.63,.82-.63,1.43v.14c0,.46,.15,.91,.44,1.35,.3,.44,.8,1.07,1.5,1.86,.8-.48,1.4-.96,1.81-1.45,.41-.49,.62-1.08,.62-1.76v-.14c0-.62-.21-1.09-.63-1.43s-.94-.51-1.55-.51Z" style="fill:#151d23;"/><g><path d="M133.56,82.99c.39,0,.71,.17,.96,.5l4.63,6.06-3.03,2.56-4.72-6.52c-.06-.12-.15-.17-.26-.17-.1,0-.19,.06-.29,.17-.52,1.01-1.18,2.06-1.97,3.14s-1.81,2.37-3.07,3.84l-3-2.53c2.17-2.39,3.73-4.55,4.67-6.48s1.41-4.06,1.41-6.39v-3.29h3.96v3.26c0,2.43-.4,4.66-1.19,6.7l.17,.09,.7-.55c.31-.25,.65-.38,1.02-.38Zm14.73,1.81h-3.87v13.22h-3.9v-25.85h3.9v9.37h3.87v3.26Z" style="fill:#e5e5e5;"/><path d="M173.56,90.1h-10.07v8.88h-3.9v-8.88h-10.07v-3.29h24.05v3.29Zm-14.06-13.77h-7.37v-3.26h18.84v3.26h-7.42c-.16,1.28-.64,2.44-1.46,3.49l.17,.06,.93-.7c.48-.33,.94-.5,1.37-.5,.33,0,.67,.09,1.02,.26l6.64,3.23-2.13,2.97-7.63-4.02c-.31-.15-.61-.23-.9-.23-.25,0-.51,.07-.76,.2-1.69,1.46-4.33,2.83-7.92,4.13l-2.07-2.91c2.7-.89,4.75-1.83,6.14-2.82,1.4-.99,2.24-2.05,2.53-3.17Z" style="fill:#e5e5e5;"/></g><path d="M99.7,94.5c-.75,.62-1.66,1.16-2.73,1.64-1.07,.48-2.44,.72-4.1,.72-1.32,0-2.48-.17-3.48-.5-1-.33-1.85-.8-2.53-1.4s-1.2-1.31-1.55-2.12c-.35-.81-.53-1.69-.53-2.65,0-.82,.12-1.55,.36-2.19,.24-.64,.57-1.22,.99-1.74,.42-.52,.93-1,1.52-1.43s1.23-.85,1.91-1.26c-.34-.36-.67-.76-.99-1.2-.32-.43-.6-.89-.85-1.37-.25-.48-.45-.98-.6-1.5-.15-.52-.22-1.06-.22-1.61,0-.77,.17-1.51,.5-2.2,.33-.7,.81-1.3,1.43-1.83,.63-.52,1.38-.93,2.26-1.23,.88-.3,1.86-.44,2.96-.44,.98,0,1.88,.12,2.72,.36s1.55,.59,2.17,1.06c.61,.47,1.1,1.04,1.45,1.73,.35,.68,.53,1.46,.53,2.32,0,.75-.13,1.44-.38,2.05-.25,.61-.59,1.18-1.02,1.69-.43,.51-.94,.99-1.52,1.42-.58,.43-1.19,.84-1.83,1.23l3.69,4c.3-.73,.52-1.5,.68-2.32,.16-.82,.26-1.63,.31-2.43h5.71v4.2h-2.15c-.39,1.46-.9,2.72-1.54,3.79l4.75,5.16h-6.12l-1.78-1.95Zm-6.08-1.85c1.34,0,2.49-.32,3.45-.96l-5.02-5.43c-.77,.46-1.32,.92-1.64,1.4-.32,.48-.48,1.03-.48,1.64v.34c0,.87,.31,1.58,.92,2.15,.61,.57,1.54,.85,2.77,.85Zm.27-16.6c-.62,0-1.13,.17-1.55,.51-.42,.34-.63,.82-.63,1.43v.14c0,.46,.15,.91,.44,1.35,.3,.44,.8,1.07,1.5,1.86,.8-.48,1.4-.96,1.81-1.45,.41-.49,.62-1.08,.62-1.76v-.14c0-.62-.21-1.09-.63-1.43s-.94-.51-1.55-.51Z" style="fill:#fff24a;"/><path d="M96.18,108.03c-12.96,0-23.5-10.54-23.5-23.5s10.54-23.5,23.5-23.5,23.5,10.54,23.5,23.5-10.54,23.5-23.5,23.5Zm0-45c-11.85,0-21.5,9.64-21.5,21.5s9.65,21.5,21.5,21.5,21.5-9.64,21.5-21.5-9.65-21.5-21.5-21.5Z" style="fill:#fff24a;"/><text transform="translate(65.98 36.39) rotate(-43.42)" style="fill:#3b67ce; font-family:BebasNeueBold, &apos;Bebas Neue&apos;; font-size:20px;"><tspan x="0" y="0">t</tspan></text><text transform="translate(70.14 32.27) rotate(-34.39)" style="fill:#3b67ce; font-family:BebasNeueBold, &apos;Bebas Neue&apos;; font-size:20px;"><tspan x="0" y="0">a</tspan></text><text transform="translate(76.34 27.96) rotate(-23.67)" style="fill:#3b67ce; font-family:BebasNeueBold, &apos;Bebas Neue&apos;; font-size:20px;"><tspan x="0" y="0">r</tspan></text><text transform="translate(83.12 24.93) rotate(-13.1)" style="fill:#3b67ce; font-family:BebasNeueBold, &apos;Bebas Neue&apos;; font-size:20px;"><tspan x="0" y="0">o</tspan></text><text transform="translate(90.27 23.25) rotate(-3.1)" style="fill:#3b67ce; font-family:BebasNeueBold, &apos;Bebas Neue&apos;; font-size:20px;"><tspan x="0" y="0">t</tspan></text><text transform="translate(96.98 22.97) rotate(3.6)" style="fill:#3b67ce; font-family:BebasNeueBold, &apos;Bebas Neue&apos;; font-size:20px;"><tspan x="0" y="0"> </tspan></text><text transform="translate(99.71 22.97) rotate(10.61)" style="fill:#3b67ce; font-family:BebasNeueBold, &apos;Bebas Neue&apos;; font-size:20px;"><tspan x="0" y="0">c</tspan></text><text transform="translate(106.71 24.21) rotate(21.12)" style="fill:#3b67ce; font-family:BebasNeueBold, &apos;Bebas Neue&apos;; font-size:20px;"><tspan x="0" y="0">a</tspan></text><text transform="translate(113.76 26.88) rotate(31.84)" style="fill:#3b67ce; font-family:BebasNeueBold, &apos;Bebas Neue&apos;; font-size:20px;"><tspan x="0" y="0">r</tspan></text><text transform="translate(120.1 30.74) rotate(42.48)" style="fill:#3b67ce; font-family:BebasNeueBold, &apos;Bebas Neue&apos;; font-size:20px;"><tspan x="0" y="0">d</tspan></text><g><path d="M150.91,58.25v-1.42c0-30.28-24.55-54.83-54.83-54.83h0c-30.28,0-54.83,24.55-54.83,54.83v1.42" style="fill:none; stroke:#eca7c6; stroke-miterlimit:10; stroke-width:4px;"/><line x1="150.91" y1="58.25" x2="122.81" y2="58.25" style="fill:none; stroke:#0f56a3; stroke-miterlimit:10; stroke-width:3px;"/><line x1="69.35" y1="58.25" x2="41.25" y2="58.25" style="fill:none; stroke:#0f56a3; stroke-miterlimit:10; stroke-width:3px;"/><polyline points="41.25 58.25 1.5 58.25 1.5 113.33 190.86 113.33 190.86 58.25 150.91 58.25" style="fill:none; stroke:#0f56a3; stroke-miterlimit:10; stroke-width:3px;"/><line x1="69.35" y1="58.25" x2="122.81" y2="58.25" style="fill:none; stroke:#0f56a3; stroke-miterlimit:10; stroke-width:3px;"/><path d="M122.81,58.25v-1.42c0-14.76-11.97-26.73-26.73-26.73h0c-14.76,0-26.73,11.97-26.73,26.73v1.42" style="fill:none; stroke:#0f56a3; stroke-miterlimit:10; stroke-width:3px;"/></g><path d="M56.52,38.54c-2.01,0-3.64,1.63-3.64,3.64s1.63,3.64,3.64,3.64,3.64-1.63,3.64-3.64-1.63-3.64-3.64-3.64Zm-.96,2.43c-.49,.23-1.03,.14-1.2-.22-.17-.36,.09-.84,.58-1.07,.49-.23,1.03-.14,1.2,.22,.17,.36-.09,.84-.58,1.07Z" style="fill:#0f56a3;"/><path d="M133.22,38.54c-2.01,0-3.64,1.63-3.64,3.64s1.63,3.64,3.64,3.64,3.64-1.63,3.64-3.64-1.63-3.64-3.64-3.64Zm-.96,2.43c-.49,.23-1.03,.14-1.2-.22-.17-.36,.09-.84,.58-1.07,.49-.23,1.03-.14,1.2,.22,.17,.36-.09,.84-.58,1.07Z" style="fill:#0f56a3;"/><path d="M182.36,77.16c-1.48-.05-2.62-.35-3.7-.92-1.26-.66-2.55-1.28-4-1.42-.49-.05-.99-.05-1.49-.04-.54,.02-.99,.28-1.39,.62-.11,.09-.28,.12-.42,.17-.04-.16-.11-.31-.11-.47,0-.13,.07-.27,.12-.4,.08-.26-.04-.41-.31-.36-.14,.03-.27,.12-.4,.11-.12,0-.24-.1-.36-.16,.06-.1,.1-.23,.18-.3,.26-.22,.6-.37,.82-.62,.78-.9,1.07-1.94,.71-3.1-.3-.99-.67-1.95-.94-2.95-.14-.52-.22-1.09-.2-1.63,.04-.91,.2-1.8,.7-2.6,.53-.85,1.26-1.38,2.2-1.7,1.41-.48,2.82-.5,4.23-.03,1.05,.35,1.86,1,2.27,2.06,.2,.53,.36,1.08,.49,1.64,.06,.26,0,.56,0,.84,.01,.29,.19,.41,.43,.26,.71-.45,1.49-.39,2.26-.33,1.78,.14,3.13,1.05,4.09,2.52,.35,.54,.51,1.17,.55,1.81,.1,1.57-.2,3.08-.91,4.49-.33,.66-.9,1.12-1.49,1.55-1.07,.77-2.28,1.04-3.32,.96Zm-4.39-10.37c-.04-.23-.07-.34-.08-.46-.02-.99-.87-1.68-1.93-1.5-.85,.14-1.29,.39-1.44,1.36-.05,.3-.07,.6-.06,.9,.02,.79,.11,1.57,.09,2.36-.02,.82,.06,1.66-.29,2.45-.03,.07,.07,.27,.16,.32,.11,.06,.27,.03,.41,.04,.65,0,1.3-.05,1.93,.03,1.68,.22,3.35,.5,5.03,.77,.69,.11,1.23-.08,1.65-.64,.45-.61,.57-1.24,.18-1.93-.28-.5-.94-.9-1.44-.81-.12,.02-.21,.15-.32,.22,.07,.1,.13,.24,.22,.28,.34,.13,.4,.4,.4,.7,.02,1.28-1.3,1.76-2.26,1.24-.79-.43-1.26-1.62-1.04-2.52,.04-.14,.05-.37-.02-.44-.08-.08-.32-.07-.44,0-.77,.4-1.54,.25-2.3,.02-.96-.29-1.71-1.5-.93-2.56,.47-.64,1.45-.74,2-.18,.11,.12,.27,.2,.48,.34Z" style="fill:#eca7c6;"/></g></g></svg>