<svg width="787" height="371" viewBox="0 0 787 371" fill="none" xmlns="http://www.w3.org/2000/svg">
<path d="M393.396 370.202C610.66 370.202 786.788 287.37 786.788 185.191C786.788 83.0113 610.66 0.178711 393.396 0.178711C176.132 0.178711 0.00390625 83.0113 0.00390625 185.191C0.00390625 287.37 176.132 370.202 393.396 370.202Z" fill="#A51919"/>
<path d="M393.396 357.724C291.997 357.724 196.647 339.982 124.873 307.73C52.4295 275.185 12.5283 231.684 12.5283 185.191C12.5283 138.697 52.4295 95.1964 124.873 62.651C196.647 30.4263 291.997 12.6572 393.396 12.6572C494.795 12.6572 590.146 30.3996 661.92 62.651C734.363 95.1964 774.264 138.697 774.264 185.191C774.264 231.684 734.363 275.185 661.92 307.73C590.146 339.955 494.795 357.724 393.396 357.724ZM393.396 18.0013C186.317 18.028 17.8806 93.0054 17.8806 185.191C17.8806 277.376 186.343 352.38 393.396 352.38C600.449 352.38 768.912 277.376 768.912 185.191C768.912 93.0054 600.476 18.028 393.396 18.028V18.0013Z" fill="#050F07"/>
<path d="M140.661 194.328C133.168 199.378 122.571 201.97 108.842 202.104H98.5658V221.85H64.6592V142.838H114.382C121.688 142.918 128.164 144.174 133.811 146.632C139.457 149.09 143.9 152.564 147.084 157.08C150.296 161.596 151.874 166.86 151.874 172.872C151.874 182.117 148.128 189.278 140.635 194.301L140.661 194.328ZM115.506 178.403C117.085 176.906 117.888 175.063 117.888 172.872C117.888 171.001 117.031 169.291 115.345 167.741C113.659 166.191 111.224 165.417 108.066 165.417H98.5658V180.647H108.066C111.465 180.647 113.954 179.899 115.533 178.403H115.506Z" fill="#FFF5D0"/>
<path d="M202.774 210.04H186.958L184.71 221.877H150.804L167.77 142.865H221.909L238.875 221.877H204.969L202.828 210.04H202.774ZM199.054 190.294L194.88 167.501L190.571 190.294H199.054Z" fill="#FFF5D0"/>
<path d="M284.049 172.284C285.922 172.765 289.107 173.246 293.549 173.7C299.945 174.368 305.351 175.277 309.713 176.399C314.075 177.521 317.902 179.819 321.194 183.293C324.458 186.767 326.118 191.79 326.118 198.417C326.118 203.974 324.164 208.624 320.284 212.365C316.403 216.079 311.345 218.804 305.083 220.541C298.821 222.278 292.131 223.133 284.959 223.133C278.322 223.133 271.498 222.412 264.486 220.995C257.475 219.579 250.811 217.415 244.469 214.556L249.339 192.779L254.076 194.248C260.178 196.119 264.995 197.455 268.5 198.256C272.006 199.058 275.967 199.432 280.436 199.432C284.209 199.432 287.073 199.085 289.08 198.417C291.087 197.749 292.077 196.813 292.077 195.584C292.077 194.168 291.114 193.206 289.187 192.698C287.26 192.218 283.995 191.737 279.419 191.282C272.863 190.614 267.376 189.706 262.907 188.584C258.465 187.461 254.531 185.163 251.159 181.69C247.76 178.243 246.074 173.193 246.074 166.566C246.074 161.008 247.921 156.359 251.614 152.618C255.307 148.904 260.178 146.178 266.253 144.441C272.327 142.705 278.937 141.85 286.083 141.85C292.72 141.85 299.544 142.571 306.528 143.987C313.54 145.43 320.203 147.568 326.546 150.427L321.675 172.204C316.029 170.013 310.757 168.356 305.913 167.234C301.042 166.112 296.332 165.551 291.729 165.551C284.718 165.551 281.212 166.833 281.212 169.398C281.212 170.841 282.149 171.776 284.049 172.284Z" fill="#FFF5D0"/>
<path d="M397.571 193.82C400.916 193.099 404.208 191.629 407.472 189.358L412.664 214.529C406.937 218.056 401.424 220.38 396.099 221.476C390.773 222.572 384.484 223.106 377.179 223.106C368.588 223.106 360.881 221.369 354.057 217.869C347.233 214.368 341.88 209.505 338 203.306C334.12 197.107 332.166 190.16 332.166 182.491C332.166 174.822 334.093 167.875 338 161.676C341.88 155.477 347.233 150.614 354.057 147.113C360.881 143.613 368.588 141.876 377.179 141.876C384.484 141.876 390.8 142.41 396.099 143.506C401.424 144.601 406.937 146.899 412.664 150.453L407.472 175.624C404.234 173.379 400.943 171.883 397.571 171.162C394.199 170.44 390.345 170.093 385.983 170.093C381.086 170.093 376.938 171.268 373.539 173.646C370.14 176.025 368.454 178.964 368.454 182.518C368.454 186.071 370.14 189.011 373.539 191.389C376.938 193.767 381.059 194.943 385.983 194.943C390.345 194.943 394.226 194.595 397.571 193.874V193.82Z" fill="#FFF5D0"/>
<path d="M504.67 142.865V182.358C504.67 191.683 502.797 199.379 499.077 205.444C495.357 211.51 490.353 215.945 484.091 218.751C477.828 221.583 470.763 222.973 462.842 222.973C454.921 222.973 447.856 221.557 441.594 218.751C435.331 215.919 430.354 211.483 426.661 205.444C422.968 199.379 421.121 191.683 421.121 182.358V142.865H455.028V183.507C455.028 187.034 455.75 189.813 457.169 191.79C458.614 193.794 460.487 194.783 462.815 194.783C465.144 194.783 467.044 193.794 468.515 191.79C469.987 189.786 470.71 187.034 470.71 183.507V142.865H504.617H504.67Z" fill="#FFF5D0"/>
<path d="M578.531 193.82C581.876 193.099 585.168 191.629 588.432 189.358L593.624 214.529C587.897 218.056 582.384 220.38 577.059 221.476C571.733 222.572 565.444 223.106 558.139 223.106C549.548 223.106 541.841 221.369 535.017 217.869C528.193 214.368 522.84 209.505 518.96 203.306C515.08 197.107 513.126 190.16 513.126 182.491C513.126 174.822 515.053 167.875 518.96 161.676C522.84 155.477 528.193 150.614 535.017 147.113C541.841 143.613 549.548 141.876 558.139 141.876C565.444 141.876 571.76 142.41 577.059 143.506C582.384 144.601 587.897 146.899 593.624 150.453L588.432 175.624C585.194 173.379 581.903 171.883 578.531 171.162C575.159 170.44 571.305 170.093 566.943 170.093C562.046 170.093 557.898 171.268 554.499 173.646C551.1 176.025 549.414 178.964 549.414 182.518C549.414 186.071 551.1 189.011 554.499 191.389C557.898 193.767 562.019 194.943 566.943 194.943C571.305 194.943 575.186 194.595 578.531 193.874V193.82Z" fill="#FFF5D0"/>
<path d="M664.675 193.82C668.02 193.099 671.312 191.629 674.577 189.358L679.769 214.529C674.042 218.056 668.529 220.38 663.203 221.476C657.878 222.572 651.589 223.106 644.283 223.106C635.693 223.106 627.985 221.369 621.161 217.869C614.337 214.368 608.985 209.505 605.105 203.306C601.224 197.107 599.271 190.16 599.271 182.491C599.271 174.822 601.197 167.875 605.105 161.676C608.985 155.477 614.337 150.614 621.161 147.113C627.985 143.613 635.693 141.876 644.283 141.876C651.589 141.876 657.905 142.41 663.203 143.506C668.529 144.601 674.042 146.899 679.769 150.453L674.577 175.624C671.339 173.379 668.047 171.883 664.675 171.162C661.303 170.44 657.45 170.093 653.088 170.093C648.19 170.093 644.042 171.268 640.644 173.646C637.245 176.025 635.559 178.964 635.559 182.518C635.559 186.071 637.245 189.011 640.644 191.389C644.042 193.767 648.164 194.943 653.088 194.943C657.45 194.943 661.33 194.595 664.675 193.874V193.82Z" fill="#FFF5D0"/>
<path d="M722.132 142.865V221.877H688.226V142.865H722.132Z" fill="#FFF5D0"/>
<path d="M340.703 107.14C341.907 106.873 343.111 106.339 344.289 105.537L346.162 114.649C344.075 115.931 342.094 116.76 340.168 117.16C338.241 117.561 335.939 117.748 333.29 117.748C330.186 117.748 327.376 117.107 324.914 115.851C322.452 114.569 320.498 112.832 319.106 110.561C317.688 108.316 316.992 105.804 316.992 102.999C316.992 100.193 317.688 97.708 319.106 95.4368C320.525 93.1923 322.452 91.4287 324.914 90.1462C327.376 88.8903 330.186 88.249 333.29 88.249C335.939 88.249 338.241 88.4361 340.168 88.8369C342.094 89.2377 344.101 90.066 346.162 91.3486L344.289 100.46C343.111 99.6319 341.907 99.0975 340.703 98.857C339.472 98.5898 338.08 98.4562 336.501 98.4562C334.735 98.4562 333.236 98.8837 332.005 99.7388C330.774 100.594 330.159 101.663 330.159 102.945C330.159 104.228 330.774 105.297 332.005 106.152C333.236 107.007 334.735 107.434 336.501 107.434C338.08 107.434 339.498 107.301 340.703 107.033V107.14Z" fill="#050F07"/>
<path d="M367.09 112.992H361.363L360.533 117.294H348.25L354.405 88.6494H374.048L380.203 117.294H367.92L367.144 112.992H367.09ZM365.752 105.831L364.227 97.574L362.674 105.831H365.752Z" fill="#050F07"/>
<path d="M395.536 96.8526V100.326H408.328V108.503H395.536V117.294H383.253V88.6494H410.068V96.8258H395.563L395.536 96.8526Z" fill="#050F07"/>
<path d="M425.402 96.8526V100.326H438.194V108.503H425.402V117.294H413.118V88.6494H439.933V96.8258H425.428L425.402 96.8526Z" fill="#050F07"/>
<path d="M455.268 96.8526V99.7116H468.06V106.258H455.268V109.117H469.773V117.294H442.958V88.6494H469.773V96.8258H455.268V96.8526Z" fill="#050F07"/>
<path d="M48.6035 251.938C103.036 311.47 236.896 353.555 393.397 353.555C549.897 353.555 683.731 311.47 738.19 251.938H48.6035Z" fill="#050F07"/>
<path d="M330.479 319.38H313.084V292.152H308.214L310.703 278.818H330.479V319.38Z" fill="#FFF5D0"/>
<path d="M383.091 307.543C383.091 311.471 381.352 314.651 377.873 317.029C374.394 319.407 369.176 320.583 362.218 320.583C355.26 320.583 349.907 319.407 346.428 317.029C342.949 314.651 341.21 311.498 341.21 307.543C341.21 302.974 343.057 299.634 346.776 297.523C343.726 295.786 342.2 292.954 342.2 288.999C342.2 285.045 343.913 282.453 347.365 280.609C350.817 278.765 355.768 277.83 362.218 277.83C368.667 277.83 373.564 278.765 376.99 280.609C380.415 282.453 382.128 285.258 382.128 288.999C382.128 292.927 380.603 295.786 377.552 297.523C381.272 299.634 383.118 303.001 383.118 307.543H383.091ZM364.626 308.559C365.161 307.81 365.429 306.742 365.429 305.406C365.429 304.123 365.161 303.108 364.626 302.359C364.091 301.611 363.261 301.237 362.137 301.237C361.013 301.237 360.184 301.611 359.675 302.359C359.167 303.108 358.899 304.123 358.899 305.406C358.899 308.265 359.97 309.681 362.137 309.681C363.261 309.681 364.091 309.307 364.626 308.559ZM359.863 288.278C359.354 288.919 359.113 289.774 359.113 290.843C359.113 293.248 360.13 294.423 362.191 294.423C363.235 294.423 364.011 294.103 364.546 293.461C365.081 292.82 365.322 291.938 365.322 290.816C365.322 289.694 365.054 288.866 364.546 288.251C364.011 287.61 363.235 287.289 362.191 287.289C361.147 287.289 360.371 287.61 359.863 288.251V288.278Z" fill="#FFF5D0"/>
<path d="M434.554 307.543C434.554 311.471 432.815 314.651 429.336 317.029C425.857 319.407 420.638 320.583 413.681 320.583C406.723 320.583 401.37 319.407 397.891 317.029C394.412 314.651 392.673 311.498 392.673 307.543C392.673 302.974 394.519 299.634 398.239 297.523C395.188 295.786 393.663 292.954 393.663 288.999C393.663 285.045 395.376 282.453 398.828 280.609C402.28 278.765 407.231 277.83 413.681 277.83C420.13 277.83 425.027 278.765 428.453 280.609C431.878 282.453 433.591 285.258 433.591 288.999C433.591 292.927 432.066 295.786 429.015 297.523C432.735 299.634 434.581 303.001 434.581 307.543H434.554ZM416.089 308.559C416.624 307.81 416.892 306.742 416.892 305.406C416.892 304.123 416.624 303.108 416.089 302.359C415.554 301.611 414.724 301.237 413.6 301.237C412.476 301.237 411.647 301.611 411.138 302.359C410.63 303.108 410.362 304.123 410.362 305.406C410.362 308.265 411.433 309.681 413.6 309.681C414.724 309.681 415.554 309.307 416.089 308.559ZM411.326 288.278C410.817 288.919 410.576 289.774 410.576 290.843C410.576 293.248 411.593 294.423 413.654 294.423C414.697 294.423 415.474 294.103 416.009 293.461C416.544 292.82 416.785 291.938 416.785 290.816C416.785 289.694 416.517 288.866 416.009 288.251C415.474 287.61 414.697 287.289 413.654 287.289C412.61 287.289 411.834 287.61 411.326 288.251V288.278Z" fill="#FFF5D0"/>
<path d="M476.195 300.115C477.8 301.638 478.603 303.855 478.603 306.741C478.603 309.627 477.827 312.139 476.248 314.223C474.696 316.307 472.555 317.884 469.879 318.979C467.203 320.048 464.232 320.609 460.968 320.609C458.184 320.609 455.187 320.315 452.002 319.727C448.818 319.139 446.008 318.151 443.546 316.761L445.58 305.565C449.46 307.757 453.929 308.879 459.041 308.879C460.887 308.879 462.279 308.612 463.162 308.104C464.045 307.569 464.5 306.928 464.5 306.153C464.5 303.722 460.566 302.493 452.671 302.493V296.187L458.077 291.564H445.312V278.818H476.81V290.468L469.451 296.908C472.341 297.523 474.616 298.591 476.222 300.115H476.195Z" fill="#FFF5D0"/>
<path d="M190.838 58.2951C190.731 57.8675 190.651 57.4133 190.544 56.9858C193.06 56.4246 195.575 55.8635 198.117 55.3291C198.224 55.7566 198.305 56.2109 198.412 56.6384C197.395 56.8522 196.351 57.0926 195.334 57.3064C196.217 61.3412 197.1 65.376 197.984 69.4107C197.529 69.5176 197.074 69.6245 196.592 69.7047C195.709 65.6699 194.826 61.6351 193.916 57.6003C192.899 57.8141 191.855 58.0546 190.838 58.2683V58.2951Z" fill="#FFF5D0"/>
<path d="M203.925 54.0994C204.38 53.9925 204.835 53.9123 205.316 53.8055C205.718 55.6759 206.092 57.573 206.494 59.4435C208.822 58.9625 211.15 58.4815 213.505 58.0273C213.131 56.1568 212.756 54.2597 212.381 52.3893C212.836 52.3091 213.318 52.2022 213.773 52.1221C214.656 56.6111 215.539 61.1001 216.422 65.5891C215.967 65.6693 215.512 65.7762 215.058 65.8563C214.629 63.692 214.201 61.5276 213.773 59.3633C211.445 59.8175 209.117 60.2985 206.788 60.7795C207.243 62.9438 207.671 65.1082 208.126 67.2725C207.671 67.3794 207.216 67.4596 206.762 67.5664C205.825 63.0774 204.888 58.6151 203.952 54.1261L203.925 54.0994Z" fill="#FFF5D0"/>
<path d="M220.972 50.7333C223.621 50.2256 226.27 49.7446 228.92 49.2637C229 49.7179 229.08 50.1454 229.161 50.5997C226.966 51.0005 224.799 51.4013 222.604 51.8021C222.872 53.2183 223.139 54.6345 223.407 56.0239C225.575 55.6231 227.716 55.2223 229.883 54.8482C229.964 55.3025 230.044 55.73 230.124 56.1842C227.983 56.5583 225.815 56.9591 223.675 57.3599C223.996 59.1235 224.344 60.887 224.665 62.6506C226.806 62.2498 228.947 61.849 231.087 61.4749C231.168 61.9291 231.248 62.3567 231.328 62.8109C228.732 63.2651 226.137 63.7461 223.541 64.2538C222.684 59.7648 221.828 55.249 220.998 50.76L220.972 50.7333Z" fill="#FFF5D0"/>
<path d="M250.998 45.2293C253.112 44.9087 254.986 45.3095 256.591 46.4852C258.224 47.6342 259.16 49.2374 259.455 51.2414C259.749 53.2187 259.294 55.009 258.09 56.6122C256.886 58.2155 255.307 59.1507 253.3 59.4713C251.266 59.792 249.446 59.3644 247.813 58.2154C246.181 57.0665 245.218 55.5167 244.896 53.5661C244.682 52.2568 244.816 51.0009 245.271 49.7985C245.726 48.5961 246.475 47.5807 247.492 46.7524C248.509 45.9508 249.66 45.4431 250.971 45.2293H250.998ZM251.266 46.5386C250.249 46.699 249.312 47.1265 248.456 47.7945C247.626 48.4625 247.011 49.2908 246.636 50.2528C246.261 51.2147 246.154 52.2568 246.342 53.3256C246.609 54.9288 247.385 56.2114 248.697 57.1466C250.008 58.0818 251.453 58.4025 253.059 58.162C254.129 58.0017 255.066 57.6009 255.895 56.9329C256.725 56.2916 257.314 55.49 257.715 54.528C258.09 53.5661 258.197 52.5507 258.036 51.4552C257.876 50.3864 257.474 49.4512 256.832 48.6496C256.19 47.8479 255.36 47.2601 254.343 46.886C253.326 46.5119 252.309 46.3783 251.239 46.5654L251.266 46.5386Z" fill="#FFF5D0"/>
<path d="M265.208 43.4656C266.145 43.332 267.055 43.1984 267.991 43.0915C269.543 42.8777 270.587 42.7976 271.176 42.851C272.032 42.9312 272.755 43.2251 273.343 43.7862C273.932 44.3206 274.307 45.0421 274.414 45.9238C274.521 46.672 274.414 47.34 274.146 47.9546C273.852 48.5691 273.397 49.0501 272.781 49.4242C272.166 49.7983 271.256 50.0655 270.105 50.2258C272.059 52.0962 273.986 53.9934 275.913 55.8905C275.351 55.9707 274.789 56.0509 274.2 56.1043C272.273 54.2072 270.346 52.3367 268.393 50.4396C268.125 50.4663 267.884 50.5197 267.617 50.5465C267.911 52.6574 268.205 54.7683 268.5 56.8525C268.045 56.9059 267.59 56.9861 267.135 57.0395C266.493 52.497 265.877 47.9813 265.235 43.4388L265.208 43.4656ZM266.787 44.6145C267.001 46.1643 267.215 47.6874 267.429 49.2372C268.232 49.1303 269.008 49.0234 269.811 48.9165C270.721 48.7829 271.417 48.6226 271.818 48.3821C272.246 48.1416 272.541 47.821 272.755 47.4202C272.942 47.0194 273.022 46.5651 272.969 46.1109C272.915 45.6566 272.728 45.2558 272.434 44.9085C272.139 44.5611 271.765 44.3473 271.336 44.2405C270.908 44.1336 270.212 44.1336 269.249 44.2672C268.419 44.3741 267.617 44.4809 266.787 44.6145Z" fill="#FFF5D0"/>
<path d="M280.622 41.4611C281.077 41.4077 281.559 41.3542 282.014 41.3008C282.576 45.8432 283.111 50.3857 283.673 54.9282C283.218 54.9816 282.763 55.035 282.308 55.0885C281.746 50.546 281.184 46.0036 280.649 41.4611H280.622Z" fill="#FFF5D0"/>
<path d="M302.835 41.3275C302.514 41.7016 302.193 42.0757 301.845 42.423C300.988 41.755 300.079 41.2741 299.115 40.9801C298.152 40.6862 297.215 40.5793 296.332 40.6862C295.235 40.7931 294.218 41.1672 293.281 41.8085C292.345 42.4498 291.649 43.2246 291.221 44.1866C290.766 45.1485 290.605 46.1372 290.712 47.1258C290.819 48.1412 291.221 49.1031 291.89 49.9582C292.559 50.8132 293.415 51.4545 294.432 51.882C295.476 52.3096 296.573 52.4432 297.75 52.3363C299.169 52.176 300.319 51.6683 301.229 50.7865C302.139 49.9047 302.621 48.8092 302.674 47.5266C301.203 47.6602 299.731 47.8205 298.259 47.9809C298.205 47.5533 298.179 47.0991 298.125 46.6716C300.132 46.4578 302.112 46.2708 304.12 46.057C304.307 48.1679 303.852 49.9047 302.701 51.2675C301.577 52.6302 299.972 53.4318 297.857 53.6456C295.315 53.9128 293.201 53.2715 291.515 51.7217C290.23 50.5193 289.481 49.0497 289.267 47.3129C289.106 46.0303 289.321 44.7744 289.856 43.5987C290.391 42.423 291.221 41.4344 292.291 40.6862C293.388 39.938 294.673 39.4838 296.118 39.3235C297.295 39.1899 298.446 39.2968 299.543 39.5907C300.641 39.9113 301.711 40.4724 302.808 41.3008L302.835 41.3275Z" fill="#FFF5D0"/>
<path d="M309.793 38.3611C310.248 38.3077 310.73 38.281 311.185 38.2275C311.586 42.7967 311.987 47.3392 312.416 51.9084C311.961 51.9618 311.506 51.9885 311.051 52.042C310.649 47.4728 310.221 42.9303 309.82 38.3611H309.793Z" fill="#FFF5D0"/>
<path d="M319.427 51.3217C319.052 46.7525 318.677 42.21 318.303 37.6408C318.41 37.6408 318.517 37.6408 318.624 37.6408C322.023 40.874 325.368 44.1606 328.686 47.4205C328.445 43.9201 328.178 40.4198 327.937 36.9194C328.392 36.8927 328.873 36.8659 329.328 36.8125C329.65 41.3817 329.971 45.9509 330.292 50.5201C330.185 50.5201 330.078 50.5201 329.971 50.5201C326.679 47.2869 323.361 44.0537 320.015 40.8473C320.283 44.2942 320.577 47.7679 320.845 51.2148C320.363 51.2415 319.882 51.2949 319.427 51.3217Z" fill="#FFF5D0"/>
<path d="M342.387 35.9844C344.822 40.4467 347.231 44.8823 349.586 49.3713C349.077 49.3713 348.596 49.4247 348.087 49.4514C347.284 47.9818 346.482 46.5122 345.679 45.0426C343.672 45.1495 341.691 45.2563 339.684 45.3632C339.042 46.913 338.426 48.4628 337.811 50.0126C337.302 50.0393 336.794 50.066 336.259 50.1195C338.159 45.4167 340.086 40.7139 342.039 36.0111C342.146 36.0111 342.253 36.0111 342.387 36.0111V35.9844ZM342.387 38.8969C341.691 40.607 340.969 42.2904 340.273 44.0005C341.852 43.9203 343.431 43.8134 345.036 43.7333C344.153 42.1301 343.27 40.5001 342.387 38.8969Z" fill="#FFF5D0"/>
<path d="M355.02 35.3689C355.474 35.3689 355.956 35.3422 356.411 35.3154C356.572 39.4571 356.732 43.572 356.92 47.7137C358.686 47.6335 360.479 47.5801 362.245 47.5266C362.245 47.9809 362.272 48.4084 362.299 48.8627C360.077 48.9428 357.829 49.023 355.608 49.1299C355.421 44.5607 355.234 39.9915 355.02 35.4223V35.3689Z" fill="#FFF5D0"/>
<path d="M377.097 34.7012C377.552 34.7012 378.033 34.7012 378.488 34.7012C378.569 39.2704 378.649 43.8663 378.729 48.4354C378.274 48.4354 377.819 48.4354 377.338 48.4354C377.257 43.8663 377.177 39.2704 377.097 34.7012Z" fill="#FFF5D0"/>
<path d="M384.242 35.9568C384.242 35.5026 384.242 35.0484 384.242 34.6208C386.811 34.5941 389.38 34.5674 391.949 34.5674C391.949 35.0216 391.949 35.4759 391.949 35.9034C390.906 35.9034 389.862 35.9034 388.818 35.9034C388.818 40.0451 388.872 44.16 388.899 48.3017C388.417 48.3017 387.962 48.3017 387.48 48.3017C387.454 44.16 387.427 40.0451 387.4 35.9034C386.356 35.9034 385.313 35.9034 384.269 35.9301L384.242 35.9568Z" fill="#FFF5D0"/>
<path d="M403.591 34.5938C405.732 39.1897 407.819 43.8123 409.907 48.4082C409.398 48.4082 408.917 48.4082 408.408 48.4082C407.712 46.8851 406.99 45.3621 406.294 43.8657C404.287 43.8657 402.306 43.8123 400.299 43.8123C399.577 45.3086 398.827 46.805 398.105 48.328C397.596 48.328 397.088 48.328 396.553 48.328C398.747 43.7588 400.968 39.1897 403.216 34.6472C403.323 34.6472 403.457 34.6472 403.564 34.6472L403.591 34.5938ZM403.377 37.5063C402.547 39.1629 401.744 40.7929 400.942 42.4495C402.521 42.4495 404.126 42.4763 405.705 42.503C404.929 40.8463 404.153 39.1629 403.377 37.5063Z" fill="#FFF5D0"/>
<path d="M416.222 34.8076C416.704 34.8076 417.159 34.8076 417.64 34.8343C417.533 38.976 417.426 43.0909 417.319 47.2326C419.085 47.286 420.878 47.3395 422.645 47.3929C422.645 47.8472 422.618 48.2747 422.591 48.7289C420.343 48.6488 418.122 48.5953 415.874 48.5419C415.981 43.9727 416.088 39.3768 416.195 34.8076H416.222Z" fill="#FFF5D0"/>
<path d="M428.961 35.209C429.442 35.209 429.897 35.2357 430.379 35.2624C430.192 39.8316 430.031 44.4008 429.844 48.9967C429.389 48.9967 428.934 48.97 428.452 48.9433C428.613 44.3741 428.8 39.8049 428.961 35.209Z" fill="#FFF5D0"/>
<path d="M443.225 35.8496C445.178 40.5257 447.078 45.2285 448.952 49.9312C448.443 49.9045 447.961 49.8778 447.453 49.8511C446.811 48.3013 446.168 46.7515 445.526 45.2285C443.519 45.1216 441.539 45.0147 439.532 44.9078C438.729 46.3774 437.953 47.8471 437.15 49.3167C436.641 49.3167 436.133 49.2632 435.598 49.2365C437.979 44.7742 440.415 40.2852 442.85 35.8496C442.957 35.8496 443.064 35.8496 443.198 35.8496H443.225ZM442.903 38.7621C442.02 40.3654 441.137 41.9953 440.254 43.5985C441.833 43.6787 443.412 43.7588 445.018 43.839C444.322 42.1289 443.626 40.4455 442.903 38.7354V38.7621Z" fill="#FFF5D0"/>
<path d="M454.946 50.3052C455.241 45.736 455.562 41.1668 455.856 36.5977C455.963 36.5977 456.07 36.5977 456.177 36.5977C459.041 40.3118 461.904 44.0259 464.687 47.7668C464.955 44.2664 465.223 40.766 465.49 37.2657C465.945 37.2924 466.427 37.3458 466.882 37.3725C466.534 41.9417 466.159 46.5109 465.811 51.0534C465.704 51.0534 465.597 51.0534 465.49 51.0534C462.734 47.366 459.924 43.6786 457.087 40.0179C456.846 43.4648 456.605 46.9384 456.391 50.3854C455.91 50.3587 455.428 50.3319 454.973 50.2785L454.946 50.3052Z" fill="#FFF5D0"/>
<path d="M483.5 38.8431C486.176 39.1103 488.852 39.3775 491.528 39.6447C491.475 40.099 491.421 40.5265 491.394 40.9808C489.2 40.7403 486.979 40.5265 484.784 40.3127C484.651 41.7289 484.517 43.1718 484.356 44.588C486.524 44.8018 488.718 45.0155 490.886 45.256C490.832 45.7103 490.779 46.1378 490.752 46.592C488.584 46.3516 486.417 46.1378 484.222 45.924C484.035 47.7143 483.874 49.5046 483.687 51.2948C485.855 51.5086 487.996 51.7223 490.163 51.9628C490.11 52.4171 490.056 52.8446 490.03 53.2988C487.407 53.0316 484.811 52.7644 482.188 52.4972C482.617 47.9281 483.072 43.3856 483.5 38.8164V38.8431Z" fill="#FFF5D0"/>
<path d="M495.168 51.2677C495.596 51.0807 495.998 50.8936 496.426 50.7066C497.095 52.3098 497.951 53.1649 499.048 53.2717C499.503 53.3252 499.958 53.2717 500.386 53.1114C500.815 52.9511 501.163 52.7106 501.403 52.3633C501.671 52.0426 501.805 51.6685 501.858 51.2677C501.912 50.8135 501.805 50.3325 501.564 49.8783C501.189 49.2103 500.493 48.4086 499.45 47.42C498.379 46.4313 497.737 45.7366 497.496 45.3091C497.068 44.6143 496.907 43.8929 496.988 43.1447C497.041 42.5569 497.255 42.0225 497.603 41.5682C497.951 41.114 498.406 40.7666 498.968 40.5528C499.53 40.3391 500.119 40.2589 500.734 40.3391C501.403 40.4192 501.992 40.633 502.527 41.0338C503.063 41.4079 503.598 42.0759 504.133 43.0111C503.732 43.2516 503.303 43.4921 502.902 43.7326C502.447 42.9844 502.072 42.5034 501.724 42.2362C501.377 41.969 500.975 41.8354 500.547 41.782C499.985 41.7285 499.503 41.8354 499.102 42.1294C498.7 42.4233 498.486 42.8241 498.433 43.305C498.406 43.599 498.433 43.8929 498.54 44.1868C498.647 44.4807 498.834 44.8014 499.129 45.1755C499.289 45.3625 499.824 45.8969 500.761 46.752C501.858 47.7674 502.581 48.6224 502.956 49.3706C503.33 50.092 503.464 50.8135 503.384 51.5082C503.277 52.4969 502.768 53.2985 501.939 53.9398C501.082 54.581 500.119 54.8482 499.048 54.7146C498.219 54.6078 497.469 54.3138 496.854 53.7794C496.212 53.2717 495.676 52.4434 495.222 51.3479L495.168 51.2677Z" fill="#FFF5D0"/>
<path d="M511.413 41.9418C512.35 42.0486 513.259 42.1822 514.196 42.2891C515.802 42.5029 516.872 42.7167 517.407 42.9304C518.184 43.2243 518.772 43.7053 519.2 44.3733C519.629 45.0413 519.762 45.8162 519.655 46.7247C519.522 47.6332 519.174 48.3546 518.612 48.8623C518.05 49.3967 517.3 49.6907 516.417 49.7708C515.775 49.8243 514.598 49.7708 512.858 49.5303C512.537 49.4769 512.189 49.4502 511.868 49.3967C511.6 51.5077 511.333 53.6186 511.065 55.7295C510.61 55.676 510.155 55.6226 509.7 55.5424C510.289 51 510.851 46.4575 511.44 41.915L511.413 41.9418ZM512.644 43.4648C512.457 45.0146 512.242 46.5377 512.055 48.0874C512.831 48.1943 513.607 48.3012 514.41 48.4081C515.347 48.5417 516.069 48.5417 516.524 48.4081C516.979 48.3012 517.354 48.0607 517.675 47.7134C517.969 47.366 518.157 46.9652 518.237 46.4842C518.291 46.03 518.237 45.6025 518.023 45.1749C517.809 44.7474 517.515 44.4535 517.14 44.2397C516.738 44.0259 516.096 43.8656 515.133 43.732C514.303 43.6251 513.5 43.5183 512.671 43.4114L512.644 43.4648Z" fill="#FFF5D0"/>
<path d="M526.881 44.0267C527.818 44.1603 528.727 44.2939 529.664 44.4275C531.216 44.6413 532.233 44.8818 532.768 45.0688C533.571 45.3895 534.187 45.8704 534.588 46.5652C535.016 47.2599 535.15 48.0348 535.016 48.9165C534.909 49.6647 534.615 50.2793 534.187 50.787C533.732 51.2947 533.17 51.642 532.474 51.8291C531.778 52.0161 530.842 52.0161 529.691 51.8558C531.029 54.2072 532.367 56.5586 533.705 58.91C533.143 58.8298 532.581 58.7496 532.019 58.6428C530.681 56.2914 529.343 53.94 528.005 51.5886C527.737 51.5619 527.496 51.5084 527.229 51.4817C526.934 53.5926 526.613 55.6768 526.319 57.7877C525.864 57.7343 525.409 57.6541 524.954 57.6007C525.596 53.0582 526.265 48.5425 526.908 44L526.881 44.0267ZM528.085 45.5498C527.871 47.0996 527.63 48.6226 527.416 50.1724C528.219 50.306 528.995 50.4129 529.798 50.5465C530.708 50.6801 531.404 50.7068 531.885 50.5999C532.34 50.4931 532.742 50.2793 533.063 49.9319C533.357 49.5846 533.544 49.1838 533.625 48.7295C533.705 48.2753 533.625 47.8477 533.437 47.4202C533.25 47.0194 532.956 46.6988 532.554 46.4583C532.18 46.2445 531.511 46.0575 530.547 45.9239C529.718 45.7903 528.915 45.6834 528.085 45.5765V45.5498Z" fill="#FFF5D0"/>
<path d="M542.456 46.4053C545.106 46.8328 547.782 47.2603 550.431 47.7146C550.351 48.1688 550.271 48.5963 550.217 49.0506C548.023 48.6765 545.828 48.3024 543.634 47.9551C543.393 49.3712 543.179 50.7874 542.938 52.2036C545.106 52.551 547.273 52.925 549.414 53.2724C549.334 53.7267 549.254 54.1542 549.2 54.6084C547.033 54.2343 544.892 53.887 542.724 53.5396C542.43 55.3032 542.135 57.0934 541.868 58.857C544.009 59.2043 546.149 59.5517 548.317 59.9258C548.237 60.38 548.157 60.8076 548.103 61.2618C545.507 60.8343 542.911 60.38 540.315 59.9792C541.038 55.4635 541.761 50.9477 542.51 46.432L542.456 46.4053Z" fill="#FFF5D0"/>
<path d="M553.322 59.5776C553.75 59.4173 554.178 59.257 554.606 59.0967C555.168 60.7266 555.971 61.6351 557.041 61.8489C557.496 61.929 557.951 61.9023 558.38 61.7687C558.808 61.6351 559.182 61.3946 559.45 61.1007C559.718 60.7801 559.905 60.4327 559.959 60.0319C560.039 59.5776 559.959 59.0967 559.744 58.6157C559.423 57.9477 558.781 57.0659 557.791 56.0238C556.801 54.955 556.185 54.2336 555.971 53.806C555.596 53.0846 555.463 52.3364 555.596 51.615C555.703 51.0271 555.944 50.5194 556.319 50.0919C556.694 49.6644 557.175 49.3437 557.737 49.1567C558.326 48.9697 558.915 48.9429 559.53 49.0498C560.199 49.1567 560.761 49.4239 561.297 49.8514C561.805 50.279 562.314 50.947 562.795 51.9089C562.367 52.1227 561.939 52.3364 561.511 52.5502C561.109 51.7753 560.761 51.2676 560.44 50.9737C560.119 50.7065 559.718 50.5194 559.289 50.4393C558.727 50.3324 558.246 50.4393 557.818 50.6798C557.416 50.947 557.149 51.321 557.068 51.802C557.015 52.0959 557.042 52.3899 557.095 52.6838C557.175 52.9777 557.336 53.3251 557.63 53.6992C557.791 53.9129 558.299 54.4473 559.156 55.3558C560.199 56.4246 560.868 57.3599 561.19 58.108C561.511 58.8562 561.618 59.5776 561.484 60.2724C561.297 61.261 560.761 62.0359 559.878 62.6238C558.995 63.2116 558.005 63.3987 556.934 63.2116C556.105 63.0513 555.382 62.7039 554.794 62.1428C554.178 61.5817 553.696 60.7533 553.295 59.6044L553.322 59.5776Z" fill="#FFF5D0"/>
<path d="M566.647 62.0087C567.076 61.8484 567.504 61.6881 567.932 61.5545C568.467 63.2111 569.27 64.1196 570.341 64.3334C570.795 64.4135 571.25 64.4135 571.705 64.2799C572.134 64.1463 572.508 63.9326 572.803 63.6119C573.097 63.2913 573.258 62.9439 573.338 62.5431C573.418 62.0889 573.338 61.6079 573.15 61.1269C572.829 60.4322 572.187 59.5772 571.224 58.5083C570.233 57.4395 569.645 56.6914 569.431 56.2638C569.056 55.5424 568.949 54.7942 569.083 54.0728C569.19 53.4849 569.431 52.9772 569.832 52.5497C570.207 52.1222 570.688 51.8282 571.277 51.6412C571.866 51.4542 572.455 51.4274 573.07 51.561C573.739 51.6946 574.301 51.9618 574.81 52.3894C575.318 52.8169 575.8 53.5116 576.255 54.4736C575.827 54.6873 575.398 54.8744 574.97 55.0881C574.596 54.3132 574.221 53.7788 573.9 53.5116C573.579 53.2177 573.204 53.0307 572.776 52.9505C572.214 52.8436 571.732 52.9238 571.304 53.191C570.876 53.4582 570.635 53.8323 570.528 54.3132C570.474 54.6072 570.474 54.9011 570.528 55.195C570.608 55.4889 570.769 55.8363 571.036 56.2371C571.17 56.4509 571.679 57.012 572.562 57.9205C573.579 59.016 574.248 59.9512 574.542 60.6994C574.863 61.4476 574.943 62.169 574.81 62.8638C574.622 63.8524 574.06 64.6006 573.177 65.1884C572.267 65.7496 571.304 65.9366 570.233 65.7228C569.404 65.5625 568.681 65.1884 568.093 64.6273C567.504 64.0662 567.022 63.2111 566.647 62.0889V62.0087Z" fill="#FFF5D0"/>
<path d="M590.279 55.0358C592.366 55.49 593.972 56.5588 595.069 58.2155C596.166 59.8722 596.514 61.7159 596.059 63.6932C595.631 65.6438 594.56 67.1668 592.874 68.2356C591.188 69.3045 589.342 69.5984 587.362 69.1709C585.354 68.7433 583.775 67.7012 582.678 66.0446C581.581 64.3879 581.206 62.5976 581.608 60.6471C581.875 59.3645 582.437 58.2155 583.321 57.2536C584.204 56.2916 585.247 55.5969 586.478 55.2228C587.709 54.822 588.994 54.7686 590.279 55.0625V55.0358ZM590.064 56.3451C589.048 56.1313 588.031 56.1848 586.987 56.5054C585.97 56.826 585.114 57.3872 584.418 58.1353C583.722 58.9102 583.267 59.8187 583.026 60.9143C582.705 62.5175 582.973 63.9871 583.883 65.3231C584.766 66.6591 586.023 67.4875 587.602 67.8348C588.646 68.0753 589.69 68.0219 590.707 67.7012C591.724 67.3806 592.58 66.8462 593.276 66.098C593.972 65.3231 594.453 64.4146 594.694 63.3458C594.935 62.277 594.881 61.2616 594.56 60.2997C594.239 59.3378 593.677 58.4827 592.874 57.7613C592.072 57.0398 591.135 56.5588 590.091 56.3451H590.064Z" fill="#FFF5D0"/>
</svg>
